<svg viewBox="0 0 990 360" xmlns="http://www.w3.org/2000/svg">
    <style>
        .label {
            text-anchor: end;
            font-family: 'Orkney', sans-serif;
            font-size: 16px;
            font-weight: 700;
        }
        .role {
            font-family: 'Orkney', sans-serif;
            font-size: 16px;
            font-weight: 900;
        }
        @media screen and (min-width: 500px) {
            
        }
    </style>
    <defs>
        <rect id="skill-unselected" fill="white" stroke="#D4D4D4" width="50" height="20"/>
        <g id="skill-selected" fill-rule="evenodd" fill="none">
            <rect x="0" y="0" width="50" height="20" fill="#222"/>
        </g>
        <g id="none">
            <use href="#skill-unselected"/>
            <use href="#skill-unselected" y="30"/>
            <use href="#skill-unselected" y="60"/>
        </g>
        <g id="low">
            <use href="#skill-unselected"/>
            <use href="#skill-unselected" y="30"/>
            <use href="#skill-selected" y="60"/>
        </g>
        <g id="medium">
            <use href="#skill-unselected"/>
            <use href="#skill-selected" y="30"/>
            <use href="#skill-selected" y="60"/>
        </g>
        <g id="high">
            <use href="#skill-selected"/>
            <use href="#skill-selected" y="30"/>
            <use href="#skill-selected" y="60"/>
        </g>
    </defs>
    <g>
        <text x="250" y="54" class="role">UX Researcher</text>
        <rect x="30" y="30" width="540" height="38" stroke="#D4D4D4" fill="none"/>    
    </g>
    <g>
        <text x="728" y="70" class="role">UI Designer</text>
        <rect width="450" height="38" stroke="#D4D4D4" fill="none" x="510" y="46"/>    
    </g>
    <g transform="translate(30,100)">
        <text x="25" y="100" transform="rotate(-90 25 100)" class="label">User research</text>
        <use href="#high"/>   
    </g>
    <g transform="translate(110,100)">
        <text x="25" y="100" transform="rotate(-90 25 100)" class="label">User modeling</text>
        <use href="#medium"/>   
    </g>
    <g transform="translate(190,100)">
        <text x="25" y="100" transform="rotate(-90 25 100)" class="label">User testing</text>
        <use href="#medium"/>   
    </g>
    <g transform="translate(270,100)">
        <text x="25" y="100" transform="rotate(-90 25 100)" class="label">User analytics</text>
        <use href="#low"/>   
    </g>
    <g transform="translate(350,100)">
        <text x="25" y="100" transform="rotate(-90 25 100)" class="label">Test analysis</text>
        <use href="#medium"/>   
    </g>
    <g transform="translate(430,100)">
        <text x="25" y="100" transform="rotate(-90 25 100)" class="label">Workshop design</text>
        <use href="#high"/>   
    </g>
    <g transform="translate(510,100)">
        <text x="25" y="100" transform="rotate(-90 25 100)" class="label">Wireframing</text>
        <use href="#high"/>   
    </g>
    <g transform="translate(590,100)">
        <text x="25" y="100" transform="rotate(-90 25 100)" class="label">Prototyping</text>
        <use href="#low"/>   
    </g>
    <g transform="translate(670,100)">
        <text x="25" y="100" transform="rotate(-90 25 100)" class="label">UI design</text>
        <use href="#low"/>   
    </g>
    <g transform="translate(750,100)">
        <text x="25" y="100" transform="rotate(-90 25 100)" class="label">Motion design</text>
        <use href="#none"/>   
    </g>
    <g transform="translate(830,100)">
        <text x="25" y="100" transform="rotate(-90 25 100)" class="label">Graphic design</text>
        <use href="#none"/>   
    </g>
    <g transform="translate(910,100)">
        <text x="25" y="100" transform="rotate(-90 25 100)" class="label">HTML/CSS</text>
        <use href="#none"/>   
    </g>
</svg>