<svg xmlns="http://www.w3.org/2000/svg" xmlns:xlink="http://www.w3.org/1999/xlink" width="370" height="173">
  <defs>
    <path id="b" d="M181.1 10.2H184.2c0-.3 1-.3 1 0 0 .2.5.3.6 0 .1 0 1 0 1.3.3l.7-.1.5-.1c0-.1.7.1.8.3.2.3.2.3.2 0s1-.4 1.8 0h1.2l.4.3h.3c.2-.1.6-.1.8 0l.6.3.3.1h.4c.4 0 1.1.3 1.2.4h.7c.6 0 1.2.3 1.3.7.1.2.1.2.1 0 0-.4.3-.4.6-.3l1.4.2h1c0 .3.5.5.6.3.1-.2.6 0 .8.3h.4c.2-.2 1.5.2 1.4.4h.1l.5-.1V13h.3c.2 0 .6.2.5.3l1.4-.1.2.1h.2l.4.1h.2c.1-.2.4 0 .2.1l.2.4.2-.2c0-.4.5-.4.5 0 0 .2 0 .2.4.2.8 0 1.4.1 1.5.3l.6.1.4.2h.5c.5 0 1 .2 1 .4l.3.1c.4 0 1 .3 1.3.6.2.3.5.3.6.3.2-.2.6-.2.7 0l.4.3.4.1.3.1.4.1h.3c.1 0 .3 0 .1.3 0 .2 0 .2.2 0H219.2l.4.3.3.1.8.5c.2 0 .7.2.7.5l.4.2.4.1.4.1.3.1c0 .3 0 .3.1.2h.4l.5.2c.2 0 .4.2.5.3l.4.2h.1c0 .2.1.3.3.3l.4.1c-.1.1 0 .1.2.1.3 0 .4 0 .3.1l.2.2h.3l.4.3.4.2.5.4.8.4.4.2.6.2.5.3.5.2c.1.2.8.6 1.5 1 .5.2.8.6 1 .8v.2c.3 0 1 .3 1 .4l.3.2c.3 0 .5.2.5.4h.1l.2.2.3.2v.1l.6.5v.1l.3.1.8.6.7.6c.1 0 .5.3.4.4l.2.2c.1 0 .5 0 .8.5l.8.6.5.4.4.3c.4 0 .9.5.9.7l.2.2.3.3.3.2v.1l1.1 1 .3.2v.2l.2.4.1.2c.2 0 .7.3 1 .7l.3.2.1.2.1.2.5.2c.2.2.2.3.1.3l.1.3.1.2c1.3 1.2 2.5 2.4 3.6 3.7l.6.6.4.4c0 .3.3.5.5.5.3.1.3.1.3.3v.3h.2l.1.2.1.1.4.5.2.4.3.3s.3.2.3.4l.2.5c.1 0 .7.7.7 1 0 .2.1.3.4.3l.2.2.4.3.2.4.1.2.1.1c-.1.3 0 .3.1.2l.2.2c0 .2 0 .2.2.3.3.3.3.3.3.6v.2c.3 0 1 .7 1 1 0 .2 0 .3.2.3.3.1.7.8.6 1.4.3-.2.4-.2.4.1 0 .4.3.7.7 1.3.5.3.5.5.5.8v.2c.2 0 .7.4.7.5l.1.2.1.3c0 .2.3.6.6.9l.2.3.4.7.3.7.3.6c.2.2.2.5.2.6l.3.4.3.4.2.3c.5 1.5 1.2 3 2.1 4.3l1 1.5.7 1.5 1.9 3.7c1 2 1.9 4.2 2.4 6.4l.5 1.8.2 1.4.2.3v.5l.2.5.2.7.1.7.1 1.1c0 1.3.2 1.7.4 2.4l.3 1.4.3 1.5c0 1.5.1 3 .3 4.4v2.1c-.2 0-.2.1 0 .2v.6c0 .2-.2.6 0 .7l-.2.3-.2.9-.2 1.2-.2 1.5c0 .7-.1 1.2-.2 1.3-.1.1-.3.3-.1.6v.6l-.2.9c0 .7 0 1-.2 1.1l-.2.5c-.1.6-.2 1.6-.5 2l-.1.5-.1.5-.1.1-.4 1.8v.5c-.2 0-.3 0-.3.3l-.1.5-.3 1-.3 1.1-.3 1-.2.9-.5 1.5-.3 1v.4l-.1.3-.1.2v.3l-.4 1-1 2.2-.1.5-.3.7-.4 1-.2.6-.2.3v.3c.2 0 .2 0 0 0l-.2.4-.1.5-.3.4-.3.9-.4.6v.5l-.3.2-.2.5-.4.7c-.2 1-.3 1.4-.6 1.6l-.2.5-.1.3-.1.1-.2.4-.2.3-.1.6-.5 1-.3.7-.2.3s0 .3-.3.4l-.2.6-.2.6-.3.6v.2l-.3.3v.3l-.3.4-.4 1c-.7 1-.7 1.1-.7 1.4l-.2.2-.2.2-.2.4-.2.3-.1.2-.2.3-.2.5-.8 1.7h-.2c0 .2 0 .3-.3.4l-.2.5c0 .1 0 .2-.2.3l-.4.6a28.7 28.7 0 0 1-2.3 3.1l-.3.5-.2.1-.2.1-.2.4c-.5.2-1.2 1-1.2 1.1h-.1l-.2.4c0 .2-.3.4-.4.6-.2 0-.2.2-.2.4 0 .1 0 .3-.3.4-.3 0-.8.5-.6.7l-1 1-1.1 1-.2.3v.3h-.2l-.4.4-.5.4-.2.3c0 .2-.6.7-.7.5 0-.2 0 0-.2 0 0 .3 0 .4-.2.5-.2.1-.3.3-.7 1l-.3.5-.3.3v.3c-.2 0-.8.7-.9.9-.1.2-.1.3-.3.3-.2 0-.3 0-.2.2 0 0-.4.7-.7.7l-.3.3-.4.2-1.2 1.5-1 .8-.9.5-.1.1-.1.3h-.3v.2l-.4.1-.2.1c-.3-.1-.7-.1-.7.1 0 .3-.5.6-.6.5l-.4.2-.4.5-.8.5-.6.4-.1.1c0 .1 0 .3-.3.3h-.2c0 .2 0 .3-.1.2l-.1.1v.4h-.3c-.2-.2-.4.2-.3.4v.1l-.4.1c-.2.3-.4.4-.7.3l-.4.1h-.1v.2c0 .1-.9 1-1 .8l-1 .5-.3.2-.4.3-.6.3-.2.1-.1.3c-.7 0-1.4 1.5-1.3 2.5.2 1.5.3 2 .3 3.3l.1 1.4v3l-.2 2.2c-.1 0-.2 1.2-.2 4.5 0 3.9 0 3.7 1 3.4l.4-.2.3-.2h.2l.2-.2.4-.1h.3c-.2-.1.2-.3.4-.3h.3l.3-.2H230.1l.3-.2c0-.2 0-.2.2-.2l.4-.1.4-.2.1-.2v-.1l.1.1h.3l.2-.1.1-.1.5-.1.6-.3.4-.2h.3l-.2-.1.3-.1.4-.1.4-.3c.2 0 .8-.3 1-.6h.4c0 .2.2.2.2 0 0-.4.6-.8 1-.6v-.2h.2l.3-.3.4-.1h.2c.3-.6 1.9.4 2.2 1.4.1.3.1.4.5.8v.2l.2.2.2.6c0 .4.3.8.5 1l.1.4c-.1.1.5 1.5.7 1.7.1.2 0 .3-.1.2h-.2v.2l.4 1 .1.5.2.4v.6l.3.5v.3l.2.8.4.7-.1.7a28 28 0 0 1 .9 8.2l.1 2.1v.1c-.1-.3-.2 0-.2.6v.8l-.1 1c-.1 2.1-.4 4.2-.7 6.2l-.2.7v.4l-.2.3-.1.3c0 .7-.5 2-.6 1.8h-.3l-.1.2v1.1h-.5c-.7 0-.6.3.5 1.2l.8 1v.1l.3.3.6.6.5.7s0 .2.2 0l.1.2.2.2.5.7.7 1 .5.5.7 1 .5 1 .5.6.7.8.4.5c.2.3.2.4.2.7-.1.1 0 .3.1.3.2 0 1 .5 1.2 1.1l.3.5.1.2v.1l.1.1.4.6.2.5.4.8.6 1c.5.4.5.6.5.7l.1.3c.3 0 .7.8 1 1.2l.3.5V246.6l.1.3.4.4.2.4.3.3v.1c0 .2 0 .3.3.4l.1.5.2.4.2.5c0 .4.2.7.5.8.3 0 .3.1.3.2s0 .4.2.5l.1.3v.1l.1.3.3.2-.1.1c-.2.1-.2.1 0 .2l.2.3.2.3.5.7.5 1 .3 1.1.2.2s.1 0 0 0l.3.7.4 1 .5.6.1.5.4.5.2.4.1.5.2.6.4.9c.7 1.4.7 1.6.7 2 0 .4.1.5.2.4.1 0 .4.4.5 1l.4.9.3.7.2.2v.8l.4.6c0 .2 0 .6.3.7.1 0 .2.3.1.6 0 .4.3 1 .4 1.1v.7l.2.8.1.5v.2l.1.5.3.8c.2.2.2.6.2.8l.1.3.1.3v.2c.1 0 .3.1.1.2l.2.6.2.7.2.5v.2l.1.7.3 1.5.4 3.5s0 .2 0 0v.3c.5 3.7.7 7.5.5 11.2l-.1-.1h-.5c-.2.2-.4.2-.7.2-.3 0-.4 0-.3.1l-.7-.3-.3-.1-.3-.3-.3-.3-1 .2-1 .4-1.2-.1h-2.2l-1-.2-.8.2H256c-.1.3-2.7.2-2.7 0 .2-.3 0-.3 0 0-.3.2-.4.3-.7.2l-.3.1c-.1.1-.6.1-.8-.1h-.3l-.5.1h-.5c0 .2-.2.2-.3 0l-.5-.1-.8.1-.6.1h-1.4c-.5-.2-.6-.2-.7 0h-.1c-.2-.2-.8-.2-.8 0h-.5c-.5-.3-.6-.3-.8 0H239.9l-1-.2-.3.1h-3.4s0 .1 0 0l-.2.1-.5.1-.4.2h-1l-1.1-.2-.7.2c-.3 0-1.5.2-1.6 0h-1l-1 .2h-1.5l-1-.1h-.3c0-.1-.1-.1-.1 0-.1.2-.7 0-.7 0 0-.3-.4-.3-.7 0h-.7l-.2-.1c-2.6.2-5.2.2-7.8 0-.3-.3-.6-.2-.5.2h-.1l-.6-.1-2-.1c-.2-.2-1.2-.3-1.3 0h-.4l-.3-.2c-.4.4-3.3.6-3.6.3-.2-.3-.7-.3-.9 0h-2.5l-.5-.1h-4.7l-.8.2-.9.1h-.2l-.5-.1-.6-.1h-1.4l-.5.2-.4-.1h-2.2l-1.7.1-.5.1h-1c-1.2 0-1.4 0-1.7-.4-.2-.3-.2-.3-.2 0l-.9.2h-.7c-.1-.2-.3-.1-.5.1s-.2.2-.8 0c-.4-.1-.7-.1-.3.1l-.6.1c-2 0-4.2 0-6.3-.2 0-.2 0-.2-.3 0l-.5.1-.3.1h-.3c-.2-.2-.4-.2-.3.2 0 0 0 .2-.1 0h-.9c-.3-.3-1-.4-1-.2s-1 .2-1 0c0-.3-.3-.3-.4 0h-.2l-.2.2c-.2 0-.6 0-.6-.2h-.5v-.2l-.1.2c0 .3-.1.3-.6.3h-.8c0-.3-.3-.3-.5-.1 0 0 0 .2-.3 0l-.2.2c-.1.1-.1.2-.3.1h-.4l-.4-.1h-.3l-1.9-.1h-.4c-.2.3-2.5.3-2.6 0l-.2.2c-.4.2-2.6.3-2.5.1v-.1l-.2.2-.2.3h-.4c-.1 0-.2 0-.3-.2-.1 0-1.4 0-1.7.2h-2.3c0-.3-1-.2-1 0 0 .3-.1.3-.3.2 0-.1-.8-.1-1.2.1-.4.1-.6.2-1 .1h-.5v-.2l-.3.1h-.8c0 .2-1.5.2-1.5.1H141.7l-.3.1-.3.2h-.6l-.7-.2c-1 0-2 .3-2 .4v.2l-.3-.1c0-.2-.4-.2-1.4-.1h-.8l-1.2-.1H132.7l-3 .3c-.1.1-1.7 0-2.4-.2l-1-.1c-.8 0-1.5-.3-1.8-.6l-.4-.1s-.2 0-.3-.3l-.1-.2v-.6l.1-.5c.2-.2.2-.4 0-.6-.2-.3-.2-1-.1-3l-.1-1.5v-.5c.2-.2.3-1.1 0-1l.2-.1.1-.2v-1.8c-.1-.1-.2-.2-.1-.5l.1-.8.1-1 .1-.8c.2 0 .3-.5.3-1v-1l.2-.3v-.3c.2-1.6.6-3.2 1.2-4.7v-.4l.3-.5.3-1 .2-.4.1-.3.1-.4.1-.7.3-.5.7-2.2.2-.4.2-.5.7-1.3.1-.4.2-.4V267l.2-.1.1-.3c-.1-.2 0-.3.1-.4l.1-.3c0-.2.3-1 .5-1l.1-.2.1-.4.3-.4.4-1.4c.3-.4.4-.5.4-.3h.2v-.3l.1-.2.3-.3v-.2l.3-.3.2-.5.3-.5c.2 0 .2-.3.2-.4l.1-.4c.2 0 .2-.2.2-.3l.5-1 .4-.8v-.2c.2-.1.3-.3.2-.6l.3-.3.3-.4.3-.4.3-.4c-.2 0 0 0 0 0 .2 0 .3 0 .2-.2l.1-.2.1-.1.5-.9.1-.2.5-.6v-.4l.3-.1.2-.3.3-.3c0-.3 0-.6.3-.8l.4-.6.3-.4.3-.2v-.4h.2c.1 0 .2 0 .2-.4l.4-.5v-.2l.4-.5.6-.6.4-.4v-.2l.4-.6.4-.6c-.1 0 0 0 0 0 .2 0 .4-.4.5-.7l.4-.4.3-.6.3-.2.3-.5.4-.1c.2 0 .2 0 0-.1v-.3l.2-.3.4-.5.3-.4.4-.4.2-.3.2-.3c.2 0 .2-.2.2-.3l.3-.2.2-.3c0-.2.5-.6.8-.7l.3-.2c0-.3.5-.8.8-1 .2 0 .4 0 .3-.2l.1-.2.4-.3c0-.1.6-.8.7-.7h.2l-.1-.1.1-.3.4-.2v-.1l.2-.2.3-.2c.3 0 .3 0 .3-.2v-.2l.3-.1.3-.2h.2c.1 0 .2 0 .3-.4 0-.4.1-.5.4-.5l.1-.1c-.1-.1.3-.5.6-.5-.1-.2.3-.8.4-.8v-.2l.2-.1c0 .1.2 0 .2-.2l.1-1 .2-.4v-.5c.2 0 .3-.3.4-1.3l.1-.8-.2-2-.1-.4-.2-.6V224l-.2-.1-.5-1v-.4c0-.3-.4-1.3-.7-1.3v-.2l-.2-.3-.1-.3-.2-.7-.6-.8-.2-.2-.2-.3-.3-.7c-.4-.3-.6-.5-.6-.8l-.2-.2-.7-.7-.7-.6c0 .1 0 0 0 0l-.1-.1-.4-.2c0-.3-.1-.3-.2-.1l-.5-.3c-.4-.3-1.5-.7-1.8-.6l-1.8-.3c-1.3-.2-2.4-.2-3.7-.1-.7.1-.8 0-1-.1 0-.3-.6-.1-.8 0h-1l-1.3.2h-.5l-.6.1h-1l-.6.1h-3.9l-.7-.2-.5-.1-.2-.1-.5-.1-.5-.3c-.1.1-.2 0-.2 0l-.4-.2-.3-.1-.2-.1-.2-.3h-.4c-.3 0-.4-.2-.3-.3l-.2-.1c-.1 0-.2 0-.4-.3v-.2c0 .2-.3.2-.3 0l-.2-.2-.4-.3h-.1l-.4-.3-.3-.2-.4-.4-.3-.4a40 40 0 0 0-.8-1.3l-.2-.7-.2-.2.2-3.2v-.9l.2-1 .2-1.2c-.2-2.5-.2-5 0-7.6.3-1.7.1-5.1-.1-5.3l-.1-.7v-.8l-.2-1-.3-1v-.7l-.2-.6-.2-.4-.2-.4v-.3s-.3-.7-.4-1.9l-.1-.7-.3-.9c0-.5 0-.7-.2-.7V177l-.2-.2-.1-.6c-.1-1.8-.4-3.7-.7-5.5l-.2-1.4v-.5l-.3-.3c0-.2 0-.2-.5.1l-.7.1-.3.1h-.4c-.2 0-.4 0-.5.3h-1c-.6 0-.9.2-.9.3h-.6l-.7.1c-.2.2-.7.3-1.1.2h-1l-.4.2h-1.2a42 42 0 0 0-6.2-1.2c-.4 0-.8-.2-1-.4-.3-.4-.5-.4-.3-.2 0 .3-.3.3-.5 0h-.4l-.5-.2-.6-.2-.4-.1-.7-.3-.2-.2c0-.1-.6-.8-.7-.7-.1.1-1.4-1.1-1.3-1.3l-.3-.4c-.2-.3-.5-.5-.5-.7v-.2l-.2-.3h-.1c-.3 0-.4-.6-.4-1.2a9 9 0 0 1 .3-4V155.7c.3-1 .4-2 .5-3 0-.5.3-1 .5-1 .2-.2.2-.2 0-.2s-.1-.4.1-.8v-.6l.1-.8.2-.3v-.6l.3-.7h.2c.3 0 .3-.2 0-.4v-.2l.1-.2.3-.6.2-.8.2-1v-.4l.2-.3v-.5l.2-.3.5-.8c0-.4.2-.7.5-1l.5-.8.1-.3v-.2l.1-.4c.3 0 .3-.2.3-.3v-.3l.2-.3.1-.2.4-.6.2-.6.1-.2.5-1 .3-.9.3-.4c.2-.2.2-.4.2-.5l.1-.2.1-.3.1-.2c.2 0 .3-.1.7-1.3l.5-.7.1-.2.4-.6c.3-.3.8-1.2.8-1.5l.3-.7.4-.8.2-.3c.2 0 .4-.1.4-.7l.2-.2.2-.4c-.1-.5.2-1.1.5-1.3l.1-.2v-.2l.1-.5c.1-.4.2-1 .5-1l.2-.5.2-.7v-.3l.3-.6v-.5c0-.2.2-.3.4-.3.4-.1.5-.4.3-.5-.3 0-.1-1.4.2-1.4v-.2l.2-.3.1-.6a54.2 54.2 0 0 0 1.4-12.6c0-2 0-3.9.2-5.8l-.2-11.2.2-.8v-.4c-.2 0-.3 0-.2-.3v-.4c-.2-.5 0-2 .3-1.8l-.1-.2v-2.3l-.2-.5c.2-1.5.2-3 .2-4.6 0-1.2 0-1.4.3-1.4l.1-1.6.1-1.7h.2c-.3-.2 0-1.6 0-2l.3-1.3.2-1.3.3-.9.2-1 .1-.3c-.2-.2 0-1.6.4-1.6v-.6c0-.2.2-.5 0-.8 0-.6.3-1.1.4-1.3l.1-.2.2-.6v-.9l.3-.2v-.2c0-.3.1-.4.2-.4l.2-.3V57l.2-.2.1-.4.1-.6.1-.5c.4-.3.5-1 .5-1.3l.2-.5c.3 0 .3-.2.3-.4l.3-.6.2-.6c0-.2.2-.5.4-.6.2 0 .2-.2.2-.5v-.5l.1-.2.4-.6.2-.8c0-.4.5-.7.7-.7l.1-.2c0-.4.4-1 .6-1.2l.2-.2.2-.2v-.2c0-.3.5-1 .5-.8l.3.2v-.2c0-.1.4-1 .7-1.1v-.4c0-.2 0-.5.2-.3.1 0 .7-.6.8-.9 0-.2.2-.4.5-.6l.2-.5 1-.6.2-.1.2-.1c.6 0 1.5-.7 1.5-1l.2-.3c1.7-2 3.5-3.7 5.5-5.3l.6-.7.2-.2c.1 0 1-.7 1.4-1.2.1-.2.4-.3.4-.2l.3-.2 1-.9.4-.2.3-.2.5-.5 1-.6.8-.5a2 2 0 0 1 1.1-.7c.1 0 1-.7 1-1h.3l.6-.2.3-.2.2-.2.4-.3.3-.3.4-.3h.2c0-.3.5-.6.6-.4.1.1.1 0 .1-.1l.4-.4h.2c0-.2 1-1.1 1-1.1l.4-.3.5-.2v-.1l.5-.1.4-.1c0-.2.8-1 1-1l.6-.4.7-.4.6-.4 1-.8.3-.3.2-.1c.2.1 1-.3 1-.5l.3-.2.6-.2.4-.3.5-.2.6-.2v-.1c.2-.3.2-.3.4-.3h.3l.8-.4.4-.3.5-.2c.4 0 1-.3 1.5-.7l.7-.2.6-.2.3-.2h.3l.4-.3.7-.4.6-.2.7-.3 1-.3.7-.2c.2-.2.4-.2.6-.2l.4-.1.4-.2h.6c.1-.3.4-.3.7-.3.4 0 .5-.1.6-.2l.1-.1.6-.2h.8l.7-.3c.5 0 .6 0 .8-.2.1-.3.2-.3.4-.3l.3.1h1.2l.8-.2h1v-.1c0-.2.1-.2.3-.2l.3-.1.2-.2v.3s.2.2.4 0l-.1-.1v-.2h.4l.9-.2 2.7-.2zm1.8 2.7c0-.2-.1-.2-.3.2 0 .3-1.2.4-1.2 0l-.3-.2c-.3 0-.3.2 0 .4.2.1.2.2-.2.1l-.8.1-1 .1-1.1.3H177.1c0 .3-.8.3-1 0h-.2l-.1.2-.2.1-.3.1h-.3c0 .3-1.8.5-1.9.4v-.3c.3 0 .3 0 0 0-.2 0-.2 0-.2.2.1.2 0 .3-.1.3l-.3.1-.2.1-.2.2h-.4l-.3-.2h-.2l-.4.2h-.2l-.4.2-.6.1-.4.1h-.3c-.2-.2-.2-.2 0 0 0 .1 0 .3-.3.3h-.2l-.3.2-.2.1-.2.1-.5.1h-.8l-.2.1c-.2.3-.7.7-1 .7l-.7.3h-.5l-.2.3v.1c-.2-.2-.3 0-.4 0l-.4.3H162.7l-.3.2c0 .1-.3.2-.4 0l-.1.1c-.1.4-.5.6-.5.5-.1-.1-.7 0-.7.2l-.1.1h-.2l-.5.4c-.6 0-1.4.5-1.5.7h-.5s-1 .8-1.3.8h-.2l-.2.2c-.3 0-.7.1-.8.5l-.4.2-.4.2-.3.1-.3.3c-.5.3-.6.4-.7.3v.1l-.3.1h-.2c0 .2-.1.4-.4.5l-.4.5h-.2l-1.8 1.2-.2.2-.2.2-.4.2-.6.3-.4.4c-.3 0-.4.1-.4.2 0 .2 0 .3-.2.3h-.2l-.2.2-.2.1c0 .3-1 1-1.3 1l-.2.3-1.2.8-.7.4-.8.5-.4.4h-.3c0 .2 0 .3-.3.2l-.2.1-.2.1-.3.4-.4.2c-.2 0-.7.4-.8.6l-.3.2-.2.1h-.2l-.3.3-.4.3-.3.3c0 .2-.4.4-.6.3l-.2.2c0 .1-.1.3-.3.1 0 0-.2 0 0 .2l-.2.2-.3.3-.3.3-.7.7-.2.2c-.1 0-.6.3-1 .8s-.7.7-.9.6l-.2.1-.2.5-.4.3v.1c-.2 0-.7.4-.7.5v.1l-.2.1-.1.1c-.1 0-.2 0-.1.3l-.4.4-.6.5c0 .2-.2.3-.3.3l-.4.3c0 .2 0 .3-.2.3l-.2.2-1.3 1.3c-.8.7-1.6 1.5-1.7 1.9l-.3.2v.1l-.2.1-.2.1v.4l-.4.4-.3.7-.4.7-.2.3-.1.2-.1.2-.4.5-.2.5-.4.4v.4l-.4.7-.4.5c-.1 0-.2.1-.2.4.1.1-.4.8-.5.8a6 6 0 0 1-.6 1.7l-.8 1.9-.3.8-.1.3-.1.4v.4l-.2.3v.3l-.2.4-.1.3v.2l-.2.6-.2.5c-.2 0-.5 1.1-.4 1.3-.3 1-.6 2-.7 3l-.4 2-.2 1.3-.2.8v.5l-.3 2v.8l-.2.6-.2 2-.3.7.2.1c0 .1 0 .3-.2.1-.2 0-.2 0-.2 1v6.3h-.1c-.4-.1-.5 1-.4 3.4v2.2c0 .3 0 .4.3.5.2.2.2.5 0 .5-.1 0-.3 0-.1.2v.3c-.3 0-.4.8-.3.9l.1 1.5.3 1.4-.1.6v1c0 .8.2 1 .4 1 .3 0 .3 0 .1 1 0 1.5 0 1.6-.4 1.6-.3 0-.3.1 0 .6v9.5l.2.9-.2 1.7-.1 1.4-.4.6-.1-.3c0-.4-.2-.2-.2.3l-.2.8v.9l-.4.6-.1.3V118.2l-.3.7v.7l-.2.5v.3c-.2 0-.5.8-.5 1.2v.2l-.2.4-.3 1.1-.5 1-.1.5-.3.4-.3.9-.5.8v.1l-.2.3-.1.5-.8 1.5c-.1.4-.3.6-.5.6l-.2.2c-.1 0 0 .2 0 0 .2 0 .2.4 0 .7l-.4.5v.2l-.4 1-.5.8-.1.2-.3.5-.3.4-.2.2-.3.5-.3.5-.2.8-.4.7c0 .2-.2.7-.3.6h-.2c.2.3-.3 1.1-.4 1v.1l-.1.4-.5.8-.5.7-.3.5c-.2.2-.4.4-.2.5 0 .1 0 .2-.3.2l-.1.3v.2c-.1-.2-.6.2-.6.5v.3l-.2.5-.1.5-.1.4-.3.4-.3.9v.7c0 .8-.4 2.3-.4 1.6l-.2-.3c-.1 0-.5.6-.2.7l-.1.6-.2.5v.3l-.2.4.2.4v.1l-.3.7-.4 1-.2.7-.2 1-.1 1.3a58.2 58.2 0 0 0-.5 5l.1.6.1.4.1.4c0 .4.5 1 .9 1v.3h.2c.2 0 .2 0 .2.2v.5h.5l.2-.1.1.1c-.2.2 0 .3.3.2v.1l1.4.6.4.1h.5l.4.2c.2.2.2.2.4 0h.1c0 .3.1.3.4.2l.8.1.7.1.3.1c.1.2.1.3.3.2l.2-.2.1.3h.7l.5.2.2.1c0 .1.5.1.6-.1v.1c.3.2 3.2.4 3.5.1h.5l.3-.2h.3l1-.1 1-.1.3-.1h.4l.2-.2h.5l1-.3.5-.1h.5c.2-.7 1.2 0 1.7 1l.6 1c.3.6.6 2 .2 2.3v.4l.2.7.2.7c.2.2.3 1.2.4 2l.3.8v1.1l.3 1 .1 1.3c.2.6.5 1.9.6 3.2.2 1.6.3 1.7.5 1.8v.5l.3.9c.4.6.5 1.4.5 2l.2.4v.5l.1.4c.1.2.3.6.3 1.7v2.2c-.3.5-.3.9-.2 1l.2.8v.8c.3.1.2 1.4 0 2.1v3.2c-.2 1.3 0 2.3 0 2.7.2.6.2.7 0 1.3l-.3 1v.6c-.2 0-.3 1.8-.2 2.3l.1.2.1.3.1.2.2.2v.1c0 .2.2.4.4.4l.3.4c0 .3.2.6.2.4 0-.2.2-.1.3.1l.3.2c.2 0 .4.3.4.4l.5.1.3.2.5.1.5.2s.2.2.7.2c.4 0 .8.2.8.3h4.5l1-.2.4-.1.8.1.6.1h.2l.8-.2.7.1v.1h.3l1.7-.3c1.5 0 1.9 0 2-.3h.6l.8.2h.9c-.1.3.1.3.2.2.1-.2.6-.2.7 0h.3l.3.1.4.1.2.1.3.2c.3 0 1.4.4 1.5.7h.3l.8.5.7.5.3.2.4.4.4.3.6.5.5.8.6.7.3.6h.1l.2.3.2.2.1.3c-.1 0 .1.4.5.8v.2l.3.5c.2.2.4.3.2.4v.3l.3.4v.5c.2 0 .4.6.4 1 0 0 0 .1.2 0v.4c0 .2 0 .3.2.4l.2.4.1.2c.3.2.6 1.4.4 1.5v.1l.1.7.2.7c.2 0 .3 1.6 0 1.8l-.3 2.7-.1.5-.1.5c0 .2 0 .3-.2.2 0 0-.3.4-.3 1 0 .1-.5.8-.7.8-.2 0-.6.4-.5.6v.2c-.4 0-.6 0-.8.5l-.4.7-.6.5c-.1 0-.3.2-.4 0l-.2.3c0 .1-.1.2-.4.2h-.2c.2.2-.1.5-.3.5l-.2.1c.2.1-.3 1-.5 1h-.1l-.4.6-.3.5c0 .1 0 .2-.2.1s-.8.2-.9.8c0 .1-.1.3-.2.1-.4 0-.8.4-.8.7l-.3.4-.4.4-.3.4-.2.1s0 .2-.2.3l-.3.3c.2 0 0 0 0 0l-.4.4c0 .2 0 .4-.3.4l-.2.6c0 .4-.1 1-.5 1.2l-.2.4v.2l-.2.1-.4.4-.2.3-.2.1-.5.6c-.3.4-.6.7-.6 1h-.2v.2l-.5.7c-.9 1-1.1 1.2-1.1 1.5 0 .2 0 .2-.1 0 0-.1-.2 0-.2.2v.1l-.2.2-.2.5-.4.5-.2.2c-.1 0-.2 0-.1.2 0 .3 0 .4-.1.3l-.4.3-.6 1-.5.6h-.3c-.2 0-.2.1-.2.3l-.2.5-.3.5-.2.5c-.2 0-.2.2-.2.3l-.2.1V257.5c0 .3-.3 1-.7 1.3v.3l-.2.3-.3.4-.3.4c-.3 0-.3 0-.2.2.2 0 .2.1.1.2-.1 0-.2.1-.2.4l-.1.2-.5.7-.2.5-.6 1.3c0 .3-.1.3-.2.3 0 .3-.3 1-.5 1l-.6 1c-.3.2-.4.4-.3.6 0 .4 0 .7-.3.6-.2 0-.3.2-.3.5l-.1.4-.4.7-.2.7c-.1.3-.2.5-.1.8a51.2 51.2 0 0 0-4.2 20l-.1 1.2v.1l.1.3v.7c-.1.3-.1.8.1 1.2.2.2 0 .7-.2.7h-.3c.2.3.4.4 1.9.4h4.2c.1.2.7.3.6 0h.7l.5-.2.6.1c0 .1 0 .1 0 0h.3l2.5-.2 2.4-.1.7-.1h.6l.6-.1.5-.2H146v-.2h.2l.6.2 3.1-.2 1.6-.1 1.7-.1h.7l.2-.1h2.3l.6-.2h2l1.2-.2 1.7-.1.5.1c.3.2.4.2.3 0-.1-.2 2-.4 2.4-.1.4.2.6.2.5 0l.8-.1.8.1h.6l.6-.1h1.5c1.4-.2 3-.2 4.4 0 0 .1.3.1.5-.1h3.8l.6-.1.7-.2.7.2.3-.2h.8v.2h.2l.5-.2h1.4c.1 0 1-.2 1 0H186.6c.4 0 1.5-.2 1.6 0 .2 0 1.7 0 2-.2h2.4l2.2.1h.2l1.2-.2 1.2-.1H198.2c1.9-.2 3.8-.3 5.7-.1h1.7c1.4-.2 2.8-.2 4.2 0h1.7l.2-.2c.2.4.5.4.8.3l1.3-.1 1.3-.2.4.2H218.3c0 .2.6.3.6 0h2c.3-.2.5-.2.7 0l.3.2.3-.1h1.5l.7-.1.3-.2.4.2h4.9c.8-.2 1.6-.3 2.4-.2h.4c.1-.3.3-.3 1.3-.3l1.4-.1.2.1.3.2v-.2c-.2-.2.3-.1.5.1.1.1.2.1.2-.1l.7-.1 1.3.1h2.4l1.7.1.2-.1 1.3.1h.6l.7.1h.4l.3.1.3-.3c.2-.1.2-.1.4.2 0 .3.6.5.5.1l.4-.3h.3l.3.1.2-.1h.7l1-.1.4.2c.2.2.4.2.4 0 0-.1.5-.3.5-.1.1.1 1 .2 1 0h1.6l.2.1v-.1c.1-.2.2-.2.7-.2h4c.2-.3.9-.3 1.4 0h2.3v-.1h.9l.8-.2h1c.9 0 1-.2 1-.8l-.5-5.5-.1-1.5-.1-.4c-.1.1-.3 0-.1 0v-.8l-.2-1.1v-1a18 18 0 0 1-.4-2l-.1-.2-.2-.3-.3-1c-.1-.2-.5-1.2-.5-1.8v-.4c-.2-.2-.4-1-.4-1.5v-.3h-.2l-.3-1.5c-.2-.2-.3-.6-.3-.8l-.3-.3-.1-.5-.1-.6-.2-.5-.5-1.2-.6-1.2-.6-1.3-.4-1-.3-.7-.3-.7c0-.3-.2-.7-.4-.9v-.2l-.3-.5-.4-.4v-.4c-.2-.1-.3-.2-.2-.3 0-.3 0-.4-.2-.4h-.1l-.2-.3c0-.1-.2-.4 0-.5l-.2-.2-.1-.4-.1-.3c-.1-.1-.3-.4-.1-.6l-.2-.2-.3-.6-.3-.6-.2-.3-.2-.5-.3-.7-.6-.9-.3-.5v-.3l-.7-.8-.4-.8-.1-.3v-.3l-.6-1.2-.1-.2-.5-.7-.7-1.3-.6-.8-.2-.3-.4-.6-.2-.5-.3-.4-.3-.5v-.1l-.2-.5-1.4-2-.1-.3-1-1.1-.3-.7-.3-.7-1-1.2-.3-.3-.2-.4-.5-.7c-.1.2-.1 0-.1 0l-.1-.2v-.1l-.2-.2-.5-.7-1-1.3-.8-1-.3-.3-.4-.4-.3-.6c-1.2-1-1.5-1.6-1.6-2l-.3-.3c-.2-.1 0-.8.3-1l.2-.2h.1c.5 0 .7-.3.5-.6v-.8l.3-.8.4-1.2v-.6l.4-2.4.4-2v-1.2c.4-1.7.5-3.5.4-5.3l.2-2.5-.2-.3v-2c-.2-.2-.3-.6-.4-2.2l-.1-1.2-.2-.7v-.7l-.3-.7-.1-.6-.1-.2-.1-.1v-.1l-.3-1.7-.3-.9-.1-.5-.3-.6v-.8l-.6-1.2c0-.3-.5-.7-.7-.6h-.4l-.4.4-.4.2-.1.1-.4.3c-.1 0-.2.2-.5 0-.2 0-.2 0 0 .2.2.1.2.2 0 .2-.4 0-1 .3-1 .4l-.2.1-.5.1-.3.1-.2.1c.2.2-.2.2-.5.2h-.3l-.2.2-.6.2-.7.4-.7.2-.3.1-.3.1c0 .1 0 .3-.2.1l-.5.2-.7.2-.3.2v.1l-.6.2h-.5l-.3.2-.6.3h-.3l-.5.3-.6.2-.4.1-.3.1c-.3.5-2.2-.7-2-1.2l-.2-.4-.2-.5v-.5l.2-.5.1-2.2.2-2.2c-.2-3.4-.1-6.8.2-10.2l-.1-.8v-1.4c-.3 0-.5-2.5-.3-2.5v-.2c-.4-.8-.3-2.8.2-3l.5-.1.3-.2.3-.2c.1 0 .4 0 .5-.2l.4-.3h.2v-.2c.2.1.4 0 .5-.1l1-.6.4-.2.5-.2.1-.2c-.1 0 .2-.3.4-.2l.2-.1.3-.1c.2 0 .3-.1.3-.4l.3-.2.1-.1.5-.1.4-.4.3-.2h.1l.1-.1.2-.1.2-.2.2-.2.4-.3.3-.3.2-.2.2-.1c0-.1.7-.6.8-.5l.3-.3.3-.1c0-.2.9-.8 1-.7l.2-.1.3-.3h.2l.5-.3v-.1l.4-.3.6-.4c.1-.3.2-.3.4-.3l.4-.3v-.1l.1-.1.4-.3.4-.3.5-.6h.6l-.1-.1c-.1-.1.3-.7.7-.8.2-.1.2-.3.2-.4l.1-.2.5-.6.6-.8.3-.6h.1c.1.2.3.2.1 0v-.2l.4-.3.5-.5c.2-.1.2-.2.2-.4l.2-.3.3-.2.2-.1.4-.2.4-.3.3-.5c.2 0 .4-.3.4-.5l.3-.3h.2v-.2h.3v-.1l-.2-.1.2-.2h.2c0-.3 1.2-1.3 1.3-1.3l.2-.3.3-.2v-.2c0-.3 0-.3.2-.3.1.1.1 0 .1 0 0-.3 0-.4.4-.8l.6-.7.3-.3.4-.2v-.3c.2 0 .3 0 .4-.2l.5-.2c.1 0 .2 0 .1-.3l.3-.6c.6-.5 1-1.1 1.2-1.5l.2-.3.3-.5.3-.3.1-.1c0-.3.4-.5.6-.5.1.1.1 0 .2-.1v-.8c0-.2.4-.5.5-.5h.1v-.2c-.2.1-.2 0-.2-.1l.3-.3.2-.2c-.2-.1 0-.1 0 0h.2l-.1-.2.2-.5.2-.6.3-.2.2-.4c.1-.5.5-1 .6-1l.1-.3c-.1-.4 0-.4.1-.5.2 0 .2-.1.2-.2l.2-.1v-.3c-.3.2-.2 0 0-.2l.2-.5.3-.5c.4-.3.5-.6.5-.7l.2-.1v-.3l.2-.5.3-.9.2-.4.7-1.4.3-.5c.2 0 .3-.3.3-1.2l.1-.3h.1l.3-.7.4-.4.2-.4h.2l.1-.3c.1-.6.2-1 .5-1.3.2-.1.2-.3.2-.7 0-.3.2-.8.7-1.6l.1-.7.2-.2.2-.3v-.4l.2-.5c-.1-.1.2-.3.3-.3l.2-.5c0-.3 0-.3.2-.3l.1-.4.1-.6.1-.2c0 .1.2.2.3.1v-.2c-.1-.1-.1-.6 0-.8l.2-.5.2-.4.2-.3c.2 0 .3-.2.3-.7-.1-.2.2-1 .4-1v-.7l.2-.5c0-.3.2-.9.4-.9l.2-.5.2-.6v-.4l.1-.7.1-.8.1-.5.3-.6.2-.5.2-.4.2-.3c-.3-.1-.3-.4 0-.5v-.5l.3-.6.2-.8.3-1 .2-.7.2-.5c.3-.3.3-.5.1-.4v-.7l.2-.7s.2-.4.2-1l.2-1.6.3-1.6v-.5l.2-.5c0-.2.1-.3.2-.3.4.1.5-.1.1-.4 0-.2-.2-.3 0-.6v-1.3l.3-1.2v-.9c0-.5 0-.6.2-.6l-.1-.9c0-1-.1-3.1-.4-3.6v-2l-.2-.5v-.6c-.2 0-.3-1-.1-1l-.1-.5-.1-.6-.2-.3v-.3c.2 0 .2-.2 0-.4v-1c0-.2 0-.2-.2-.2-.2.1-.2.1-.1-.1.1-.7-.5-4.2-1-5.9l-.5-1.8c-2.2-5-4.6-9.8-7.2-14.5l-.4-1-.3-.6-.1-.5h-.1v-.2l-.2-.2-.2-.3-.2-.7-.4-.8h-.2c-.1 0-.2-.2-.1-.4 0-.3 0-.3-.2-.4l-.4-.6-.5-.5v-.3l-.5-.7-.6-.6-.1-.2h-.2a3 3 0 0 0-.8-1.2v-.4l-.2-.2-1.2-1.5-.3-.5c-.4-.2-.6-.6-.6-.7l-.3-.4-.3-.3v-.2l-.2-.1v-.1l-.2-.3c0-.2-.1-.2-.3-.2l-.4-.5a129 129 0 0 1-4.9-5.5l-.5-.5-.3-.4-.2-.3-.2-.2s-.8-.7-.8-1l-.3-.1-.3-.3V37.7l-.7-.5-.4-.4c-.2 0-.4-.2-.4-.3l-1.1-1.4-1.3-1.3h-.1v-.2h-.2l-.3-.3-.6-.4-.5-.4-.5-.4-.2-.2c-.3 0-.6-.3-.6-.5l-.3-.2-.2-.1V31l-.4-.3-.5-.3-.1-.1-.1-.1V30l-.6-.4-.5-.2-.6-.5-.5-.5-.6-.4c-.3-.4-.6-.5-.6-.5l-.6-.4-.5-.3c0 .1-.5-.2-.5-.4l-.2-.1v-.2h-.2l-2.2-1.2c-.1-.1-.3-.4-.6-.4-.8-.3-.9-.4-.9-.6h-.1l-1-.4-1.2-.7-.3-.2h-.3c0-.2-.1-.3-.3-.3l-.6-.3-.7-.3-.6-.2-.1-.1c-.1.1-.3 0-.3-.1l-.2-.1-.6-.1-.5-.3-.5-.2-.2-.2-.5-.3h-.6l-.1-.3-.2-.1h-.3l-.2-.1-.3-.2h-.4l-.5-.2-.2-.1-.6-.2-.4-.3H214.7l-.1-.2-.4-.1-.3-.1-.3-.2h-.2c-.2 0-.3 0-.3-.2h-.4l-.2-.1-.3-.1c-.2 0-.3-.1-.3-.2h-.2c-.3 0-1-.3-1-.5l-.2.1h-.1l-.4-.1h-.3l-3.3-.7-2.6-.3h-.7l-.5-.2c-.3 0-.5 0-.5-.2-.3.2-.3.2-.3 0-.1-.2-.2-.2-.4 0h-.3l-1.4-.1c-2-.2-2.8-.5-2.8-.8.1-.3 0-.3 0 0-.2.2-.7.2-.7.1l-.3-.1-1.6-.4h-.5l-1-.3h-.6l-.4-.1-.6-.1-1-.3h-.8l-.3-.2v.1l-2.9-.1h-2.7c-.2.1-.6-.1-.6-.4zm2.2 8.7h3.2c0-.1.2-.1.2.1 0 .1.1.3.3.1l.4.2h1.2l.4.2c.3 0 .4 0 .3.1v.4-.2s.2-.2.8 0h.8c.2 0 .3 0 .2.2l.1.2v-.1c0-.1.6-.3.7-.1h.5l.4-.2.3.2h.5l.6.2h.8l1.1.2.4.1.8.1 1 .2 1-.2c1 0 1.3 0 1.3.5.2-.2 1.6-.1 1.7.1l.5.1c.2 0 .4 0 .6.3 0 0 .2.2.7 0l.4.2.1.1c.2-.2.7 0 .9.3 0 0 0 .2.3 0l.5.2.4.1.5.1.5.1.6.1.3.2h.2l.5.2c.1 0 .5 0 .7.2l.6.3.6.2c.2.1.6.2.7.1l.4.1c0 .1.2.2.3.1a5 5 0 0 1 1.6.7c.2.3.8.4 1 .4h.2l.2.2.4.2c0 .3.3.4.4.3h.1c0 .2.6.5 1.3.8l1.4.8.2.1.6.2.5.4c.5 0 .6.2.6.3l.2.1.1.2h.3l.5.4.5.2.4.3.4.2.3.1.2.3.2.2.4.2.7.5.8.6h.2l.3.2.2.2.1.1c0 .3.1.3.2.2.2-.2 1.2.9 1 1.1h.2c.2 0 .2 0 .2.2l.3.3.4.2.4.2.5.5.5.5c-.2.3-.2.3.2.2l.2.1.2.2c.5 0 1 .5 1.3 1l.2.3c.2-.2.4-.2.6.1l.4.4h.2l.2.3.4.4.5.3.2.2.2.3 1 .6c-.2 0 .5.8.8.8-.1.2 1 1.3 1.1 1.3l.5.5.6.6.8 1 .6.7.6 1 .4.2c.4.3.5.7.5.8l.1.1h.1c0 .3.3.6.4.6l.1.1.2.3.5.5.3.5.2.3.2.4.5.5.3.5.4.5.4.5v.3s0 .2.3.3l.3.7.4.5v.3l.3.4c.2 0 .6.7.6 1l.3.5.3.5v.3l.4.2c.5.6.6 1 .6 1l.1.2c.3 0 .4 0 .3.3v.2c.2 0 .8.6.8.9l.2.3c.3.1.3.3.3.5 0 0 0 .2.2.3.1 0 .3.2.3.5l.4.3v.1l.5.6.3.7.2.5c.3 0 .4.2.4.4l.1.5c.4 0 1 1.3 1 1.6 0 .2 0 .4.2.2l.3.6.5.6.1.2.4.4v.6l.2.4c.2.1.2.2.2.4l.3.3v.2l.2.3c.2 0 1 1.5.8 1.5l.2.2.4.6.7 2v.3c-.1.1.1 1.2.3 1.4l.2.3.2.5.1.7.2.4v.4c0 .3 0 .6.2 1v.7l.2.4.1 1 .1 1 .1.3v.4l.2.4v.5l.2 1.5v1l.1.8.2 1c.3.2.2.9 0 1v1.1l.2.7v.1l-.3 1.3c-.1 2-.2 3.2-.4 3.5l-.3.7v.7l-.1.8-.1.7-.1.4-.1.4-.5 1.5-.1.3c-.1 0-.3.1-.3.4 0 .6-.7 1.7-1 1.8l-.2.3-.2.3c-.2 0-.2.1-.2.2l-.1.3-.2.2-.2.2v.1l-.2.5-.2.4h-.1l-.3.2-.2.3-.4.5c0 .2 0 .3-.2.3l-.7.6-.6.5-.3.2-.4.4a11 11 0 0 1-2.5 2.4l-.2.2v.4l-.3.2v.2l-.4.4-.7.5-.4.4-.1.2c-.2 0-1 .6-1 1l-.7.3-.7.5-.3.2-.6.2-.5.4c-.2 0-.8.4-.8.5 0 .5-.8 1.7-1 1.5l-.2.2c0 .2-.2.2-.7 0l-.7-.2h-.7l-.5-.2h-1.2l-.3-.1-.4-.1c-.3.4-1.3.6-1.5.3l-.4-.2h-.9l-.5.1-1.2-.1-1.2-.1-.4-.2s-.2 0-.2-.2l-.6.2h-.3l-.1-.2-.3.2h-1.5c-.5 0-.7-.2-.7-.3h-2.5c0-.3-.9-.2-1.1 0-.5.3-1.2 0-1.2-.6.1 0-.2 0-.2.3-.1.2-.4.2-.7 0-.2-.1-.7-.3-.7 0 0 0-.7 0-1-.3h-1.1s-1-.4-1.3-.3h-.2l-1-.2-1.2-.3-.4.2c-.2 0-.6-.2-.4-.3h-.5c-.8 0-1.9-.2-1.8-.3l-.2-.1-.5-.2c0-.2-.8-.2-.8 0s-.4 0-.6-.3c0-.3-.2-.3-.7-.1-.3.1-.4.1-.5-.1l-.5-.1-.2-.2h-.5c-.4 0-.7 0-1-.2l-.4-.1c-.1.1-1.5-.2-1.5-.4l.2-.2c0-.2-.5-.1-.6 0-.2.2-.4.2-.4.1 0 0-.5-.3-1-.3h-.8c.1.2-.2 0-.7-.3-.3-.2-.6-.3-.5 0 .2 0 0 0-.3-.2l-.5-.1-.4-.1c-.3-.2-.4-.2-.5-.1h-.2l-.3-.1-.6-.3h-.7l-.4-.2-.6-.1-.2-.1c-.2 0-.4 0-.5-.2-.2-.2-.6-.3-.8-.3-.3 0-.5 0-.6-.2h-.4l-.4-.1h-.2c0-.2-.2-.3-.4-.3-.3.1-1-.2-1.3-.6h-.2c0 .4-.8.2-2-.4h-.3l-.4-.1-.3-.3-.6-.2-.6-.1c-.4 0-1-.4-1-.6l-.3-.1-.2-.1-.7-.1h-.6l-.2-.2h-.4v-.2h-.8l-.5-.1h-1l-.5-.1-.6-.1c0-.3-.3-.3-.7-.4h-.8l-.3-.2c-.4.1-.6.1-.7-.1l-.3-.1-.4-.2h-.5l-.4-.2-.2-.1c0-.2-.3-.2-.5-.1 0 .1-.4.1-.5-.1l-.5-.1h-.6l-.3-.2c-.3.2-.4 0-.2-.3v-.1l-.3.2-.1.2-.4-.2-.2-.1-.4-.2-.4-.2h-.3l-.6-.2-.6-.1-.1-.1c-.2 0-.3 0-.3-.3H172.6l-.3-.2c-.2 0-.6 0-1-.2l-.6-.2-.4-.2-.8-.2h-.7l-.1-.2c-.1-.3-.1-.3-.5-.1-.3.2-.3.2-.5 0 0-.3-.2-.3-.7-.3-.4.1-1 0-.9-.3.1-.2-.1-.2-.2 0h-.3l-.7-.1-.8-.3-1.1-.2c-.5 0-.7-.1-.9-.2l-.4-.3h-1.2l-1.2-.4-.2-.1c-.2 0-.5 0-.7-.2h-.5c0-.3-.2-.3-.3 0 0 0-.1.2-.2 0v-.2l-.2-.1c-.7 0-.9-.1-1-.2h-.8l-.3-.1h-.2l-.5-.3c-.2 0-.4 0-.5-.2l-.3-.1-.2-.1-.7-.2-1-.2-.5-.2h-.2c0-.4-.3-.6-.5-.4h-.5c-.1.2-.2.2-.3 0l-.3-.2-.2-.1h-.2l-.7-.1c-.3-.3-.6-.3-.7-.3-.3.2-.4 0-.4 0l-.1-.2c-.1.1-.3-.1-.3-.3v-.1h-.3c0 .2-.1.3-.3.2l-.6-.1-.7-.1-1.6-.6c-.2-.3-.2-.3-.3 0 0 0 0 .2-.2 0l-1.2-.4-.3-.2-.3-.2-.2.2c-.2.1-.5.2-.3 0l-.5-.1-1.2-.1-.6-.2c-.3 0-.9-.2-.9-.4l-.2-.1-.4-.1c0-.4-.3-.4-.4 0-.3.2-.6.2-.6 0l-.1-.2c-.2 0-.3 0-.3-.3v-.2l-.6.2-.4.1-.4-.1-.4-.2c-.2-.3-.4-.3-.5-.3h-.2c0-.2-.6-.4-.7-.3-.3.1-.7-.1-.6-.4h-.4l-.3-.2c-.3.1-.4 0-.4-.5l-.6.2c0 .2-.2.2-.5 0l-.1-.3-.2-.2c-.2-.2-.2-.4-.2-1 0-.9 0-1-.2-1.4l-.4-.7-.2-.5-.4-.6-.3-1.4-.2-1.1-.3-.8-.2-1-.2-.8V85l-.2-1.2v-1.3c0-.5 0-.7-.3-.7l-.1-.2.2-1.5.1-2.5h.1V77l.2-.7.2-.8V75c-.1-.2 0-.3.1-1l.1-.7c-.1-.1-.1-.2.1-.5l.2-.2c-.2-.1-.3-.2-.2-.5l.2-.4V71l.2-.7.2-.6.1-.7.3-.6V68l.3-.7.3-1v-.5l.3-1c.2-.2.4-.5.4-.8v-.5l.2-.6.2-.6v-.2l.1-.3.1-.2v-.1l.3-.5.2-.4.2-.5.4-.7.2-.3.1-.6c.3-.2.3-.5.3-.6l.2-.6.2-.3.6-1.6.1-.5.2-.1v-.2c0-.4.3-1 .4-1l.3-.3.4-.7.3-.5.2-.7.6-.8.3-.6.3-.3.4-.6.3-.4v-.2c0 .2.5-.4.5-.6l.3-.3v-.2l.2-.2.4-.5c1-1.3 2.1-2.5 3.5-3.5 0 .1.2.1 0 0 0-.4.2-.8.4-.7.1.2.5 0 .7-.4l.4-.4c0 .1 0 0 0 0h.2l.5-.3.2-.3c.1.2.2 0 .4 0 .2-.6.4-.8.4-.4h.1l.2-.4c-.2-.2 0-.3.3-.5l.6-.7.5-.3c.2 0 .8-.4 1-.7h.2c.2 0 .3 0 .4-.2.1-.3.5-.5.6-.3l.2-.3.4-.2V37l.2-.1h.1l.6-.5.5-.3.5-.2h.6l-.1-.2c-.2 0-.2-.1 0-.3 0-.3.1-.3.4-.3.2.2.3 0 .4-.2.1-.2.7-.6 1.4-.8l.4-.1c-.2-.2 0-.4.4-.4.3 0 .4 0 .5-.3 0-.2.1-.4.3-.4l.5-.2.4-.1c.2.1.7-.1.8-.5l.3-.3c1-.1 1.5-.6 1.4-1 0-.3 0-.4.3-.4l.2-.1.2-.2c.1 0 .3 0 .3-.2l.4-.3.5-.4c.1-.2.2-.2.3-.2 0 .1.3 0 .4-.2l.5-.3v.2l-.3.3c0 .2.1.2.3 0v-.3c0-.2.9-.8 1.1-.8l.1-.2h.3l.2-.3.4-.1.3-.1.6-.2h.2l.3-.2h.3c0 .1.1.2.2.1v-.2l.2-.2h.2l.3-.1.3-.2.2-.2h.4l.2-.1c.1.1.1 0 .1-.1l.5-.1c.4 0 1.4-.5 1.6-.7l.4-.1.7-.3.4-.2.5-.1.5-.3h.2l.2-.2h.1l1.3-.6.5-.2.3-.1h.4l.4-.1.4-.1.2-.2c.1.2.4 0 .5 0l.8-.3.8-.1.3-.1.2-.2h1.6c0 .2.6.2.7 0h.5c0-.2 1-.2 1.6 0 .8.2.8.2 1.2 0h.6l.2-.2zm70 50.6l-.3-.3-.2-.4-.1.5-.1.8-.2.5V75.4l-.2.8-.1.4-.1.5-.3 1v.4l-.7 1.3-.2.4-.5 1.2v.2l-.2.2-.1.2s0 .3-.2.4l-.3.6v.2l-.2.4-.4.5-.3.5c0 .2-.7 1-.7 1l-.2.2c-.2.4-1.4 1.7-1.7 1.6v.1l-.4.7c-.4.2-.5.5-.5.6h-.1l-.7.7c-.8.7-1.8 1.4-2.6 1.7l-.7.3-.3.2c-.3 0-.5 0-.5.2-.1.2-.2.2-.5.2l-.3.1c0 .2-.1.3-.4.3l-1 .2-1.2.3-.4.3c-.2.2-.4.2-.9 0l-.7.2-1.2.2-.5.2h-.4l-.5.2h-1l-.7.1-.4.2c0 .1 0 .1 0 0-.2-.2-.7-.2-1.2 0-.6.3-3.6.1-4-.2l-.6-.1c-.2.2-2.6.1-3.3-.1h-.5l-1-.1-1.6-.3c-2.2 0-2.5 0-2.9-.3-.2-.1-.4-.3-.6-.1l-.5-.2h-1.2l-1.3-.3-.6-.1h-.3l-1-.2-1.1-.2h-.5l-.5-.2-.5-.1-.4-.1c-.1-.3-.2-.3-.6-.3h-1.1l-.2-.3c-1.4-.4-2.8-.6-4.2-.8l-1.1-.2h-1l-.5-.2h-.4c-.2-.3-.3-.3-.3-.2-.2.1-.5.2-1.8.2l-3.7.3h-.4l-1 .4c0 .2-.7.4-1 .3l-.6.3-.7.4-.5.2-.2.1-.5.4-.6.3-.3.2-.6.5-.3.2c-.2 0-1.6 1.4-2 2.1-1.7 2.7-2.9 5.7-3.4 8.8l-.2 1.7 2 .3.3.2.3.1c.4-.1.5 0 .5.2 0 .3.2.4.3.1.3 0 .7 0 .7.3h1.4l1 .2.7.1.2.1h.5l.8.3.4.2.3.1v.1H190.9l.4.3.7.3c.2.2.4.4.6.2l.2.2h.8l.4.2v.1h.3l.2.1.4.1.5.2h.5c.7.2 1 .2 1.3.5.2.4.5.4.6.1h.2l.5.3.1.2 1.5.2.3.2h.3l.5.2.2.1h.5c.2.1.4.2.6.1l.4.1.4.3h.4c.2 0 2.1.4 2.3.7h1.1l.6.2.5.1.2.1h.2l.5.1.8.2c.5 0 .6 0 .6.2l.6.1c.5 0 .7 0 1 .2.5.1.6.3.7.1.2-.2.3 0 .4 0l.3.3h1.1l.3.2.4.2h1l.5.2c1 .3 2.2.5 3.3.5.8.3 1.7.4 2.5.4l.8.2c.3.2.5.2.5.1l1.5.1h.7l3.3.3h2.3l1.2.2 1 .1h.4l.5.1.2.2H237.8c1.6.3 3.3.2 4.9 0l.7-.2h.6c.2-.3 1-.4 1.4-.4l.4-.1.3-.2.4-.2.4-.2.2-.1.3-.3c0 .3.2.3.2 0 0 0 .3-.3.6-.3.1 0 .2-.1.2-.4-.1-.2 0-.2.1-.2.3 0 .3-.1.3-.2-.2-.3 0-.6.8-1.4l1-1.2 1.3-1.2.2-.3.4-.2.1-.2.5-.4.3-.3 1.8-1.8.2-.3.2-.1.2-.1v-.2l-.2-.2c.9-.8 1-1.1 1-1.3v-.2l.4-.3.7-1.4.6-.8v-.1l.1-.2.2-.2v-.5l.2-.5.2-.1c.3 0 .3-.2 0-.3v-.2l.1-.5.2-.8.2-1.3c.2-.9.3-1.9.3-2.8l.2-1.7V93l-.2-.8v-1l.2-.2-.2-.7c0-1.4 0-1.8-.3-1.9v-.1l.1-.2c-.1-.4 0-.8.2-.8l.3-.3-.1-.2-.3.1c-.1.4-.3 0-.2-.3l-.1-.5v-1.3l-.1-.3-.2-.1V84l-.2-.4c-.2-.3-.2-.7-.1-1.4l-.1-.4-.1-.2-.3-1V80l-.1-.5-.3-.6-.2-.3v-.5l-.2-.4-.3-1.2v-.2c-.4-.2-.7-1-.6-1.2v-.3l-.1.1v.1c-.3 0-.6-1-.6-1.3l-.1-.2v-.1l-.2-.1c-.2.1-.4-.5-.3-.7.2-.1.2-.4 0-.1h-.2v-.3zM197 56.6c-.1-.2-.3-.2-.6 0l-.2.3h-.4l-.5.2-1.2.6h-.1l-.1.2h-.3c0 .1-.1.2-.8.4l-.6.4-.4.4h-.5l-.2.4c-.4.4-.5.4-.6.3-.1-.2-.3-.2-.1 0l-.4.4-.7.7-.5.6v.1l-.2.1-.6.6-.7.7-.2.2-.5.5-.3.7-.1.2c-.2 0-.3 0-.3.2l-.2.5-.4.5-.2.4-.2.5c-.5 1-1 2-1.3 3.1-.6 1.6-1.5 3.4-1.8 3.3l-.2.6-.2.5-.1.4-.5.5c-.2.5-.4.5-.5.5 0-.1-.2-.1-.2.2l-.1.5-.4.4-.7.9-.2.2c-.1.3-.6.8-.7.7l-.1.1-.4.5-.9.8c-.4.3-.6.5-.7.4l-.2.1c-.2.4-.7 1-.9 1l-.5.2-.7.2-.6.3c-.2.3-1 .5-1 .4h-.3l-.3.1s-.3 0-.4.3l-1 .2-.3.1h-.6l-.7.1h-1.6l-1.2-.3h-.3c0 .1-.5.1-.7-.1h-.4l-.5-.1c-.2-.3-.2-.4-.9-.3l-.4-.2-.1-.1c-.2.3-.5.2-.7-.1-.3-.3-.4-.3-.4-.1 0 0 0 .2-.2 0h-.6l-.2-.2h-.6l-.3-.2h-.2l-.2-.1c-.1.1-.6-.1-.6-.4 0-.2-.1-.2-.2 0-.2.3-.3.3-.3.2l-.3-.2h-.1s-.3-.3-.4-.2h-.2l-.5-.1-.5-.1-.4-.1-.3-.3h-.4c0-.2-.6-.4-1-.4l-.7-.4-.4-.2c-.1.1-.3 0-.3-.1l-.5-.3h-.6l-.1-.2c-.1.1-.3 0-.3-.1l-.2-.1c-.1.1-.2 0-.2-.1l-.1-.1-.5-.3-.5-.2-.4-.4-.4-.2-.6-.3c0-.3-.1-.3-.2-.3-.2 0-.4 0-.4-.2.2-.1 0-.2-.4-.1l-.4-.1c0-.4-.3-.7-.4-.6-.2.1-.3.1-.3-.1l-.3-.1-.3-.2-.7-.5-.4-.4-.5-.3-.5-.3c-.2 0-.9-.4-.8-.5.1-.1-.4-.5-.7-.5l-.3-.2-.4-.3h-.4l-.4-.2-.2-.1c-.3.1-.3 0-.3-.1.2-.1-.4-.5-.5-.3h-.5c-1.4-.2-1.5-.2-1.6 0-.2.3-.3.3-.3.2h-.2c-.2.3-.7.5-1.2.4-.4-.2-.4-.2-.3 0l-.3.3v.2l-.3.1-.5.2-.2.2h-.2c0 .2-.3.5-.5.5l-.1-.2-.1-.1-.3.1c0 .1-1 1.3-1.3 1.3l-.4.2c-.1.2-.3.2-.5.2-.2-.2-.5 0-.5.3v1.1l-.2 2c-.2 2.2-.2 3.2-.1 3.6l.1 1.5c0 1.1.2 2.3.5 3l.1.7v.3c.1.1.5 1 .6 1.7l.2.6.1.4.3.3v.4l.2.2.1.1.2.5c.3 0 .3.3.3.4 0 .2.1.3.3.3l.3.4c0 .3 0 .4.3.3.2-.2.6 0 .6.3l1 .1c.5 0 .9.1.9.3 0 .2.4.3.7.2 0 .2.7.4 1 .3.2 0 .4 0 .7.4l.4.1.5.1h.7l.3.1v.4l.2-.1.4-.2.3.2h1.1l.2.2.7.1.7.2.3.2h.4c.1.2.3.3.5.2v.1h.7l.2.1.2.1.3.1.5.2.7.2.5.1.4.1v.1h.2c.3 0 .8 0 .8.3h.8l.6.3.4.1 2.2.7.5.3c.5 0 1.1.2 1.1.3-.1.1 0 .1.3.1h.5l.5.1 1.1.5.5.1h.5l1.1.2.6.2H160.5l.2.3h.5l.4.1.5.1.6.2h.3l.3.2.6.1.7.1 1 .2c.4.3.5.3.6.2h.3l.4.3c.1 0 .3 0 .4.2 0 .2 0 .3.2.2l.4-.2.9.2 1 .2 1 .3c.8.1 1.1.3 1.1.5h.3l.2.1h.4l.3.1h.2l.5.3.8.2.7.1.4.1.2.1.7.2h.5c.2.3.5 0 .5-.4l.2-.5v-1c0-1 0-1.2.3-1.4l.1-.6h.1l.3-.7.2-.8.4-.8.3-.8v-.3c-.1-.3 0-.7.2-1l.5-.8.5-.8.1-.2.2-.5.5-.7c.5-.8 1.9-2.2 2-2.2l.4-.3c.2-.2.4-.5.7-.6.3-.2.6-.3.6-.6h.3c0 .2.2 0 .2 0l1-.7c.5-.2 1-.5 1.2-.8l.7-.3.6-.2H190c.1.2.3 0 .4-.3 0 .1.2.1.3-.2.1-.3.3-.3.8-.3l1-.2c.2-.2.9-.2.9 0h.4l.7-.2.8-.2h1.3c1.3-.3 3.2 0 3.4.2.2.2.3.2.4 0h.3l.5.1h1.3c0 .1.1.3.2.1l.1.2s.2.2.4 0 1 0 1 .2c0 .1.6.2 1.7.2l.2.1.2.1.3.2h.6l.7.3h.2l.3.1c.4.1 1.3.4 1.6.3h.3l.4.3c.2-.1.5.1.5.2h.3c0-.2.4-.2.4 0h.9l.8.1.3.2h1.1l.4.2.5.1 1 .1 1.5.3h.8l1.1.2h.3l.2.1h.3l.6.1.1.1h.6l2.2.2 1.8.2h2.8l.6.1.7-.1.8-.1c.2 0 1.3-.1 1.6-.3h.4l1.6-.3.5-.1.6-.1.8-.3.9-.2 1-.2.3-.2h.2l.4-.2.3-.1.1-.1.4-.1.3-.1c0-.3.7-.6 1-.6l.2-.3.3-.2c.3 0 .6-.2 1.7-1.3l1-.8.3-.3.4-.6.6-.5.4-.2 1.2-1.6.3-.3v-.2l.1-.4.2-.5.1-.3.3-.3.1-.3.1-.2c.2 0 .2-.2.1-.2-.2 0 0-.7.3-.7v-.2l.2-.3.1-.3c-.2 0-.2-.2 0-.3.2 0 .2-.1.2-.4 0 0 0-.3.2-.5v-.5l.2-.5c.5-1.7.7-3.5.6-5.3l-.1-1.2h.3c.4 0 .4 0 .1-.4v-2.4c0-.5-.2-1-.4-1.2l-.3-.2c0-.2-.2-.5-.3-.5l-.1-.2c0-.3-.4-.6-.7-.2-.4.2-.8.5-1 .9l-.9.7-1.2 1c-.7.8-2 1.6-2.4 1.6l-.3.2-1.2.5-.8.3-.5.2-.2.1-.3.1h-.4l-.3.1c0 .3 0 .3-.1.2-2.8.5-5.7.5-8.5 0H230L228 70c-1.6-.3-3.3-.5-5-.5l-.5-.1h-.7l-.7-.2-2.2-.3-.4-.1c-1 0-1.2-.1-1.2-.3h-.5v-.2c-.3.1-.3.1-.3-.1l-.4-.1c-.5 0-.8-.1-1.2-.4h-.5l-.7-.3-.8-.4h-.4l-.3-.2c-.1.1-.3.1-.1-.1l-.2-.1-.4-.3-.6-.3c-.1.1-.2 0-.2-.1l-.3-.2v-.2c.1 0 0 0 0 0-.3 0-.6 0-.4-.3l-.3-.1-.8-.5-.3-.2-.4-.4-.5-.3-.4-.5-.8-.7c.2-.7.2-.7 0-.4-.4.2-.7 0-.7-.4h-.2s-.2 0-.2-.2l-.1-.1-.2-.1-.3-.5v-.2l-.2-.1c-.2 0-.8-.5-.8-.7l-.1-.3-.2.1c0 .3 0 .3-.3 0-.4-.3-.5-.5-.4-.5.2-.2 0-.3 0-.3-.3.1-.5 0-.7-.2l-.8-.3-.6-.6c-.2-.4-.3-.4-.4-.3h-.3c0-.2-.8-.5-.9-.4-.1.1-.2 0-.2-.1l-.1-.1h-1.7l-.2-.2zm8.6-17.2l-1-.2-.3.1h-.7l-1.1.1h-.5c.1-.1 0-.1-.1-.1l-1.8.5-.2.2h-1c0-.1-.2 0-.3.2 0 .1 0 .3-.2.1l-.6.3c-.6.2-.8.2-.7 0v-.1h-.2l-.1.2c-.1 0-.3 0-.1.1l-.2.2c-.2 0-.3.1-.3.3-.1.2-.2.2-.4 0h-.2c-.1.2-.2.3-.3.2l-.4.2c-.2.1-.3.3-.7.1l-.5.2s.2.2.3 0l-.3.3-.4.4h-.3c0 .2-.7.5-.9.4l-.2.1c0 .4-.1.6-.5.6l-.6.4-.6.3-.3.2-.4.1-.4.3-.6.4-.6.4-.3.2c-.2 0-.3 0-.3.2l-.3.4-.4.2c0 .1-.8.5-1 .4l-.4.2-.2.4h-.1l-.5.3-.3.2c-.2.3-.5.4-.7.5l-1.7.8c-.2.3-.2.3-.4.1-.2-.1-.2-.1-.3.1l-.2.3h-.2l-1.2.8h-.1c0 .2-.4.3-.5 0-.1 0-.5.2-.6.6l-.7.2-.7.2V52c-.2-.3-.3-.3-.4 0l-.3.2-.6.1c-.9.4-2.7.5-2.7.2h-.2c-.3.3-.9.5-1.1.4h-2.7c-1.8 0-1.9 0-1.8-.3.2-.3 0-.3-.2 0h-.2l-.5-.1h-.5l-.5-.2h-.6l-.7-.2c-.5 0-.7 0-.7-.2l-.4-.1-.4-.1-.7-.2h-.7l-1-.3-.4-.1c0-.1-.3-.3-.6-.3h-.7l-.3-.2c-.2 0-.5-.2-.5-.3 0-.3 0-.3-.4 0-.3 0-.6 0-.7-.3 0-.2-.1-.2-.2-.2h-.4l-.3-.1c0 .1-.1 0 0 0 0-.4-.1-.6-.3-.2 0 .2 0 .2-.2.2l-.1-.2v-.2l-.2.2-.2-.2c0-.2 0-.2-.2 0h-.3l-.4-.2-.3-.3c-.2-.4-.3-.4-.4-.2h-.5l-.2-.2-.2-.1-.5-.1-.2-.1-.1-.1-.1-.2-.6-.3-.7-.4c-.1.2-.3 0-.3 0v-.2h-.2l-.2-.1c-.3 0-.6-.4-.6-.6 0-.2-.1-.2-.1 0-.3.1-.5 0-.4-.2.1-.1 0-.2-.2 0-.1 0-.4 0-.5-.2l-.4-.3h-.4c0-.3-.1-.3-.2-.3l-.5-.4-.2-.3v-.2c-.3-.4-.4-.4-.5 0l-.2.3c-.1-.1-.7.1-.7.3 0 .2-.3.5-.5.5l-.3.2c0 .3-.2.4-.3.4 0 0-1.3 1-1.3 1.3h-.2l-.1.3-.2.2c0 .2-.2.3-.3.2v.2c-.2.2-.2.3-.4.3l-.2.1v.2l-.3.3-.1.2h-.1l-.4.6-.3.6c0 .1 0 .1 0 0l-.3.1-.7 1.2-.2.2c0 .2-1 2-1.2 2v.4l-.2.5-.1.1-.1.5-.6 1.4-.5 1.1-.2.5-.1.4-.4.7-.3.6-.4 1.2-.5 1-.4 1-.1.2-.2.5-.4 1.4-.3.6-.2.6-.1.3-.1.4-.1.5-.2.6-.2.7v.3l-.1.2c-.1.1-.2 1-.1 1.1l.4-.2c.4-.3.6-.3.7-.3l.3-.2s1.5-1.1 1.7-1.1l.1-.1.3-.1c.1 0 .2 0 .4-.3.5-.4 3.3-.6 4.7 0h.5l1.1.3h.7l.6.3.4.1h.2l.4.4c0 .2.2.2.3.2l.5.2.2.3 1.4 1c.8.7.8.8 1 .8l.3.2.3.2.2.2.9.5 1 .5v.1l.2.3h.3l.2.3.5.3.7.3.5.2 1 .6.1.1.3.1.3.3h.6l.5.3.5.2.4.3 1 .2.9.2v.2h.4l.1.2.4.1.2.1.8.1.9.3h.2l.1.2h.5l.3.1c0 .1 0 .2.4.1l.3.1.5.2h.3l.7.2c.6 0 .7 0 .6.2v.4l.1-.1c0-.4.5-.4 1.3-.2l1.2.2h.2c0 .2 1.5.2 1.8 0h.8l1-.3h.4l1-.6h.3v-.3h.4l.2-.1c-.2-.1.3-.5.8-.6l.3-.2.1-.1c.2 0 .3 0 .3-.3l.3-.3.2-.1.3-.2.3-.4.4-.5c.3 0 1-1 1-1.2l1-1.5 1.4-2.5.4-1 .1-.2.2-.6v-.4l.2-.2.2-.5.3-.4.7-1.4.2-.5c.3-.9.7-1.5.8-1.5v-.2l.2-.2c.3-.2.3-.3.3-.4l.4-.6.7-.8.5-.6.4-.3 1.5-1.4.3-.3c0-.2.7-.6 1-.6v-.2l.2-.3h.2l.4-.4.6-.6c.5-.2.8-.5.7-.6v-.1c.2.1.4 0 .5-.1l.4-.3h.2l.7-.5.7-.6.3-.2.3-.2h.4l.4-.2c.4 0 .6-.1.6-.2l.2-.1h1.4s.2 0 .3-.2c0 0 .6 0 .8.2l.1-.2c.1-.2.1-.2.8 0l.6-.2c.5-.1.8.1.7.4 0 0 0 .2.2.2v-.2c0-.4 0-.4.7-.2l.5.3h.5c.4 0 .9.3.9.6 0 0 .1.2.3 0l.4.3.3.3.6.3.5.3.2.1.3.2v.2l.5.2.3.3.4.3c.3.3.4.5.4.2h.2l.1.1c0 .2.9.7 1 .7l.6.6.8.8.2.4.2.3.2.1.4.4.4.4v.2c.2 0 .4 0 .7.4l.7.5v.1l.4.2.3.3c0 .2.2.2.4.2v.1c0 .1 0 .2.2.1 0 0 .4.3.4.5 0 .1.3.1.4-.1 0-.1 0-.1 0 0l.2.2.2.1.7.4c.4 0 .6 0 .6.2l.5.1.7.1.6.3h.7l.4.2.2.1 1.2.2c2 .5 4 .8 6.1.8l.7.2h1l.5.2 1 .1 2.2.1c1.7.3 3.4.3 5 .3h2.4l.4-.2c0-.2.3-.2.7-.3l.6-.1.2-.1.3-.2.6-.2.7-.3.2-.1.2-.2h.2l.3-.2.3-.1.4-.1.6-.3.5-.3.2-.2.6-.4.6-.4.6-.5.6-.5c.3 0 .8-1 .5-1.2l-.2-.3-.1-.3c-.1-.1-.2-.4-.1-.6l-.1-.3-.3-.2-.2-.2c-.1 0-.2-.1-.2-.3l-.2-.3v-.2l-.3-.3c0-.3-.1-.4-.2-.4l-.3-.3-.2-.4c-.1 0-.6-.7-.6-1h-.2V56s0-.3-.3-.4l-.2-.5h-.1l-.2-.4c0-.2-.3-.5-.4-.6l-.2-.2-1-1.3-.4-.7-.2-.3-.5-.5-.5-.7-.3-.5-.3-.2-.2-.3c0-.1 0-.4-.2-.5l-.6-.7-.5-.7c.1-.2 0-.2-.1-.2-.1.1-.3-.1-.7-.5l-.8-1-.2-.2-.5-.4-.1-.1c-.1 0-.3-.1-.3-.4l-.3-.2c-.1.1-.2 0-.2-.2l-.3-.2-.2-.2c-.1 0-.6-.3-.6-.5l-.1-.2-.5-.3-.2-.3c-.1 0-.4 0-.6-.3l-.7-.4c-.3-.2-.8-.6-.8-.9-.1-.3-1.3-.4-1.4 0 0 .2-.5.6-.8.9l-.5.3-.3.2-.5.4-.6.2-.2.2-.1.2h-.6l-.6.3-.4.1-2 .5-.5.1c-.3.2-3 0-3.7-.3-.4-.2-1.2-.4-1.6-.3h-.2c0-.2-.6-.4-1-.4l-.2-.2-.2-.3-.8-.5c-.4-.2-.5-.2-.6 0l-.1-.2-.2-.1c-.4 0-1-.5-1-.7 0-.4 0-.4-.2-.1-.2.2-.5.1-.5-.1V41l-.3.1h-.5v-.3c-.2.2-.7.1-.7-.1l-.2-.1c-.4 0-1.3-.3-1.3-.4h-.8l-.7-.2-.8-.2-1.7-.4zm-18-14.7c-.2-.2-2.8-.3-3 0h-1.1c-2 0-3.9.2-4 .3-.1.2-.8.2-.8 0v-.1l-.2.2c-.2.2-.6.3-1.6.3l-.7.3h-.2l-1 .7h-.5l-.6.2-.7.2c-.1-.1-.1-.1-.2.1 0 .3-.1.4-.2.4l-.7.2-.4.2h-.5l-.2.3h-.2l-.3.2-.3.1-.6.2c-.2 0-1 .4-1.3.7l-.3.2-.8.3-.9.4H166l-.1.2v.1l-.4.1-.4.2-.4.3-.3.2-.4.2-.2.2h-.3l-.5.4-.4.2-.1.2h-.4c0 .2-.3.4-.5.4-.4.1-.6.4-.6.5l-.5.5-.3.2-.4.2-.3.1c-.2.3-1 .7-1 .6l-.3.2-.3.2-1.1.5-.6.4-.5.3-1.1.5-.7.4-.4.4-.3.2-.7.6-.5.5h-.2c-.1 0-.8.5-.8.8h-.2l-.3.2c-.1.1-.2.2-.4.1l-.2.1-.5.5-.4.5h-.3l-.4.3c-.3.1-.3.6-.1.5h.4c.1 0 .3 0 .1.2 0 .2 0 .5.2.4 0 0 .9.3 1 .5l.4.3.4.3.6.4.5.2.7.3.5.4c.4.3.5.4.6.3l.5.1c.2.3.6.4.5.2v-.2l.2.3h.3l.4.3.5.1c.2 0 .3.1.3.3 0 0 0 .2.1 0l.6.4.5.4-.1-.3c-.3-.2-.3-.4 0-.3l.3.2.6.3h.2c.1-.2.5-.2.6 0h.2l.5.3c.2.1.5.2 1.2.2l.8.3h.2c.1-.1.6 0 .7.4.1.1.1.1.4 0h.7l.6.1.3.2.5.2c1.1-.1 1.8 0 2 .1 1.5.3 3.1.4 4.7.2.5 0 .7 0 .7.3l.3-.1c0-.3.2-.3.6-.2h.5l1.4-.5.5-.2s.1-.2.3-.2l1.1-.3 1-.3c.3 0 .3 0 0 0-.2-.3 0-.3 1.7-1.2l1.5-.8.2-.2.5-.3.6-.2v-.2h.3l.4-.3.2-.2.4-.3c.3-.3.7-.4.9-.4h.2l.3-.1.4-.3c.1-.2.3-.2.4-.2h.2l.1-.5c.1-.2.8-.7 1-.7.2 0 .3 0 .3-.3.1-.2.2-.2.4-.2h.2l.2-.2h.5l.3-.3.4-.2c.2-.3.6-.3.7-.3.1 0 .2 0 .2-.2l1-.6.3-.2.5-.2.4-.4h.3l.6-.2.7-.2.3-.3h.4l.4-.3c.3-.3.4-.3.7-.3.3 0 .4 0 .5-.2.1-.2.2-.2.4-.2l.6-.1.6-.1.5-.2h.6c.3 0 .4 0 .4-.2l.4-.1.2-.1.5-.1.6-.2h.4l.6-.2h1.8c0 .2.4.2.5.1h1l.8.1 1 .3c.4 0 1.4.4 1.6.3v.1c0 .2 0 .3.3.3.5 0 1 0 .8.2 0 .3 0 .5.3.2.2-.2.3-.2.4 0l.6.1c.2 0 .6 0 .7.3l.6.2.1.1.5.3c.3 0 .4 0 .4.2l.3.1.2.1.2.1.5.3.6.2.2.2c0 .3.1.3.4.3.3 0 .4 0 1 .4l.4.1.2.2h.4l.2.2.6.2.9.4.6.2.2.1c.1.1.2 0 .4-.1l.2-.2c-.1.2 1.4.3 1.6.2l.6-.2 1-.3.8-.2.3-.2.1-.1.4-.2v-.2l.4-.1.4-.1c.2 0 1-1 1-1.2l-.9-.8-.2-.2c0-.1-.3-.4-.5-.4l-.3-.3h-.2v-.1l-.2-.3H225.3l-.2-.4-.1-.3h-.5l-.8-.8-.5-.2-.3-.2h-.1c0-.3-.4-.5-.5-.5a5 5 0 0 1-1.8-.8l-.2-.1-.2-.2-.1-.3-.2.1c0 .3-.2.2-.3-.2 0-.2-.1-.2-.3-.2h-.4l-.7-.5-.6-.3-.2-.1h-.2l-.5-.4-.5-.3-.1-.2H215.4l-.2-.2-.2-.2-.3-.1c.1-.3-.1-.3-.2 0h-.2c-.3-.3-1.4-.8-1.8-.8l-.3-.2h-.5l-.6-.3-.2-.1h-.7v-.3h-.7s-.3-.2-.7-.2l-.5-.1-.5-.1-.3-.2c-.1.2-.6 0-.6 0l-.2-.2h-.3v-.2c-.2.1-.9-.1-.9-.2l-.3-.1-1.7-.3h-.2c0-.2-1-.3-1.9-.4l-.3-.1h-.1s-.2.2-.6 0c-1.3 0-1.4 0-1.5-.3l-.2.1c0 .3 0 .3-.2.2l-.3-.2-.5-.2h-.6l-.3-.1-.3-.1-1.6-.1-1.7-.2h-1.4l-.4-.2-.2-.1h-.6l-.6-.1-.5-.1-.5-.1c-.5 0-.5 0-.4-.2l.1-.2-.2.1h-.4l-.4.1h-.1zM128 115.4l1.7.2 1 .2v.1c0 .2.2.3.4.2h.4l.4.3.7.3.5.4h.2l.3.3.3.2.3.2.4.3s.2.2.3 0l.2.3c0 .2.2.3.3.5.3 0 .7.7.7 1l.1.2.4.5a17.1 17.1 0 0 1 .4 7.2l-.1.3v.3l-.2.3v.4l-.8 1.7-.2.4c-.1 0-1.3 1-1.3 1.2h-.3l-.3.4-.5.3h-.4c-.1.4-.7.6-1 .5h-.3c0 .2-1.7.3-2 .1l-.8-.2-.8-.2c-.3-.2-.3-.2-.8-.2v-.5l-.3.1c0 .2-.2.2-.3 0-.1-.2-.3-.2-.5-.2-.4.1-1.6-.9-1.8-1.6v-.3l-.7-1.2c0-.4 0-.4-.3-.4 0 0-.2 0-.3-.3a35 35 0 0 0-.4-1.3l-.1-.8-.2-.6v-.8c0-.5 0-.5-.2-.6l-.2-.4V123c-.1-1-.1-1.1.1-1.4l.1-.5.1-.8c.3-.2.3-.4.3-.6l.2-.3v-.4l.3-.3c-.1-.2.3-1.2.7-1.3v-.3l.8-.5.3-.2.4-.3.5-.3 1.8-.3.5-.1zm1.3 3l-.7-.2H127c-.1 0-1.3 1.2-1.3 1.4l-.1.6-.3.9v2.3c0 1 .1 1.8.5 2.6v.3l.2.3.1.5.4 1 .2.4.2.2.1.4.2.4 1 .8.3.2c0 .2.2.2.2 0l.2-.1c1 .2 3.2.2 3.5-.1.4-.2.8-.3 1-.2l.2.2v-.3c-.2 0-.2-.2 0-.4.5-.3.6-1.1.3-1.4-.1 0-.1-.6.1-1 .1-.3.2-.5.1-.6V124l-.2-.7-.2-1.2-.1-.5-.2-.3-.2-.2c0-.2-1-1.4-1.3-1.4l-.3-.3-.4-.2-.2-.1-.2-.1-.5-.1-.2-.3-.8-.2zm6.2 18c1-.6 2 .2 1.6 1.2-.7 1.3-5.2 2-10.6 1.5-1.4-.1-2-1-1.3-1.8.5-.4.8-.6 2.3-.3 2.7.4 6.2 0 8-.7z"/>
    <filter id="a" width="102.2%" height="101.4%" x="-.6%" y="-.3%" filterUnits="objectBoundingBox">
      <feOffset dx="2" dy="2" in="SourceAlpha" result="shadowOffsetOuter1"/>
      <feColorMatrix in="shadowOffsetOuter1" values="0 0 0 0 0.996078431 0 0 0 0 0.996078431 0 0 0 0 0.996078431 0 0 0 1 0"/>
    </filter>
  </defs>
  <g fill="none" fill-rule="nonzero">
    <use fill="#000" filter="url(#a)" xlink:href="#b"/>
    <use fill="#222" xlink:href="#b"/>
  </g>
</svg>
