<svg xmlns="http://www.w3.org/2000/svg" width="178" height="163" viewBox="0 0 178 163">
  <path d="M143.1616,162.123306 C141.806709,159.417752 141.813817,156.22427 142.292978,153.236367 C144.043552,142.320318 151.430969,133.212786 155.217967,122.826574 C163.70225,99.5576024 153.620707,71.7072886 165.301215,49.8683913 C169.787316,41.4807862 177.066902,34.9565085 184.589576,29.1380474 C192.168181,23.2763268 200.233947,17.8928949 209.170986,14.4425744 C226.811977,7.63192166 247.087761,8.93255103 264.449583,16.4268971 C281.811405,23.9212433 296.311736,37.2807627 306.705678,53.0837132 C314.240503,64.5396607 319.825714,77.7127538 319.995951,91.4252652 C320.094765,99.3847246 318.373616,107.263955 316.091245,114.889504 C308.997037,138.591714 295.444699,161.481515 274.055051,173.90123 C271.719266,175.257483 271.436748,178.459647 271.426976,181.161497 C271.409955,185.869933 271.392929,190.578369 271.375903,195.286805 C275.234282,193.817121 279.09266,192.347436 282.951039,190.877751 C283.704549,190.590734 284.535701,190.301286 285.297264,190.566178 C286.149158,190.86249 286.626486,191.748467 286.997147,192.571054 C291.79605,203.221005 292.003955,215.850592 287.55819,226.652859 C304.295633,244.580757 314.381684,268.58749 315.4727,293.094738 C266.973073,294.063159 218.473446,295.031579 169.973819,296 C170.338141,272.695069 180.654308,249.710154 197.821758,233.953458 C204.303409,228.004443 201.337266,215.244139 192.896901,212.766793 C188.363325,211.436136 183.506168,212.755876 178.788863,212.492225 C174.071558,212.228574 168.65924,209.119835 168.976232,204.40376 C169.810639,191.989799 168.650389,179.443786 165.553555,167.393703 C157.437665,169.012632 146.868504,169.52554 143.161601,162.123305 Z M312.441489,116.960362 C315.313178,108.233777 317.394634,99.0929659 316.849908,89.9218094 C316.336235,81.273454 313.499445,72.9018654 309.75888,65.0881548 C300.86836,46.5166448 286.38213,30.3364499 267.95199,21.1688853 C249.521849,12.0013206 227.101963,10.3347535 208.17862,18.434462 C200.643778,21.6595803 193.797216,26.3070691 187.34105,31.3574506 C180.365834,36.8138627 173.656413,42.9338545 169.403993,50.7036513 C158.357389,70.8874234 166.381745,96.325412 160.440483,118.555783 C158.254778,126.73402 154.221378,134.277687 150.228468,141.74145 C148.143901,145.638033 146.017279,149.681291 145.68521,154.088354 C145.353141,158.495418 147.310844,163.395279 151.38071,165.114079 C157.470947,167.686132 164.52425,162.204259 170.865865,164.071779 C167.516184,168.181101 169.414763,174.208171 170.764924,179.335761 C172.774521,186.967737 173.17501,195.019754 171.932656,202.813616 C171.342072,206.518624 175.363968,209.470853 179.097007,209.829184 C182.830047,210.187516 186.55604,208.962972 190.30344,209.107502 C196.343994,209.340473 202.052027,213.483665 204.147613,219.156334 C206.243199,224.829002 204.600355,231.690116 200.163086,235.797172 C184.368715,250.416153 174.69151,271.454224 173.866714,292.965015 C220.074574,290.956697 266.320501,289.825046 312.571248,289.570875 C309.599351,266.600591 299.690898,244.574419 284.476154,227.116387 C288.809791,216.455022 288.624778,204.038501 283.975415,193.511105 C280.34884,195.147764 276.722265,196.784422 273.095689,198.421081 C271.699401,199.05122 269.797762,199.574479 268.850936,198.369847 C268.38565,197.777872 268.355156,196.964712 268.344885,196.211711 C268.244955,188.885638 268.145025,181.559566 268.045095,174.233493 C290.082943,162.910182 304.69435,140.502629 312.441489,116.960362 Z M164.322159,61.5605489 C164.144742,61.7844914 164.148927,62.1331678 164.331668,62.352784 C164.516026,62.1339124 164.521527,61.7842856 164.344146,61.5597176 L164.322159,61.5605489 Z M224.124438,12.3078205 C224.105592,12.1797432 223.881417,12.2178678 223.850675,12.3436191 C223.819934,12.4693703 223.906274,12.5908996 223.987505,12.6916709 C224.108383,12.6110896 224.161494,12.4422907 224.108548,12.3069691 L224.124438,12.3078205 Z M254.085017,14.7418356 C253.956996,14.7606899 253.995104,14.9849634 254.1208,15.0157183 C254.246496,15.0464731 254.367973,14.9600953 254.4687,14.878828 C254.388154,14.7578972 254.219429,14.7047632 254.084166,14.7577325 L254.085017,14.7418356 Z M162.15756,97.2042592 C162.107548,97.340681 162.160551,97.507744 162.28005,97.5903384 C162.361453,97.4891652 162.447962,97.3671699 162.417028,97.2410327 C162.386094,97.1148955 162.161199,97.0767569 162.142317,97.2052542 L162.15756,97.2042592 Z M218.080955,12.9637263 L218.073634,12.9632083 C218.184843,12.9675723 218.188179,13.1753126 218.077167,13.1832475 C217.966704,13.1748047 217.970266,12.9683495 218.080955,12.9637263 Z M171.793565,42.0346293 L171.786243,42.0341113 C171.897452,42.0384753 171.900788,42.2462156 171.789776,42.2541505 C171.679313,42.2457078 171.682875,42.0392525 171.793565,42.0346293 Z M185.833787,122.123412 C186.145287,124.608331 186.079676,127.218674 185.108137,129.507325 C184.136599,131.795976 182.127383,133.703052 179.757642,133.966493 C178.046363,134.156733 176.360619,133.504939 174.768005,132.819419 C174.270634,132.605332 173.767792,132.382444 173.347673,132.029956 C172.758136,131.535325 172.375106,130.823315 172.034122,130.11583 C170.176961,126.262541 169.165356,121.58065 170.878494,117.654237 C171.194614,116.929709 171.601945,116.241399 172.140631,115.680632 C173.224396,114.552443 174.782386,114.018589 176.307094,114.000515 C178.327468,113.976566 180.285414,114.790092 182.013544,115.891243 C183.077922,116.569456 184.100178,117.386155 184.763975,118.493338 C185.411563,119.573484 185.675084,120.857391 185.833788,122.123412 Z M177.407086,130.172856 C177.683089,130.043787 177.987428,129.758301 178.234441,129.941149 C178.979961,130.493012 180.015881,130.575781 180.832101,130.148701 C182.182576,129.442076 182.65974,127.668018 182.751367,126.084436 C182.817617,124.939451 182.75802,123.786464 182.574145,122.655782 C182.452614,121.908467 182.274515,121.16396 181.950005,120.48697 C181.028982,118.565538 179.010946,117.424982 176.982542,117.144841 C176.161188,117.031405 175.252342,117.064611 174.6076,117.611721 C173.99082,118.135104 173.758036,119.006351 173.635389,119.829853 C173.154493,123.058808 173.879463,126.469406 175.621937,129.175502 C176.033785,129.815108 176.735987,130.486685 177.407086,130.172856 Z M172.127983,127.47517 C172.121907,127.246509 171.977492,127.028408 171.775692,126.943125 C171.533418,127.094094 171.786347,127.583499 172.038552,127.451744 L172.127983,127.47517 Z M241.229775,20.8015703 C245.686216,21.3618848 250.155954,21.927358 254.507761,23.0350162 C265.443954,25.8185867 275.3303,31.9901447 283.462685,39.781751 C291.59507,47.5733575 298.056198,56.9510389 303.508443,66.7884568 C305.294773,70.01151 306.98781,73.3120226 308.076523,76.8298136 C309.057867,80.0006801 309.534597,83.3066162 309.803198,86.6137134 C310.210663,91.6305379 310.119477,96.8260976 308.22007,101.490777 C305.748143,107.561486 300.5362,112.032653 295.507466,116.258342 C293.926339,117.586978 292.160745,118.986809 290.091471,118.998061 C282.006736,119.04202 273.918057,118.338488 265.963534,116.899475 C258.763851,115.597016 251.689017,113.696783 244.624214,111.798822 C223.78658,106.200785 202.948947,100.602749 182.111314,95.004712 C179.993581,94.4357825 177.635182,93.679134 176.652163,91.727469 C172.567908,83.6186531 173.853014,73.8995571 176.157401,65.1236416 C177.988449,58.1503692 180.481135,51.1821578 184.998269,45.5487372 C188.972942,40.5918306 194.304959,36.9234328 199.564317,33.3429478 C208.658691,27.1516472 218.360543,20.79305 229.355047,20.0716893 C233.318693,19.8116307 237.288848,20.3060718 241.229775,20.80157 Z M296.227945,62.0836648 C294.218196,65.4181118 290.447413,67.3955517 286.612158,68.136484 C282.776902,68.8774163 278.824241,68.5389699 274.932472,68.197778 C271.280733,67.8776293 267.600269,67.5521911 264.084924,66.5173802 C258.893926,64.989308 254.178672,61.8980041 250.718652,57.7544996 C247.808703,54.2697249 241.996471,54.7067208 238.350276,57.4200586 C234.704081,60.1333964 232.669233,64.4239655 230.676667,68.4981237 C228.684101,72.5722818 226.414686,76.8029451 222.533279,79.1711317 C216.932112,82.5886074 209.651005,81.1479755 203.558441,78.7011349 C198.412542,76.6344847 193.526545,73.9277239 189.050214,70.6638191 C187.490755,69.5267438 185.332691,69.4919693 183.498268,70.0990407 C181.663844,70.7061121 180.077426,71.8713835 178.525411,73.0185032 C177.492375,73.7820367 177.298506,75.2245441 177.259998,76.5046311 C177.155819,79.9677637 177.560777,83.4456575 178.457988,86.7932886 C178.782557,88.0043019 179.195042,89.2404322 180.049132,90.161469 C181.15866,91.3579661 182.826026,91.8346087 184.405227,92.2596733 C198.001025,95.919176 211.596824,99.5786788 225.192622,103.238182 C225.004713,94.7845999 231.575351,86.6776495 239.916477,85.0716716 C244.319683,84.2238901 248.855302,85.0185854 253.268552,85.8129481 C256.50984,86.3963638 259.751127,86.9797793 262.992415,87.5631948 C267.942596,88.4542029 272.947858,89.3489054 277.970596,89.0712099 C282.993334,88.7935142 288.112037,87.2277059 291.762754,83.7831223 C296.091253,79.6990254 297.812729,73.5294984 298.133483,67.6018256 C298.244284,65.5541815 298.00557,63.1204065 296.227947,62.0836642 Z M223.821029,50.2669378 C217.704841,51.900954 211.201059,50.4506472 205.175595,48.5112731 C200.73799,47.0829723 196.281978,45.3272554 192.79869,42.2405325 C184.621375,48.5045094 181.32769,59.0652807 178.487971,68.9388729 C181.183096,66.4247423 185.301176,65.5366292 188.80019,66.714919 C191.176101,67.5150047 193.161157,69.1399292 195.217299,70.5696194 C198.858726,73.1015996 202.875782,75.0974981 207.097576,76.4724057 C211.781036,77.9976634 217.286921,78.6410952 221.33301,75.8414614 C226.082691,72.5549879 226.947931,65.973167 230.235863,61.2361663 C231.543283,59.3525354 233.237053,57.7673957 234.997909,56.2943344 C238.087047,53.7100846 241.821216,51.3108796 245.836113,51.7154647 C251.778551,52.3142899 255.32444,58.5144134 260.477362,61.5204092 C263.851606,63.4888 267.849119,64.0292097 271.727698,64.5303827 C279.140382,65.4882174 287.469147,66.2105526 293.314164,61.5731744 C293.906204,61.1034563 294.50119,60.5008344 294.525805,59.7476792 C294.54182,59.2576068 294.309305,58.7972199 294.07782,58.3643869 C290.387467,51.4641312 285.413616,45.2464876 279.483767,40.1208545 C278.652287,39.4021412 277.258962,38.7470138 276.602539,39.6271061 C274.01406,43.0975844 268.743469,43.146564 264.622306,41.7837141 C260.501144,40.4208643 256.668092,37.9937934 252.344123,37.592832 C247.074695,37.1041972 242.034014,39.7097737 237.624486,42.6223819 C233.214959,45.5349899 228.932335,48.9013883 223.821029,50.2669378 Z M305.705113,81.6845366 C304.945165,77.4364825 303.883234,73.0477614 301.093202,69.7451702 C301.36319,78.5718912 295.628296,87.275038 287.386659,90.5459137 C280.860986,93.1357709 273.543635,92.4486337 266.569442,91.6063505 C264.051439,91.3022478 261.533166,90.9829046 259.042443,90.5055951 C254.952517,89.7218229 250.93106,88.5115807 246.781132,88.158668 C242.631204,87.8057554 238.206404,88.4090747 234.88278,90.9074314 C231.15318,93.7109599 229.399107,98.4228428 228.576145,103.001898 C228.536874,103.220408 228.505794,103.468105 228.641225,103.644473 C228.739247,103.772123 228.901612,103.829597 229.054694,103.880577 C247.737753,110.102433 267.034739,115.347122 286.735149,115.520146 C290.205656,115.550626 294.297219,115.074411 296.013303,112.071968 C297.389406,109.664351 299.837418,108.0883 301.718151,106.046583 C304.616054,102.900631 306.113454,98.6628138 306.555819,94.4175944 C306.998184,90.1723749 306.456806,85.8864425 305.705113,81.6845366 Z M262.45117,37.2622716 C264.528846,38.3251316 266.63106,39.5354049 268.96133,39.698919 C271.032753,39.8442699 273.152102,39.0956929 274.668058,37.6832404 C274.830884,37.5315316 274.994449,37.359055 275.03635,37.1410216 C275.113466,36.7397545 274.760792,36.3960123 274.439442,36.1418212 C268.470381,31.4202464 261.496688,27.9629716 254.114272,26.0654246 C250.117421,25.0380899 246.019046,24.4653427 241.931082,23.8946241 C236.082951,23.0781694 230.030033,22.2738626 224.351924,23.8887463 C222.494661,24.4169616 220.719454,25.1948084 218.970553,26.01096 C210.729467,29.8567897 202.917968,34.6136377 195.725903,40.1658945 C201.379963,44.4679324 208.501797,46.4710308 215.575631,47.2501827 C217.586111,47.471628 219.635482,47.6002045 221.619112,47.206166 C223.735131,46.7858295 225.688153,45.7885057 227.554242,44.7102882 C231.631943,42.3542118 235.450258,39.5568662 239.635949,37.3965098 C243.82164,35.2361534 248.511753,33.714165 253.203111,34.1838516 C256.456697,34.5095926 259.542842,35.7744818 262.45117,37.2622716 Z M296.332103,81.0827731 C296.598238,80.8797655 296.440953,80.3640436 296.106342,80.3425253 C295.931325,80.5080627 296.03507,80.8587075 296.272294,80.9034258 L296.332103,81.0827731 Z M206.448539,47.4949556 C206.586728,47.6412389 206.854603,47.392099 206.753851,47.2181452 C206.653099,47.0441913 206.369486,47.0619693 206.23514,47.2117575 C206.322911,47.2984619 206.410681,47.3851665 206.498452,47.4718711 L206.448539,47.4949556 Z M218.272325,49.936908 L218.26496,49.9363896 C218.376832,49.940757 218.380188,50.1486594 218.268514,50.1566006 C218.157391,50.1481512 218.160975,49.9415348 218.272325,49.936908 Z" transform="translate(-142 -10)"/>
</svg>
