<svg xmlns="http://www.w3.org/2000/svg" xmlns:xlink="http://www.w3.org/1999/xlink" width="370" height="173">
  <defs>
    <path id="b" d="M116.3-27c1.2.2 2.4.2 3.7.2l3 .2c4.7.5 9.5.6 14.2.3h.4l1.2-.1 2-.2 1.2-.3c.5-.1 1.2 0 1.3.4l.4.3.2 1a169.4 169.4 0 0 1-.2 11.1v4l.2 1.6.1 1c.1.4.2 1.5.1 1.6l.1.6c.2.6.3.8.3 2.6l.1 1.4v.9l.2.5c0 .5.5 1 1 1l.6.2.3.1c.3 0 .4.1.4.3h.6c.4 0 1.6.4 2.3.8l1 .1.6.2s.2.3.5.3l.6.2.3.1s.2 0 .3.2h.3s.3 0 .4.2l.6.1.5.2.4.2.4.2c.3.4.5.4.7.4h.7l.7.4 1.3.6.7.4c.4.1.8.3.9.6l.4.2.4.2.7.4.6.5.2.2c.2 0 .5.2.7.6l.7.5c.3 0 1.5 1.2 1.6 1.5l.2.1.3.2c0 .5.7.2 1.5-1l.5-.5.4-.7.9-.8.3-.6.1-.1.3-.4A56.4 56.4 0 0 1 178-.4l.4-.3c.9-.7 1.5-1.3 2-1.4.4-.3 2-1.7 2.2-2.2l.3-.3 1.8-.3.7.2.5.2.3.2.9.9 1 1 .5.5.3.4v.2l.3.1.2.1.4.4.4.3.9 1 .8 1 .3.3.5.5.5.4.6.6v.3l.3.2.4.4.5.4.2.3.2.3.1.2c.3 0 .9.5.9.7l.4.6.5.5c0 .2.1.3.4.3l.2.2.2.5c.9 1 1.3 1.4 1.3 1.7h.3v.3l.6.7.6.6.3.5c.2.1.4.3.2.5l.3.3.3.5.1.1c.2 0 .3.1.3.4 0 .2 0 .2.2.2.3 0 1 1 1 1.2l.3.3c.4.3 1.2 1.2 1.2 1.5l.8 1h.3c0 .1 0 .3.3.3l.2.3.3.3.2.3 1.6 1.8.8 1 .2.3c.5.3 1.4 1.3 1.5 1.6l.5.6.4.4v.1c.2-.1.3 0 .4.2l.4.4.6.5.7 1 .8 1.1.3.4-.3.3-.3.4c-.4 0-3.7 1.4-3.8 1.5l-1 .5-.4.3-.6.4-.4.2-.2.2-.5.3-.6.2-.6.6c-.4.5-1 1-1.2 1l-.3.3-.6.5c-.2.3-.6.4-.6.6-.2.4-.6.7-1 1-.5.2-.7.4-.7.5a18 18 0 0 1-2.6 2.7h-.4c0 .3-1 1.3-1 1.3l-.5.3-.5.5-.2.2-.4.4c-.6.5-1 1-.7 1l.1.3.3.3s.3.4.4.9l.9 1.4.4.8.2.3v.9c.2-.1.3 0 .3.1l.1.4.4.7.2.6.1.2.2.4.2.2c-.1.2 0 .4.2.6.1.1.3.2.1.4h.2l.3 1 .1.4.4.6.3.8.2.8v.6l.2.5.1.3.6 1.3.1.3.1.3.2.8c0 .3.2.7 0 .9v.4l.4-.2.6-.4 1-.5 1.1-.4.4-.2c.2.1.8-.1 1-.2l2.5-.8 4.9-1.1 1-.3.7-.2c1.3-.5 2.7-.7 4-.7 2-.1 2.6-.3 2.8-.5l.9-.1 1 .2.7.4.5.2c.3 0 .4.3.2.4a32 32 0 0 1 1.6 5.3l.5 1.9.5 3.2.3 1.5-.1.9c.7 2.8.8 5.7.3 8.6v3.4l-.3 1.2-.1 1.4-.1 1-.2 1.2-.2 1-.2 1-.2.6c.2.2 0 .2 0 .3-.2 0-.3.3-.3 1l-.1 1.2-.3 1-.2 1.2-.2 1-.2 1.2v.5l-.2.4-.1.8c-.4 1.9-.6 3.8-.6 5.7l-.1 1.6c-.1.2-3.9.2-4.8 0-2.3 0-4.5-.3-6.8-.6l-5.5-.4c-1.4 0-2.4-.1-2.5-.2h-.3l-.4 3-.3 1c-.3.5-.3.7-.3 1.4 0 .8 0 1-.2 1l-.1.4v.4c-.4.1-.4 1.7 0 2l.4.2c.3 0 1.2 1 1.4 1.3l.4.5c.4.1 1 .9 1.3 1.3.5.9 3 3.3 5 5l.3.5s.1.2.4.2l.4.4 1.2 1.3 1.2 1.4 1 1.4c.9 1 1 1.8.4 2.4-.2.2-.3.3-.2.6 0 .3 0 .4-.4.7l-.3.5-.2.3v.2l-.3.5-.2.7-.2.5v.2l-.3.5c-.3.1-.4.3-.3.4l-.2.3-.1.4c.1.1 0 .6-.4 1.3l-.3.8c-.4 1-.7 1.8-1 2v.3c0 .2-.2.6-.5.8l-.3.3-.2.4-.3.4-.2.2-.3.6-.6.7-.3.4-.2.3c0 .2-1.4 1.5-1.7 1.5 0 0-.2.2-.2.5 0 .5-.2.7-.6.7-.3 0-.3.2-.3.3 0 .4-1.1 1.7-1.5 1.7l-.3.4-.4.4-.4.4-.5.4-.4.2-1 1.2-.4.1-.7.7-1 .9-.4.2-.2.1-.3.3v.2l-.8.5-.7.4-4.8 2.9-1.2.6-.1.2-.7.5-.9.3c0 .3-1 .6-1.1.6-.4 0-.6.2-.6.4l-.6.5-.8.4-.3.3-.5.3c-.2.3-.3.3-.4.1l-.4.2c-.2.2-.8.3-1 0-.2-.2-.4 0-.4.2.1.4-.2.5-.5.2 0 0-.3-.3-.6-.3-.5-.3-1-.7-1-1l-.1-.4-.3-.5c0-.2 0-.4-.4-.6l-.5-.5a40.2 40.2 0 0 1-4-4.5l-.5-.6-.1-.2a9.5 9.5 0 0 0-2.1-2.3l-.3.4-.4.5-.5.3-.4.5-.3.4-.3.2c-.2.1-1.4 1.3-1.4 1.5l-.6.6-.4.6c0 .1-.7.7-1 .7l-.6.4c-.2.3-.4.5-.6.5l-.4.3-.5.4h-.4l-.3.3-.6.6c-.5.5-.6.5-.8.4h-.5l-.4.4-.5.4-.7.2-.6.2-.4.2c0 .2-.1.3-.3.3l-.5.3-.4.1-.3.2-.4.3-.5.5-.7.3-.2.1-.2.1-.1.3c0 .1-.2.2-.6.1l-.4.1-.3.1c-.3 0-1 .5-1.3.9h-.3l-.2.2c-.1.2-.4.2-.8.2l-1 .3h-.3l-.6.6-.6.4-1.3.6c-.1.2-.4.3-1 .3h-.9l-.5.2-.4.1-.3.1-.3.2h-.4l-.6.3-.3.1-.3.2h-.3c-.1 0-.4 0-.6.3l-.7.2-.4.2-.6.2c-.8.1-1.4.2-1.7.7l-1 .4h-.6c-.3.3-1 .4-1.3.3 0-.2 0-.2-.2 0v.3a229 229 0 0 0 .8 19.2l.1 1.5.5 1.9.1 1c.2.8.4 1.2.7 1.2.4 0 .5.9 0 1.2l-.4.7c0 .3-.4.5-.6.5l-.4.2c-.3.3-1.3.5-1.4.4h-.2c-.4.2-1 .2-1 0h-.2l-1 .2-1.1.3h-2.7l-2 .3c-.9.1-2 .1-2.4-.1h-.5l-.3.1-.5-.1h-.5l-.7-.2-.6-.2h-.2s-1.4.2-1.6 0l-.9-.2c-1.6.1-2.2 0-2.5-.1l-.4.1-.6.1H117l-2-.2a52 52 0 0 0-3.9-.1l-1.5-.3H107l-1.2-.2-1-.2-1.1-.2-2.3-.3-1.3-.2-.4-.2h-.4l-.8-.2-.8-.2-.4-.2-.8-.2-.2-.1h-.4l-.4-.1-.3-.1-.4-.2-.3-.2-.4-.1H94l-.5-.1-1-.3c-.4 0-.6 0-.7-.2l-.5-.1c-.3 0-1.2-1-1.2-1.2l.2-.4v-.3c-.2-.1 0-.4 0-.5.4-.2.5-.8.6-2.4.4-4.8.9-9.7 1.6-14.5 0-1.2.3-2 1-2.2.5 0-1-.4-1.6-.4-.5 0-.9-.2-1-.4l-.8-.2-1.9-.5-.7-.1-.5-.1h-.3c-.3 0-.4 0-.6-.3l-.4-.2c-.2.1-1.1-.3-1.3-.4 0 0 0-.2-.3-.2l-.6-.2-.7-.4-.6-.2c-.2-.3-.6-.4-.8-.4-.4 0-.5 0-.7-.2-.3-.4-1.2-.9-1.4-.7l-.4-.2-1-.6-.5-.3c-.1-.2-.6-.5-.9-.5l-.7-.5-1.1-.8-.9-.5c0-.2-.2-.2-.4-.2l-.6-.2-.4-.2-.6-.3-.8-.7-.7-.6-.6-.5-.5-.3-.7-.6-1-.9-.4-.4-.6.6-.6.4c-.3.5-.6 1-1 1.3-1.8 2-2.5 2.8-2.9 3.5l-1 1.2-.6.8c0 .2-.6.8-1.2 1.5-.7.6-1.2 1.3-1.3 1.4l-.6.9-.8 1.2-.2.3-.3.5-.6.7-.3.6c-.3.6-1.7.7-2.4.2-.1-.2-.4-.3-.6-.3-.4 0-.8-.1-1-.4l-.3-.3c-.2 0-.3-.2-.3-.3 0-.5 0-.6-.3-.6L49 172c-.7-1-1.5-2-2.4-2.8l-.8-1-.4-.4-.2-.3-.4-.4-.3-.3-.1-.3c-.4 0-1.4-1-2.2-2.2l-.7-1c-.2 0-.2-.2-.2-.4.1-.2.1-.3-.2-.3l-.3-.1c0-.2-1-1-1-1l-.4-.4-.5-.5-.2-.2-.2-.4-.3-.2-1-1-.9-1.3-.2-.1-.2-.2-2.1-2.5-1.3-1.6-.6-.6h-.3c0-.5-1-1.8-1.5-2.2l-.2-.4-.9-1.5-.2-.6c0-.3-.1-.5-.2-.3l-.3-.3-.8-1.8-.3-.7-.3-.4c-.2 0-.5-.5-.5-.8l-.2-.3-.3-.7-.2-.6-.3-.5-.4-.6c-1-1.2-1-2.2.4-3a9.5 9.5 0 0 0 3.6-3.5l1.2-1.6c.6-.9 1.2-1.6 1.9-2.3.6-.6 1-1 1.2-1.5.2-.5.5-.9 1-1.1l.9-1 1-.8.6-.7c.4-.6 1.3-1.5 2-2 .5-.5.6-1 .4-1.2l-.3-.5v-.6c-1.3-1.9-2.5-4-3.4-6.1l-.2-.4-.5-1.6-.2-1-.5-2.1-.2-.6-.3-1v-.4l-.6.1-5.3 1-1.4.3-3.3.4h-.4l-1.5.2-1.4.1c-.5.2-3.9 0-3.9-.2l-.2-.3c-.2 0-.2 0-.2-.4l-.3-1v-.6l-.1-1.3c-.9-5.5-1.3-11-1.4-16.7v-2.3l-.2-1c0-1.3 0-2.6-.2-3.9 0-.1 0-4 .2-4.4a16 16 0 0 1-.2-3.9v-.6l-.2-1.6V68c.1-.5.8-.6 3.3-.6h6.6c1.2-.2 2.4-.2 3.5-.2l5.7.2 2 .1c1.5.3 1.7.3 1.7-.4 0-.5.2-1.2.4-1.3l.1-.4.2-.5.2-1.2c.2-1.3.7-3 1-3.5l.3-.8.1-.6.3-.7.3-.6c.1-.2.2-.3.2-.7 0-.6.3-1.7.6-2v-.4c0-.1.4-1 .7-1.2.4-.2.3-.8-.2-1l-1-.8c-.2-.2-.4-.5-.5-.3L38 51c0-.2 0-.2-.2 0-.1 0-.3 0-.6-.4l-.6-.4-.6-.3-1.2-1-.3-.3c0-.3-.3-.4-.6-.4-.4-.1-.5-.2-.5-.5h-.2l-.4-.2-.7-.5-.3-.2-.4-.3-.5-.2-.4-.2-.3-.1-1.6-.9c-.3 0-.5 0-.6-.2l-.4-.1c-.2 0-.3 0-.4-.3-.1 0-.3-.2-.6 0-.4 0-1.4-.3-1.6-.6h-.3c-.4.2-.7 0-.7-.3l-.3-.2c-.2-.2-.3-1.1 0-1.2v-.4l.2-.2.3-.7.5-1.1.5-.7.2-.6.2-.4.2-.4.3-.9c.2 0 .4-.3.4-.6 0-.5.4-1.6.7-1.6l.2-.3.4-1.1.4-1 .4-.6.5-.7v-.3c.2-.2.3-.3.2-.4l.2-.4.3-.2.3-.6.4-.5s0-.2 0 0c.2 0 .3 0 .3-.3 0-.4.8-1.9 1.2-2 .1-.1.2-.3.1-.4 0-.1 0-.2.3-.2l.2-.4.3-.8c.4-.7.9-1.3.9-1l.2-.3c-.1-.5.5-1.5.7-1.4.1.1.3.1.3-.3l.3-.7.4-.6.2-.3.1-.3.5-.8.7-.8.2-.4.4-.2c0-.2.2-.4.3-.5.3 0 .4-.1.4-.3l.2-.5c.1-.1.4-.4.4-.6.1-.2.2-.5.6-.6l.4-.5v-.2c0-.1.3-.4.6-.5l.4-.5.1-.3.1-.2.5-.6.5-.6.7-1c.4-.6 1-1 1.1-1.5l.5-.5.5-.5.5-.3v-.3L46 7l.1-.2c0-.3.5-.9.7-.9a4 4 0 0 0 1.6-.8c.3-.2.5-.2.5 0l.5.1h.4l.4.1.4.2.4.2c.3 0 .7.3.9.8l.7.7 2 1.7 1.7 1.4.7.5 1.6 1.3.8.6.4.2.2.1c1.2.6 2.3 1.4 3.3 2.2l.7.3.3.3.5.2c.2 0 .4.2.8.8l.6.7 1.1-.8 1.2-1 .7-.5.7-.6.4-.3 1-1 1.2-.6.9-.5h.2c0-.2 1.4-1.2 1.5-1.2.1 0 .3 0 .4-.2l.6-.4c.2 0 .3-.2.3-.2.1-.2.9-.7 1-.7l.3-.1a3 3 0 0 1 1.3-.9h.4l.2-.3.6-.4.7-.5h.6c.3-.4 1.9-1.3 2.1-1.3l.7-.3.7-.4c.2 0 .3 0 .3-.2l.3-.2.6-.3.8-.2h.5l1-.4 1.1-.2.4-.1c.1 0 .2 0 .3-.3l.5-.2.5-.1.7-.3 1-.3 1-.4 1.2-.3c.3-.3.7-.3.8-.3.1 0 1.2-.2 1.3-.4v-19.9-2.8l.1-2 .4-.3.6-.5.2-.2c.3-.4 2.7-.7 3-.4l.3-.1c.1-.1 1.3-.5 2.1-.5l3-.5 1.5-.2 1.2-.1c.1-.1.8-.2 1.7-.2l.9-.2h1.6c.7-.2.8-.2.8 0 0 .3.3.3.4 0 0 0 .1-.2.6 0l.7-.2zm7.8 4l-3.6-.4c-2.7-.1-5.5 0-8.3.2l-2.5.2-3.9.7-1.2.3-2.3.6h-.3c-.6 0-.8.6-.8 2l-.1 1.6V-4l.1 1.9.1 1v2.6c-.4 2.3-.6 2.6-1.4 2.9l-2.1.6-.8.2-.9.3-.7.3-.6.2-.7.3-.7.2-.3.1-.5.3-.6.2-.7.2-.7.2s-.2.2-.6.2l-.8.2c-.3.3-.6.4-1 .4l-.8.2-.3.1-.6.3-.7.3-.9.5-1 .7-.4.4h-.1l-.7.3-1 .5-.5.4-.6.3-.5.3h-.2l-.7.5c-.3.4-.5.5-.6.5l-.2.1-.4.3-.5.3c-.1.3-.2.3-.3.3-.3 0-.4 0-.5.3l-.3.3-.4.2c-.1.2-.4.4-.6.4l-.6.4-.6.4-.6.3-.5.4-.3.4c-.1.2-.2.4-.5.4l-2.1 1.7-.4.2-.7.6-.8.6-.2.2c-.3.9-1.3.6-2.6-.4l-2-1.3-1.6-1.1-1.1-.8-.5-.4-.1-.1-.6-.4-.8-.4c-.4 0-.5-.2-.5-.3 0-.2-.1-.3-.3-.3l-.4-.3-.4-.2H57l-1.7-1.3V14l-.8-.6c-.3-.1-.7-.5-.7-.6l-.4-.2-.3-.3-.4-.2-1.5-1.3c-1-.8-1.9-1.4-1.9-1.2l-.2.1-1 .7c-.3.5-.8.7-.8.7l-.3.5c-.3.5-1.2 1.4-1.3 1.4l-.3.5-.3.5-.4.5c-.2.4-.5.5-.6.5l-.2.4-.2.4-.7.9-.6 1-.6.7-.6.7-.3.4-.3.5-.4.6-1 1.2-.3.4-.2.2-.1.2-.2.5-.5.6-.5 1-1 1.6c0 .2-.2.5-.4.6l-.5.7-.2.2-.2.5-.3.5-.1.3-.2.3-.2.3c0 .4-.4 1.1-.7 1.1v.1c0 .1-.2.5-.4.6l-.9 1.9-.4.7-.4.7-.3.9-.7 1.4-.3.6-.2.7-.4.8-.2.6-.1.5c-.3.4-.4 1.5-.1 1.5l.8.1.6.4 1.5.7.2.1.4.1.5.3.3.2.5.2 1.2.8.7.3.4.4.6.4.7.6.6.4.6.5.6.3c.1-.1.6.3 1.2.7l2.1 1.8 1.5 1.3.8.6-.3.4-.1.5-.1.4-.1.2c0 .3-.2.4-.3.4v.2l-.3.4c-.3.1-.3.2-.3.7l-.2.8-.1.5-.2.5-.3.6c0 .7-.2 1.1-.5 1.7v.8c0 .4-.5 1.7-.8 2l-.3 1-.2.6v.5l-.2.4-.2.9-.3 1-.8 2.3c0 2-.3 2.3-3 2.1-5.6-.2-11.2-.4-16.8-.4h-1.9l-.3.3c-.4.4-.4.5-.4 1l.1.8c0 5.8.2 11.5.6 17.3v.6c.3 2 .4 4 .4 6v.9l.2.4V99l.1 1.2.1.6c.2.2.3 2.1.2 2.4-.2.2-.2.3 0 .4l.2 1 .3 1.4.4.6h.7l.7-.1 1.2-.1a50 50 0 0 1 5.3-.6c1.5-.3 2-.3 2.6-.6l1-.3a12 12 0 0 1 3.5-.4l1.6-.2.5.4.6 1 .3 1.1.2.9.2.3v.4l.1.3.3.7v.6l.2.3c0 1.5.7 3.5 2.3 6.4l.8 1.4.2.5.7 1.4.1.2c.1.1.3.4.1.5l.2.5v.2l.2.8.3 1.4.2.8-1.3 1.1c-1.2 1.2-2.2 2-2.6 2.3l-.3.2-.2.2-.2.2-.2.2-.9.9-.8.7-.4.6c-.1.3-.5.8-.8 1l-1.2 1.6-.3.4-.4.6-.2.5-1 1.7-.4.4-.4.6-.5.7-.4.7-1.1 1.5c-.5.4-.5.7.1 1.9l.7 1.3v.2l.3.4.8 1.6.2.4.5.6.6 1 1.4 2 .4.6v.3l.4.3.4.3v.2l.4.5 1.1 1.2.6.7c.2 0 .6.6.6.7l.6.8.7.7.1.1.6.6c1.3 1.6 2.6 3 4.1 4.4l4.3 4.9 1 1.2.4.3.5.4.7 1v.1l.8.8c.2.4.6.7.6.7.2 0 .8-.6.8-.9l1.7-1.9.8-.8.7-1 .5-.5.2-.4c.2 0 .3-.1.3-.3l.2-.3.4-.7.4-.6.2-.2.3-.2.3-.3c.3-.5.6-.7 1.2-1.2l.5-.3c0-.3.4-.7.7-.7v-.2c.3-.5.8-.9 1-.8.3.1.3.1.4-.2l.5-.5c.2 0 .8-.3 2.2-2 .4-.5.5-.6 1-.6.3 0 1.1.6 1.1.8l.4.4.8.6c.2.3.6.5.7.5.2 0 1 .7 1 .9l.5.6.8.6.7.3.4.5.3.1.7.4.7.2.3.4.3.2.8.4.8.3.5.4.3.2.5.4.5.2.5.4.8.4c.3 0 .6.3.8.4.2.2.7.3 1.2.5l.5.2.6.1.5.4.9.3.6.3h.2l.5.3.4.3h.3l.3.2 1 .4 1.3.3.7.2.8.3.8.1.7.1.6.3h.5c.7 0 1.3.3 1.8 1l.6.4v2.1l-.2 3-.3 2-.1 2-.5 4.3-.1 1-.3 1.4v1.5l-.2 1.2v1.5c0 .7 1 1.4 2 1.5 6 2 12.4 3 18.8 2.9.2-.3.5-.3 1-.1h2c1.4 0 1.6 0 1.4.2 0 .1 0 .2.2.1.8-.3 4-.5 5-.2l.6.1c.1-.1.4 0 .6.1.4.1 1 .3 2.1.3h2l.9-.2h.8c.2 0 2-.3 3.2-.3h1l-.2-.6v-1c0-.6-.1-.8-.2-1v-.5l-.2-.8-.2-3.1c0-2 0-4-.2-6v-2c0-.2.2-.3 0-.4l-.3-1.6c-.3-8.2 0-10.4.9-10.4l.2-.1.6-.1.8-.3c2.4-1 4.9-2 7.4-2.7l1.5-.5.5-.2.4-.1.7-.2 1-.4.7-.4h.3l.7-.3.6-.1 1.7-1h.2l1-.3 1-.5.5-.2.4-.3.4-.1.7-.6.4-.1.4-.2.5-.3.8-.6.7-.4.4-.2.3-.2.4-.4h.2c0-.2.1-.3.5-.3l.7-.4.6-.2.6-.2c2.6-1.8 5-3.8 7.2-6.2l1-.8v-.1s.2-.3.4-.3l.5-.5v-.2l.3-.2c.1-.3.1-.3.4-.3 0 .1 0 0 0 0 0-.3.3-.6.8-.7l.6-.2c.5-.4.6-.4 3.2 1.4.7.5 1.3 1 2.1 1.9.8 1 1 1.2 1 1.4-.2.1 0 .3.2.3l.3.3 1.2 1.4a7 7 0 0 1 1.4 1.7l.5.3.5.5.6.5.3.2c.2.3 1 .4 1.3.1.9-.3 1.6-.7 2.4-1.3l1.1-.7 1.3-.8.5-.2.3-.1c0-.2.9-.6 1.2-.6l.2-.2.3-.3.5-.4h.3l.3-.2.1-.1.4-.1.3-.4 1.5-1.2.9-.6.2-.2.4-.4.3-.2.4-.2.2-.3 1.3-1.3c1.2-1 2.3-2 3.3-3.2l.4-.3.4-.7.5-.5c.2-.1 1.5-2 2-2.9l.5-.6.2-.3.4-.8.5-1 .4-.7.2-.7.7-1.7c.2 0 .4-.6.4-1l.4-.9c.2-1 .5-2 1-3s.5-.9.1-1.5l-.3-.4a84.4 84.4 0 0 1-6.9-6.9l-.5-.8-.6-.6a11 11 0 0 0-2.4-2.3c-2-1.5-2.2-1.8-2.2-2.1-.3-.7-.3-1.4 0-1.9l.2-1c.1-.5.2-.8.5-.8l-.1-.2c-.3-.3-.3-.6 0-.6s.3 0 0-.4l.2-.6.1-.4.1-.6.1-1.3.3-1.2v-1.5l.2-1.7v-1.7h5.1c.6-.2 1.4.2 1.4.4l.1.1.3-.1c-.2-.2-.3-.2 3.3-.1h1.8l1.5.3 5.3.5c.8 0 1.3-.1 1-.2l.4-2c.3-1.2.6-2.5.7-3.7l.3-2c0-.7.2-1.4.4-2.2l.5-1.9v-.7l.2-.3.1-.5c.7-4.1 1-8.3 1-12.4V74l-.2-3.4-.4-3c0-1 0-1.2-.3-1.6l-.2-1a30 30 0 0 1-.7-3.2l-.2-.6-.2-.4v-.3l-.3-.4-.4-.5-1.5.2-1.9.3h-.7l-.6.3-.7.1-.3.1-.5.2-.7.2-.5.2-2.7.6h-.7l-1 .4-1.1.2-1.2.4-1.4.6-.7.3-.2.1-.2.2-.7.3-.7.4-.1.2-.4.1h-.2c-.3.4-3.2.9-3.4.6l-.5-.2c-.5-.3-.7-1-.7-2l-.1-.6-.3-.6-.2-.7-.2-.6-.3-.6-.1-.6c.1-.4 0-.5-.1-.5-.3-.1-.4-.7-.3-1V58c-.2 0-.3-.8-.2-1v-.3c-.2 0-.6-.6-.7-1.2l-.1-.5-.1-.3-.4-.7-.2-.5-.3-.6-.3-.7-.4-.7-.6-1.3-.5-1-.3-.5-.3-.6c-.3-.2-.4-.6-.4-.8l-.5-.6-.2-.5-.8-1.4c-.3-.1-.5-.5-.7-1.2l-.4-.7c-.2-.3-.1-.4 1-1 2.8-1.7 5.3-3.8 7.5-6.2l.1-.3.6-.5 1-1c1.2-1.3 2.5-2.4 3.9-3.5l.3-.2c.1-.2.6-.5 1-.6l.9-.6 1.4-.7c1.3-.7 1.3-.6 0-1.8l-1-1.2-.3-.2-.7-.6-.7-.8-.8-.8-1.2-1.3c-.4-.6-.8-1-1-1.1l-.2-.5-.2-.3c-.3 0-1.3-1.2-1.3-1.3l-.1-.3-.5-.6-.8-1-.4-.4-.7-.8-.7-1-.4-.4V13a29.3 29.3 0 0 1-4.2-4.6 47.8 47.8 0 0 0-8-8.3.8.8 0 0 0-1.2.3l-.2.1-.5.4-.5.3-.2.2-.4.2c-.2 0-.2 0-.2.2.1.1 0 .2-.2.4l-.4.3-.5.2-.3.3-1.3 1.4c-2.3 2.3-2.5 2.4-2.7 2.8l-1 1.1-1.2 1.3c-.2.3-.4.6-.7.6l-.3.5a14.3 14.3 0 0 1-6.5 5.5c-.2 0-.5-.2-.5-.4l-.2-.3a1 1 0 0 1-.8-.4l-.6-.5-.1-.1-.3-.3-.4-.2-.8-.8-.9-.7-.5-.4-.3-.4-.5-.3c-.4 0-.6-.1-.6-.2l-.2-.3c-.3-.1-.4-.2-.3-.3 0-.3 0-.3-.3-.2-.1.3-.4.2-.4 0v-.2l-.6-.3-.5-.4-.3-.1-.2-.1-.5-.3-.3-.3-.5-.2-.5-.2-.6-.1-.3-.1-.4-.1-.2-.2-.8-.3-.9-.4h-.3l-.3-.2-2-.7-.6-.1-.7-.3-.9-.3-1-.4-.7-.2c-.4 0-1.8-.4-2-.6l-.4-.1-.4-.2-.6-.2-.3-.1-.4-.1-.2-.1-.4-.4c-.2-.4-.4-2.8-.2-4 .1-.3 0-1.3-.4-5.4-.4-5.5-.4-13.1 0-16v-.5h-.3c-.5.3-1.5.3-1.9.2-1.5.3-3 .3-4.5 0-1.5.2-3 .2-4.5 0l-1.4-.1-3.5-.5zm-14 65c.2 0 .5 0 .6.2h.4l.7-.1c2.6 0 5.3.1 8 .4l1.3.2h1l1.6.4.5.2 1.4.4.8.1.8.4c.8.1 1.5.5 2 .7l.7.3.1.3.4.1 1.2.6.3.1.6.2.4.3.7.4.7.4.2.2.7.5.6.6.4.2.6.4 1 .8c1.3.8 2.4 1.8 3.4 3l.3.4.5.5.7.8 1 1 .4.5.2.4.4.6 1 1.1.7.9.6.7.2.7.2.7.4.3 1 2 .4.7.1.4.1.3.2.3.2.4.4.7.2.9.2.6.1.3.6 1 .3.5c0 .1.2.4 0 .5l.2.2.1.3.1.4.3.5.1.1.1.5.3.7.8 1.9.1.6.2.8.3.6.2.7.1.7v.3l.1.5.3.6.2.6v.6l.1.3.2.4v.8l.4 1.8v1.3l.2 1.1v1.5l-.2.4c.2 1.3.3 3.8.2 4l-.3 3c-.9 2.4-1.5 4.9-1.8 7.5l-.2 1-.1.7c0 .5-.3 1.2-.5 1.4l-.1.5-.1.2-.3.5v.5l-.8 1.1-.2.6-.3.4-.3.5-.4.4-.2.3-1 1.1-1 1.2v.1l-.4.6-.2.5-.3.2-.3.7-.4.5c-.3.7-.7 1.4-1.3 2l-1 .6-.9.6-.4.2-.9.7-.7.6-.7.5c-.3.3-.7.4-1 .4l-.3.4-.3.2-.3.1-.1.2-.5.4-.3.4c-.1-.1-.1 0-.1 0l-.2.2-.4.4-.7.3-.5.4-.7.4-.9.4-.6.1-.5.1-.5.1-.5.3c-.1.2-.2.2-.5 0h-1.3l-.6.2-.7.1h-.4l-.4.1a124.7 124.7 0 0 1-9.1.4l-2.1-.1-1.6-.1-1.4-.2-1.3-.2-.5-.1c-.1 0-.5 0-.7-.2l-.8-.3-1.3-.4-1-.5h-.3l-.6-.4-.7-.3-.4-.3-.6-.2-.4-.3c-.2 0-.5 0-.8-.3l-.8-.2-.6-.4-1.5-.8-.1-.1-.5-.1c-.4 0-.7-.3-.8-.4l-.7-.3-.5-.1-.3-.3-.2-.1-.5-.2c-.2 0-.3-.2-.3-.3l-1.3-.7h-.5a1 1 0 0 0-.8-.6h-.3v-.3l-.6-.2-.4-.3-.1-.2c-.2-.1-.3-.3-.6-.3l-.5-.3-.8-.5-1-.7-.7-.4-.7-.6-.6-.6-.8-.5c-1.1-.7-2.1-1.6-3-2.6l-1-.8a12.8 12.8 0 0 1-5-5c-.6-1.3-1.7-4-2.4-6.4l-.7-2.3-.8-3.3-.3-2.4a39 39 0 0 1-.2-7.7v-3.2l.1-.7.1-.7v-.8l.3-1v-.4c0-.4.3-2.3.6-2.4l.2-.2c-.2-.4.7-4 1-4.1V69l.2-.6.2-.6.1-.3.4-.7.3-.7.2-.4v-.5l.3-.6.1-.2.2-.3v-.5c.3-.1.8-1 .8-1.2l.2-.5c.3 0 .4-.4.4-.5l.2-.6.2-.4a73 73 0 0 1 2.5-3.6v-.3l1.1-1.5.7-1 .7-.9.4-.4.5-.6.2-.4c0-.2.3-.6.8-.8.3-.1.5-.2.4-.3l.3-.4.4-.4.3-.3.5-.4s.6-.8.8-.8l.4-.1c.3-.5 1.4-1.3 1.5-1.3h.2c0-.1 0-.2.3-.2l.4-.4v-.2l.7-.4.6-.3.4-.3 1.8-.9.7-.2.4-.3h.7l.5-.3.3-.1.4-.1.4-.2h1.5l.8-.3 3.2-.4h2.4l1.4-.2.3-.1zm4.2 3.5l-1.7-.1-2.2.2c-2 0-4 .2-4.2.4h-2.1l-.6.2-.6.1-.3.2-1.8.4c-.3.2-.5.2-.7.2l-.5.3-1.3.7c-1.4.7-1.8 1-2.3 1.5l-.4.3-.3.2-1 .7h-.1c0 .3-.5.7-.6.7l-.6.7-.6.4-.7.8-.6.7-.6.5c-.8.7-1.5 1.5-2 2.4l-.5.7c-.2.1-.4.5-.4.6l-.3.5-.4.4-.6.8-.6.9-.4.8-.4.7-.3.6-.3.6-.4.8-.8 1.4v.5l-.4 1-.5.5-.1.5-1 2.7a19.1 19.1 0 0 0-1.5 5.7l-.2 1.6-.2 1.4V81l-.2.8c-.1.2 0 1.9.1 2.2.3 1.9.5 3.8.5 5.6 0 3 .1 3.5 1.8 8 1.2 3 2.7 6 4.6 8.7l.5.3s.2.3.6.4c.4.3.7.5.7.7l.4.5.5.6c0 .2.4.5.6.5l.5.4.4.5c.2-.1.3 0 .4.2l.4.4 1.3 1c.4.6.8.7 1 .7l1 .8c.6.7 1.6 1.4 2.7 2l1 .5.5.3c1.4.6 2.7 1.2 4 2a15.2 15.2 0 0 1 3.7 1.8l.5.3.6.2.5.1.2.2.8.3.9.4s.2 0 .2.2c.2.2.6.5.8.3l1.4.6 1 .4.4.1c1.1.4 2.4.6 3.6.6l2 .1v-.1h.3l1 .2.9.1c0-.2 2.4 0 2.8 0h1.5l.4-.2.6-.1.8-.1.7-.1.7-.3h.8l1.5-.3 1.4-.3.6-.3.5-.3.3-.3c.3 0 .6-.4 1.5-1l.8-.7.3-.3.4-.2.3-.2.4-.2.4-.2c0-.3 0-.4.2-.4l.7-.4.5-.6 1-.6.5-.5.7-.6 1.6-1.4v-.3l.3-.4.4-.5.3-.6c.1-.3.6-1 .9-1.1l.3-.6 1-1 .6-.9v-.2c.3-.3 1-1.3 1-1.6l.3-.3V106.2l.3-.6.4-.8c.6-1.4 1-3 1.2-4.5 1.6-5.9 1.8-12.1.7-18.2l-.3-1.1-.2-.8-.2-.8-.2-.7v-.3l-.2-.5v-.6c0-.2 0-.3-.2-.5l-.2-.3v-.2l-.2-.3c.1-.1 0-.3-.1-.4-.1-.4-.3-1.1-.1-1.2v-.1c-.3 0-.5-.4-.5-.6l-.1-.4-.3-.4-.2-.9c-.2-.3-.2-.4 0-.6l-.4-.2-.4-.8-.5-.8-.4-1-.3-.8-.2-.5h-.2l-.3-.8-.6-1.4-.4-.8v-.4l-.3-.3-.3-.4-.8-1.5-.3-.7-.5-.6-.4-.5c-.2 0-.4-.3-.6-.7l-.3-.4-.6-.6-.4-.5-.2-.2c0-.4-1-1.4-1.2-1.4l-1-1.1-1.1-1-1.2-1.1c-1-.7-1.2-1-1.4-1h-.1c0-.3-.5-.8-.8-.8l-.4-.2-.5-.4-1-.6-1-.7h-.1l-.3-.2-.2-.1-.4-.2-1.5-.9h-.2l-.7-.2-.8-.4c-.2 0-.3 0-.3-.2l-.6-.1-1-.2-.7-.3h-.6l-.9-.2-.8-.1-.6-.1-.7-.2c-.1 0-.1-.2-.4 0h-.7c-1.3-.2-2.7-.3-4-.3zm240.4 22.7l-.6 2.1-.5 1.8c-1 2.6-1.8 5.4-2.3 8.2v.2l-.2.7-.1 1.2v.8c0 .2-.2.6-.5.7l-.2.1h-.6a101.5 101.5 0 0 1-6.4-1.7l-2.3-.6-1-.1-.6-.1c-.3 0-.9 0-1-.2h-.3l-1.6-.2-.8-.1-.2-.1h-.7c-.2 0-.6.1-.7.4l-.2.3-.1.2-.2.2-.1.3-.8 1.3-.2.5-.2.3s-.2.1-.2.3l-.3.3v.1l-.2.2-.1.1-.1.3-.2.3-.2.3-.1.2-.2.2c-.3 0-.3.2-.3.4l-.2.3-.3.4-.5.7-.4.3c0 .2-.3.4-.4.4l-.2.3-.2.1-.3.4-.4.3h-.2l-.4.4-.4.3c0 .2-.9.7-1.1.7l-.1.1-.1.2c-.4 0-.2.3.3 1l.2.3v.1l.4.3.3.6.3.3.3.3.5 1c1 1.3 2 2.8 2.8 4.3l.1.3c.3.6.6 1 .6 1.3 0 .4.7 1.4 1 1.7v1.2l-.2.5-.2.2-.2.2-.6.3-.8.5-.3.2-.3.2h-.2l-.1.2-.3.1-.3.2-.6.4-.7.3-.3.2-.3.2-.4.2-.4.2h-.1l-.2.2-.3.1-.3.2-.2.1-.2.1h-.1c0 .2-.5.5-.5.5l-.5.2-.4.1-.2.2-.1.1h-.3l-1.2.6-.1.1h-.2l-.4.2-.5.3-.3.1c0 .1-.2.2-.3 0l-.2.2-.4.1c0 .1-.2.2-.3.1l-.2.1c0 .2-.7.5-.8.4l-.3.2-1 .5-.6.3-.1.1s-.2 0-.2.2h-.3l-.1.2h-.3l-1.2.7-.7.3-.2.1a4 4 0 0 1-1.2.7l-.4.2-.3.1c0 .2-.1.2-.3.2l-.2.2-.4.3-.7.2-.7.4h-.3l-.2-.2-.1-.2-.4-2.4-.1-.6-.1-.4-.2-.4v-.4l-.2-.3v-.4l-.3-.4-.4-.9-.2-.2-.2-.4c0-.2 0-.4-.2-.4l-.4-.8c0-.3-.2-.4-.2-.5-.2 0-1.2-1.7-1.2-1.8v-.3c-.1 0-.6-.7-.5-.8l-.2-.3-.2-.3v-.2l-.2-.3c-.2-.4-.4-.7-.5-.5h-.2l-.3.1s-.2.2-.5.2l-1 .2-.5.2h-.7-.4l-.4.2h-.8l-.1.2c-.2-.1-.3 0-.4 0-.1.1-.2.1-.2 0l-.1.1h-.6l-.3.1-.4.1-.5.1H293.2l-.8.1H291l-.2-.1v.2l.2.4.1.7v.7l.2.2v6.3c.1.8 0 1.6-.1 2.4-.3 1.2-.3 1.6-.2 1.7v.5l-.3.6-.3.3-.2.3c0 .2-.2.2-.3 0-1 .2-2.2.3-3.3.2h-1.2l-1.9-.2h-1l-.4-.2c-1.7 0-3.5-.3-5-1l-1.4-.4-.6-.2-.7-.3-.8-.3-.6-.2-.6-.2-.5-.3-.6-.3-.4-.1-.1-.1-.6-.3-.6-.3-.6-.2-.7-.4-.6-.3-.6-.2-.3-.1-.2-.1-.4-.2c-1-.5-2.2-1-3.3-1.2l-.8-.3c-.2-.1.4-2.3.7-2.8a24 24 0 0 1 1.3-3.8l1-3.2.5-1.4v-.2l-1.7-.7-.5-.3c-.2-.2-.4-.2-.8-.3l-.6-.3-.2-.2h-.2c0-.2-.9-.5-1.1-.3l-.3.2c0 .2-.7.6-1 .7l-.2.1a2 2 0 0 1-1 .6 19 19 0 0 0-3.6 2.1l-.3.2-.2.1-.3.3-1 .5-1 .4-.9.4c-.7.4-1.2.3-1.4 0-.1-.3-.2-.3-.3-.3-.2 0-.3 0-.4-.3l-.2-.3-.2-.1-.1-.1-.3-.2-.4-.3-.2-.1-.1-.1-.3-.2-.1-.2-.2-.2-.2-.1s-.3 0-.7-.4l-.4-.3-1-.8-.2-.2a.6.6 0 0 1-.4-.4l-.2-.2-.2-.1-.1-.2-.1-.2-.3-.3-.4-.4-.1-.2v-.1l-.2-.1a3 3 0 0 1-.7-1.2s0-.2-.2-.2c-.3 0-.4-.2-.3-.4l-.1-.3c-.3 0-.9-.9-.8-1l-.2-.3-.1-.3-.3-.3v-.4l-.2-.2-.5-.8V93l-.3-.5-.4-.8V91.4l-.2-.2-.1-.1-.2-.5-.2-.5c-.2-1-.6-2.1-1-3.2V86h-.2l-.2-.6V85c-.2 0-.3-.6-.2-.8 0-.2 0-.3-.2-.4l-.1-.4-.2-.5-.1-.2-.1-.3V82v-.2c-.2-.2-.2-.6 0-.7.2 0 .1-.2 0-.2-.2 0-.2-.2 0-.3 0 0 .2-.1.2-.3.2-.3.6-.5.7-.5h.6c.2 0 .3 0 .4-.2l.4-.2c1-.7 2-1.2 3.2-1.7l.4-.2h.2c.5-.2 1-.5 1.6-1l-.2-.1-.2-.4-.1-.3-.3-.3-.1-.2-.1-.2-.7-1-.3-.5-.3-.3s-.3-.5-.2-.7l-.2-.4c-.1-.2-.2-.3-.1-.4l-.2-.3-.1-.3v-.3l-.1-.2-.3-.4c-.2-.4-.2-.4 0-.6V69.4l-.2-.2-.1-.4V68l-.2-.2-.1-.3V67l-.2-.3v-.2l-.3-.4v-.4l-.1-.2v-.1l-.2-.1v-.8c0-.2-.1-.7-.3-1v-.2c-.2-.1-.1-.3 0-.5V62l-.3-.5-.2-.4-.1-.8v-.6l.1-.5v-.8l-.1-.2v-.8l-.1-.2V57l-.1-.4V56l-.1-.3c0-.5 0-.9-.2-1.2V53.5c-.1-.3 0-.7 0-.8.2 0 .2 0 0-.2a137.2 137.2 0 0 0-11.3-2.3l-1-.1H223l-.7-.1c-.4 0-.7 0-.8.2 0 .2-.5.2-.6-.2l-.4-.3-.2-.4V48c-.1-.2 0-.6.1-.6V46l.3-.8.1-.8.2-1.2c0-.5.2-1.2.4-1.3v-.5l.2-.3v-.3l.3-.3.1-.4h.1c0-.1 0-1 .3-1l.1-.5c.2-1 .4-1.3.5-1.4v-.7l.2-.6.4-1.2.6-2.2.4-.9.1-.3V31l.2-.5.1-.4.3-.7.3-.5.2-.6.5-1.3.3-.7.2-.3v-.2l.3-.4.2-.5.2-.2.2-.4.1-.1V24l.2-.2.1-.2.1-.2.2-.2.1-.1v-.2l.2-.2.3-.6c0-.2 0-.4.2-.4l.2-.3.8-.5.2.2h.2l.3.1c0 .3.4.4 1.3.7l8.2 3c.7.2 1.2.5 1.1 1 0 .2.4-.5.5-1l.4-.5.2-.4.6-1 .2-.4v-.3l.1-.2c0-.1 0-.2.3-.3l.2-.1.3-.8.2-.1.3-.3.3-.4.2-.3c.2-.1.3-.3.3-.4 0-.2 0-.3.3-.4.2 0 .6-.6.6-.7l.1-.2.5-.5.3-.3.4-.4.3-.3.7-.6.4-.4.2-.2.2-.3.1-.2.3-.3.6-.4.4-.3.4-.3.2-.2.5-.3.6-.5.4-.2-.3-.4-.2-.4-.6-.8c-1-1.3-1.2-1.9-1.6-2.2l-.5-.7-.4-.5-.7-1-.7-.9-.4-.5-.5-.6-.2-.2-.3-.2-.3-.4-.3-.3c-.3-.3-.1-1.1.2-1.4.2 0 .3-.3.3-.3 0-.3.2-.5.4-.5l.2-.2.2-.2c.3.1.4.1.4 0l1.1-.5a9 9 0 0 0 2-1l.7-.3.2-.1h.3l.2-.2.3-.2h.2c0-.2.8-.7 1.6-1l.6-.2h.3s.2 0 .2-.2l.1-.1c.2 0 .8-.4.8-.5l.2-.1.4-.2.2-.1.2-.1.2-.1.7-.4.9-.4V-5l.2-.1 1.8-.9 1-.5.5-.3.1-.1c.3 0 1.2-.4 1.5-.6h.2l1-.3h.4c.2 0 .3 0 .2-.2h.2l1.2-.3h.4l.3-.2s.4-.2.5-.1l.3-.1.4-.1h.4l.3-.1.4-.2c.8-.4 1.4-.2 1.7.7.2 1 .7 1.8 1.5 2.6l.8 1 1 1.4.8.9c.2.2.4.4.4.7l.5.7.3.6.3.6c.3.2.7 1 .9 1.4.2.4.5.5.6.4h.7c1.3-.5 2.7-.9 4-1l.3-.2h4.2V.3l.1-3.3.1-.8c0-.7.1-1.3.3-2V-6l.1-.8.1-.9.7-2.2h.2c0-.2 0-.2.3-.2h.6l.4.1.7.2c3.4.3 6.7.8 10 1.5l1.3.4h.6l2.3.5 2.5.7c.8 0 1.6.2 2.3.5h.4l1 .2 2 .5c.3.1.2.6-.1 2l-1 3.8-.3 2.1a37 37 0 0 0-1 3.3l-.4 1.1c-.3.9-.3 1 0 1l.8.5.1.1.3.2.7.3c.7.3 1.6.8 1.9 1.1l.4.3.3.1.4.3.3.3.4.2c.3 0 1 .4 1 .6h.3c0 .1.6.5.6.7 0 .2.4.2.6 0l.6-.5c.2 0 .3-.2.3-.2v-.2c.2 0 .2 0 .2-.2l.3-.2.3-.3.3-.3.7-.6.3-.1s.2-.1.2-.3c.2-.2.2-.3.4-.2v-.1l.2-.2.4-.4.2-.1.2-.2.2-.3.2-.2v-.1l.8-.9s0-.2.2-.3l.1-.2s.1-.2.3-.2l.1-.3c0-.2.3-.8.5-.8v-.2c0-.3.2-.4.4-.4l.1-.1h.7l.2.2.2.1.3.3.6.5.3.3.3.3.2.1.3.2.4.3c0 .2.1.3.3.3.3 0 .9.5.8.6l.1.2.7.4.5.4.3.3.3.4.2.1s0 .2.2.1l.1.2.2.2.2.3.3.2s.1 0 0 .1l.1.2c.2 0 1 .8 1 1l.2.1s.2 0 .1.2l.2.2.4.3c.4.3.7.7.5.6l.1.2c.3 0 .8.5.7.6l.1.2.4.3.3.3.2.2h.1l.4.5.4.5.2.2v.2c.2 0 .2.2.3.3l.1.3.3.2.3.3.2.4.2.3h.2l.2.5.2.2.2.2.4.4.2.4.6.6.6.8.2.4.2.3.2.4.3.2h.1l.4.6c0 .1 0 .8.2 1 .1.3 0 .4 0 .4l-.2.2v.2l-.2.3v.2l-.3.1c0 .3-.3.4-.6.5l-.5.3-1.3 1-1 .7-.4.3-1 .8-.5.4-.2.1v.2l-1.8 1.6-.3.3-.2.1-.2.3-.6.3-.5.3.3.8.4.8.3.5.2.5v.2c.3.3.4.4.5.8l.2.8.2.5v.2l.4 1 .1.3.1.4.1.2.3.7v.2l.3.8v.3l.1.1.1.4.2.5v.4c.2.2.4 1.2.4 1.4v.4l.2.5v.2l.2.2v2.7l.1.3v.6l.1.4v.6l.1.7v.7c.2.3.1.5.1.5v.9l11.5 2.8h.2l1.5.4 1.2.4.1.2.2.5.1.1c.2.3 0 1.7-.2 1.9V60.8l-.2 1.9v.8l-.1.7-.2 1.1v.8l-.2.7c0 .4 0 .5-.2.4-.1 0-.1.1 0 .2 0 0 .1.1 0 .4v.4zm-3.4 4l.8-2c.4-1.6.8-3.3 1-5l.2-1.4.2-2.4v-2.3c0-.3-.2-.5-1-.7l-1-.4c-2.6-.5-5.3-1.2-8-2l-1-.2h-.6l-1.6-.5c-1.2-.5-1.4-.6-1.4-1.2v-1.8l-.1-.5-.1-.5V51l-.1-.5v-.7l-.1-.3v-.3l-.1-.5v-.4-.9a.8.8 0 0 1-.1-.6v-.7l-.1-.4-.1-.5-.2-.5-.2-.7-.2-.3v-.5l-.2-.7-.1-.3c0-.1-.2-.3-.1-.4l-.1-.4v-.1l-.2-.5-.2-.4-.1-.4-.2-.3v-.3s0-.2-.2-.3l-.1-.2v-.3a.4.4 0 0 1-.2-.4l-.2-.4-.1-.4-.1-.4-.2-.3-.1-.2c-.1-.1-.3-.2-.2-.4l-.7-1.5v-.2l-.3-.5-.2-.6-.1-.1c-.5-.3-.2-.9.6-1.5l1-.9 1-.8.6-.5.2-.3h.1l.3-.3.4-.4c0-.2.1-.3.2-.3h.3l.2-.3.1-.2v-.1l1-.8h.2l.4-.3.5-.4.1-.1.2-.2.2-.2 1-.7c.6-.4 1.1-.9 1-1l-.3-.7c-.3-.3-.3-.6-.3-.6l-.3-.3-.6-1-.2-.1-.3-.3-.2-.3c-.2-.2-.3-.3-.2-.4l-.2-.2-.2-.2-.4-.5-.5-.5-.3-.5-.4-.4-.2-.2-.2-.3-.3-.3-.6-.8-.1-.2-.1-.1-.2-.1-.2-.2-.3-.4-.5-.4-.8-.9a.4.4 0 0 1-.3-.3l-.3-.3-.1-.2-.2-.2-.3-.2-.2-.1v-.2l-.3-.1c-.2 0-.5-.5-.5-.6.1 0 0 0 0 0-.1-.1-.3-.2-.3-.4l-1-.7-.4-.4-.3-.3-.4-.3-.8-.7-.3-.2-.4-.2-.4-.4-.3-.2-.3-.1c-.2-.2-.8-.4-.8-.3l-.2.5-.3.3-.7.7v.2l-.2.1-.2.3-.2.2-.2.2-.6.6-.3.3-.2.3-.4.2-.5.4-.2.3-.4.2-.3.3-.6.6-1.3 1-1 .7-.4.3-.2-.2-.3-.1-.2-.2h-.2l-.1-.2-.2-.2-.1-.1c0-.2-.1-.2-.4-.3l-.5-.2-.2-.2-.3-.2-.3-.2-1-.5-.3-.2c-.3 0-1-.5-1.2-.7l-.4-.4-.4-.1-.2-.2h-.2l-.5-.4-.6-.2-1.2-.9c-1.1-.2-1.3-.5-.8-2 1-3.2 1.9-6.5 2.7-9.7l.2-1.1-.1-.3-.5-.3h-.5c-3.3-.9-6.7-1.6-10.1-2.2l-.4-.1c-1.2-.1-2.4-.4-3.5-.7h-.8l-.7-.2-.7-.1h-.4l-1.4-.3h-2.1l-.1.5v.4l-.2.7c0 1-.2 2.1-.4 3.2 0 .9-.1 1.2 0 1.6v.6c0 .7 0 1.4-.2 2l-.2 1-.3.3-.6.2h-2.9c-.9-.2-2.2 0-4 .5l-1 .2h-.3l-1 .3c-.2 0-.3.1-.4 0h-2.2l-.5-1-1-1.8v-.2l-.1-.1-.1-.2-.1-.1-.4-.7-.3-.5-.3-.3-.5-.7-.7-.9-.2-.3-.3-.2-.2-.3-.8-.8-.3-.3-.3-.3-.3-.4-.4-.3-.6-.9c-.2-.3-.4-.3-1.1-.2l-.9.3h-.4l-1 .3h-.3l-.4.2-.7.2-1.3.6h-.5l-.2.1-.2.2-.2.1h-.2l-.3.2-.8.4-.5.3-.5.2-.6.2-.5.4-.5.3a25 25 0 0 0-3.2 1.7l-3.4 1.8-.8.4-.3.2-.3.2-.7.3-.6.3-.5.3c0 .1.2.5.4.6l.8 1.2.4.6.4.5.3.4.2.2.1.3h.2l.3.4.3.3.1.2.1.2v.2c.3.2.4.5.6.9l.1.3c.2 0 .4.4.4.5.3.3.5.6.4.8-.1 0-.1 0 0 .2l.2.3c0 .2.1.6.9 1.6.2.3.3.4.2.7 0 .2-.5.6-.7.5l-.2.2-.5.4c-.2 0-.3.3-.3.3 0 .2-.6.5-.8.5l-.4.2-.4.3-.3.4-.4.2v.1l-.4.4-.2.3-.3.2-.1.1-.4.4-.3.5-.3.2-.2.2-.2.2-.2.2-.3.2-.4.4c0 .3-.2.4-.3.5-.2 0-.4.3-.5.6l-.2.2-.1.4-.3.2-.4.5-.2.3v.1l-.3.2-.2.3-.1.1-.1.2-.4.6-.4.6-.2.4-.3.4-.2.5-.1.4-.2.3-.2.2c0 .4-.3.8-.7 1l-.4.2-1.2-.3-1.7-.5-1.1-.5-1.2-.3-2.4-1-.6-.2-.8-.3-.8-.3-.7-.2-.9-.2c-.4-.1-1 .3-1.2.9-2 3.2-3.4 6.8-4.3 10.5l-.1.6-.4 1.2c-.1.8-.1.9-.3.8 0 .6-.3 2.4-.6 3l-.2.3-.1.4a4 4 0 0 0-.5 1.2l-.3 1v.6l-.2.5c0 .2 0 1.2-.2 1.9l-.1.6h.3l.6.1h.9l.5.1 1.8.4 3.5.7 1.2.3s.1.2.2.1h1c4.8 1 6 1.5 6 2v1l.5 4.8V58.2l.1.2v1.2l.2.4v1l.4 1v.8l.1.7v.3l.1.3v.2l.3.5v.6l.2.3.2.5.2.5v.5l.2.2v.2c.1 0 .2.1.1.3l.1.5v.3l.1.4c.7 1.8 1.5 3.5 2.6 5.1l.3.7.2.3.2.3v.1l.2.2c.1.1.1.1 0 .2l.1.1c.2 0 .3.2.3.5v.4c.2.3.1.4-1.3 1.7l-1.4 1c-.6.3-.8.3-1 .3 0-.1 0 0-.1 0l-.3.2-1 .5-1.1.6-.3.2-.4.2-.3.3-.2.1c-.2.1-.3.5-.3.8.1.5.2 1 .5 1.5l.2.8.3 1v.4c.2 0 .3.6.2.8h.1l.2.4v.3l.1.2v.2h.1v.3l.2.2.4 1 .3.6v.2l.2.3.1.2v.3l.2.1.6 1c.3.8.8 1.6 1.3 2.4l.2.2.3.4.3.3c0 .2.9 1.2 1.3 1.6l.3.4.2.2.4.3.5.5.3.3.4.2.9.7s.3.3.5.3l.5.3 1.5 1.1c.6.4.5.4 1 .3l.2-.1c1.6-1.1 3.3-2.1 5-3l.6-.3.4-.2c.2 0 1.1-.6 1.7-1 1.1-1 1.3-1.1 1.5-1 .5 0 .9 0 1.1.2l.5.3.5.4h.1c.2-.1.4 0 .3.1 0 .2 0 .2.2 0l.4.2.2.2.4.1.7.3.7.3.9.2.9.4 1 .2-.7 2.5v.5c0 .3-.4.8-.5.7v.2l-.5 2-.3 1-.3.8a67.5 67.5 0 0 1-1.1 3.7l1.1.5 2 1 1 .4c.5.2 1 .3 1.3.6l1 .5.5.2.2.1.2.1c2.3 1 4.7 1.8 7.1 2.5l.9.2 2 .4 1.8.1c.6.2.7.2 1 .1H288.7l.3-.2.1-1 .1-1V112.7 108.7l-.1-1-.1-.4-.1-.2-.1-.5-.1-.5h-.1v-.4c-.2-.2 0-2 .1-2l.2-.3c.2-.3.7-.3 1.2-.2H291.8l.3-.1H294.3l.8-.2h1l.3-.1.4-.1.4-.1.5-.1.8-.2.8-.1.3-.1.4-.1c.1-.1.4-.2.5-.1l.4-.2h.3l1-.3c0-.2.3-.3.7-.3h.5c.2-.2.2-.1.4.6.6 1.9 1.5 3.7 2.6 5.3h.1l.2.5.5.8c.5.8 1 1.7 1.4 2.7l.1.2.2.6.2.7.2.9c.2.9.2.8 1 .3l.9-.5h.2l.4-.4.6-.3.6-.4 1-.5c.3 0 .6-.3.7-.4h.3l.2-.1 1-.6h.1l.4-.2.7-.3.3-.2.6-.3.8-.2.2-.2h.4l1.2-.7 2.1-1a28.7 28.7 0 0 0 6-3.5c.2-.2.2-.5 0-.7v-.1l-.1-.3-.2-.4v-.1l-.1-.3-.1-.1-.2-.2-.1-.3-.1-.3v-.2l-.7-1c-1-1.6-1-1.8-1.3-2l-.5-.7-.5-.8-.3-.5-.2-.3a8.6 8.6 0 0 1-2.3-4.6l.3-.2.2-.1.4-.4.4-.3.2-.1.2-.3.6-.3.6-.4.2-.2.3-.2.3-.2c0-.2.1-.3.2-.3l.2-.1c0-.1.1-.2.2-.1.1 0 .2 0 .1-.2-.1-.1 0-.2.1-.2h.1l.3-.3.3-.3h.1l.1-.2.2-.2.3-.2.1-.2.2-.3.2-.3v-.2l.2-.2.1-.1.3-.4.4-.5v-.2h.2c0-.1.5-1 .7-1.1l.1-.4.3-.3.3-.5.4-.6.2-.3c0-.3.5-1 .7-1.2v-.1l.2-.2.2-.3.1-.2.2-.2v-.1l.3-.2a6 6 0 0 1 2.3.4c.2.2.9.2 3.2.6 3.4.6 7.8 1.7 9.4 2.3l.3.1v-.2c-.1-.3 0-1 .2-1.1 0-1 .2-1.8.6-2.6.1-1 .4-1.8.7-2.6l.2-.8.8-2zm-36.8-17.8s0 .3-.2.3V55.3l-1.5 4.5-.3.8-.2.5-.4 1-.1.2-.5.7-.2.4-.3.5-.7 1-.3.4h-.2v.2c-.1.1-.4.6-.6.6l-.1.2-.2.3-.2.2-.4.3-.3.4h-.2l-.4.4-.4.3-.2.1-.3.3-.6.5a9 9 0 0 1-2.2 1.5l-.3.1-.3.2-.6.3-.8.4-.3.2-.3.1-.3.1-.9.5-.5.2-.5.2h-.9l-.3.2-1.3.3-.5.2H295.1l-.3.1-.4.1h-1.1l-.7.3h-.8l-.1.1h-.6l-.1.1h-.8l-1.2.3H283.3l-.8-.3h-.7l-.2-.1-.6-.2-.2-.1-2.4-.5-1.6-.6c-1.3-.9-2.7-1.6-4.2-2.1l-.6-.3-.3-.2c-.3 0-.7-.3-.8-.4l-.3-.2-.3-.3-.3-.1-.6-.6-.3-.2-.1-.2-.3-.3-.2-.3v-.1l-.6-.7-.6-.8-.3-.3-.3-.2v-.2l-.4-.3-.2-.3a5 5 0 0 1-1-1l-.2-.7-.2-.6-.1-.3-.3-.6-.2-.5-.2-.4c-.2-.3-.2-.5-.1-.7l-.2-.2v-.2l-.1-.2-.3-.4-.1-.3-.1-.1-.2-.4v-.4l-.2-.4-.2-.4V55.3l-.1-.3v-.3c.2-.1.3-.4.1-.5V54l.1-.4v-.4l.1-.3v-.2-.3a73 73 0 0 1 1-5l.5-1.2.3-.9.2-.8.3-.7.2-.2s0-.3.2-.4l.3-.4.4-.7.5-.6v-.1l.3-.3.3-.3.2-.2.2-.3.3-.2c0-.1 0-.3.2-.4l.3-.5.3-.3.7-.7.2-.3c0-.2.2-.4.3-.4l.3-.4.1-.3h.2l.1-.2.2-.2c0-.2.1-.2.2-.2l.6-.6.1-.3c.3 0 .4-.3.4-.4l.1-.1h.2l.2-.3.2-.2h.2l.2-.4.3-.2.3-.4.6-.4.4-.4.4-.3.4-.3.4-.4c.6-.5 1.3-1 2-1.3l.6-.4c1-1.1 2-1.7 3.6-2.1a24 24 0 0 1 4-.6h3.5l1.5.2c1.5.2 3 .5 4.5 1l1.9.4.4.2.4.2h.4l.6.4h.2l1.3.7.1.2a7 7 0 0 1 2.3 1.1l.2.2.3.1.4.2.1.2.4.3.4.3h.2l.2.2.3.2.1.1.2.2.3.1c0 .2.4.5.6.6l.2.2.3.3.3.2.2.2 1.7 2h.2l.7.8.5.6.4.5.2.3.3.3.2.2c.1 0 .3.3.3.6 0 .2.1.3.2.3l.1.2.2.3.1.2.2.4s.4.4.3.6v.2c.3.2.6 1 .6 1v.4l.2.2.1.1.2.4v.4l.1.3.3 1.2v.4l.2.2V49l-.1.5v.5l-.2 2v.4l-.3 1-.2.8v.2zm-2.6 1.9l.3-1c0-.4 0-.9.2-1.3.3-1 .4-2.3.4-2.4l.1-.7.1-.6v-2c-.1-.2 0-.3 0-.4l-.1-.4-.2-.8c-.2-1-.3-1.2-.6-1.5l-.1-.3v-.2l-.3-.7v-.1c-.2 0-.3-.4-.3-.4l-.4-.5-.1-.4-.4-.5-.3-.4-.2-.5-1.1-1.5-.4-.3c0-.2-.2-.3-.2-.3l-.3-.3-.2-.3-.4-.4-.4-.5-.4-.4-.3-.3-.3-.3-.3-.2-.5-.4-.7-.6-.2-.1-.5-.4-.3-.3-.3-.2-1.4-.9a11.6 11.6 0 0 0-3.1-1.7l-.9-.4-.8-.3-.7-.2-.5-.2c-.1-.1-1-.3-1.3-.2-1.1-.1-2.3-.3-3.3-.6-1.8-.4-2-.4-4.9-.1-2 .2-4 .7-5.8 1.4l-.2.2s-.2 0-.3.3l-.5.3-.4.2-.4.2-.4.2-.3.2-.3.2c0 .1 0 .2-.2.2l-.3.2-.8.6-.5.4-.6.5a6 6 0 0 0-1.5 1.3l-.5.5-.2.3-1.8 2a9 9 0 0 1-1.6 1.8l-.2.3-.2.3-.2.2v.1l-.4.5-.3.4s0 .1-.2 0c-.2.2-.4.4-.3.5l-.6.8-.3.4-.1.2c-.4.7-.7 1.3-.9 2l-.3 1.1v.2l-.3.6-.2.5-.4 1.6-.1.4V52l-.1.5v1l-.1.3v2.1l.1.4.2.2c0 .1 0 .4.4 1l.2.5.2.3v.5l.1.2.1.2c.2 0 .2.2.2.2l.2.5.2.4.2.7.2.3.3.5.6 1 .2.2.1.2.3.3.3.2c.1.2.5.5.5.7l.3.3.5.7.4.4.1.1c.1.2.6.8.8.8l.1.2h.2l.1.1.4.3.4.3a8 8 0 0 0 2.4 1.3c3.2 1.8 6.8 2.9 10.5 3l.7.1h4.1l.5-.2h1c.3-.1.3-.1.4 0l.1-.1.6-.2.5-.2h.6l.6-.1h.3V71l.5-.1 1-.2h.7l.2-.1.3-.1 1-.3h.4l.4-.3.4-.1.5-.3h.3l.4-.3.3-.2h.2c.2 0 1-.4 1-.6.3 0 .5-.2.8-.4l.7-.5.8-.5.8-.7.6-.3.2-.3.2-.2.5-.5.6-.5.2-.1v-.2l.3-.1.7-.8v-.1l.2-.4.3-.4.2-.1.2-.4.2-.5.3-.3.1-.4.2-.5.2-.5.2-.3.2-.4s.1 0 0-.2l.1-.4.8-2.2z"/>
    <filter id="a" width="101.2%" height="101.8%" x="-.3%" y="-.4%" filterUnits="objectBoundingBox">
      <feOffset dx="2" dy="2" in="SourceAlpha" result="shadowOffsetOuter1"/>
      <feColorMatrix in="shadowOffsetOuter1" values="0 0 0 0 0.996078431 0 0 0 0 0.996078431 0 0 0 0 0.996078431 0 0 0 1 0"/>
    </filter>
  </defs>
  <g fill="none" fill-rule="nonzero">
    <use fill="#000" filter="url(#a)" xlink:href="#b"/>
    <use fill="#222" xlink:href="#b"/>
  </g>
</svg>
