<svg xmlns="http://www.w3.org/2000/svg" xmlns:xlink="http://www.w3.org/1999/xlink" width="370" height="173">
  <defs>
    <path id="b" d="M255.4-60.6l.5.3c.4 0 1 .3 1 .6l.9.5 2.8 1.3 2.3 1.5v.3l.4.5.5.7.6 1.1L266-50l.7 1.5.2.8.3.5.1.3.3.3.2 1.6c.3.5.4 1.2.3 1.3V-40.7l.1.7-.1.7-.2 2-.4 2.2-.3 1.5c0 .2 0 .6-.2.9v.4l-.3.9c-.3.6-.3.6 0 .8l.6.5c0 .4-.4 1-.8 1s-.4 0-.9 1.4c0 .4 0 .6-.4.4-.2 0-.5.1-.2.3v.6l-.4.2c-.6-.3 0 1.6.7 2.4.8.8.9 1 .8 1.4v1.8c.3.2 0 1.9-.2 2.4a9 9 0 0 0-1.2 3l-.2 1-.5 1-1 2.7c0 .2.1.5-.2.7l-.2.7v.8l-.4 1.3-.2 1-.3 1.6v1.2c-.3.2-.6 2-.5 2.2l-.2.3v.4c.3.3-.5 1.8-.9 1.8-.2 0-.5.1-.4.4l-.5 1.3h-2.5c-.4.2-1 .1-1.2-.4-.1-.5-2.2-2-3.8-2.5l-1.4-1-.4-.2c-.5 0-1-.5-1.3-.8l-.3-.2-3.6-1.4c-.4 0-.7.7-.7 1.5v1.4l-.4 1c-.4.7-.4.8-.2 1.6.2.7.2.7-.6 1.9l-.5 1-.3.2h-.2v.3c.2.1.3.4.1.7 0 .1-.2.3.2.5l2.6 1.3 2.4 1.6.7.6.7.7c.2.4.8.9 1 .5-.1-.2 0-.1.3 0 1.4 1 1.6 1 1.7 1.5 0 .4.8 1 1 .7.1-.4 1.6.8 1.6 1 .2.5.7 1.2 1 1l1.6 1.6.8.8.3.3.3.6.6.3.8.6.9.6 1 1.2.5.6.2.5h.6l.3.5 2.1 1.5 1.6 1c1 .7 1.4.9 1.5 1.4 1.6 1.8 3.3 3.5 5.2 5l.8.9.6.5.4.8.4.6.7.8 2.2 2.9c0 .4 0 .4.2.3.3 0 .3.2.5.7l.6.7.4.6.8.8.8 1.2.5.7.3.6c0 .4.2.7.8 1.2l.6 1.1.1.3.5.6.9 1 .8 2.1.5 1.3c.3 0 1.2 1.8 1 2.4.2 1 .3 1.5.6 1.7.4.4 2.1 4.3 2 4.6l.2.4c.3.1.2.3.6 1 0 .3 0 .5.3.4l1.2 2.5.5 1.3.5.8.2.7.3 1.4.4 1.6c0 .2.2 1.6.8 2.5l.1 1.3.3.7c.3.2.6 2.4.9 4.3l.3 1.8c.3.6.4 1.5.4 2.3l.2 1.7c0 .2.1.9-.1 1.4l.2 1.9.2.9v.4l-.1.6V92.3c-.3.7-.3 2.3.2 2.6l-.2.3c-.1.3-.2.5 0 .8v3.2c-.2 1.2-.4 2.5-.4 3.7v.8c.3.6.2.7-.2 1.1l-.3 1v.7l-.4 2.5V111.6l-.2 1c-.1.3-.2.8 0 1.7l-2 7.2-.7 1.9v1l-.3 1.3c.1.5-.1 1-.3.9v.1l-.3 1v1.3c.2.3 0 .6-.3.9l-.1.5c0 .5-.3 1.3-.5 1.4l-.4.3v.1l-.5.6-.7 3c-.3 1.5-.9 3.1-1.6 4.6-1 2-1.3 3-1.3 3.4l-.1 1v.5L285 149a11.5 11.5 0 0 0-1.9 4.5v.6l-1.5 2-1 1.5-.6.8c-.6.4-.9 1-.7 1.3l-.4.4-1 1.6-.8 1.2-2.5 4.8-1.6 2.5-1.6 2.2-1.1 1.9-1.8 3.4-2.3 3.3-.5.5-.1.4-1 1.5c-1.4 2.8-1.8 3.2-2.5 3.6l-1 .8-.5.5c-.5 1-1 1.6-1.6 1.6-.4 0-.5.2-.6.8a2 2 0 0 1-1.5 1.4l-.5.4-.4.6h-.3l-.2.4-2.7 2.2-1.1 1.3-.7.7-.5.5-3.3 1.6-1.5 1-.8.3-.7.7c-.4 0-.5.1-.5.4.1.2-.1.3-.4.5l-1.2.7h-.4l-1.2.4-1.2.6-.9.6-.8.4c-.2.3-1.5.6-1.8.3h-.2l-1 .6-.7.4-2.6.6-.5.3c-.9.8-2.4 1.4-2.7 1.3l-2.2.7-2 .9-.4.1-1.6.2-1.1.3-1.8.3c-.9.1-1.9.5-2.2.3l-1 .3-.8.4h-.7l-3 .6-1.5.4-1.3.2h-1.7l-.4.1h-1l-1.8-.2-1 .1c-.4-.1-1.9 0-2.6.2l-.6-.1-.5.3-1 .3h-3.1l-.3.3h-1.1c-.3 0-.8 0-1 .2h-.3l-1.7-.2h-2.7a11 11 0 0 1-3.8.2c-.4 0-1-.1-1.3.1-.2.1-.4.2-1.1-.1-.9-.3-2.1-.3-2.6-.1l-1-.1-.6-.1-.7-.2c-.4-.4-2.5-1-2.8-.8l-.6-.1h-1l-1.4-.2-.9-.2-2.8-.5-1.3-.2-1.8-.1a2 2 0 0 0-1.4-.1l-1.1-.2-1.6-.4-1.3-.2-1-.3h-1l-1-.3c-.9 0-3-.6-4.4-1.4l-3.8-1.5-2.4-.8-2.4-1-7.8-4-1-1-1.3-.7-.8-.4-2.4-1.4-.9-.7-2-1.6-1-1-2.2-1.5-1-.7-1.2-.6-.9-.7-.3-.1-.3-.4-1.3-1a10.8 10.8 0 0 1-2.9-2.7l-.6-.4-.4-.4-1.5-1.1-1.7-1-3.1-2.7-.8-.6-1.5-1.4c-.8-.4-1.4-.9-1.3-1l-.6-.5-.4-.4-.7-.6-.6-.5-.7-1-.8-.8-.5-.2-.7-.6-.3-.6c-.4-.2-1-2-1-2.3l-.4-.2-.6-.5-.2-.3-.4-.4-.7-1-.7-1.2-.5-1-.2-.8c-.5-.2-.7-.5-1-1.5l-.5-.7-.3-.7-.3-.6c-.2.1-.3-.1-.4-.4l-.3-1-1-2c-.1-.1-.6-.6-.5-1l-1-1.4-.7-1.8-.4-.8-.7-1.4-.5-1.3-1-2.1-.2-.5c-.3-.6-.3-1-.8-1.3v-1c-.2 0-.3-.3-.1-.7l-.3-.5c-.4-.2-.8-1.3-.7-1.6l-.4-.4c-.2-.3-.7-1.8-.5-2.1l-.1-.6-.7-1.2-.4-1.5-.3-1.3-.4-1.7-1.6-4.6-.3-.6-1.6-4.9-.8-2.8c-.3-.6-.4-1.2-.3-1.4v-.6c-.4-.2-.6-1-1-2.6l-.3-1.7-.3-1.4-.1-1-.2-1.2v-2l-.3-1.2-.5-4.5v-1.5l-.3-1.5v-.5l-.2-.4.1-.6v-1.2l-.1-1-.1-.2v-2l.2-2 .3-2.2v-.8l-.2-.3V87.3l.3-3.7-.2-1 .4-1.4.2-1.5v-1.4l.3-1.3V75.2l.3-.5.3-.9c.2-.4.2-.8 0-1l.2-.5.1-.3c-.3-.2 0-1 .4-2.3l.6-1.5.8-2.5V65l.2-.9 1.1-2c.3-.3.3-.5 0-.5-.1 0-.1-.5.4-1.2l.1-.5.4-1.1.8-2 .2-1 .4-.6.2-1.3.5-1.3 1.5-4.6.7-1.7.6-.7.2-.9.2-.7.6-.9 1.5-2.7.3-1.1 8-13.5 1-1.3.9-1.8.6-.7 1.1-1.9 1.5-1.6.6-.8.4-.4.3-.2.2-.3.2-.1.5-.6.7-.6.5-1c.5 0 .5-.2.4-.2l.1-.4 1-1c.7-1 1.5-1.8 2-1.8l.7-.8 1-1.1.6-.3.4-.4.5-.6 1-.7c.2-.5 1.9-1.7 2.4-2l1-.8.4-.4.6-.3c.7-.6 1-.9 1.4-.7l.3-.2.3-.1 1.4-1.3.6-.3.4-.4.5-.2 1-.6 1-.6h.5l.8-.4c.4-.4.6-.5 1-.3.3.2.3.2.4-.4l.4-.4.5-.2c.1-.3 1.2-.8 1.5-.6.4.2.8 0 1.2-.6.5-.6 1.1-1.1 1.9-1.3.4 0 .7-.3.5-.4l.8-.4.8-.2 1.1-.6 1-.6c.6 0 .7-.4 1-.7l.4-.6.5-.1.9-.6 1-.5.6-.3h.4l.8-.2v-.2h1.1l1.6-.3c.6.3 1.8 0 1.8-.5l.5-.1c1 .2 1.3.2 1.5-.1l.3-.2.3-.1h1.6c0-.2.5-.2.6 0 .1.2.3.2.2 0-.2-.3.2-.7.5-.6h.7l.9-.2h.4s.3-.2.6 0c.8 0 1-.4 1.3-1l.5.2c.5.3.7.3.8 0l1-.3.6-.3 1.3-.2h3.9l.9.2h1c.4.1.6 0 1-.2l.4-.2 3.3-.3h.6l1 .1c0-.1.3-.2.3 0h.5l.5.1h1.2l2.8.2 1-.1h.9l.7.2 1.4.1h1l.6.2h.4c0-.2 1.7 0 2.4.4l.3-.2h.4l2.1.2 2 .2.9.3c.6-.1 2.3.3 2.4.4h.4l1.3.2 1 .1h1.2l1.5.4 1.4.5c.3.1 1 .3 1.5.1l1.7.5 1.1.1c1.9 0 3.7.5 5.4 1.4l1.8.6.3.2h.4l1.3.3 1.2.4.7.3 1.3.5c2 .4 2.4.6 3.5 1.2l1.2.4 1.2.6c1.2.8 2.3 1.1 2.5.6l.2-1.1.3-1.5V-7l.4-2.3c.1-.7 0-1-.8-1.2l-2-.7-1.7-.5-1.9-.8c-1-.5-1.1-.5-1.4-1.1l-.6-.5c-.2 0-.5-.7-.7-1.8-.5-1-.3-3.4 0-4.5l.5-1 .3-1 .5-1.6.4-1.2.2-1 .1-.5.4-.6.5-2.6-.1-1c0-.6 0-1.1.2-1.2v-.8l-.1-.7-.2-.9v-.6l-.1-1v-1.5c-.4-.2 0-.4.6-.5l.8-.4 1-.5c.7 0 1-.1 1.8.3l.8.4.3-.7.2-.7c-.1-.2.3-.6.8-.8l.2-.3-.4-.6.1-.6.2-.7c0-.2 0-.6.3-1.5l.5-1.3.5-.6 1.3-2.4.3-.3.1-.3.6-.7.7-.5c-.1-.2.2-.5.5-.6l.5-.1.4-.4.9-1c.7-1 2-2.2 2.2-2.3l.6-.3.7-.7.8-.8c0-.4.2-.3.4-.4.2 0 .4 0 .4-.4l.4-.2.2-.1.3-.3.4.2c0-.4.9-1 1.5-1l.4-.4 1.2-.7 1.2-.4c0-.4 1.5-.9 1.8-.7h.7c.7-.7 1.2-.9 1.6-.5.6.4.6.4.8 0 .3-.4.7-.6 1-.4l.8.1c0-.1.5-.1.6.1h.4l.7.2 1.3.2c.5-.1 1 0 1.9.4l1.4.3zM251-51l-3.2-1.8c0-.3 0-.3-.2 0 0 .5-.7.5-1.7.4-.1 0-.7-.1-1 .1l-.8-.1-.4.1c-.3.5-1.4 1.1-1.8 1l-1.6 1.2-.6.3-.4.4-.5.2c-.3-.2-.6 0-.5.3l-.4.4c-.5 0-.6.3-.7.5H236.6c-.2 0-.5 0-1.2 1.1l-.7 1c-.4 0-1.6 1.5-3 3.6l-2.4 3.8-.3 1 2.4 1.3 1 .2h.7l1.7.4 1.9.6c.4.4.8.4 1 .4l1 .2 1.8.8 1.6.4 1 .3.6.3.2-.1.9.2 1.5.6 1.7.7 1.3.2.7.4.5.5h.2l-.2.4h-.2l.3.2c.2.5.4.4.4 0 0-.2.2-.3.7-.5.5-.1.6 0 .7.2.3.3 1.7 1 1.9.7l.7.2.9.3 1 .5 1.3.5.7.3c.4.4.6.3.9.2h.8l.6-1c.3-.3.3-.3 0-.7l.1-.5c.3-.1.3-.5.1-.6l.1-1v-1.4l.1-1.2c-.2-.3.1-2.2.4-2.7a12 12 0 0 0-.6-3.7l-.4-.8-.5-2.2c-.4-1.2-.7-1.5-1-1.7A26.2 26.2 0 0 0 251-51zm14.4 13.9c.2-.4 0-1-.1-.8l-.7 1.3c-.1.7.4.7.4.2l.4-.7zm-32.1-12.7c.2-.4 0-.7-.4-.7l-.3.6c.2.6.5.5.7 0zM252-22.4l-.7-.5-.3-.2c0 .3 0 .2-.4 0l-1-.3-1-.3-.6-.3h-.4l-.3-.2-2.4-.8-1.4-.3-1.4-.5-.4-.4c-.6-.5-.6-.5-.7-.2-.1.2-.6-.1-.6-.5 0-.2-.2-.3-.5 0-.3 0-.7 0-.8-.3h-.5c-.3.2-.7 0-1-.4l-1.2-.1-1.4-.4-.8-.4-1.8-.5-.7-.2-1.1-.1-1.6-.4c-1.6-.9-2.8-1.3-3-1.1 0 .3-1 0-1.4-.2l-.1.2-.3.9-.3 1v.8l-.2 1.2v.6l-.3 1.2-.3 1-.3 1v.6l-.2.5a4 4 0 0 0-.4 2.4v.6c-.3 0-.4 1-.2 1.4l1.8.9 1.4.5 1.4.7c1.7.4 3.4 1 4.9 2l2 .5 1.3.7 1.7.5h.5l1 .4 1.8.9c1.3.6 1.8.9 1.4.5-.1-.3.2-.1.6-.1.8.4 2.7 1.4 3 2 .4.1.4.1.3-.1h.2c.5-.2 3 1 2.8 1.2.1.2 1.3.6 1.8.5l.5.2.1.5.5.2c.7 0 2.2.5 2.2 1l1.3.6 1.2.8c0 .3 0 .3.2 0V-4c-.2-.5 0-1.2.3-1 .4 0 .5-1.6.2-2.2 0-.2 0-.6.3-1.4.4-1.2.7-2.4 1.2-3.5.2-.5.5-1.4.3-1.9l.4-1c.2-.1.2-.5.3-2.3 0-.8 0-1-.4-1.2l-1-.7c-2-1.8-4.4-3.3-5.5-3.3zM237.3-5l-.4-.4-.3-.2c-.3.3-1.8 0-2.6-.4l-1.3-.6-1-.3h-.3c-.1-.2-.2 0-.3 0l-.3.3-1 1.7c.3.3.2 1.7 0 1.8l-.3.3-.5 1.6c-.2.5.7 1.1 2 1.7l6.3 3c1.3.6 1.3.6 1.3.2l.2-.6v-.8l-.2-.3.9-3.2.2-1.4.3-1v-.2c.2 0-.2-.2-.5-.4l-1.6-.7c0 .2-.3 0-.6-.1zm-4.5 12.9l-2.3-1.2-.7-.2-.8-.4c-.2-.3-3.3-1.6-5-2.3L221 2.4l-6.4-3.2-1.1-.2-1.6-.5-2.7-1-1-.3-.6-.1c-.3-.4-.7-.4-1.3-.5h-1.8l-1.2-.5-1.6-.8h-1.1l-2-.3h-.8l-2.2-.5-1.3-.3-1.7-.2c-1.2 0-2.5 0-3-.3l-.7-.2h-1c-.2 0-.5 0-.5-.2l-1.6-.1-1.4-.1h-.2l-.7.1-1.8-.3h-1.4l-.8-.3-2-.2h-.7c-.3.1-.7.1-.8-.1l-.4.1h-.6l-1.4-.1-1-.1h-.8l-2-.2h-.2l-2.3.1-1 .1h-.9l-.7.2h-.4l-2.3.1H160l-.2.2h-.4l-.3.2-1.3.4h-.4l-1.3.1-2.5.6-1.2.4c-.1.1-.4.2-.7 0l-1.5.1c-.5.3-1.2.4-1.3.3l-.3.1-.9.2c-.3-.2-.6 0-.7.2h-1.1l-.3.3c0 .4 0 .4-.3.3l-3.1.4c-.4-.1-.6 0-.7.5l-1 .3c-.1 0-1 .3-1.1.7l-.8.2-.6.5-.3-.2-1.2.7-.3.2h-.4l-.3.2c0 .3-.3.5-.5.6-.7 0-1.4.6-2 1.2h-.7l-.7.5-.2.1-1 .6-1 .9-.3.2c-.4-.2-2 .4-2.2.6l-.5.1-.3.3c.1.2-.7.6-1 .4l-1.2.7-.3.2-1 .5c-.7.3-.9.4-.8.6 0 .3-.7 1-1.2.8l-.5.4-.5.4-1 .5-1.2 1-1 .5-.7.7c-.3.2-.6.3-.6.7-.2.5-.2.5-.5.3-.4-.1-.4-.1-.6.3 0 .4 0 .6-.4.4l-.5.6-.4.4c-.3 0-1 .9-1.4 1.5l-.4.4c-9.2 10-16.8 21.3-22.5 33.5l-.9 1.7-1 2.3-.1.3-1.2 3.9-.6 1.5-.4 1.6-.3 1.5-.3.9-.2.5-.5 1.2v.5l-.5 1.3L82 68c-.8 1.8-1.2 3-1 3.4l-.5 1c.3.3 0 .8-.1.7l-.1.1-.3 1.3V76l-.2.7-.7 4.6-.4 1.4v2.8l-.1.8v.8l-.2 1.1v2c.1.1 0 1.7-.3 2.1l.2.5c0 .3.1 1.3-.1 1.8l.1.9v3.2l.1 2.5.4 1.8.1 1.7v.4l.2 1v2.1l.1.7v.3c.2.2.2.5 0 .6v.6l.3.7c0 .2 0 .8.3 1.4.5 1.9.7 2.4.2 2.8 0 .1-.1.3.2.4.5.7.8 1.3 1 2.2l1 3.1c-.2.3.6 2.5 1.2 3.7l.3 1c0 .1.3 1 .5 1v.7l.4 1.3.4 1.7.1.4.1.7.3.7.3.6a32.6 32.6 0 0 0 2.8 8.5l1.2 2.4c.3.7.5 1.3.6 2l1.2 2.8.8 1.7.7 1.7.7.8v.2l1 2.1.3.8c.3 1 1 2 1.9 3.4l.2.7.4.4.8 1 .4.8c1.3 3.3 3.3 6.3 5.8 8.9l2.1 2.3 1.3 1.4c.3 0 .7.3 1.1.8.3.5.8.8 1.6 1.2l1.2 1 1.3.9 1 .6 1.4 1.2c1.2.9 2.5 1.8 3.6 2.8l1.6 1.4.4.4.2.3.6.5c.5 1 .9 1 1.2 1.3.2-.1.6.3.9.6l3 2.1 4 2.9 1 .7 1.6 1 1.3.7 2 1.4 1.4 1.1c1 .7 3.7 2 7 3.3a57 57 0 0 0 9.4 3.6l1.3.2h.5l.8.3 1.7.2 1.4.1h.5l1.4.2 2 .4 1.5.3 1.6.2 2 .3c1.7 0 3.3.3 4.9.6l1.5.1 4.4.6h6.8l.6.1h1l1.8-.2 1.5-.3c1.8-.3 3.6-.5 5.4-.5l1.3-.1c.3.1 3.8-.3 4-.5h4l1.1-.2 1.3-.4.5.1.5-.2c.1-.1 1.5-.4 2.5-.3l1.2-.4c.6-.1 1.1-.3 1.2 0l.3-.1c0-.4.7-.7 1-.5h.3l1.4-.4c1 0 4.4-1 4.5-1.3l2.2-1 .7-.2 1-.5.6-.3 3.9-1.1h.5l.4-.2 1.1-.2c.6 0 1-.2 1-.3l.3-.3c.3.2 1.8-.3 2-.6l3.6-1.4.6-.5c.4 0 1-.3 1.4-.7l1.1-1 1.3-.9.6-.3 2-1.6.2-.3 1.5-1.3h.2l.4-.5.4-.2.4-.4c.4-.8 1.5-1.9 1.9-1.7 1.3-1.3 2.6-2.5 4-3.6l.9-.8.5-.6.1-.3.4-.2.5-.6.5-.7 1.4-1.8.5-.6c0-.4.4-1 .9-1.3l1.4-2.5 1.4-1.8.1-.3.4-1 .5-.8.5-.4.2-.5 2-2.6.5-1c0-.4.3-.7.6-.9.6-.3.6-.3.4-.6v-.6l.6-.7.8-1.2 1.9-4.4.8-1.2 2.2-3.5.7-1a29 29 0 0 1 3.3-6l.2-.3v-.4l1.5-3 1-3 .7-1.5v-.4l.3-1c.5-.6.8-1.1.7-1.8l.6-1.9.4-1.2.7-1.7.2-.9v-.4l.2-.3.2-.9.4-1 1-3.4.7-2 .5-1.8.2-.8v-1l.3-.8.5-1.4.7-1.7c0-1 .4-3 .1-3.8v-.8l.2-.7.3-2.5.1-1.2.2-1.5.1-1.8.2-.7V95.3l.1-2.3-.1-2-.4-1.4-.1-1.3V86l-.2-3-.2-1c.3-.4 0-2.3-.2-2.7l-.2-1.1-.3-1.5-.1-1-.4-1.6-.6-2-.5-1.1-.4-.8-.4-1.5c.1-.7-.3-2-.7-2-.3-.1-1.2-1.6-1-2 .1-.2-.5-1.8-.8-2l-.6-.8-.2-1.1a1 1 0 0 1-.6-1l-.5-.6-.5-.9-1.3-2.7c-.3-.1-1-2.3-.7-2.2l-1.4-2-.3-1-.5-.7-.3-.6c0-.4-.1-.6-.5-1l-.8-1.2-.6-1-.6-.7c-.3-.3-.3-.5-.6-.5l-.6-.4-.6-.8-.7-1-1-1-.2-.6-.6-.5c-.4 0-.6 0-.5-.6a8 8 0 0 0-2-2.7l-.7-1-.7-.5-2-1.8-1-1-.8-1-.6-.4-1.2-1-1.8-1.4-1.7-1.5c-1.8-.9-2.5-1.4-3.1-2.3l-1.8-1.7-1.2-1.3-.7-.3c-.3-.2-1-1.3-1.2-2.3 0-.4-.4-.5-1.6-1.4l-1.6-1.2-3.2-2-1.4-1-1.3-.6c-.5-.6-1.2-1-2.5-1.6l-3.9-2c-.1.3-.7-.2-1-.5l-.7-.8-.7-.7zm-19.3 5a50 50 0 0 0 6.3 3.2l3.3 1.6a88 88 0 0 0 6.6 3.6l.7.5c.7.8 1 1.2 1.6 1.3l1 .6 1.8 1.2 1.6 1.2 1.3 1 1.2 1 1 1c1 .4 2 1.4 2.7 2.2l1.1 1 1 .8c2 1.6 3.7 3.4 5.3 5.4l1 .7 1.2 1 .6.7c.5.3 2 2 2.1 2.7 2.5 2.8 4.9 5.8 7 8.8l1 1c.3.1.2.3.3.5-.2.5 0 1 .4 1.2.5.3 2.3 3.2 2.2 3.8l.5.9.8 1.4.8 1.6.9 1.5.7 1 1.1 1.7c.3.6.6 1.3 1 1.5l.1.7.4.6c.1 0 .6.7.8 1.6l1 1.6c.3.2.6.5.5 1l.6 1.8.4 1.6.2.7c.2.1.2.3 0 .7v.5L277 83l.1 1.5c0 .1-.2.3.2.5l.6.7c.2.5 0 .7 0 1-.5.4-.5.8-.4 1.4l-.5 1.8c-.3.7-.6 1.1-.5 1.8l-.1 1.4v1.4c.3 2 .4 4.1.4 6.1l-.4 1.7c0 .4 0 1 .2 1.3l.1 1.7-.1 3c.2.5 0 1 0 1.3l-.4 3.4v1.4l.1.8c.2.5 0 .9-.2 1.2v3c0 1.3 0 2.7-.2 3v.6l-.3.4-.9 3.3-.1.7-.5 3.4-.3 1c0 .6-.2 1-.6 2.3l-.4 1.6-.3 1.7-.1.7-.3.9-1.4 3.6c-.2 1.1-2.7 6.4-3.2 6.5l-1 2-2.6 4.7c-2 3.3-2.8 5.1-2.7 5.8 0 .6-.1 1-.7 1.7l-.8 1.2-.4.6c-.6.5-1.9 2.1-3.2 4.3l-1.8 2.8-1.7 2.1-2.7 3.6-.4.4-1.7 1.8c-.3.5-1.4 1-1.8 1l-.5.9-1 1.1a5 5 0 0 0-1.8 1.6l-1.2.8-1.1.6-1.6 1.5-1.6 1.6-.4.2-.5.2c-.4 0-.6 0-.5.3l-1 .7-1.7 1-1.7.8-.4.4-.5.5-.7.5c-.3-.1-.3-.1-.4.2l-.3.5-.3.2c-.1.2-.7.5-1.3.6l-1.4.7-.9.4-.5.3-.8.4-1.4.3h-1.1l-2.9.9-1.3.5h-.4c-.6 0-1 .1-1.1.3 0 .4-1 .5-1.4.3-.4-.2-1.5 0-1.7.4l-.3.2c-.3-.1-2.4.2-2.4.4h-.3l-.9.2-1.3.2-1.8.3-1.4.3-1 .5-2-.6c-.3.1-.7 0-.3.3l-.1.1h-.4l-.5.2h-1l-1.4.2-.7-.3-1-.1h-1.2l-1.1-.2c-.2-.3-.5-.2-.6 0 0 0-.3.2-.6 0l-1 .1h-2.5l-1-.1-1.2-.2-1-.1h-1.2l-2-.3-1.8-.2h-1.2l-1.3-.3-.8-.2-.9.2-1.3-.3h-.8l-2.4-.5-2.8-.9-1.4-.5-2.7-.7-3.7-1.3-2.3-1c-1.2-.1-1.5-.3-1.6-.5l-.3-.2c-.6.3-3-.7-7.4-2.7l-4.4-2.3a42.7 42.7 0 0 0-7.3-3.8l-.4-.3-1.5-1.1-2.1-1.5-1-.7c0-.4-.4-1-1.3-1.7l-.7-.6-.3-.3-2.7-2.2-.6-.5c-.5-.2-1.2-1.2-1.1-1.4l-.4-.4c-.7-.3-1.7-1.6-1.6-1.8.3 0 .1-.2-.2-.3l-1-1.3-.6-.5-.4-.7-.4-.4-.1-.2-.6-.5-.9-1c-.3-.2-.4-.5-.3-.6 0-.2-.2-.5-.8-.9l-.3-.5-.5-.7-.4-.6-.4-.4-1.4-2-.6-.8-.8-.8-.5-.7-.4-.4v-.2c.1-.4-.4-1-.6-1l-.4-.4-.4-1s0-.3-.3-.5l-.1-.5-.3-.3-.6-.8c-.1-.6-1-2-1.2-2l-.4-.4c0-.4-1-1.7-1.5-2l-.4-.8c.2-.3-.5-1.4-1-2l-.6-.8-.4-.8-1.1-1.8-.4-.6-.8-1.2c-.8-1.3-1-1.6-1-2.2l-.3-.5c-.3-.2-.8-1.2-1.3-3l-.8-1.7-.5-1.8v-.4c.2-.3 0-.5 0-.6-.3-.3-.2-.5-.2-.7.2-.3.1-.5-.1-.9l-.3-1-.2-.8V128c-.4-.2-.6-.6-.4-1l-.4-2.8-.2-1.1-.3-1.4-.4-1.7-.3-1.1v-1.5l-.3-.3c.3 0 .2-.3 0-1.4l-.1-.7-.2-2.1v-.3l-.2-1.3-.2-1-.1-.3v-.7l-.5-2V105l-.2-.6-.2-.9v-2.2l.1-.4v-.4c.2-.3-.3-2.2-.6-2.3v-.4l.3-.5v-2.2l.1-.6-.1-.5c.2-.5.2-1.7.2-2l.1-.7v-1.6l.2-1.5.2-1.2c.3-1.2.4-2.5.3-3.9l.3-.8v-.7c-.2 0 0-1.2.3-1.9l.2-1.7v-.4l.2-.7.2-1.1.4-1.7.4-1.2v-.5l1-2.2v-.7l.5-2 .3-.6c.5-.5 1.2-2.2 1-2.3l.9-2.4 1.1-2.7.3-1.3.2-.7c.2-.1.2-.5.2-1l.7-2 .2-.8c-.1-.2 0-.4.4-.4l.3-.2.7-1.9.9-1.6 1.6-3.2a37 37 0 0 1 4-6.3l.5-.4.7-1 1.6-2 1.3-2 1.2-1.6 1-1.1.7-1 .3-.5c.2-.5 1-1.3 1.5-1.3l.1-.3.1-.6.7-.9.6-.5.5-.5.4-.4.4-.3 1.5-1 .3-.3.5-.4.3-.2.4-.4.7-.5.5-.2 1.1-.6 2.6-2 1.4-.7c.4-.2.8-.6 1.2-.6l.7-.6.8-.3h.4c.2-.5 2.8-1.6 3-1.3l.2-.1.3-.3.7-.2c2-.6 2.7-.9 3-.7h.2l3.5-1 .8-.4 1-.3 2.6-.8.9-.1 1.6-.4 1.3-.2 2.7-.7 2-.8.2.1.7-.2.3-.3c.2.5 2 .2 2.2-.1l1.1-.2.5-.2c.2.3 1.9 0 2-.4h.7c.3.1.7.1 1-.1l.5-.2h.5l1-.3h3l2.3-.8c.2 0 .3-.2.4 0l.7-.2 1-.2 1.2-.1h4.6l.6.2h2.3l.3-.2h1.2l1-.1 1.9-.2.9-.2h.4l.3.2 1.9-.1 2.5.7 1 .3 2.4.3c.3-.2 3.4.6 4.2 1l.7.3 3 1 .8.3c.4 0 1.1.2 2.3.8l2.5 1zm.8 7.3l-.1.2-7.2-3.6-1.5-.6c-1-.5-1.5-.8-2.1-.7l-1.3-.2-.8-.2h-.4l-.6-.3-1.1-.2c-1.2-.6-2-.8-2.2-.7l-1.1-.1h-1.2l-1-.1h-.8c-.3 0-1 0-1.7-.3-1.7-.3-2.5-.4-2.6-.1h-.6l-2.8-.3H184l-1.3.2c-.2 0-.7 0-.7-.2h-.3c0 .2-.3.3-.6.2l-1 .3h-1c-.3.1-.8.3-1.1.1l-.8.3h-2l-1.8.3H172.8l-1.4.3-1 .2c-.1 0-.8 0-2.7.6-.7.1-1.2.3-1.2 0l-.8.3h-1l-.5.2c-.3.2-.4.4-.8.2l-1.3.2-1.1.2c-.6.3-1.2.4-1.4.3l-.2.1-1.3.2-.6-.1c-.3-.2-.3-.2-.5.1 0 .3-1 .8-1.3.6-.3-.2-1.2 0-1.2.2.1.3-.6.5-1 .3l-.3.3c.1.2-.1.3-.3.2l-.7.3h-.8l-.5.1h-.8l-1.3.4-2.7.6c-.4-.1-1.1.1-1.2.3l-1.2.4-.6.3c-.1.3-1 .5-1.4.3h-.6l-1 .8-1.2.4c-.7 0-1 .1-1.3.6-.2.3-.5.4-.6.3h-.3l-.7.7-.8.4-2.1 1.4-.6.3-.8.4-1.2.6-.4.4-.5.2-1.4 1.1c.1.3-.1.3-.3.2l-.3.3-.8.4-1.3 1.2-.9.6-.1.3-.5.5c-.4.3-.7.5-.7 1l-.8 1.1-1.2 1.5c-.8 1.6-1 1.7-1.4 2l-.2.4-.7 1-1.1 1.4-1.4 1.9-1.8 2.3-1.2 1.5-1 1.7-1.2 1.8c-.7 1.7-1.6 3.3-2.7 4.8l-.2.9-1 2-.7 1.6-.3 1c0 .3 0 .7-.2.8v1.4l-.5.4-.1.3-.1.6-.2.7v.3l-.4 1h-.3c.2.1.1.7-.3 1.5l-.5 1.8c0 .2 0 .6-.2.7l-.3 1-.6 2-.2 1.1-.4.8v.6l-.9 2.4c0 .4 0 .8-.2 1v1c-.2 0-.2.5-.1.7l-.5.8.1.2-.1.8-.6 2.7-.1.6-.3 1.3.2.9v.4l-.1 1.8c-.2-.1-.2.3 0 .6v1l-.2 1.1c.2.5.2 1 0 1V96l-.2.7c.2.3.2 1.6 0 1.9v.5c0 .3.1.5-.1.6l.2.5.1.9.2 1.3c-.2 1.1-.3 1.7 0 2.7.1 1 0 1.6-.1 1.1H99v.3c.4.2.7 1.2.6 1.5l.2 1.1c.3.6.4 1.3.3 1.4l.2.5v.7c0 .1-.1.3.4 1.7l.3 1.4.5 1.7c-.3.3-.2 1.7 0 2.5l.1.6v.4l.3.6v1l.4 1.8c.3.6.3 1 0 1.1l.2.2.4.9.3 1.7v1.1l.3.3.6 2.8a16 16 0 0 0 1.5 4.6l.4 1.2.3.4.4.4.5 1 1 1.8.6 1.5.1.5.4.4.4.8 1 1 .8 1.1c.3.2.5.7.6 1 .4.7.4 1.4.8 1.8.2 0 .6.5.6.9l.6.9.4.4.5 1c.4.3.6.8.5 1l.4.4.7.7.5.7.3.5.1.5 1 1.3.4.4.4.8.4.5 2 2.6v.2l1.3 1.5.2.5.2.3.6.5 1 1.1c.4.2.8.6 1 1.1l1.2 1.5.8 1 .6.7.2.3 1 1 1.3 1.4 1.7 1.5.5.2 1.3 1v.3l.3.3 1.3 1.1 1.7 1.5c.7.7 4.1 2.7 6.2 3.5l2.2 1.6 4.6 2.3 3 1 1.8.8 3 1.2.8.1 2 .9 1.4.4c2.7.5 5.4 1.2 8 2l4 .7c.5.2 2 .5 2.3.3h.5l.8.3h1.6l1.5-.1 2.3.2h3.2l1-.2h1.2l.7.2.6.1h.4l1 .1h1.9c.2-.2.6-.1.7.1h.4l.5-.2h1.5l1.4-.1c.3 0 .8-.2 1 0l1-.2c.5-.2 1-.1 1.4 0H204l1.7-.6.9-.2 1.6-.4 1.7-.5 1.3-.2c1.5-.5 3-.7 3.4-.5l1.1-.3 1.1-.5.9-.1c.2-.3.6-.3.8-.4l.5-.2.8-.4 1-.5.4-.2c.4 0 .7 0 .6-.3l.8-.4c.4 0 .9-.2 1.3-.6l.8-.6.6-.5 1.2-.6 1.2-.8.5-.6.5-.3c0-.4.4-.7.8-.7.1.1.6 0 1-.4l1.1-.5.2-.3.3-.3c.2.1.4 0 .6-.3l1-.7c.4 0 .7-.3.9-.6l3.2-2.4 2.8-2.7 1.5-1.6.7-.5.5-.8 1.4-1 1.7-2.5.9-1.4 1-1.5 1-1.3.6-.7c.4-.7.5-1 1-1.2l1-1.9.4-.4.6-.7.7-1c.3-1 2.4-5.2 2.8-5.2l.3-.4c0-.3 1-2.8 1.3-3l2.2-4.2a8 8 0 0 0 1.5-2.6l.9-1.7v-1l.4-1.9c1-2.2 1.3-3.4 1.2-4l.6-1.6.5-1.3v-.4l.6-2.4c.4-.8.5-1.8.4-2l.2-.7.1-1 .3-1.3.4-1.2c0-1 .4-3.3.7-3.5v-1.2l.2-1.6.1-1v-.5l-.1-.7v-2l-.1-.7v-1.8l.2-1.4v-1.8l.2-1c-.2-.4-.1-1.4.3-2.2v-1.2c.3-.1.3-.5 0-.8v-4.3l-.2-.5-.1-1.7.1-1.2c.3 0 .4-.2.1-.5v-.7l-.2-.5v-1.4l.2-1.7c-.3-.4-.2-1-.1-1v-1l.1-1.3v-1.8c.4-1 .3-1.7-.1-3.1l-.7-1.8v-.8l-.1-.3c.1-.3-.2-1.7-.5-1.9l-.2-.4c.3-1-1.4-4.8-2.2-5.2l-.4-.5c0-.2-.2-.4-.4-.4v-.4l-.2-.3h-.2l-.3-.4-.5-1-.8-1.1-.4-.8-.5-.7-.6-.9-.9-1.9-.7-1.4-1-1.5-.5-1-.7-1-1-1-.5-.6-.4-.4c0-.2-.2-.7-.6-.9-.4-.4-.8-.8-.8-1.2l-.4-.7-1.2-1.8c-.1 0-1.3-1.4-1.3-1.8l-.6-.8-.6-.9-.5-.6-1-1c0-.2-.4-.6-.7-.5l-1-1c-.4-.2-.7-.3-.7-.7l-1-1.2-1.2-1c-1.4-1.5-3-2.9-4.6-4.1a43.9 43.9 0 0 0-5.8-4.8l-1.8-1.3-1.8-1.5-3.8-2.6-1.6-1-1.7-1-8-4zm-5.8 46.9l7.8 4 1 .7 1 .9 2.2 2.1 3.4 4 1.7 2.6.3.6.2.7.9 1.2 1 2 1.3 2.7.6.9c.1 0 .7 1.8.5 2l1 3v.7l.2.9.3 1.3.1 1.9-.1 1.8V104.7l-.1 1v1.6l-.3 1v.9l-.6 1.4c-.3 1-.4 1.6-.2 2.3l-.3.7-.5 1.3-.6 1.6c-.6.9-1.2 2.4-1.1 2.6l-.7 1.7-.8 1.9-.5 1-.5.3-.6.7c-.4.8-2.6-.2-3-1.3-.2-.5-.1-.7.8-2.4l2.8-5.5.8-2.3.9-2.2c0-.4 0-.4.4-.4l.2-.3.1-.7v-.7c-.3-.3-.2-.5 0-1 .4-.6.3-.8.2-1.3v-1l.2-1.5c-.1-.5 0-1.3.2-1.6v-3.2l-.2-.8c-.3-.3-.3-.7-.2-1.3.1-1 0-2.4-.5-3.7v-1l-1-2.3-.5-1.3-.7-1.2c-.2-.5-.4-.8-.1-.9l-.3-.7c-.6-.5-2-3-2-3.7l-.5-.6-.6-.7c-.8-1.4-2-3-2.3-3.2-.2-.1-.8-.6-1-1l-.8-1.1c-.3 0-1-.5-1.6-1.3l-1.5-1.1-1-.5-1-.7a64.6 64.6 0 0 0-9-4l-.7-.1c-.2.3-.6.3-2.1-.3-1.6-.5-3.2-1-3.5-.7l-.6-.1h-2.5l-.9-.3h-.6l-.3.2-1-.1c-.5.2-1 0-1.4 0h-.9l-.5.4c-.4-.2-.6-.1-1 .1h-1c-.6-.4-2 .1-2.2.4 0 .3 0 .4-.4.3l-1.8.3h-.2c-.2.4-.3.3-1.7-.2l-1.2-.6c-.5-.9-.5-2 0-2l.4-.4c.5-.4.7-.5 1.2-.2h.6c.1-.3.4-.4.6 0 .4.1 1.4-.3 1.3-.6l1.2-.2 1-.1h.5l.7.2h1c.3.2 2.7.4 3 .2h.6c2-.2 3.8-.1 5.7 0l1.7.1 1.1.2 4.3 1.3c2.1.7 2.7.8 2.8.6l.5.2.9.3zm-52.8-25c0-.6 2 1.4 2 2 .1.5.5 1.1 1.1 1.4l.6.5c0 .4 1.4 2.4 1.7 2.6 1.9 2 3.8 3.8 5.9 5.6l1.6 1.6c.7 1 1.2 1.7 1.8 2l.6 1.1 1 1 1.6 2.4c0 .1.6 1.1.9 1 .2 0 1.1.6 1 1-.2.3.7 1.2 1.2 1.4l.8.4.9 1c1 1.2 1.5 1.9 1.3 2.2l.4.4 1 1 .5.6.7.5c.4.9 1.2 1.7 1.4 1.8l.1.4.3.6 2 2.5.6.5 3.8 5.2 1.1 1 .7.7c-.2.3.3 1 1.4 2.4l1 1.3.6.7.3.6.6.9 1 1.3c.8.8 1 1.3 1.1 3.2.3 1.8.5 2.3 1.7 3.1l1.3 1 .5.6 1 1.1 1.2 1.4.3.6c-.1.3 0 .8.2 1.3l.2 1.5.4 2.5.1.8.2.1c.5.3 1.3 1.5 1.1 1.8v.7c.2.2.3.3 0 .4 0 .1 1.2 4.2 1.5 4.4l.6.9 1 1.7.3.8v.4l.6.9.4.8.5 1 .8 1.5.6 1.3c-.1.2 0 .7.4.9l1 2.9c.2.1.6 1.1.4 1.4v.3l.3.3.5 1c1.3 2 2.1 4.2 2.6 6.5v.2c.3 0 .9 1.7.7 2 .9 2 1.6 4 2 6.1l.5 1.3.8 1.6 1.3 4v.3l.5 1.5c.2 1.7.6 3.5 1.2 5.1l.9 3.1.5 1.3.3.8.6 1c.4.5.6 1 .5 1.2v1c.3.7.3 1.1-.1 2l-.6 1-.5.6c-.2.5-2.8 1.2-3.5 1-.8 0-2.5-1.4-2.4-1.7l-.5-.7-.8-.8-.5-.5-.3-.3c.3 0 .2-.3-.3-.6-1.2-.8-2.4-2-2.6-2.4l-.5-.6-.6-.5-.3-.6-.6-.7-.6-1-.7-.5-.6-.7-.7-1-.6-.5-1.7-1.9-1-1.1-1.3-1.5-.6-.5-1.2-1.4-.5-.7-.8-.8-.6-1-.5-.4-1-1-.7-.9-2.4-2a8.2 8.2 0 0 1-1.8-2.1l-.4-.5-.9-1-1.2-1.5-.8-1-.6-.7-.7-.6-.3-.3-.6-.7-1-1-1.2-.8c-.2-.3-.6-.7-.8-.6l-.6-.5-1.8-1.7-1.2-1.2-.7-.6-1.1-1c-.2-.5-.7-1-.9-1l-.2-.4v-.6c-.3-.5-.2-.7.2-1.3l.7-1.5c.5-.1.5-.1.4-.4l-1-.5c-.4 0-.5 0-.7-.6h-.1l-.1-.3-.9-.6c-1.1-.6-2-1.7-3.1-3.5l-.4-.8c-.8-.8-1.3-2.3-1.1-2.6v-.4c-.3-.2-1-2-.8-2l-.2-1v-1.8l-.1-1c-.2-.8-.2-1.2 0-1.5v-.7c0-.1-.2-.4 0-.7 0-.4 0-.4-.7-.6-.7-.3-2-1.4-1.8-1.7l-.2-.3-1-3.2-.4-.8-.8-2-.3-.8-1-2a5.9 5.9 0 0 0-.8-2.4l-.7-1.7-1.3-3.4c-.3-.3-.5-.6-.4-1l-.2-.7c-.3-.2-.6-1.1-1-2.5 0-.4-.2-1.1-.6-1.6l-1-2.6-.9-2c-2.3-7.3-5-14.6-8-21.6l-.4-.9v-.5c-.3 0-.7-.8-1-1.6l-.3-1-1.3-2.6-.8-1.7c-.4-.6-.4-1 .1-1.3.3-.1.4-.3.2-.8 0-.2.2-.7 1.4-2.3l.9-1.4.9-.5.5-.4.9-.4h.4c.1-.3.7-.2 1 0V42zm5.2 16.4c-.4-.7-1.7-1.8-1.9-1.4l.4 1.2.7 1.8.7 1.1.2.7c0 .2 0 .6.2.8l.8 1.6c.4.4.4.8.1 1l.5.7c.4.4.8 1.2 1.3 3.3 1.3 3.5 1.5 4.4 1.3 4.8l.2.7c.5.6 1 2.3 1.4 3.3l.4.8 1 2.4 1.4 3.7 1 3 1 2c.4.6.8 1.1 1.2 2.6l.4 1 .4.8c.4 1.4.7 1.8.8 1.6l.3 1.8.2.3.4.4v.3l.4.5c.2.5.5.7.9.7l.5-1c.2 0 .6-.3.9-1l.6-.8 2-2 1-1 .4-.4.6-.3 1.1-.3.7-.2c.2-.3 1.5-.5 1.8-.3h2.5c.4.3.4-.1-.3-.7l-.4-.8c.1-.2-.5-1-1.1-1.4l-1.3-1.5c-.2-.7-2.8-4-3.3-4.3v-.3a6 6 0 0 0-1.6-1.7c-.5-.3-1-1.2-1.2-1.7l-.4-.4c-.2 0-1.4-1.5-1.4-1.7l-1-1.3-1.7-2.5c0-.3-.3-.6-.7-.6-.5-.3-.8-.4-1-.9-.6-1.1-1.4-2.4-2.2-3.2-2.2-2.1-2.7-2.8-2.3-2.8.7.2.3-.2-.4-.4a3 3 0 0 1-1.3-1l-1-1.2-1.3-1.4-2.1-2.3-1.3-1.5-.5-.6zm32.6 41.3c-.1-.3-.9-.9-2-1.2l-2-.3h-1c-.7-.4-1.1-.4-1.5-.1h-.8l-1 .3-.6.5h-.7l-.8.4-.4.3-1.3 1.7c-.3-.1-.7.5-.3.7l-.3.5c-.5.1-.6.5-.7 1l-.3 1-.3 1c-.4.8-.6 1-.4 1.6v3.4c-.2.4 0 .9.2 1 .4.3.5 1 .1 1.2l.4 1 .5 1.3c0 .4.3.7.6.9.3.2.8.4.8.8l.8.8 1 .8c1 .8 1.9 1.3 3 1 .6.1 1 .1 1.3.5.3.1.5.2.6-.1.2-.3 1.2-.7 1.7-.4h.4l1-.5c.7 0 1-.3 1.2-.6l.5-.4.9-.6 1-.3.8-.8.5-.2c.5-1 .7-1.4 1-1.2l.6-1 .1-1.1.4-.7c.3-.2.6-1.1.5-1.8l.3-.6v-.4c-.3-.2.1-1 .4-1.2l.3-.5v-.4c0-.2-.6-1.7-.9-1.9l-.4-.8c-.3-1-1.2-2-1.9-2.4l-.9-.6c-.2-.3-.8-.8-1.4-1l-1-.6zm10 20l-.3-.6c-.4-.4-.7-.2-1.2.6-.2 1-1 1.7-1.3 1.6l-.4.2c0 .4-1 1.4-1.5 1.4l-.4.4-.6.3-.3.3c-.2.5-.7.6-2.6 1l-.9.7-1.5.6-1.4.3c0 .2-.5.3-1 .2l-1 .3c-.2.4 0 .7.8 1.5l2.3 2 1.2 1 1.2 1 .8 1 1 1.2c.5.2.9.8 1 1l.2.4c.5.2 1.5 1.3 1.7 1.8l.4.4c.9 1.3 1.9 2.4 3 3.4l.9.8 1.4 1.6a74 74 0 0 0 6 6.5l1.2 1.6 1.7 2.1 1.4 1.3 1.3 1.5.8 1 .7 1 .8.8c.3 0-.3-1.4-.8-3l-.8-3.3v-.2L216 150l-.3-.7c-1-3.7-2.3-7.3-3.7-10.9v-.8c-1-1.7-1.7-3.5-2.3-5.4l-.4-.8-.1-.2v-.4l-.7-1.4-.7-1.8-.7-1.4c0-.4-.6-1.3-1-2l-1-1.8-.3-.8-.5-.6c0-.4 0-.7-.4-.8l-.4-.4zM155.2 79c.4 0 .9.6 1.1 1.4.3.3 0 1.2-.3 1l-.8.8-2 1.5-.6.3-.6.5-.8.6c-.4 0-.5.3-.8.8l-2 2.9-.4.4-.5 1c0 .6 0 .7-.4 1l-.5 1v2.1l-.2.6.1 1v1.5l-.2 1c.3.3.3.7.1 1v2.3c0-.1-.3 1 .2 1.3l-.2.4v.7c-.1.3 0 .6.1.6l.2.5.2 1.2v2l.2.9.2 1.5v1.3l.2 1.1c-.1.3 0 .6.1.6l.7 2.2v.5l.3 1 .7 1.9.5 1.3.1.2c0 .2.2 1.2 1 2.1l1 2 .5.7.6.9.7 1 .6 1 .3.8.8.8.6.8.8.8 1.5 1.1 1 1 .8.6c3.5 3 7.7 5.3 12.1 6.7l1.2.5 1.6.4c1.9.5 3.6 1.2 5.4 1.9l1.6.4h.6l1.5.3c1.6.1 2.1.2 2.3.7l.4.8c.3.6.2.8 0 1-.5.8-1 .8-1.4.6-.2-.4-.5-.3-.7-.2l-1.6-.2c-1-.3-2.8-.4-3.8-.5l-.7-.2-1.8-.5-3.2-1.2-2.7-1.2c-2.3-.7-5-1.7-5.5-2.4l-1.2-.5-1.3-.5-4.4-3-1.6-1-1.2-1.1-.9-.9-.6-.7c0-.6-.9-1.5-1.2-1.6l-.2-.1-1.3-2.1-.7-.8-.8-1.6-.5-.9-.7-1.1c-.6-.9-1-1.8-1.4-2.8l-.8-1.6-.2-.5-.4-.8-.5-1.1c.1-.6-.7-3-.8-3v-.5c0-.2 0-.8-.3-1.4l-.2-1.3-.2-.7-.2-1.3-.1-1v-1.5l-.2-1v-.7l-.2-.8V100.5l-.3-1.1V98l.3-1.1c-.4-.6-.3-1.6 0-2.2.3-.5.3-1.3 0-2l.2-.6-.1-.3c-.2 0 .2-1.5.7-2.5.1-.7 1.2-2 1.5-2.2l.7-.5c-.1-.3.2-.5.5-.8l1-1 .5-.7.5-.5.7-.7c.5 0 1.6-1 2-1.6l.7-.3.3-.2 2.1-1.8h.6zm65-52.1c.6-.3.9-.2 1.5.8.4.8.4.8 0 1.5l-.4.8-.3.2-.6.8c-.8 2-1.7 3.9-2.7 5.7l-2.2 4.2 1 1.4c1 1.5 1.1 1.6.7 2.4l-.7.5c-.5-.3-1.6.2-1.7.4 0 .4-1 .3-1.3.2l-.4-.5-.5-.6c-.4-.5-.4-.5-.3-.8l.1-.2c-.2.1-.5-.6-.4-.8v-.8l.3-1-1.3-2.9-.6-2-.5-.7-.4-1.2-.8-1.9-.1-1c.1-.2-.5-.3-1-.2l-.5.6-.3.3c-.5.1-.5.5-.3.5l.3.3-.4 1-1.1 2-.4.7.1.2v.7l-.2 1c-.2.4-.5.5-1 .5l-1 .2-1.2.1c-.6-.3-.6-.3-.6-1l1-1.8v-.5c.3-.5.3-.5.7-.5.6 0 1-.2.5-.5l-.3-.3 2-4.4c1.5-2.8 2.1-4.4 2.3-5.2.3-1.5.4-1.7 1.4-2 .9-.4 1-.3 1.9 1 .5.6.5.9.5 1.9v1.2l.2 1.2.2 1.6.3.8c.1.9.4 1.8.7 2.6.7 2.3 1.6 4 1.8 4l5-10 .4-.2.6-.3z"/>
    <filter id="a" width="101.8%" height="101.4%" x="-.4%" y="-.4%" filterUnits="objectBoundingBox">
      <feOffset dx="2" dy="2" in="SourceAlpha" result="shadowOffsetOuter1"/>
      <feColorMatrix in="shadowOffsetOuter1" values="0 0 0 0 0.996078431 0 0 0 0 0.996078431 0 0 0 0 0.996078431 0 0 0 1 0"/>
    </filter>
  </defs>
  <g fill="none" fill-rule="nonzero">
    <use fill="#000" filter="url(#a)" xlink:href="#b"/>
    <use fill="#222" xlink:href="#b"/>
  </g>
</svg>
