<svg xmlns="http://www.w3.org/2000/svg" width="370" height="230" viewBox="0 0 370 230">
  <g fill="none" fill-rule="evenodd">
    <path fill="#FFF" d="M192.834562,165.935849 C287.824219,193.562032 303.828125,165.935849 310,124.5 C316.171875,83.0641506 278.919963,62 197.83263,76.8624137 C116.745296,91.7248273 76,73.5114504 76,124.5 C76,175.48855 97.8449045,138.309667 192.834562,165.935849 Z"/>
    <path fill="#000" fill-rule="nonzero" d="M161.489557,138.97841 C161.299825,140.514591 159.099621,141.039472 157.797189,140.203099 C156.494757,139.366726 155.92145,137.782761 155.462654,136.304466 C153.223222,129.088769 151.675425,121.658595 150.847373,114.14889 C150.647714,112.338163 147.756426,113.264284 146.700628,114.748832 C142.208635,121.064988 141.458396,129.778513 135.885496,135.165033 C133.831363,133.50865 133.748763,130.463656 133.841634,127.82653 C134.328035,114.01501 134.814436,100.20349 135.300836,86.3919697 C135.322738,85.7700487 135.358089,85.1071117 135.723076,84.6030777 C136.473061,83.5673747 138.225014,83.8692447 139.031758,84.8613747 C139.838502,85.8535047 139.957023,87.2210567 140.01872,88.4982997 C140.46907,97.8213707 139.701974,107.202543 137.743041,116.328607 C137.477319,117.566528 139.2837,118.39212 140.390338,117.77697 C141.496976,117.161821 141.953165,115.829405 142.28651,114.607956 C143.241827,111.107448 144.832153,106.743224 148.456836,106.576323 C152.147999,106.406364 154.1223,110.774685 155.076861,114.344331 C157.15576,122.118512 159.234658,129.892693 161.313557,137.666875 C161.428257,138.095806 161.543981,138.537755 161.489556,138.97841 Z M239.102661,135.377586 C236.467908,137.862364 233.200544,140.5399 229.659195,139.781684 C224.651671,138.709555 223.593721,131.687514 225.65376,126.999124 C227.572417,122.632499 231.615027,118.872061 236.381046,118.688469 C238.712803,118.598648 239.554096,115.562062 239.491232,113.229422 C239.428367,110.896783 239.429747,107.985285 241.523935,106.955947 C243.548792,105.960684 246.022795,107.823559 246.576468,110.010805 C247.130141,112.19805 246.397615,114.47682 245.786686,116.64877 C242.621926,127.899984 242.942534,140.920178 250.08926,150.168409 C249.516982,152.297509 246.224684,151.431032 244.667936,149.869908 C240.90573,146.097122 238.832688,140.698791 239.102661,135.377586 Z M231.32828,136.024866 C231.997826,136.065155 232.52515,135.487972 232.933827,134.95609 C235.315768,131.856055 237.389419,128.519271 239.114287,125.010898 C237.129606,123.491538 234.056335,124.3922 232.454291,126.310758 C230.852247,128.229316 230.377249,130.829107 230.09983,133.313146 C229.975839,134.42337 230.213171,135.957764 231.32828,136.024864 Z M79.5374189,107.963922 C87.1087349,115.226522 94.6800509,122.489122 102.251368,129.751722 C103.336374,130.792488 104.465583,131.904787 104.874548,133.351569 C105.283513,134.798352 104.649876,136.654335 103.194685,137.032292 C93.3390859,128.34225 83.6983819,119.408497 74.2843489,110.241952 C73.5951799,109.5709 72.8485269,108.726762 73.0266969,107.7815 C73.1647689,107.048973 73.8174659,106.54323 74.4230409,106.108559 C86.1786369,97.6706007 97.9342329,89.2326427 109.68983,80.7946847 C111.295137,79.6424237 112.968993,78.4599797 114.910886,78.0942387 C116.852778,77.7284967 119.145047,78.4261927 120.00057,80.2074267 C106.086011,88.8158547 92.5782439,98.0817737 79.5374189,107.963922 Z M179.01532,113.674096 C183.897329,111.910722 190.50424,112.231097 192.894818,116.838551 C194.597631,120.120443 193.266765,124.355604 190.61671,126.933897 C187.966655,129.51219 184.292489,130.736175 180.679306,131.520583 C178.787066,131.931382 176.036924,131.629489 175.950274,129.695111 C175.886792,128.277933 177.441478,127.409636 178.759454,126.884888 C181.995968,125.596282 185.232482,124.307676 188.468996,123.01907 C189.952581,122.428386 190.01919,120.132568 188.904266,118.989381 C187.789342,117.846193 186.042759,117.618223 184.446408,117.658222 C179.182084,117.790126 173.677395,120.593903 171.791567,125.510625 C169.90574,130.427348 173.163378,137.038735 178.419554,137.35985 C182.912376,137.63433 188.298913,133.975191 191.337854,137.295676 C184.996721,142.216843 175.01636,144.202215 169.378309,138.489052 C165.666682,134.727982 165.10575,128.534888 167.303694,123.729593 C169.501639,118.924298 174.045468,115.469201 179.01532,113.674097 Z M270.157268,107.687504 C276.520133,107.685343 282.882532,108.624079 288.973645,110.463753 C291.214614,111.140584 293.531569,112.014771 295.025078,113.817399 C297.035785,116.244272 297.046848,119.856692 295.873185,122.781614 C294.699522,125.706537 292.532428,128.102897 290.408678,130.43149 C286.005682,135.259171 281.602686,140.086852 277.19969,144.914533 C275.975309,146.257009 274.548779,147.698085 272.733149,147.767661 C270.91752,147.837236 269.190035,145.48724 270.45504,144.182973 C275.747435,138.726314 281.03983,133.269656 286.332225,127.812997 C288.205404,125.88168 290.158365,123.806262 290.731508,121.177519 C291.304652,118.548776 289.835077,115.285033 287.163645,114.965289 C281.443472,114.280644 275.7233,113.595998 270.003129,112.911352 C268.172691,112.692267 265.810459,111.880907 265.923899,110.040898 C266.033919,108.256362 268.369344,107.688112 270.157267,107.687505 Z M215.158181,120.777565 C216.350265,122.704585 216.291391,125.123788 216.194283,127.387643 C216.00993,131.685415 215.825577,135.983188 215.641225,140.280961 C215.587901,141.524091 215.352726,143.035569 214.191181,143.481695 C212.426878,144.15933 211.156574,141.658581 211.16308,139.768631 C211.169585,137.87868 211.176262,135.424407 209.395652,134.790861 C207.847166,136.57006 206.214383,138.410731 204.026598,139.292179 C201.838814,140.173627 198.931479,139.752911 197.72095,137.728566 C196.675366,135.980056 197.200367,133.755519 197.755111,131.795215 C198.950027,127.572732 200.297114,123.102588 203.604747,120.218711 C206.91238,117.334833 212.849543,117.045625 215.15818,120.777565 Z M204.757121,126.192032 C203.883261,129.130104 203.0094,132.068175 202.13554,135.006246 C207.421702,133.155642 211.200162,127.66397 211.039187,122.06555 C208.453939,121.743158 205.800325,123.755633 205.413486,126.332027 L204.757121,126.192032 Z"/>
  </g>
</svg>
