<svg xmlns="http://www.w3.org/2000/svg" width="370" height="230" viewBox="0 0 370 230">
  <g fill="none" fill-rule="evenodd">
    <path fill="#FFF" d="M196.140542,208 C240.875607,208 238.765625,179.291547 270,134.697412 C301.234375,90.1032757 314.735065,40.390625 270,40.390625 C225.264935,40.390625 63.28125,110.687597 98.5546875,175.379731 C133.828125,240.071864 151.405478,208 196.140542,208 Z"/>
    <path fill="#000" fill-rule="nonzero" d="M178.172412,74.1277897 C191.752781,58.1177032 207.184615,41.0254206 228.342104,37.5047162 C236.927495,36.0760694 246.758059,37.5205108 252.414132,43.900336 C257.630514,49.7842074 258.023908,58.5589497 255.460743,65.8902825 C252.897579,73.2216153 247.82641,79.4521123 242.846771,85.5231033 C221.868118,111.099502 200.889468,136.6759 179.910819,162.252298 C176.878507,165.94918 172.324625,168.128124 167.925195,170.189988 C153.645824,176.882244 139.366454,183.574501 125.087083,190.266758 C121.092043,192.139097 114.982116,193.31891 113.324224,189.350362 C112.633136,187.696081 113.179731,185.828736 113.730422,184.126323 C118.311929,169.962999 122.893435,155.799677 127.474942,141.636353 C131.465747,129.29913 140.144259,118.959713 148.633957,108.951087 C158.48011,97.3433228 168.326262,85.7355567 178.172412,74.1277907 Z M173.853236,148.721747 C172.189064,150.804249 170.838538,154.407912 173.3125,155.517566 C194.66707,133.782796 214.559042,110.716497 232.82237,86.5112216 C233.674725,85.3815552 234.566458,84.0981214 234.379904,82.7135015 C234.204694,81.4130934 233.126975,80.4199586 232.099415,79.5591476 C223.698825,72.5217847 214.251651,66.6439878 204.136098,62.161067 C203.086266,61.6958123 201.898763,61.2379616 200.808262,61.6064594 C200.020104,61.8727894 199.449628,62.5216227 198.919161,63.142775 C180.205847,85.0552026 161.492534,106.967628 142.77922,128.880055 C141.053195,130.901151 139.366885,134.056505 141.370386,135.824497 C143.514341,137.716432 146.78813,135.406082 148.638266,133.245763 C166.679907,112.179356 184.721549,91.1129485 202.763191,70.0465419 C205.007052,72.8095544 202.630719,76.7393228 200.312545,79.4448853 C186.515852,95.5471287 172.71916,111.649372 158.922467,127.751615 C155.414973,131.845245 151.875513,135.985829 149.43058,140.741795 C155.438617,143.755639 161.446651,146.769481 167.454686,149.783324 C181.557004,132.160286 195.659323,114.537248 209.761643,96.9142091 C210.601918,95.8641544 211.524448,94.7570722 212.837881,94.3592822 C214.151314,93.9614923 215.907985,94.6908695 215.972416,96.0149158 C201.93269,113.583861 187.892963,131.152804 173.853236,148.721747 Z M142.239304,145.349036 C139.876001,143.98263 135.914623,143.139849 135.140056,145.686817 C133.995184,149.451447 132.850312,153.216075 131.70544,156.980705 C131.380745,158.048379 131.055876,159.193749 131.407076,160.253621 C131.789477,161.407654 132.879455,162.187083 133.906702,162.886644 C136.822917,164.8726 139.739131,166.858557 142.655345,168.844512 C143.926558,169.710216 145.279595,170.605781 146.831284,170.731076 C148.312945,170.850713 149.742928,170.24812 151.097941,169.658842 C157.411438,166.91317 163.724936,164.167499 170.038434,161.42183 C160.772057,156.064232 151.505681,150.706633 142.239304,145.349036 Z M234.109318,68.8588543 C233.53578,63.4287475 232.962241,57.9986407 232.388704,52.5685328 C234.370719,51.7021563 236.352735,50.8357797 238.334751,49.9694031 C238.361192,56.7026335 240.3482,63.418798 244.010914,69.1550438 C246.344521,65.7424678 248.723563,62.2283478 249.623661,58.2356584 C250.523759,54.2429681 249.628184,49.6051122 246.325618,47.0390653 C243.732504,45.0242508 240.179882,44.6204829 236.847968,44.6733288 C229.785844,44.7853383 222.760136,46.6152486 216.602753,49.9463825 C213.842998,54.101072 214.833655,60.1752139 218.78323,63.3158268 C219.135671,59.0304639 219.488111,54.745101 219.84055,50.4597371 C220.933732,54.5774126 222.026912,58.6950881 223.120094,62.8127636 C223.441142,64.0220537 223.80297,65.3000145 224.746889,66.1557024 C225.690808,67.0113913 227.419761,67.1857516 228.184201,66.1776097 C228.839948,69.053554 231.754294,71.2942299 234.812818,71.273972 C235.952967,72.6504427 237.093115,74.0269144 238.233264,75.403386 C242.616397,71.1492745 239.480495,64.0202676 236.176836,58.9421599 C236.126799,62.332375 235.422059,65.7126094 234.109318,68.8588543 Z M211.887256,57.9419188 C213.384376,56.3313268 212.177146,53.2652649 209.947193,53.0146479 C207.374402,54.2843941 209.262871,59.0237468 212.057758,58.311371 L211.887256,57.9419188 Z M167.376712,139 C164.961493,138.064675 166.1492,134.57711 167.705093,132.57676 C182.017008,114.176503 196.827568,96.131605 212.116862,78.466333 C213.835321,76.4808216 215.808682,74.3616782 218.475718,74 C219.701704,75.329391 218.543734,77.3738407 217.391118,78.7620693 C200.719647,98.8413789 184.04818,118.920689 167.376712,139 Z M245.882182,55.5025561 C245.846127,56.6683701 245.810074,57.834185 245.774019,59 C241.680172,58.2386087 240.581703,52.8135676 244.154172,51 C245.750442,52.0128011 246.419371,53.9094199 245.730227,55.4685858 L245.882182,55.5025561 Z M228.277033,53.6421097 C229.435376,57.3602726 229.19527,61.4102206 227.603666,65 C226.402443,60.5523445 225.201222,56.104689 224,51.6570325 C224.911718,49.9758316 227.7168,51.8438193 228.277036,53.6421066 Z"/>
  </g>
</svg>
