<?xml version="1.0" encoding="UTF-8"?>
<svg width="251px" height="224px" viewBox="0 0 251 224" version="1.1" xmlns="http://www.w3.org/2000/svg" xmlns:xlink="http://www.w3.org/1999/xlink">
    <!-- Generator: Sketch 52.6 (67491) - http://www.bohemiancoding.com/sketch -->
    <title>Map</title>
    <desc>Created with Sketch.</desc>
    <defs>
        <path d="M238.614608,0.167128907 C238.614608,-0.139481834 238.921114,0.0138235366 239.074367,0.320434278 L239.22762,0.473739648 C239.687378,0.320434278 241.066653,1.08696113 241.066653,1.54687724 L241.373159,1.85348798 C241.832917,1.70018261 242.292676,2.16009872 242.292676,2.77332021 C242.292676,3.07993095 242.445928,3.07993095 243.05894,3.07993095 L243.212192,3.99976317 L243.05894,5.07290076 L242.905687,5.68612224 L242.752434,6.14603836 L242.752434,6.29934373 C242.905687,6.4526491 242.905687,6.4526491 242.599181,6.75925984 L242.599181,7.21917595 L242.752434,8.44561891 L242.752434,11.5117263 L242.752434,12.2782532 L242.752434,13.3513908 L242.599181,15.0377498 C242.292676,15.6509713 242.292676,16.8774143 242.599181,19.3303002 L242.599181,20.7100486 C242.292676,21.0166593 242.445928,21.1699647 242.599181,21.1699647 C242.905687,21.1699647 242.905687,21.1699647 242.752434,21.4765754 L242.599181,23.4695452 L242.599181,25.462515 L242.599181,26.3823473 L242.752434,28.5286224 C242.537524,32.0534841 242.588754,35.5895419 242.905687,39.106693 L242.905687,39.4133038 C243.184262,41.1910117 243.184262,43.0012838 242.905687,44.7789917 L242.752434,47.5384884 L242.752434,49.8380689 L242.752434,51.3711226 C243.05894,53.5173978 243.05894,55.3570623 242.752434,55.8169784 L242.752434,56.4301999 L243.05894,57.1967267 L243.212192,60.7227502 L243.212192,61.3359717 L243.212192,62.7157201 L243.212192,62.8690254 L243.365445,64.2487738 L243.365445,65.7818275 L243.05894,66.5483543 C243.480906,69.3388697 243.685858,72.1579235 243.671951,74.9801497 C244.149935,79.4104095 244.405677,83.861848 244.438215,88.3177169 L244.284962,89.6974653 L244.438215,91.230519 C244.74472,91.6904351 244.591468,93.2234888 244.284962,93.5300995 L244.284962,93.8367103 L244.591468,94.143321 L244.897973,96.5962069 C245.204479,97.2094284 245.204479,99.2023982 245.051226,99.2023982 L245.051226,99.509009 C245.204479,99.6623144 245.357732,99.8156197 245.204479,99.9689251 L245.204479,101.655284 L245.357732,102.728422 L245.510984,104.10817 L245.510984,104.721392 C245.81749,105.028002 245.664237,105.794529 245.357732,106.10114 C245.051226,106.407751 245.051226,106.407751 245.204479,106.561056 L245.510984,107.174278 C245.81749,107.787499 245.970743,110.700301 245.664237,110.853606 L245.664237,111.160217 C245.81749,111.620133 246.277248,113.613103 246.123996,113.766408 L246.123996,115.606073 L246.277248,116.832516 L246.277248,117.752348 L245.970743,118.67218 C245.81749,118.978791 245.81749,119.898623 246.123996,119.898623 L246.123996,121.278372 L246.277248,121.891593 L246.277248,122.65812 L246.277248,122.964731 L246.430501,123.731258 L246.583754,124.344479 L246.737007,125.417617 L246.89026,126.337449 L247.196765,127.717197 C247.043512,127.870503 247.043512,132.316358 247.350018,132.469664 C247.809776,133.082885 247.809776,135.075855 247.503271,135.689076 L247.503271,136.455603 C247.350018,137.068825 247.350018,138.908489 247.656524,138.908489 L247.809776,140.288238 L247.809776,142.127902 L247.809776,144.274177 L247.656524,144.427483 L247.809776,145.194009 L248.116282,146.727063 C248.269535,147.340285 248.116282,149.48656 247.963029,149.793171 L248.116282,150.406392 L248.116282,151.019613 L248.116282,151.326224 C248.269535,151.632835 248.422788,153.165889 248.269535,153.319194 L248.269535,153.77911 L248.116282,154.392332 C247.809776,154.852248 247.809776,154.852248 248.116282,155.158858 C248.882546,155.77208 249.189052,159.451409 248.882546,163.590654 L248.882546,165.890234 L248.729293,166.656761 L248.729293,167.423288 L248.729293,168.34312 L248.882546,169.876174 L248.882546,171.562533 L248.57604,172.175755 L248.57604,174.475335 L248.729293,176.008389 C249.035799,176.161694 249.035799,178.61458 248.729293,179.227802 L248.882546,179.534412 L248.882546,181.680688 L248.882546,183.060436 C248.729293,184.59349 248.57604,184.746795 246.737007,184.59349 L245.204479,184.746795 L244.591468,184.9001 L243.518698,185.206711 L242.599181,185.360016 L241.066653,185.819933 L240.147136,186.126543 L238.921114,186.433154 L237.388586,186.739765 C237.235333,186.586459 236.928828,186.739765 236.775575,186.89307 L236.009311,187.046376 L235.243047,187.046376 L234.783288,187.199681 L233.557266,187.506292 C231.532301,188.268993 229.422509,188.783753 227.273901,189.039345 L226.814143,189.192651 L226.354385,189.345956 L225.741373,189.499261 L224.821857,189.652567 L224.055593,189.805872 L223.595834,189.959178 L222.523065,190.419094 L221.603548,190.725704 L221.143789,190.87901 L220.837284,191.032315 L220.377525,191.032315 L219.917767,191.185621 L219.458009,191.338926 L218.691745,191.645537 L218.078733,191.952147 L217.772228,192.105453 L217.618975,192.105453 C217.618975,192.412063 217.159217,192.412063 217.005964,192.258758 C216.852711,191.952147 216.546205,192.105453 216.546205,192.258758 L215.933194,192.565369 L214.707172,193.17859 L214.094161,193.331896 C214.094161,193.025285 213.787655,193.17859 213.481149,193.331896 C213.174644,193.638506 212.714885,193.638506 212.561633,193.485201 L212.255127,193.638506 L211.948621,194.098423 L210.875852,194.405033 L209.803082,194.711644 L208.57706,195.018255 C208.117301,195.17156 206.278268,195.478171 205.818509,195.324866 C205.665257,195.17156 205.512004,195.17156 205.358751,195.478171 L204.898993,195.631476 L203.979476,195.784782 L203.213212,196.091392 L202.446948,196.398003 L201.987189,196.551308 L201.374178,196.704614 C200.91442,196.857919 200.761167,196.857919 200.607914,196.551308 L199.994903,196.551308 C199.84165,196.244698 199.688397,196.398003 199.688397,196.704614 L199.228639,197.011225 L198.768881,197.16453 L198.002617,197.317835 L197.236353,197.471141 L196.623341,197.777751 L196.316836,197.931057 L195.550572,198.084362 L194.937561,198.237668 L194.171297,198.390973 C193.711538,198.237668 193.558285,198.390973 193.558285,198.544278 L193.098527,198.697584 L192.792021,198.850889 L192.17901,199.004194 L191.565999,199.1575 L191.412746,199.1575 L190.952988,199.310805 L189.880218,199.617416 L188.807449,199.924027 L188.041185,200.230637 L187.274921,200.383943 L186.66191,200.690554 L185.895646,200.690554 C185.435887,200.690554 185.282634,200.690554 185.129382,200.997164 C185.129382,201.15047 184.976129,201.303775 184.669623,201.303775 C183.443601,201.610386 182.677337,201.763691 182.064326,202.223607 L180.838303,202.530218 L178.233006,203.603356 C177.9265,203.909966 177.773247,203.909966 177.313489,203.909966 L176.700478,203.909966 L176.087466,204.063272 L175.627708,204.369882 L173.788674,204.983104 L173.482169,204.983104 L173.175663,205.136409 L172.715905,205.44302 L171.796388,205.749631 L169.957354,206.362852 L169.650849,206.516158 C169.497596,206.362852 169.344343,206.516158 169.19109,206.669463 L168.884585,206.822768 L168.731332,207.129379 C168.578079,207.282684 168.424826,207.43599 167.965068,207.43599 L167.352057,207.742601 L164.593506,208.969044 C163.827242,209.122349 162.907726,208.969044 162.60122,208.662433 L161.375198,208.355822 L159.84267,208.049211 L158.616647,207.742601 L157.850383,207.589295 L157.543878,207.43599 L156.471108,207.282684 C153.583961,207.087172 150.715337,206.677228 147.888951,206.056241 L147.122687,206.056241 L146.509676,205.902936 L145.590159,205.749631 L144.364137,205.44302 L143.291367,205.289715 L142.678356,205.136409 L142.525103,204.983104 L141.912092,204.983104 L140.226311,204.676493 L138.693783,204.369882 L137.467761,204.369882 L136.701497,204.216577 L135.78198,204.063272 L135.168969,203.909966 C134.396663,203.788604 133.629736,203.635166 132.870177,203.45005 C130.592088,203.05678 128.285515,202.851681 125.973801,202.836829 L125.207537,202.683523 L124.441273,202.530218 L123.828262,202.530218 L122.448987,202.376913 L120.916459,202.223607 L120.303447,202.223607 L120.150195,202.070302 L118.924172,201.916996 L116.62538,201.45708 L114.173335,201.303775 C111.60597,200.681732 108.991896,200.271541 106.357443,200.077332 L103.44564,199.617416 L103.139134,199.464111 L102.985881,199.617416 L100.840342,199.617416 C100.074078,199.617416 98.6948027,199.310805 97.9285387,199.004194 L96.2427579,198.544278 C95.4764939,198.544278 94.7102299,198.237668 94.4037243,198.084362 C93.943966,197.931057 93.177702,197.777751 93.177702,198.084362 L92.7179436,198.084362 L91.9516796,198.237668 L91.1854156,198.544278 L90.5724044,198.697584 C90.4191516,198.850889 90.2658988,199.004194 90.112646,198.850889 L89.9593932,199.004194 L89.346382,199.310805 L87.9671068,199.770721 L86.7410844,200.077332 C85.2085564,200.230637 84.5955452,200.383943 84.5955452,200.537248 L84.1357868,200.537248 L83.6760284,200.690554 L82.450006,201.15047 L80.4577196,201.45708 L79.0784444,201.763691 L77.852422,202.223607 L76.6263996,202.530218 L75.2471244,202.836829 L73.8678492,203.143439 L73.254838,203.296745 C72.5263353,203.451242 71.8094324,203.656142 71.1092989,203.909966 L68.6572541,204.523188 L66.6649677,205.136409 L66.2052093,205.289715 L65.1324397,205.596325 L63.7531645,206.056241 L62.8336477,206.516158 L62.2206365,206.669463 L60.2283501,207.282684 L59.4620861,207.43599 L58.6958221,207.895906 L57.4697997,208.355822 L56.5502829,208.662433 L55.4775133,208.969044 L53.9449853,209.582265 L52.8722157,209.888876 L52.1059518,210.042181 L51.3396878,210.348792 L48.5811374,211.268624 L47.9681262,211.421929 L46.4355982,211.72854 L45.9758398,211.881846 L44.9030702,212.035151 L44.290059,212.341762 L43.8303006,212.341762 L43.523795,212.495067 L42.757531,212.648372 L41.5315086,212.954983 L40.9184974,213.108289 L40.3054862,213.261594 L39.692475,213.568205 L38.926211,213.72151 L36.4741662,214.334731 L35.5546494,214.488037 L34.0221214,215.101258 L33.4091102,215.254564 L32.3363406,215.561174 C32.029835,215.71448 31.7233294,215.867785 31.5700766,215.71448 L30.9570655,215.867785 L30.1908015,216.174396 L29.5777903,216.327701 L28.8115263,216.634312 L28.3517679,216.787617 L27.8920095,216.940923 L27.1257455,217.247534 C26.8192399,217.554144 26.2062287,217.70745 25.4399647,217.70745 L24.8269535,218.01406 L24.5204479,218.167366 L22.8346671,218.627282 L21.4553919,218.933893 L20.9956335,219.087198 L20.6891279,219.240503 L20.2293695,219.393809 L19.6163583,219.700419 L18.6968415,220.00703 L18.0838303,220.313641 L17.6240719,220.466946 L17.3175663,220.466946 L16.8578079,220.620252 L16.2447967,220.926862 C15.6317855,220.926862 15.1720271,221.080168 14.8655215,221.386779 C14.5590159,221.693389 13.6394991,222 13.1797407,222 L12.5667295,221.693389 C12.5667295,221.386779 12.4134767,221.233473 12.1069711,221.540084 L11.8004655,221.846695 L10.4211904,221.080168 L10.1146848,220.926862 C9.80817915,220.926862 9.50167355,220.620252 8.88866236,219.853725 C8.73540956,219.700419 8.58215676,219.393809 8.58215676,218.780587 L8.58215676,215.101258 L8.12239836,213.568205 C8.29982958,211.732821 8.29982958,209.884595 8.12239836,208.049211 L8.12239836,207.282684 L7.96914556,206.056241 L7.66263996,203.45005 L7.50938716,200.537248 C7.43892028,197.916222 7.18285754,195.303486 6.74312317,192.718674 L6.58987037,191.492231 L6.43661757,188.88604 C6.02283475,183.529068 5.76730202,178.16104 5.67035357,172.788976 L5.67035357,165.583624 L5.51710077,162.824127 L5.82360637,158.071661 C5.59691737,156.703975 5.49433108,155.318585 5.51710077,153.932416 C5.16954286,150.776502 5.01600124,147.60222 5.05734238,144.427483 L4.90408958,139.2151 L4.90408958,135.995687 L5.05734238,133.696107 L5.05734238,133.23619 L4.90408958,132.776274 L5.05734238,130.170083 L5.21059518,127.717197 L5.21059518,127.563892 L5.05734238,124.9577 L4.75083678,116.67921 C4.51850835,113.498004 4.16063944,110.327221 3.67806718,107.174278 L3.37156158,102.728422 L3.37156158,99.6623144 L3.52481438,96.9028177 C2.87181089,93.8832103 2.66527387,90.7840922 2.91180319,87.7044955 L2.60529759,84.7916934 L2.14553919,82.0321967 C1.937507,81.0235361 1.83478714,79.9959852 1.83903359,78.9660893 L1.83903359,76.359898 L1.68578079,75.8999819 L1.68578079,75.5933712 C1.53252799,75.5933712 1.37927519,74.8268443 1.37927519,72.6805691 L1.53252799,69.4611564 L1.53252799,68.081408 L1.53252799,67.3148812 L1.37927519,67.0082704 L1.22602239,64.2487738 C0.696815468,59.7211858 0.543037982,55.1575554 0.766263996,50.6045958 L0.459758398,44.9322971 L0.459758398,44.0124649 C0.613011197,43.0926326 0.459758398,41.0996628 0.306505599,40.7930521 L0.153252799,38.3401662 L0.153252799,35.8872802 L2.27373675e-13,35.4273641 C2.27373675e-13,34.6608373 0.613011197,34.3542265 1.68578079,34.3542265 L2.75855039,34.5075319 L3.52481438,34.6608373 L4.44433118,34.5075319 L5.05734238,33.8943104 C5.36384797,33.4343943 5.82360637,33.2810889 6.43661757,32.9744782 L7.50938716,32.6678675 L8.12239836,32.5145621 L8.73540956,32.3612567 L9.34842076,31.9013406 L10.5744431,31.4414245 L12.4134767,30.5215923 L13.7927519,29.7550654 L14.4057631,29.60176 L14.7122687,29.4484547 L15.3252799,29.1418439 L16.2447967,28.6819278 L17.7773247,27.915401 L19.3098527,27.3021795 L20.8423807,26.5356526 L21.1488863,26.3823473 L22.2216559,26.0757365 L23.4476783,25.6158204 L26.0529759,24.3893774 L27.1257455,23.9294613 L27.4322511,23.776156 L28.1985151,23.4695452 L28.8115263,23.3162399 L28.9647791,23.3162399 C29.1180319,23.1629345 30.4973071,22.549713 30.6505599,22.7030184 L31.1103183,22.3964076 L32.029835,21.9364915 L32.796099,21.6298808 L33.1026046,21.4765754 L33.562363,21.1699647 L34.1753742,21.0166593 L34.6351326,20.8633539 L35.094891,20.5567432 L36.4741662,20.0968271 L37.5469358,19.636911 L38.3131998,19.3303002 L39.2327166,19.0236895 L39.8457278,18.8703841 L40.458739,18.5637734 C41.8168479,17.7940191 43.2559734,17.1770394 44.7498174,16.7241089 L45.3628286,16.5708035 L45.9758398,16.4174982 L46.4355982,16.2641928 L47.9681262,15.6509713 L49.1941486,15.3443606 L50.1136654,15.0377498 L51.4929406,14.4245284 L52.1059518,14.271223 L52.8722157,14.1179176 L53.1787213,13.9646123 L54.7112493,13.1980854 L55.0177549,13.04478 L55.3242605,12.8914747 L55.9372717,12.7381693 L57.3165469,12.4315585 L59.1555805,11.9716424 L60.0750973,11.6650317 L60.8413613,11.5117263 L62.0673837,11.0518102 L62.8336477,10.7451995 L63.7531645,10.4385887 L64.8259341,9.97867262 L65.2856925,9.82536725 L65.5921981,9.67206188 L66.2052093,9.36545114 L67.1247261,9.0588404 L68.1974957,8.90553502 C68.3507485,8.59892428 68.6572541,8.59892428 69.7300237,8.44561891 L70.1897821,8.13900817 L70.6495405,8.13900817 L70.9560461,7.9857028 L71.4158045,7.83239743 L71.8755629,7.67909206 L72.9483325,7.37248132 L74.021102,6.75925984 L74.4808604,6.60595447 C74.6341132,6.75925984 74.9406188,6.60595447 75.0938716,6.4526491 L75.7068828,6.14603836 L76.6263996,5.83942762 L77.5459164,5.3795115 L78.1589276,4.91959539 C78.3121804,4.61298465 78.618686,4.61298465 78.7719388,4.61298465 L79.2316972,4.61298465 L79.6914556,4.45967928 L80.3044668,4.30637391 L81.3772364,3.53984706 L82.7565116,2.62001483 C83.21627,2.16009872 83.5227756,2.16009872 84.5955452,2.00679335 L85.9748204,1.70018261 L86.4345788,1.70018261 C87.3540956,2.16009872 88.8866236,2.46670946 91.9516796,2.77332021 L93.6374604,2.92662558 L95.0167355,2.92662558 L95.4764939,3.07993095 L96.2427579,3.38654169 L96.8557691,3.53984706 L97.6220331,3.69315243 L98.8480555,3.8464578 L100.687089,4.30637391 L102.219617,4.61298465 L103.292387,4.91959539 L104.978167,5.3795115 L108.043223,6.14603836 L110.03551,6.4526491 C111.837978,6.79510048 113.627153,7.20419503 115.399358,7.67909206 L116.165622,7.9857028 L117.238391,8.13900817 L118.311161,8.29231354 L119.843689,8.59892428 L120.916459,8.75222965 L121.989228,9.0588404 L122.755492,9.21214577 L123.215251,9.21214577 L123.981515,9.36545114 C124.594526,9.51875651 125.514043,9.82536725 127.353076,9.97867262 C128.885604,10.131978 131.337649,10.5918941 132.103913,11.0518102 L133.02343,11.2051156 C134.709211,11.358421 135.78198,11.6650317 136.85475,11.9716424 L138.234025,12.2782532 L139.460047,12.5848639 L140.992575,12.8914747 C142.496053,13.328776 144.034198,13.6365104 145.590159,13.8113069 L148.042204,14.271223 L148.501962,14.4245284 L149.574732,14.5778337 L152.333282,15.0377498 L154.325569,15.6509713 L154.93858,15.8042767 L155.858097,15.9575821 L156.777614,16.2641928 L157.543878,16.5708035 L158.7699,16.8774143 L160.302428,17.184025 L161.52845,17.6439411 C162.871392,18.4072752 164.316299,18.9751121 165.819529,19.3303002 L167.352057,19.3303002 C167.658562,19.0236895 168.271574,18.8703841 168.578079,18.8703841 L170.417113,18.410468 L172.102894,17.9505519 L173.02241,17.6439411 L175.16795,17.0307197 L177.160236,16.2641928 L178.846017,15.6509713 C179.893472,15.4379727 180.919385,15.1300932 181.911073,14.7311391 L182.370831,14.5778337 L183.137095,14.271223 L184.209865,14.1179176 L184.976129,13.9646123 L186.355404,13.5046961 L187.734679,13.1980854 L188.807449,13.04478 L189.880218,12.7381693 L191.565999,12.4315585 L192.792021,12.1249478 L193.864791,12.1249478 L194.324549,11.9716424 L194.937561,11.6650317 L196.01033,11.5117263 L197.0831,11.358421 L199.381892,10.5918941 L200.301409,10.4385887 L201.680684,9.82536725 L202.293695,9.51875651 L204.132729,9.36545114 C205.997667,8.76542161 207.889892,8.25383381 209.803082,7.83239743 L210.416093,7.67909206 L212.101874,7.52578669 L212.868138,7.37248132 L213.634402,7.06587058 L216.086447,6.75925984 L217.925481,6.4526491 L218.385239,6.29934373 C220.295312,5.78944344 222.242519,5.43062435 224.208845,5.22620613 L224.975109,4.91959539 L225.741373,4.76629002 L226.66089,4.45967928 C227.427154,3.99976317 228.653177,3.69315243 230.185704,3.38654169 L230.798716,3.23323632 L231.718232,2.92662558 L232.637749,2.62001483 L233.25076,2.46670946 L233.557266,2.31340409 L235.856058,1.39357187 L236.775575,1.08696113 C237.388586,0.473739648 238.15485,0.167128907 238.308103,0.167128907 L238.614608,0.167128907 Z M237.388586,7.37248132 C237.08208,7.06587058 236.315816,7.06587058 236.009311,7.21917595 C235.702805,7.67909206 232.791002,8.44561891 232.484496,8.13900817 L232.024738,8.29231354 L231.718232,8.44561891 C231.56498,8.29231354 231.258474,8.44561891 231.105221,8.59892428 L230.49221,9.0588404 C229.879199,9.0588404 228.959682,9.36545114 227.580407,9.82536725 L226.66089,10.131978 L225.741373,10.4385887 L224.515351,10.7451995 L223.289329,10.8985048 L220.224273,11.358421 L219.151503,11.6650317 L217.925481,11.9716424 L217.005964,12.1249478 L216.546205,12.2782532 L215.933194,12.4315585 L215.473436,12.4315585 L214.860425,12.5848639 L213.940908,12.7381693 C213.481149,12.5848639 213.021391,12.7381693 212.868138,12.8914747 L211.642116,13.04478 L210.875852,13.1980854 L209.803082,13.5046961 L208.423807,13.8113069 L207.50429,14.1179176 L206.584773,14.4245284 L205.512004,14.4245284 L204.74574,14.7311391 C204.132729,14.7311391 201.987189,15.3443606 201.067673,15.8042767 L199.994903,16.1108874 L199.381892,16.2641928 L198.309122,16.4174982 L196.929847,16.7241089 L196.163583,16.8774143 L195.397319,17.0307197 L194.171297,17.3373304 L192.945274,17.4906358 L191.719252,17.7972465 L190.186724,18.2571626 L188.960701,18.410468 L188.041185,18.7170787 L185.742393,19.3303002 L185.129382,19.4836056 L184.669623,19.636911 L184.209865,19.636911 L182.677337,20.0968271 L182.064326,20.2501324 L180.838303,20.7100486 L180.072039,21.0166593 L179.612281,21.1699647 C178.846017,21.1699647 178.386258,21.32327 177.773247,21.6298808 L176.393972,22.0897969 L175.474455,22.2431023 L175.014697,22.3964076 L173.941927,22.7030184 L173.02241,23.0096291 L172.715905,23.1629345 C172.715905,23.4695452 171.949641,23.776156 171.33663,23.776156 L170.417113,23.9294613 L169.497596,24.0827667 L168.578079,24.3893774 L167.811815,24.5426828 L166.892298,24.6959882 L165.972782,25.0025989 L164.900012,25.1559043 C163.980495,25.462515 163.060978,25.1559043 161.068692,23.9294613 C159.995922,23.1629345 158.616647,22.549713 158.463394,22.7030184 C156.972535,22.1514171 155.433276,21.7408073 153.86581,21.4765754 L151.720271,20.8633539 L150.187743,20.4034378 L148.808468,19.9435217 L148.501962,19.9435217 C148.042204,20.0968271 145.896665,19.9435217 144.977148,19.4836056 L143.751126,19.3303002 L142.218598,19.0236895 L141.299081,18.8703841 L140.379564,18.7170787 L139.6133,18.410468 L139.153542,18.2571626 L138.847036,18.1038573 L138.080772,17.9505519 C136.690045,17.6979799 135.309717,17.391135 133.942947,17.0307197 C132.410419,16.5708035 130.264879,16.2641928 129.498615,16.2641928 L128.425846,15.9575821 L127.506329,15.8042767 L127.046571,15.6509713 L126.586812,15.3443606 L122.908745,14.7311391 L121.52947,14.4245284 L120.609953,14.4245284 L120.303447,14.271223 L118.770919,14.1179176 L116.931886,13.8113069 L116.318875,13.6580015 L114.786347,13.1980854 L113.100566,12.7381693 L112.027796,12.4315585 L110.03551,12.1249478 L107.889971,11.6650317 C106.371165,11.2933878 104.837252,10.9865 103.292387,10.7451995 L102.526123,10.4385887 L101.606606,10.2852834 L100.840342,10.131978 L99.9208251,9.82536725 L99.3078139,9.67206188 L98.6948027,9.51875651 L98.0817915,9.36545114 L97.1622747,9.21214577 L94.7102299,8.90553502 L94.0972187,8.75222965 L93.3309548,8.59892428 L92.411438,8.44561891 C90.5724044,8.13900817 90.2658988,8.13900817 89.9593932,7.83239743 C89.6528876,7.67909206 86.5878316,7.37248132 86.1280732,7.52578669 L85.2085564,7.83239743 L84.2890396,8.13900817 L83.5227756,8.59892428 C83.3695228,8.59892428 82.7565116,8.75222965 82.450006,9.0588404 L81.683742,9.36545114 L80.917478,9.82536725 C80.6109724,10.131978 80.151214,10.2852834 79.8447084,10.2852834 L79.0784444,10.5918941 L78.4654332,10.8985048 L78.3121804,11.0518102 L77.852422,11.2051156 C77.3926636,11.2051156 76.6263996,11.5117263 75.8601356,11.9716424 L74.787366,12.2782532 L74.4808604,12.4315585 L73.254838,13.04478 L72.3353213,13.5046961 L71.5690573,13.8113069 L70.8027933,13.9646123 C70.4962877,14.1179176 70.0365293,14.271223 69.8832765,14.1179176 L68.9637597,14.271223 L68.3507485,14.5778337 L68.1974957,14.7311391 L67.2779789,15.0377498 C65.284755,15.8891613 63.2368091,16.6061883 61.1478669,17.184025 C60.5348557,17.184025 60.2283501,17.4906358 60.2283501,17.4906358 L59.7685917,17.6439411 C59.4620861,17.4906358 59.1555805,17.6439411 59.0023277,17.7972465 L58.2360637,17.9505519 L57.1632941,18.2571626 L56.3970301,18.5637734 C56.2437773,18.5637734 55.1710077,18.8703841 54.4047437,19.3303002 L53.6384797,19.4836056 L53.0254685,19.636911 L51.7994462,20.0968271 L50.1136654,20.7100486 L49.0408958,21.0166593 L48.121379,21.32327 L47.0486094,21.7831861 L46.4355982,22.0897969 L45.9758398,22.2431023 C45.822587,22.0897969 45.5160814,22.2431023 45.056323,22.3964076 C44.7498174,22.7030184 44.1368062,22.8563237 43.8303006,22.8563237 L42.6042782,23.4695452 L41.0717502,24.0827667 L40.1522334,24.5426828 L39.692475,24.8492936 L39.2327166,25.0025989 L38.926211,25.0025989 L38.4664526,25.1559043 L36.7806718,25.9224311 L34.0221214,27.1488741 L33.2558574,27.3021795 L32.9493518,27.4554849 L32.6428462,27.6087902 L32.3363406,27.6087902 L32.029835,27.7620956 L31.5700766,27.915401 L31.1103183,28.2220117 L30.3440543,28.5286224 L29.4245375,28.9885386 L28.5050207,29.4484547 L27.8920095,29.60176 L27.5855039,29.7550654 C27.5855039,29.9083708 26.5127343,30.5215923 26.2062287,30.3682869 L25.5932175,30.6748976 L24.9802063,31.1348137 C24.8269535,30.9815084 24.5204479,31.1348137 24.2139423,31.2881191 C23.6009311,31.7480352 22.3749087,32.2079513 22.0684031,32.2079513 L21.3021391,32.5145621 C21.1488863,32.8211728 20.6891279,32.9744782 20.5358751,32.9744782 L19.7696111,33.2810889 L19.1565999,33.5876997 L18.5435887,33.8943104 L17.7773247,34.2009212 L17.4708191,34.3542265 L17.0110607,34.5075319 L16.3980495,34.8141426 L15.4785327,35.2740587 L14.0992575,36.0405856 C13.7927519,36.5005017 13.4862463,36.6538071 13.3329935,36.6538071 C13.1797407,36.5005017 12.7199823,36.8071125 12.7199823,37.1137232 L12.4134767,37.2670286 L11.9537183,37.5736393 L11.3407071,37.88025 C11.0342015,37.7269447 10.8809487,37.88025 10.7276959,38.0335554 L10.2679376,38.1868608 L9.80817915,38.3401662 C9.80817915,38.6467769 9.65492635,38.6467769 9.65492635,38.4934715 L9.19516796,38.4934715 C9.19516796,39.106693 7.20288157,40.0265252 6.43661757,39.7199145 C5.51710077,39.4133038 5.51710077,39.4133038 5.51710077,42.4794112 L5.82360637,46.4653508 C6.06201334,48.7075056 6.06201334,50.9686323 5.82360637,53.2107871 L5.97685917,53.8240086 C5.94509392,57.3597632 6.1498885,60.8936815 6.58987037,64.4020791 L6.58987037,65.7818275 C6.72863218,67.5156 6.77978158,69.2552763 6.74312317,70.9942101 L7.04962877,76.359898 L7.20288157,78.3528679 L7.50938716,82.4921129 L7.66263996,84.4850827 L7.96914556,86.3247471 L8.12239836,89.0842438 C8.54924367,92.953062 8.75391683,96.8431861 8.73540956,100.735452 L8.88866236,103.188338 L8.88866236,104.568086 L8.88866236,105.334613 L9.04191516,107.020972 L9.34842076,108.554026 L9.34842076,109.013942 L9.34842076,109.473858 L9.50167355,110.39369 L9.96143195,113.613103 L9.96143195,114.532935 L10.1146848,115.146157 C10.4211904,115.606073 10.4211904,115.759378 10.2679376,116.065989 L10.2679376,116.67921 L10.4211904,118.825486 L10.7276959,122.351509 L10.7276959,122.65812 L10.7276959,123.424647 L10.8809487,124.191174 L10.7276959,128.023808 L10.7276959,140.441543 C11.071577,151.01599 11.2248547,161.59578 11.1874543,172.175755 L11.3407071,174.935251 L11.3407071,177.234832 C11.3820568,182.714375 11.6889225,188.188691 12.2602239,193.638506 C12.3963807,196.204123 12.6520799,198.761992 13.0264879,201.303775 L13.0264879,202.836829 L13.0264879,203.756661 C13.3547055,205.318973 13.5088987,206.912849 13.4862463,208.509127 C13.6394991,211.575235 13.7927519,212.648372 13.9460047,212.954983 C14.0992575,213.108289 14.0992575,213.261594 13.7927519,213.414899 L13.7927519,214.947953 C13.4862463,215.254564 13.6394991,215.867785 13.7927519,216.174396 L13.9460047,216.634312 C13.7927519,216.940923 15.0187743,216.634312 15.9382911,216.174396 L16.3980495,216.021091 L16.8578079,215.867785 L17.7773247,215.71448 L18.2370831,215.561174 C18.2370831,215.407869 19.0033471,215.101258 19.1565999,215.254564 L19.7696111,214.794648 L20.6891279,214.488037 L21.1488863,214.334731 C21.9802353,214.12641 22.7989326,213.87048 23.6009311,213.568205 L25.4399647,212.954983 L26.3594815,212.648372 L27.1257455,212.495067 L28.1985151,212.035151 L29.1180319,211.72854 L29.8842959,211.72854 L32.1830878,210.962013 L32.4895934,210.808708 L33.1026046,210.502097 L33.8688686,210.348792 L34.328627,210.195486 L35.094891,209.888876 L35.5546494,209.73557 L35.861155,209.582265 L36.7806718,209.582265 L37.0871774,209.42896 L38.0066942,209.122349 L38.926211,208.815738 L39.2327166,208.662433 L39.8457278,208.662433 L40.6119918,208.509127 L41.5315086,208.202517 L43.0640366,207.895906 L44.7498174,207.43599 L46.4355982,206.976074 L47.9681262,206.362852 L48.5811374,206.056241 C49.9493922,205.791312 51.2852443,205.38014 52.5657101,204.829799 C54.5790547,204.076382 56.6243802,203.411423 58.6958221,202.836829 L60.8413613,202.070302 L61.9141309,201.610386 L62.9869005,201.45708 L64.0596701,201.15047 L64.5194285,200.997164 L64.9791869,200.843859 C65.5921981,200.843859 66.2052093,200.690554 66.3584621,200.383943 L66.8182205,200.077332 L67.4312317,199.924027 L67.5844845,199.924027 L68.0442429,199.770721 L68.5040013,199.770721 L69.4235181,199.617416 L70.6495405,199.1575 L72.3353213,198.697584 L74.3276076,198.237668 L75.4003772,197.931057 L76.0133884,197.624446 L76.7796524,197.624446 C77.086158,197.471141 78.4654332,197.011225 79.38495,197.011225 L80.3044668,196.551308 L81.2239836,196.244698 C81.9902476,196.244698 82.2967532,196.091392 83.21627,195.784782 L83.6760284,195.784782 L84.2890396,195.631476 C84.4422924,195.324866 85.2085564,195.17156 87.813854,194.251728 C88.2736124,194.251728 88.7333708,193.945117 88.8866236,193.791812 L89.8061404,193.331896 C90.4191516,193.331896 90.5724044,193.17859 90.112646,192.718674 L89.9593932,189.039345 C89.6864999,185.724851 89.6353016,182.39582 89.8061404,179.074496 C89.8061404,176.62161 89.6528876,175.088557 89.4996348,174.475335 L89.0398764,169.109647 L88.8866236,166.196845 C88.6468781,164.412508 88.442501,162.623595 88.2736124,160.831157 L88.1203596,159.144798 C87.9441055,157.977082 87.8417333,156.799398 87.813854,155.618775 L87.6606012,154.085721 L87.6606012,153.165889 C87.4423543,151.900298 87.3397622,150.617457 87.3540956,149.333254 L87.04759,147.186979 L86.8943372,145.194009 C86.3466685,140.718438 86.0907064,136.21196 86.1280732,131.703137 L85.9748204,128.023808 L85.515062,123.271341 C85.1617591,120.526609 85.0081025,117.759842 85.0553036,114.992851 L84.9020508,112.38666 L84.4422924,107.480888 C83.8615889,103.986016 83.6050763,100.444928 83.6760284,96.9028177 L83.5227756,93.3767942 L83.5227756,91.5371297 L83.21627,88.0111062 C83.0599268,82.0764824 82.7533228,76.1467727 82.2967532,70.2276832 C82.161294,67.7185475 81.9568797,65.2136129 81.683742,62.7157201 C81.5304892,60.1095288 81.5304892,58.2698643 81.9902476,58.2698643 L81.9902476,58.116559 C81.5304892,57.9632536 81.2239836,56.890116 80.917478,54.5905354 C80.7216966,53.8916447 80.6186445,53.1700329 80.6109724,52.4442602 L80.4577196,50.7579012 C80.151214,50.1446797 80.151214,49.8380689 80.3044668,49.2248475 L80.4577196,48.1517099 L80.4577196,45.2389078 L80.4577196,44.9322971 C80.151214,44.7789917 80.151214,44.1657702 79.9979612,42.3261058 C79.9979612,39.8732199 79.8447084,38.6467769 79.6914556,38.3401662 L79.5382028,38.1868608 C79.6914556,38.0335554 79.5382028,37.2670286 79.38495,36.193891 L78.9251916,32.2079513 L78.618686,31.1348137 C78.4654332,30.6748976 78.3121804,29.2951493 78.618686,28.9885386 L78.618686,28.3753171 L78.4654332,26.9955687 C78.4654332,25.6158204 78.3121804,22.7030184 78.0056748,22.3964076 L77.6991692,18.1038573 L77.852422,16.5708035 C77.677723,15.7460471 77.4732522,14.9278834 77.2394108,14.1179176 L77.3926636,13.5046961 L77.3926636,13.04478 C77.086158,12.5848639 77.2394108,12.1249478 77.5459164,11.9716424 L78.1589276,11.6650317 C78.4654332,11.358421 79.6914556,11.8183371 79.6914556,12.2782532 C79.8447084,12.5848639 80.3044668,12.7381693 80.3044668,12.4315585 C80.3044668,12.1249478 80.7642252,12.2782532 80.7642252,12.5848639 C80.917478,13.1980854 80.917478,14.5778337 80.6109724,14.8844445 L80.4577196,15.3443606 L80.4577196,17.6439411 C80.3044668,17.7972465 80.4577196,17.9505519 80.6109724,18.1038573 C80.7642252,18.410468 80.917478,18.5637734 80.7642252,18.7170787 L80.7642252,20.7100486 L80.7642252,21.1699647 C80.917478,21.4765754 80.917478,22.7030184 80.6109724,23.3162399 C80.3044668,23.9294613 80.4577196,25.1559043 80.7642252,26.0757365 L81.0707308,27.6087902 L81.3772364,30.5215923 L81.5304892,31.9013406 L81.683742,32.8211728 L81.8369948,33.4343943 L81.9902476,34.5075319 C82.5952216,36.4914881 82.8035252,38.5752389 82.6032588,40.6397467 C83.063471,44.4559689 83.3192579,48.2940881 83.3695228,52.1376495 C83.8701171,54.2453085 84.0764151,56.41218 83.982534,58.5764751 L84.4422924,61.4892771 L84.4422924,61.7958878 L84.4422924,63.4822469 C84.5018719,64.7118682 84.604102,65.93905 84.748798,67.1615758 L85.0553036,70.534294 C85.1323343,73.2507973 85.3368968,75.9621809 85.6683148,78.6594786 L85.8215676,82.1855021 L85.8215676,85.4049149 L85.8215676,86.7846632 L85.9748204,87.7044955 L85.9748204,89.0842438 L85.9748204,89.8507706 L86.1280732,91.0772136 L86.1280732,91.9970458 L86.1280732,92.7635727 L86.281326,93.9900156 L86.281326,94.9098479 C86.4692434,97.0511786 86.5714936,99.1991695 86.5878316,101.348673 L86.8943372,102.881727 L86.8943372,103.188338 L86.8943372,103.494949 L87.2008428,106.10114 L87.3540956,110.240385 C87.70157,112.522879 87.8553713,114.830691 87.813854,117.139127 L87.9671068,120.66515 L88.1203596,123.424647 L88.1203596,124.037868 L88.4268652,125.111006 L88.580118,126.490754 L88.580118,127.103976 C88.2736124,127.257281 88.2736124,128.023808 88.4268652,128.023808 C88.7333708,128.023808 88.8866236,128.177113 88.8866236,129.096945 L88.580118,130.170083 C88.4268652,130.629999 88.2736124,131.089915 88.580118,131.089915 C88.6500169,131.860401 88.7522758,132.627606 88.8866236,133.389496 C89.4315342,136.371698 89.6371809,139.406026 89.4996348,142.434513 L89.4996348,144.120872 C89.6473629,144.983633 89.7496725,145.853562 89.8061404,146.727063 C89.7768757,148.363844 89.8280216,150.001075 89.9593932,151.632835 L89.9593932,153.012583 C89.6528876,153.165889 89.8061404,153.77911 90.112646,153.932416 L90.4191516,154.545637 L90.4191516,155.77208 L90.5724044,159.144798 L90.5724044,159.911325 L90.7256572,160.217936 L90.87891,161.444379 L91.0321628,162.977432 C91.3608731,164.849852 91.5147887,166.748795 91.4919212,168.649731 L91.645174,172.022449 L91.7984268,172.942281 L91.9516796,173.402198 L92.1049324,174.628641 L92.2581852,176.315 L92.411438,178.921191 L92.411438,185.819933 L92.411438,190.87901 L92.411438,191.645537 C92.1049324,191.798842 92.411438,192.258758 93.0244492,192.718674 C93.7907132,193.17859 95.3232411,193.638506 95.9362523,193.485201 L96.8557691,193.791812 C97.9285387,194.251728 99.4610667,194.405033 102.37287,194.558339 L105.897684,194.711644 L108.196476,194.711644 L108.809487,194.864949 C109.115993,195.018255 110.342015,195.324866 111.874543,195.324866 L112.487555,195.478171 L113.100566,195.478171 L113.713577,195.784782 L114.326588,196.091392 C115.399358,195.938087 117.69815,196.244698 118.004655,196.551308 L120.609953,196.857919 C120.763206,196.704614 121.069711,196.857919 121.52947,197.011225 L122.755492,197.011225 L123.215251,197.16453 L125.054284,197.471141 L126.893318,197.471141 L128.272593,197.624446 L130.264879,197.931057 L132.410419,198.390973 L134.862463,198.850889 L135.168969,199.004194 L135.78198,199.004194 L137.467761,199.1575 L139.460047,199.464111 L140.992575,199.617416 L141.758839,199.770721 L142.371851,199.924027 L143.597873,200.077332 C144.210884,200.383943 145.743412,200.843859 146.509676,200.843859 L147.27594,200.997164 C147.735698,201.303775 148.655215,201.45708 148.808468,201.303775 L149.114974,201.45708 L150.954007,201.763691 L152.793041,202.070302 L153.559305,202.223607 C153.86581,202.223607 154.019063,202.223607 153.86581,202.376913 L154.019063,202.530218 L154.478822,202.376913 L155.858097,202.683523 L156.624361,202.990134 L157.69713,202.990134 L159.689417,203.45005 C162.141462,203.909966 161.988209,203.909966 162.754473,203.45005 C163.367484,202.836829 163.980495,202.683523 164.593506,202.683523 C164.900012,202.683523 164.900012,202.683523 164.440254,201.763691 C164.133748,200.997164 164.133748,200.843859 164.133748,199.1575 L164.287001,197.16453 L164.287001,191.032315 C164.785864,184.444565 164.683271,177.825036 163.980495,171.255922 L163.827242,169.722869 L163.827242,162.210906 C163.597575,156.69075 163.342151,151.171696 163.060978,145.653925 L162.754473,141.974597 L162.754473,141.667986 L162.60122,141.054764 L162.447967,139.675016 L162.294714,137.835352 L162.294714,134.462633 L162.141462,132.92958 L162.141462,130.476694 C161.849621,128.961162 161.797904,127.409141 161.988209,125.877533 L162.141462,120.051929 L161.988209,119.592013 L161.988209,119.132096 L162.141462,117.445737 L161.988209,114.532935 L161.988209,112.846576 L161.988209,110.546996 C161.834956,109.473858 161.988209,109.013942 162.141462,108.707331 L162.141462,107.787499 L161.988209,107.327583 L161.988209,104.874697 C162.141462,104.568086 162.141462,104.568086 161.834956,104.568086 C161.681703,104.568086 161.52845,103.801559 161.375198,101.80859 L161.221945,99.6623144 L161.375198,98.5891768 L161.375198,98.282566 L161.221945,97.2094284 L161.221945,94.2966264 C161.076898,92.9732622 161.025686,91.6412863 161.068692,90.3106868 C160.915439,88.0111062 160.915439,87.8578008 161.221945,87.7044955 C161.52845,87.3978847 161.52845,87.3978847 161.375198,87.2445793 C161.068692,87.091274 161.068692,86.7846632 161.068692,84.9449988 C161.068692,82.0321967 160.915439,80.3458377 160.762186,80.1925323 C160.608934,79.8859216 160.762186,76.9731195 160.915439,76.6665088 L160.915439,75.7466766 L160.762186,74.9801497 L160.762186,71.4541262 L160.608934,66.2417436 L160.455681,63.1756362 L160.302428,62.1024986 L160.302428,61.3359717 L160.149175,60.8760556 C160.302428,60.7227502 160.149175,59.802918 159.995922,58.7297804 L159.995922,56.1235891 L160.302428,52.9041764 L160.455681,49.9913743 L160.455681,49.5314582 L160.762186,48.1517099 C160.915439,47.385183 160.915439,46.3120454 160.608934,44.472381 L160.608934,42.9393273 L160.455681,42.019495 L160.455681,41.2529682 L160.455681,38.6467769 L160.608934,37.5736393 L160.608934,36.3471963 C160.762186,36.193891 160.915439,34.967448 160.762186,33.8943104 L160.762186,32.6678675 L161.068692,32.2079513 L161.52845,31.5947299 C161.988209,31.2881191 162.141462,31.2881191 162.447967,31.4414245 C162.754473,31.5947299 162.907726,31.5947299 162.754473,31.7480352 C162.754473,31.9013406 163.060978,32.3612567 163.67399,32.6678675 C163.980495,32.8211728 163.980495,32.9744782 163.827242,33.2810889 L163.827242,34.0476158 L163.214231,35.7339749 L163.214231,36.5005017 L163.060978,37.1137232 L163.060978,37.2670286 L163.214231,37.5736393 L163.060978,38.4934715 C163.060978,40.0265252 162.907726,40.6397467 162.754473,40.7930521 L163.060978,41.8661897 L163.060978,44.6256863 L163.214231,47.2318776 L163.214231,49.3781528 L162.907726,51.2178173 L162.60122,53.0574817 L162.60122,53.8240086 L162.754473,56.1235891 L162.754473,58.5764751 L162.60122,59.4963073 L162.754473,59.9562234 L162.754473,60.4161395 L163.214231,62.7157201 C163.079054,65.7310057 163.130236,68.7517657 163.367484,71.7607369 L163.67399,78.5061732 L163.214231,80.0392269 C163.430233,83.2028398 163.532468,86.3731983 163.520737,89.5441599 L163.67399,92.1503512 L163.67399,93.6834049 L163.67399,94.143321 L163.827242,94.6032371 L163.980495,95.5230693 C164.133748,95.8296801 163.980495,95.9829855 163.827242,96.1362908 C163.367484,96.2895962 163.367484,96.5962069 163.827242,96.5962069 L164.133748,97.2094284 C164.361907,98.782904 164.413311,100.376981 164.287001,101.961895 C164.391582,103.287943 164.442708,104.617668 164.440254,105.947835 C164.472488,106.924863 164.574921,107.898308 164.746759,108.860637 L164.746759,109.933774 C164.440254,109.933774 164.440254,110.08708 164.593506,110.853606 L164.746759,111.773439 L164.746759,112.539965 L164.746759,113.766408 L164.593506,114.839546 L164.287001,116.065989 L164.287001,116.525905 C164.593506,116.832516 164.593506,117.139127 164.593506,119.285402 L164.133748,120.971761 C163.827242,121.431677 163.827242,121.584982 164.133748,121.584982 C164.440254,121.431677 164.440254,121.431677 164.440254,123.271341 L164.287001,124.65109 C163.980495,125.570922 163.980495,126.184143 164.133748,126.337449 L164.133748,126.797365 C163.827242,127.257281 163.980495,127.257281 164.287001,127.103976 L164.287001,127.257281 L163.980495,128.023808 C163.827242,128.483724 163.827242,128.483724 164.133748,128.483724 C164.440254,128.483724 164.440254,128.483724 164.287001,128.790335 L164.287001,129.250251 C164.593506,129.403556 164.593506,130.476694 164.440254,130.476694 L164.287001,130.629999 L164.593506,130.783305 C164.900012,130.783305 164.900012,130.783305 164.746759,131.549831 L164.593506,132.92958 L164.440254,134.156023 C164.287001,134.462633 164.287001,134.462633 164.593506,134.615939 C164.900012,134.769244 164.900012,134.92255 164.746759,135.382466 L164.900012,136.302298 L164.900012,137.988657 L164.900012,138.601878 C165.206518,139.2151 165.35977,141.20807 165.053265,141.51468 L165.053265,142.587818 L165.206518,143.047734 C165.513023,143.047734 165.513023,143.20104 165.206518,143.814261 L165.053265,144.427483 L165.206518,144.274177 L165.206518,144.120872 L165.206518,144.580788 L165.206518,145.960536 C165.053265,146.113842 165.053265,146.267147 165.35977,146.420452 C165.666276,146.727063 165.666276,146.727063 165.513023,147.186979 L165.513023,147.800201 L165.819529,150.406392 L165.819529,151.78614 C165.819529,154.852248 165.819529,156.078691 165.513023,156.231996 L165.513023,156.845218 L165.513023,158.071661 C165.35977,158.991493 165.35977,159.144798 165.819529,158.838187 C166.126034,158.684882 166.126034,158.684882 166.126034,160.524546 C166.126034,161.750989 165.972782,162.517516 165.819529,162.824127 L165.819529,163.284043 C166.126034,163.284043 166.126034,163.437348 166.126034,164.203875 C166.284425,165.886513 166.284425,167.580315 166.126034,169.262953 L165.819529,170.029479 L165.972782,170.642701 L165.972782,172.32906 L165.972782,174.015419 C165.666276,174.32203 165.819529,174.628641 166.126034,174.628641 L166.43254,174.935251 C166.763925,176.295088 166.763925,177.714659 166.43254,179.074496 C166.279287,179.227802 166.279287,179.227802 166.585793,179.534412 L166.739046,179.841023 C166.577149,182.546833 166.474956,185.255887 166.43254,187.966208 L166.279287,188.579429 L166.279287,189.345956 L166.43254,189.652567 L166.43254,190.112483 C166.585793,190.265788 166.43254,190.572399 166.279287,191.032315 C165.972782,191.645537 165.972782,192.565369 166.126034,193.17859 C166.279287,193.485201 166.126034,193.638506 165.972782,193.791812 L165.666276,193.945117 L165.972782,194.251728 C166.126034,194.558339 166.279287,194.711644 166.279287,195.631476 L166.279287,196.857919 L166.43254,197.16453 L166.43254,198.237668 L166.585793,199.617416 L166.585793,200.690554 C166.585793,201.610386 166.585793,201.763691 166.892298,201.45708 L168.424826,201.45708 C168.424826,201.610386 169.037838,201.610386 169.497596,201.303775 L170.26386,200.997164 L170.876871,200.843859 L171.183377,200.690554 L172.562652,200.383943 L174.401686,199.770721 L175.780961,199.310805 L176.393972,199.004194 L176.393972,198.850889 L176.85373,198.697584 L177.466742,198.544278 L178.079753,198.390973 L179.459028,197.777751 L180.68505,197.317835 L181.451314,197.011225 L182.677337,196.704614 L183.903359,196.551308 C184.51637,196.091392 184.976129,195.938087 185.58914,195.784782 C186.932102,195.299284 188.317365,194.940019 189.726965,194.711644 C196.090777,192.657094 202.595672,191.06874 209.190071,189.959178 L209.649829,189.805872 L210.109588,189.652567 L210.569346,189.499261 L211.029105,189.345956 L211.642116,189.192651 L212.561633,188.732735 L213.174644,188.579429 L213.634402,188.426124 L214.247413,188.272818 L214.553919,188.119513 C214.860425,188.119513 215.320183,187.966208 215.473436,187.659597 L215.779941,187.659597 L216.086447,187.506292 L216.546205,187.352986 L217.005964,187.199681 L217.465722,187.046376 L217.772228,186.89307 L218.385239,186.739765 L218.844997,186.586459 L219.611261,186.279849 L220.530778,186.126543 L223.136076,185.360016 L224.055593,185.053406 L224.208845,184.9001 L225.741373,184.746795 L227.273901,184.440184 L227.427154,184.440184 L227.886913,184.440184 L228.346671,184.286879 C228.499924,184.133573 228.653177,183.980268 229.112935,183.980268 L230.185704,183.673657 L231.258474,183.367047 L232.177991,183.060436 L232.944255,182.907131 L233.25076,182.907131 L233.557266,182.753825 L233.863772,182.753825 L236.469069,182.140604 L238.921114,181.680688 L239.840631,181.374077 C242.599181,180.760855 242.752434,180.760855 243.05894,180.147634 L243.365445,179.381107 L243.365445,178.767886 L243.518698,178.307969 L243.518698,177.541443 L243.365445,177.081526 C243.05894,177.081526 243.212192,176.468305 243.365445,175.855083 C243.671951,175.395167 243.671951,174.781946 243.671951,172.788976 L243.671951,161.137768 C243.687407,159.038508 243.585078,156.940036 243.365445,154.852248 L243.212192,152.399362 C242.96498,149.851967 242.913745,147.289339 243.05894,144.734093 L242.752434,137.988657 L242.599181,136.915519 L242.445928,135.842382 L242.139423,133.542801 L241.98617,131.089915 L241.98617,127.717197 L241.679664,122.964731 L241.373159,119.592013 C241.005517,116.792752 240.749892,113.979907 240.606895,111.160217 L240.453642,109.627163 L240.453642,109.013942 L240.453642,108.707331 C240.300389,108.554026 240.147136,106.407751 240.147136,103.341643 C239.724172,100.445979 239.468327,97.5283426 239.380872,94.6032371 C239.288208,93.5837057 239.237082,92.5608227 239.22762,91.5371297 L239.074367,89.3908545 C238.767861,88.9309384 238.921114,87.8578008 239.074367,87.8578008 L239.074367,87.2445793 C238.921114,86.7846632 238.767861,86.0181364 238.767861,83.8718612 L238.767861,78.5061732 C238.537456,76.4686237 238.384094,74.423093 238.308103,72.3739584 L238.308103,71.4541262 L238.461356,69.1545456 L238.308103,68.6946295 C238.001597,68.081408 238.001597,67.1615758 237.848344,61.3359717 C237.848344,56.7368106 237.848344,55.3570623 237.541839,51.6777334 L237.388586,49.5314582 L237.08208,46.1587401 L237.388586,43.5525488 L237.695092,42.9393273 C237.541839,42.7860219 237.695092,42.6327165 237.848344,42.4794112 L237.848344,42.1728004 L237.695092,40.4864413 L237.541839,34.3542265 L237.541839,32.9744782 L237.541839,32.5145621 C237.579992,31.5951258 237.579992,30.6745017 237.541839,29.7550654 L237.848344,28.0687063 L237.848344,27.6087902 C237.541839,27.3021795 237.388586,25.1559043 237.695092,24.8492936 L237.541839,24.3893774 C237.235333,23.9294613 237.08208,21.1699647 237.388586,20.5567432 L237.541839,20.0968271 L237.541839,18.410468 L237.541839,17.184025 C237.235333,16.8774143 237.388586,14.7311391 237.541839,13.3513908 L237.695092,11.8183371 L237.695092,10.8985048 L237.541839,10.2852834 L237.388586,8.90553502 L237.388586,7.37248132 Z M147.250167,53.1544682 L148.171069,53 L149.245454,53.3089363 L149.705904,53.6178726 L150.473322,53.7723408 C150.933773,53.9268089 151.087257,53.9268089 151.087257,54.3902134 L150.933773,55.1625541 C150.626806,55.4714904 149.398937,56.2438312 149.09197,56.2438312 L148.171069,56.5527675 L147.250167,56.7072356 L146.482749,57.0161719 L145.101397,57.3251083 L144.180496,57.6340446 L143.413078,57.7885127 L142.799143,57.9429809 L142.492176,58.097449 C142.338693,57.9429809 142.031725,58.097449 141.724758,58.2519172 L140.343406,58.5608535 C139.575988,58.5608535 139.422505,58.5608535 139.269021,58.2519172 L139.115537,57.9429809 L138.962054,57.0161719 C139.115537,56.3982993 139.115537,56.089363 139.729472,55.4714904 L140.343406,54.6991497 L140.49689,54.5446815 L140.650373,54.5446815 L141.110824,54.3902134 L141.571275,54.2357452 L143.873528,53.7723408 L144.947913,53.6178726 L146.175782,53.3089363 L147.250167,53.1544682 Z M166.896065,53.7723408 L168.584384,53.7723408 L169.505286,53.9268089 L170.886638,54.2357452 C171.347089,54.3902134 171.654056,54.5446815 171.961023,54.3902134 C172.26799,54.3902134 174.41676,55.3170223 174.723728,55.7804267 L175.030695,56.089363 L175.644629,56.5527675 C176.258563,57.1706401 176.258563,57.7885127 175.644629,58.5608535 C175.337662,59.1787261 174.723728,59.3331942 174.109793,59.0242579 L173.495859,58.8697898 L171.500572,58.2519172 L171.193605,58.2519172 L169.044835,57.4795764 L168.430901,57.4795764 L168.123934,57.3251083 C168.123934,57.0161719 167.663483,57.1706401 167.509999,57.4795764 L167.356516,57.4795764 L166.896065,57.3251083 C166.435614,57.4795764 165.668196,57.1706401 165.361229,56.8617038 L165.207746,55.7804267 C165.054262,55.008086 165.207746,55.008086 165.514713,54.6991497 L166.128647,54.0812771 L166.896065,53.7723408 Z M128.06472,57.3251083 C128.06472,57.0161719 129.446072,57.1706401 129.753039,57.3251083 L130.21349,57.6340446 C130.520457,57.6340446 130.520457,57.7885127 130.520457,58.4063853 C130.520457,59.0242579 128.678654,61.1868121 127.604269,61.6502165 L127.143818,61.9591528 C127.297302,62.2680891 126.069433,63.0404299 125.608983,63.0404299 C125.302015,63.0404299 124.381114,63.9672388 124.381114,64.2761751 L124.074147,64.5851114 L123.460213,64.8940477 L123.153245,65.202984 L122.846278,65.3574522 C122.232344,65.6663885 121.61841,65.5119203 121.004475,65.0485158 L120.544025,64.4306432 L120.544025,63.0404299 L120.697508,62.7314936 C120.697508,62.5770254 120.697508,62.4225573 120.850992,62.5770254 L121.004475,62.4225573 L121.311442,62.2680891 L121.61841,61.8046847 C121.61841,61.4957484 122.232344,60.8778757 122.539311,60.8778757 L122.692795,60.7234076 L122.846278,60.5689394 L123.153245,60.4144713 L123.306729,60.2600031 L123.76718,59.9510668 L124.534598,59.3331942 C124.841565,59.3331942 125.302015,59.1787261 125.608983,58.8697898 L126.222917,58.4063853 L126.990335,57.7885127 C127.450786,57.6340446 127.757753,57.3251083 127.911236,57.4795764 L128.06472,57.3251083 Z M102.586446,63.6583025 C102.893413,63.3493662 103.967798,63.5038343 104.8887,63.8127706 C105.656117,63.9672388 105.809601,64.1217069 105.809601,64.4306432 C106.116568,65.5119203 105.195667,66.9021337 103.967798,67.5200063 L102.893413,67.8289426 L102.432962,68.1378789 L101.819028,68.292347 L101.358577,68.4468152 L101.05161,68.6012833 L100.744643,68.7557515 L100.130709,68.9102196 L99.5167744,69.0646878 L97.9819386,69.5280923 L97.2145207,69.8370286 C96.2936192,70.4549012 95.8331685,70.6093693 95.0657506,70.300433 L94.2983327,70.1459649 L94.2983327,69.219156 C94.4518163,68.1378789 95.3727178,66.1297929 95.8331685,66.1297929 L96.4471028,65.8208566 L97.2145207,65.5119203 L97.9819386,65.202984 L98.7493565,65.0485158 L99.5167744,64.7395795 L100.744643,64.2761751 L101.05161,64.1217069 L102.279479,63.8127706 L102.586446,63.6583025 Z M112.716362,67.5200063 C113.48378,67.21107 115.172099,68.292347 114.558165,68.6012833 L114.097714,70.4549012 L113.790747,71.6906464 L113.330296,72.9263916 C113.330296,73.3897961 113.176813,73.8532005 112.409395,75.397882 L111.948944,76.7880954 C111.795461,77.8693725 111.488493,78.4872451 110.874559,78.9506495 L110.107141,79.5685221 C109.953658,79.8774584 108.418822,79.5685221 107.958371,78.9506495 C107.49792,78.6417132 107.49792,78.4872451 107.49792,77.405968 C107.651404,76.4791591 107.651404,76.0157546 107.958371,75.5523502 L108.111855,74.9344776 L108.418822,74.316605 C108.572305,74.316605 108.725789,74.1621368 108.725789,73.8532005 L109.032756,73.2353279 L109.493207,72.1540508 L109.800174,71.3817101 L109.953658,71.0727738 L110.107141,70.7638375 L110.260625,70.6093693 L110.567592,69.8370286 L111.028043,69.219156 C111.028043,68.9102196 112.255911,67.6744744 112.716362,67.5200063 Z M187.309381,67.9834107 L187.769832,67.6744744 C188.383766,67.6744744 189.918602,68.292347 190.68602,68.7557515 L191.606921,69.3736241 L191.913888,69.6825604 C191.913888,69.6825604 192.067372,69.9914967 192.374339,69.9914967 L193.295241,70.7638375 L193.909175,71.2272419 L194.062658,71.5361782 L194.523109,72.308519 L194.98356,72.7719234 L195.290527,73.0808597 L195.444011,73.3897961 L195.597494,73.6987324 C195.750978,73.5442642 196.057945,74.0076687 195.904461,74.1621368 L196.057945,74.316605 L196.364912,74.6255413 L196.825363,75.2434139 L197.13233,75.8612865 L197.285814,76.1702228 C197.439297,76.1702228 197.592781,76.9425635 197.439297,77.0970317 L197.285814,77.5604362 C197.285814,77.8693725 196.825363,78.1783088 196.518396,78.1783088 L196.211429,78.0238406 L195.750978,77.7149043 L194.98356,77.0970317 L193.448724,75.7068183 L192.527823,74.6255413 L192.067372,74.1621368 L191.760405,74.0076687 L190.992987,73.0808597 L190.379053,72.308519 L189.765118,71.8451145 L189.458151,71.5361782 L188.383766,70.1459649 C187.309381,69.0646878 187.155897,68.6012833 187.309381,67.9834107 Z M123.306729,68.292347 C123.920663,67.9834107 124.841565,67.9834107 125.148532,68.4468152 L125.762466,68.7557515 L126.069433,68.9102196 L126.529884,69.219156 L127.604269,69.9914967 L128.371687,70.4549012 L129.139105,70.9183056 L129.753039,71.5361782 C130.520457,71.8451145 131.134391,73.8532005 130.673941,74.0076687 L130.520457,74.4710731 L130.21349,74.9344776 C129.599556,75.2434139 129.139105,75.0889457 128.678654,74.6255413 L127.143818,73.5442642 L125.608983,72.6174553 L124.381114,71.8451145 C122.999762,70.7638375 122.385827,69.9914967 122.692795,69.0646878 L123.306729,68.292347 Z M78.9499749,72.308519 L80.1778435,72.1540508 C80.7917779,72.1540508 81.098745,72.308519 81.5591957,72.7719234 L82.1731301,73.2353279 C82.3266136,73.2353279 82.3266136,73.8532005 82.0196465,74.6255413 C81.7126793,75.397882 80.6382943,76.3246909 80.02436,76.3246909 L79.8708764,76.4791591 L79.5639092,76.6336272 L78.6430078,77.0970317 L77.7221063,77.405968 L76.9546884,77.7149043 L76.0337869,78.1783088 C74.8059183,78.6417132 74.3454676,78.9506495 74.3454676,79.1051177 L73.7315333,79.2595858 L73.117599,79.5685221 L72.1966975,80.0319266 L71.5827632,80.1863947 L71.275796,80.3408629 C71.1223124,80.495331 70.201411,79.8774584 70.201411,79.5685221 L70.0479274,79.414054 C69.7409602,79.2595858 69.7409602,77.8693725 70.0479274,77.7149043 L70.3548946,77.0970317 L70.9688289,76.1702228 L73.5780497,74.1621368 L73.8850168,74.0076687 L74.3454676,73.8532005 L74.9594019,73.5442642 L75.7268198,73.3897961 C75.8803034,73.5442642 76.8012048,73.2353279 77.2616556,72.7719234 L78.0290735,72.4629871 L78.9499749,72.308519 Z M206.341345,79.1051177 C206.955279,78.6417132 208.336631,78.7961814 208.950565,79.2595858 C209.5645,79.8774584 209.257533,81.42214 208.336631,82.3489489 L207.722697,83.1212896 L207.41573,83.2757578 L206.801795,83.8936304 L206.341345,84.3570348 L205.72741,84.9749074 L204.959992,85.5927801 L204.653025,86.0561845 L204.039091,86.8285253 L202.811222,88.5276749 L202.964706,88.6821431 L203.271673,88.8366112 L203.732124,89.1455475 L204.653025,89.4544839 L205.72741,89.7634202 L206.648312,90.0723565 L208.490115,90.6902291 L208.797082,90.8446972 L209.717983,91.1536335 L210.638885,91.3081017 L211.559786,91.617038 L212.173721,92.0804424 C212.327204,92.3893787 212.480688,92.5438469 212.787655,92.3893787 L213.094622,92.5438469 L213.401589,93.0072513 L213.708556,93.3161876 L214.015524,93.625124 L214.629458,93.9340603 L214.782941,94.2429966 C214.936425,94.3974647 215.089909,94.5519329 214.936425,94.8608692 L214.782941,95.4787418 L214.475974,95.9421462 C214.015524,96.4055507 212.787655,96.8689551 212.480688,96.4055507 C211.524205,96.0489947 210.550982,95.7396895 209.5645,95.4787418 L206.648312,94.3974647 L205.420443,93.9340603 L204.653025,93.7795921 L203.732124,93.4706558 L202.964706,93.1617195 L202.043804,92.8527832 C201.583354,92.698315 201.122903,92.5438469 201.276387,92.3893787 C201.276387,92.2349106 200.202002,92.2349106 199.895034,92.5438469 L199.741551,93.0072513 L199.434584,93.3161876 C199.127616,93.4706558 198.974133,93.7795921 198.360199,95.1698055 L197.746264,95.9421462 L197.439297,96.4055507 L197.285814,96.8689551 L196.978846,97.3323596 L196.518396,97.7957641 L196.057945,98.1047004 C195.904461,98.4136367 195.750978,98.5681048 194.98356,98.4136367 L194.062658,98.4136367 L193.602208,98.2591685 C192.988273,98.1047004 192.374339,96.4055507 192.83479,96.0966144 L192.988273,95.7876781 L193.141757,95.4787418 L193.602208,94.8608692 L194.216142,93.7795921 L195.597494,91.617038 L195.904461,90.9991654 L196.211429,90.6902291 C196.211429,90.3812928 194.676593,89.7634202 194.369626,89.7634202 L194.062658,89.4544839 L193.755691,89.3000157 L193.602208,89.1455475 C193.448724,88.9910794 192.067372,88.2187386 191.606921,88.2187386 C191.299954,88.2187386 191.299954,88.0642705 191.14647,87.9098023 L190.992987,87.600866 C190.68602,87.600866 189.304667,85.9017164 189.304667,85.5927801 L189.611635,85.1293756 L190.072085,84.511503 C190.072085,84.3570348 190.839503,84.0480985 191.760405,83.8936304 L192.83479,83.8936304 L193.602208,84.6659711 L194.676593,85.4383119 L197.439297,86.3651208 L197.746264,86.519589 L198.053231,86.6740571 C198.513682,87.1374616 198.820649,86.9829934 198.974133,86.519589 L200.202002,84.8204393 L200.202002,84.511503 L200.355485,84.3570348 L200.508969,84.3570348 L200.662452,84.0480985 L202.657739,81.8855444 C202.811222,81.7310763 203.11819,81.42214 203.425157,81.42214 L203.732124,81.1132036 L203.885607,80.8042673 L204.346058,80.495331 L205.113476,80.0319266 L205.26696,79.8774584 L205.573927,79.5685221 L206.341345,79.1051177 Z M212.327204,92.698315 L212.020237,92.5438469 L211.866753,92.698315 L212.020237,92.8527832 L212.327204,92.698315 Z M58.0762083,83.1212896 L60.5319456,83.2757578 C60.8389127,83.4302259 60.8389127,83.5846941 60.8389127,84.0480985 C60.6854291,84.6659711 59.7645277,85.9017164 59.3040769,86.0561845 L58.9971098,86.3651208 C58.9971098,86.6740571 58.3831755,87.1374616 57.9227247,87.1374616 L57.6157576,87.2919297 C57.6157576,87.4463979 57.462274,87.7553342 57.1553068,87.7553342 L56.0809218,88.6821431 C55.1600203,89.608952 54.2391189,90.2268246 53.7786681,90.3812928 L53.471701,90.6902291 L53.1647338,90.8446972 L52.8577667,90.9991654 L52.3973159,91.3081017 L51.4764145,92.0804424 C50.7089966,92.8527832 49.4811279,93.4706558 48.8671936,93.4706558 C48.4067429,93.3161876 48.0997757,93.0072513 48.0997757,92.698315 L47.7928086,92.0804424 C47.639325,91.7715061 47.4858414,91.1536335 47.7928086,90.9991654 L48.2532593,90.2268246 L48.7137101,89.4544839 L49.0206772,89.3000157 L49.3276444,88.8366112 C49.9415787,88.6821431 50.4020294,88.2187386 50.4020294,87.9098023 L51.0159637,87.7553342 L51.1694473,87.4463979 C52.5572837,86.606325 53.8902057,85.6776133 55.1600203,84.6659711 L56.2344054,83.8936304 L56.6948561,83.5846941 L57.3087904,83.4302259 L58.0762083,83.1212896 Z M133.283162,83.4302259 L134.050579,83.4302259 C134.971481,83.5846941 135.431932,85.4383119 134.971481,86.2106527 L134.971481,87.1374616 C134.664514,87.2919297 134.664514,89.4544839 134.971481,90.8446972 L134.971481,91.9259743 L134.817997,92.698315 C134.971481,93.1617195 134.971481,93.3161876 134.51103,93.4706558 L133.283162,93.4706558 L132.669227,93.0072513 L132.36226,92.5438469 L131.748326,91.9259743 L131.441359,89.7634202 L131.594842,88.6821431 L132.055293,85.9017164 L132.208776,84.9749074 C132.36226,84.3570348 132.822711,83.4302259 133.283162,83.4302259 Z M102.893413,88.3732068 C103.046897,87.9098023 103.046897,87.9098023 103.660831,87.9098023 C104.428249,87.9098023 105.34915,88.3732068 105.195667,88.5276749 L105.34915,88.6821431 L105.656117,88.8366112 L106.270052,89.7634202 L107.03747,90.6902291 L107.49792,91.3081017 L108.111855,92.2349106 L108.418822,92.698315 L109.493207,93.9340603 L109.953658,94.706401 L111.028043,96.2510825 C111.488493,97.1778914 111.488493,97.1778914 111.181526,97.6412959 L111.028043,98.1047004 C111.181526,98.5681048 109.953658,99.3404456 109.032756,99.3404456 C108.418822,99.4949137 108.265338,99.4949137 107.958371,99.1859774 L107.344437,98.8770411 L106.270052,97.3323596 L105.656117,96.5600188 C105.195667,96.2510825 104.121282,94.8608692 104.121282,94.5519329 L103.507347,93.3161876 L102.73993,91.1536335 L102.586446,90.2268246 C102.432962,89.9178883 102.586446,88.9910794 102.73993,88.9910794 L102.893413,88.3732068 Z M37.6628924,94.2429966 C37.6628924,93.9340603 39.0442446,94.2429966 39.5046954,94.5519329 L39.8116625,95.0153373 L39.8116625,95.4787418 L39.5046954,97.0234233 C38.6683609,98.0316036 37.7437452,98.9621506 36.741991,99.80385 L36.1280567,100.112786 L35.8210895,100.267254 L35.5141223,100.576191 L35.2071552,100.730659 C35.2071552,101.039595 33.2118687,102.584277 33.0583851,102.584277 L32.4444508,103.202149 L31.2165822,104.437895 L30.6026479,105.519172 L30.1421971,105.982576 L29.5282628,106.291512 C29.2212956,106.600449 29.0678121,106.600449 28.9143285,106.445981 L28.1469106,106.291512 C27.5329763,106.291512 27.3794927,106.137044 27.0725256,105.67364 C26.7655584,105.055767 26.7655584,103.97449 27.0725256,103.511086 L27.5329763,102.738745 C27.5329763,102.27534 27.6864599,102.120872 27.993427,102.120872 L28.4538778,101.657468 L29.0678121,100.885127 C29.2212956,100.730659 29.5282628,100.576191 29.5282628,100.267254 L29.83523,99.9583182 L30.7561314,99.3404456 L33.0583851,97.3323596 C33.2118687,97.3323596 33.6723194,97.0234233 33.9792866,96.5600188 L34.900188,95.7876781 L35.6676059,95.3242736 L36.4350238,95.0153373 L36.741991,94.8608692 L37.2024417,94.5519329 L37.6628924,94.2429966 Z M127.911236,97.4868278 C128.06472,97.3323596 128.832138,97.3323596 130.060006,97.6412959 C130.520457,97.6412959 130.520457,97.6412959 130.366974,98.1047004 C130.21349,99.0315093 130.060006,99.80385 129.906523,99.6493819 L129.753039,99.80385 L129.446072,100.112786 L128.832138,100.421723 L128.371687,100.730659 L127.911236,101.039595 L127.143818,101.657468 L126.376401,102.120872 C126.222917,102.27534 126.069433,102.429809 125.91595,102.27534 L125.455499,102.584277 L124.841565,102.893213 L124.688081,103.047681 C123.748346,103.231243 122.82455,103.489499 121.925377,103.820022 C119.93009,104.592363 118.702222,104.746831 118.088287,104.437895 L117.474353,104.283426 L117.013902,103.97449 C116.553452,103.511086 116.399968,102.738745 116.706935,102.738745 L117.013902,102.584277 L117.627837,101.811936 C118.088287,101.194063 118.241771,101.194063 118.702222,101.194063 L119.162672,101.039595 L120.544025,100.421723 L120.850992,100.267254 L121.464926,100.112786 L122.232344,99.80385 L122.692795,99.6493819 C123.306729,99.80385 123.613696,99.6493819 123.76718,99.1859774 L124.688081,98.5681048 L125.608983,98.1047004 C125.762466,97.7957641 126.069433,97.7957641 126.836851,97.7957641 C127.450786,97.7957641 127.757753,97.6412959 127.911236,97.4868278 Z M21.5471167,103.356618 L22.3145346,103.356618 L23.0819525,103.511086 C23.8493704,103.511086 24.9237555,104.128958 25.077239,104.746831 L25.5376898,105.055767 C25.8446569,105.055767 26.1516241,105.519172 26.1516241,105.828108 L26.4585912,106.600449 C26.919042,107.527258 27.2260091,108.299598 27.3794927,109.84428 L27.5329763,110.307684 C27.6864599,110.462153 27.5329763,111.54343 27.2260091,111.852366 L27.0725256,112.624707 L26.7655584,113.551516 L26.4585912,114.478324 C26.6120748,114.632793 26.4585912,114.941729 25.9981405,115.250665 L25.5376898,115.868538 L24.6167883,116.795347 L24.4633047,116.949815 L23.8493704,117.567687 L22.928469,118.18556 L22.3145346,118.340028 L21.7006003,118.648965 C21.3936332,118.803433 19.8587974,119.112369 19.7053138,118.957901 L18.9378959,118.648965 L17.8635109,118.340028 L17.2495766,118.18556 L16.7891258,117.876624 L16.4821587,117.722156 C16.3286751,117.876624 16.0217079,117.722156 15.8682244,117.567687 L15.2542901,117.258751 L14.9473229,116.949815 L14.4868722,116.48641 L14.179905,116.177474 L13.7194543,115.096197 C12.9520364,113.705984 12.7985528,111.234493 13.2590035,109.380875 L13.7194543,108.608535 L14.0264214,108.299598 L14.3333886,108.14513 L14.6403557,107.990662 C14.4868722,107.681726 15.5612572,106.600449 15.7147408,106.600449 L16.6356423,105.982576 L17.4030601,105.364703 L18.170478,104.901299 L18.6309288,104.437895 C19.559997,103.969411 20.5381131,103.606741 21.5471167,103.356618 Z M21.2401496,108.608535 C21.086666,108.454067 20.9331824,108.454067 20.6262153,108.763003 L20.012281,109.071939 L19.5518302,109.380875 L19.0913795,109.84428 L18.7844123,110.153216 L18.170478,110.771089 L17.8635109,111.388961 L17.4030601,112.161302 C17.2495766,112.31577 17.096093,112.624707 17.2495766,112.779175 C17.2495766,113.088111 18.170478,113.551516 18.6309288,113.551516 L19.3983467,113.860452 C20.012281,114.01492 20.7796989,114.01492 21.2401496,113.551516 L21.7006003,113.397047 C22.0075675,113.705984 22.3145346,113.551516 22.3145346,113.088111 C22.3145346,112.624707 22.4680182,112.470238 22.6215018,112.31577 C22.928469,112.161302 22.928469,112.006834 22.928469,111.54343 L22.4680182,109.689812 L22.1610511,109.226407 L21.7006003,108.763003 L21.2401496,108.608535 Z" id="path-1"></path>
        <filter x="-0.4%" y="-0.5%" width="101.6%" height="101.8%" filterUnits="objectBoundingBox" id="filter-2">
            <feOffset dx="2" dy="2" in="SourceAlpha" result="shadowOffsetOuter1"></feOffset>
            <feColorMatrix values="0 0 0 0 0.996078431   0 0 0 0 0.996078431   0 0 0 0 0.996078431  0 0 0 1 0" type="matrix" in="shadowOffsetOuter1"></feColorMatrix>
        </filter>
    </defs>
    <g id="Map" stroke="none" stroke-width="1" fill="none" fill-rule="evenodd">
        <g id="Combined-Shape" fill-rule="nonzero">
            <use fill="black" fill-opacity="1" filter="url(#filter-2)" xlink:href="#path-1"></use>
            <use fill="#222222" xlink:href="#path-1"></use>
        </g>
    </g>
</svg>