<svg xmlns="http://www.w3.org/2000/svg" width="390" height="170" viewBox="0 0 390 170">
  <path d="M296.259478,112.754142 C296.166056,112.702205 296.078876,112.642445 296,112.575251 C296.262065,112.299801 296.637426,112.122707 297.044169,112.045189 C299.822106,109.535377 302.600044,107.025566 305.377981,104.515755 C304.628175,103.243018 302.670617,103.916429 301.468896,104.776492 C298.83008,106.665076 296.373397,108.807507 294.143897,111.164501 C293.514505,111.829885 292.893755,112.900093 293.526364,113.562424 C294.18108,114.247901 295.309809,113.612148 296.013218,112.976632 C296.095305,112.902469 296.177391,112.828305 296.259478,112.754142 Z M451.075373,162.523281 C452.553331,161.639651 454.14991,160.872229 455.831869,160.237052 C456.577154,159.955602 457.746698,159.823384 458,160.429031 C457.56962,160.669547 457.131884,160.902356 456.68729,161.127228 C457.057462,161.144268 457.426228,161.191297 457.789111,161.269571 C456.221453,162.625731 454.370493,163.654901 452.38935,164.271944 C457.684902,169.987279 462.87497,175.799755 467.95604,181.705437 C467.650025,182.316093 466.722688,181.864759 466.253085,181.367978 C425.925299,138.705816 385.597513,96.0436563 345.269727,53.3814961 C342.885287,50.8590333 340.440733,48.2417909 339.239712,44.9890923 C334.648364,32.5544458 330.057016,20.1197992 325.465667,7.68515268 C324.859275,6.04287391 324.595962,3.62222347 326.266628,3.08515427 C326.961654,2.86172425 327.710538,3.11977986 328.393294,3.37808718 C336.130668,6.30536658 343.728815,9.59836978 351.153675,13.2423334 C355.745495,15.4959013 360.292085,17.8967072 364.399391,20.9410004 C368.285186,23.8211106 371.730319,27.2416056 375.160227,30.6489251 C411.984916,67.2310905 448.874717,103.884162 482,143.827249 C470.740776,135.925047 462.256344,124.803862 453.347406,114.336928 C440.709857,99.4893229 426.911395,85.6723324 413.129715,71.8734689 C397.751146,56.4757261 382.372577,41.0779829 366.994008,25.6802397 C365.784434,24.4691573 363.732025,23.244755 362.580775,24.5110781 C361.088696,26.1522989 363.777454,29.4066117 362.033944,30.77958 C360.617035,31.8953584 358.658381,29.8763258 356.869064,30.117607 C354.762593,30.4016544 354.436155,33.2281348 354.223331,35.3366475 C354.010508,37.4451602 351.940205,40.0371516 350.295797,38.6942991 C348.672663,37.3688204 346.036856,38.2260126 344.832331,39.9387173 C343.627806,41.651422 343.499592,43.8796805 343.553246,45.97074 C343.593875,47.5541796 343.997367,49.5052574 345.528511,49.9281209 C348.04707,50.6236826 351.054434,46.4538381 352.640939,48.5242516 C350.855784,49.5697235 349.070629,50.6151954 347.285474,51.6606676 C347.054576,53.6154174 349.645292,54.6953984 351.593474,54.3763881 C353.541656,54.0573782 355.466935,53.031957 357.388721,53.4828407 C355.39261,54.3987156 353.501395,55.541583 351.763515,56.8821724 C353.82215,59.0621843 355.880786,61.2421967 357.939421,63.4222086 C360.135533,61.9192289 362.826185,61.1475552 365.487684,61.2573819 C363.531569,62.3069304 361.575454,63.3564792 359.619339,64.4060277 C360.727232,68.9895059 367.604003,70.8008397 370.838179,67.3610575 C370.253923,69.5934995 367.80052,70.7010641 365.632372,71.50783 C367.209449,76.9364357 374.950931,79.3637136 379.360896,75.8122954 C378.215372,77.9533013 375.743364,78.9641296 373.463256,79.8132101 C374.572596,81.8212656 375.729463,83.8861375 377.539185,85.3004548 C379.348907,86.7147724 381.999625,87.3214371 383.9687,86.1374581 C385.2646,85.3582504 387.103389,83.9855214 387.892488,85.2729226 C385.645415,86.4959867 383.398342,87.7190504 381.15127,88.9421141 C383.334199,91.2326406 385.517129,93.5231667 387.700058,95.8136932 C389.763274,94.4084066 392.296085,93.7014607 394.791285,93.834424 C392.963887,94.9488013 391.136489,96.0631782 389.309091,97.1775555 C391.376702,102.77329 399.018627,105.4434 404.137799,102.35875 C402.43414,104.021306 400.35402,105.298233 398.097971,106.06643 C400.64515,108.543485 403.192329,111.02054 405.739508,113.497595 C407.756866,112.041152 410.320181,111.355796 412.797832,111.610406 C411.071005,112.655851 409.344178,113.701295 407.617352,114.74674 C409.048739,117.441052 410.533749,120.2033 412.859932,122.182583 C415.186114,124.161866 418.581642,125.203124 421.367653,123.94568 C422.441419,123.461045 424.039108,122.838818 424.504176,123.918561 C422.139087,124.849871 419.773998,125.781178 417.40891,126.712484 C421.576221,130.6754 425.564147,134.825794 429.356487,139.146807 C430.744091,138.23537 432.430797,137.784861 434.089605,137.882619 C433.046997,139.008717 431.724215,139.875041 430.273538,140.381863 C434.036609,144.140948 437.79968,147.900034 441.56275,151.65912 C443.74794,150.181936 446.466662,149.507974 449.091331,149.792809 C446.992467,150.922739 444.893604,152.052669 442.79474,153.182599 C445.554951,156.29616 448.315162,159.40972 451.075373,162.523281 Z M451.4688,162.967073 C451.486467,162.987002 451.504133,163.00693 451.5218,163.026858 C451.53695,163.012462 451.552168,162.998141 451.567453,162.983895 C451.533606,162.979319 451.500664,162.973728 451.4688,162.967073 Z M469.797496,157.071667 C470.431105,156.509395 471.189282,156.122162 472,156 C471.279361,158.124265 469.827269,159.939379 468,161 C468.001737,160.660745 468.038753,160.324704 468.107152,159.99675 C467.863075,159.971487 467.642608,159.80318 467.445901,159.640599 C466.848784,159.147072 466.248377,158.612706 465.798068,157.981679 C465.792102,157.983234 465.786108,157.984726 465.780084,157.986156 C465.3617,158.085444 464.849529,157.63169 465.047476,157.232125 C465.117222,157.091339 465.167873,156.941995 465.200384,156.788362 C465.091522,156.410432 465.062773,155.999112 465.112156,155.603134 C464.986182,155.255494 464.773359,154.944127 464.486103,154.724491 C463.821256,154.216153 462.83343,154.257118 462.193105,154.790127 C464.24409,157.126214 466.28753,159.46887 468.323382,161.818047 C468.880044,162.460381 469.366272,163.598348 468.615762,164 C451.950057,145.725976 435.284353,127.451951 418.618649,109.177927 C414.162133,104.291335 409.704122,99.4030379 405.454522,94.3369608 C397.82373,85.2400601 390.859915,75.5647624 382.593076,67.0367674 C379.03259,63.3638036 375.244172,59.9183786 371.458671,56.4757702 C365.983495,51.496539 360.508319,46.5173077 355.033143,41.538076 C354.778363,40.8514831 356.058069,40.8682528 356.630471,41.32747 C360.896384,44.7498615 365.059415,48.2992771 369.112852,51.9687643 C369.029937,51.6958078 368.990385,51.4117882 369.001984,51.1276805 C369.057398,49.7704663 370.162156,48.5503267 371.536073,48.1448146 C373.294264,47.6258832 375.462387,48.5450449 376,50.2074894 C375.091448,50.5768952 373.965511,50.4116064 373.21887,49.7992177 C372.609452,49.8242253 372.839685,50.7445364 373.275821,51.1469069 C373.711957,51.5492774 374.091593,52.3813593 373.507107,52.5460486 C372.806921,52.0472009 372.106734,51.5483529 371.406548,51.0495053 C371.038235,51.3125448 370.810416,51.742472 370.808401,52.1782947 C371.283795,52.3415046 371.799713,52.5366017 372.039914,52.9566682 C372.280114,53.376735 371.990967,54.0519073 371.488457,53.9968294 C371.424412,53.9898097 371.361004,53.9803857 371.29831,53.9686652 C374.260128,56.708364 377.161605,59.5127646 380.000044,62.3790734 C380.004002,62.057962 380.27465,61.7707999 380.528953,61.5408385 C381.294439,60.8486232 382.153308,60.1549995 383.196301,60.0175941 C384.239295,59.8801891 385.461228,60.5616693 385.464151,61.569921 C385.465486,62.0301084 385.221892,62.4704127 385.246148,62.9300154 C385.270404,63.3896181 385.820992,63.8645916 386.196413,63.5773444 C386.998604,62.9635604 388.32202,63.4136144 388.774072,64.2965082 C389.226124,65.179402 388.95451,66.2760553 388.359996,67.0777778 C387.808487,67.8215062 387.020822,68.3649179 386.231152,68.8799533 C392.899449,76.0679386 399.183367,83.6094782 405.044152,91.464436 C408.292057,95.8174636 411.480375,100.338388 415.824071,103.609436 C413.559555,100.373983 411.125702,97.2560659 408.535689,94.2725669 C409.512342,92.9653442 411.177794,91.8606559 412.71307,92.424009 C414.248346,92.9873626 414.239121,95.8711715 412.602932,95.8683405 C412.645456,97.2558564 413.267334,98.6168838 414.289884,99.5603602 C414.793579,98.7148596 415.297274,97.8693594 415.800969,97.0238589 C416.652788,97.6695672 417.504608,98.3152756 418.356427,98.960984 L412,90.6292309 C412.100074,90.1181845 412.717044,89.891051 413.18339,90.050018 C413.649735,90.2089854 413.991148,90.6257743 414.306763,91.0248863 C416.890809,94.2925649 419.423819,97.6061331 421.904387,100.963755 C422.223722,101.395998 421.682896,102.054794 421.169783,101.996363 C420.656669,101.937933 420.277039,101.478445 419.951387,101.051595 L419.195814,100.06122 C417.974282,100.395135 416.649799,100.352216 415.454819,99.932091 C416.877924,103.446049 418.358589,107.050839 420.981249,109.795917 C426.837735,115.925765 432.640234,122.106759 438.387868,128.337936 C437.35548,127.123457 436.323091,125.908979 435.290703,124.6945 C434.45771,123.714585 435.57733,122.32231 436.604891,121.54065 C436.916543,121.303577 437.248593,121.057907 437.639634,121.009084 C438.271941,120.930139 438.83412,121.379799 439.295136,121.812127 C441.051957,123.459625 442.631801,125.28908 444,127.260346 C443.196914,128.712653 441.837929,130.407289 440.232603,129.912131 C439.912889,129.813516 439.635038,129.635066 439.38305,129.417939 C447.020696,137.714981 454.561159,146.100733 462.002374,154.572926 C461.958739,153.513266 462.522776,152.52324 463.1958,151.642776 C463.217791,151.592501 463.241526,151.543868 463.266947,151.49726 C463.70513,150.69388 464.328402,149.700825 463.847705,148.950817 C462.131248,148.670823 460.301251,149.031431 458.860455,149.934635 C458.521013,150.147423 458.036419,149.80438 458.003037,149.427675 C457.969654,149.050971 458.21741,148.707438 458.454192,148.398614 C458.828711,147.910144 459.20323,147.421675 459.577749,146.933207 C460.247721,146.059389 461.647069,145.741562 462.681921,146.228171 C463.452356,146.590446 463.948518,147.364619 463.99622,148.154016 C464.112208,148.060517 464.254583,148.00026 464.39883,148.000001 C464.830616,147.999227 465.193594,148.318166 465.513606,148.619046 C467.567564,150.550201 469.621521,152.481356 471.675479,154.41251 C471.799117,154.528757 471.927865,154.65305 471.978014,154.818192 C472.149332,155.382351 471.2785,155.712152 470.786908,155.41291 C470.295315,155.11367 470.008062,154.532771 469.512235,154.241153 C469.246612,154.084928 468.937079,154.045647 468.639391,154.098993 C468.40628,154.46382 468.17317,154.828648 467.940059,155.193475 C468.42062,155.271463 468.893357,155.398436 469.274278,155.702169 C469.669833,156.01757 469.908907,156.592885 469.797496,157.071667 Z M469.50812,157.349545 C468.84094,156.856994 468.173759,156.364442 467.506579,155.871891 C467.302634,156.191072 467.098689,156.510254 466.894745,156.829436 C466.960029,156.987063 467.051178,157.133381 467.161534,157.250577 C467.592907,157.708688 468.209443,157.962757 468.580243,158.474824 C468.59901,158.500741 468.616514,158.527821 468.632755,158.555884 C468.870234,158.111836 469.166616,157.703981 469.50812,157.349545 Z M465.840692,151.075808 C465.814083,151.114547 465.780392,151.150143 465.738982,151.181567 C464.854542,151.852712 465.106948,153.375982 465.897024,154.054295 C466.025901,153.950268 466.169942,153.864593 466.328966,153.801696 C467.047319,153.517571 467.74341,152.834169 467.619887,152.046628 C467.496793,151.26182 466.604927,150.910068 465.840692,151.075808 Z M380.563824,62.9500448 C382.309912,64.7235507 384.031935,66.5205521 385.729261,68.3403928 C385.534499,67.2685537 386.634021,66.027013 387.656614,65.2611646 C386.038089,65.0821803 384.446443,64.6817384 382.945045,64.075782 C383.33961,63.4274175 383.734176,62.7790529 384.128742,62.1306884 C383.891428,61.3562041 382.665012,61.8036997 382.055535,62.3611885 C381.6739,62.7102707 381.030331,62.9867717 380.563824,62.9500448 Z M315.737087,168.478387 C319.030074,173.980927 324.483269,180.335419 330.519346,178.158511 C329.268972,179.208874 328.018598,180.259236 326.768224,181.309599 C328.565486,183.237195 330.362749,185.164791 332.160012,187.092386 C333.927124,186.124917 335.694237,185.157448 337.461349,184.189979 C336.856433,186.106678 335.333643,187.711471 333.450058,188.417279 C335.857702,190.830389 338.265345,193.243498 340.672989,195.656608 C342.291642,194.100883 344.607397,193.298017 346.842771,193.517561 C345.09001,194.660984 343.337249,195.804408 341.584488,196.947832 C343.373533,198.606079 345.162578,200.264326 346.951623,201.922573 C348.45337,200.289074 350.867176,199.55319 353.026012,200.070707 C351.130906,200.855675 349.491862,202.244588 348.407507,203.984393 C356.24267,212.251209 364.655795,219.971244 373.56529,227.069631 C373.508407,224.979147 375.53497,223.079332 377.619724,223.268773 C376.48374,224.576259 375.347757,225.883745 374.211774,227.19123 C376.132898,228.328888 377.061351,230.898914 376.310264,233 C331.099335,191.453477 290.332846,145.371151 249.658133,99.3828248 C250.066386,102.560417 246.141666,104.882875 243.010723,104.189817 C239.87978,103.496759 237.559481,100.939536 235.459648,98.5181744 C221.135628,82.0008485 206.811609,65.4835225 192.487589,48.9661966 C191.806532,48.1808546 191.092394,47.3199942 191.008385,46.2843181 C190.902969,44.984739 191.8105,43.8460422 192.664698,42.8602387 C199.330427,35.1675328 205.996155,27.4748265 212.661883,19.7821207 C214.372871,17.8075242 216.159122,15.7752893 218.534935,14.6855746 C220.91075,13.5958599 224.05592,13.7190271 225.780878,15.6814556 C248.038221,41.0029136 270.306742,66.3364988 293.789974,90.5277384 C300.191778,97.1225537 306.682233,103.630776 313.133419,110.17739 C343.37566,140.866986 372.757187,172.403036 401.231917,204.736079 C401.941241,205.541516 402.448831,207.128039 401.407161,207.388736 C371.07147,174.175634 340.424174,141.246572 309.470653,108.607335 C307.630075,106.666521 304.25997,107.693155 302.316321,109.530952 C300.372672,111.368749 299.028814,113.875127 296.730282,115.244451 C294.431751,116.613775 290.576964,115.871847 290.315606,113.211113 C293.166566,108.402528 297.342458,104.386945 302.261066,101.724229 C298.43079,97.7400716 294.600514,93.7559139 290.770239,89.7717565 C290.099904,89.074491 289.343785,88.3339186 288.38054,88.2409192 C287.272238,88.1339153 286.297039,88.9144942 285.459713,89.6477113 C278.070635,96.1180685 270.681557,102.588425 263.292479,109.058783 C265.099148,114.457806 269.452797,118.94462 274.798404,120.916642 C273.995158,121.252338 273.191912,121.588034 272.388666,121.92373 C273.479559,123.226764 274.570452,124.529798 275.661345,125.832832 C276.347621,123.598838 279.739617,122.841932 281.312206,124.571871 C282.884795,126.30181 281.804756,129.602004 279.512926,130.069794 C282.685583,132.951739 285.513042,136.212601 287.91584,139.76074 C289.623901,139.390663 291.331962,139.020585 293.040023,138.650508 C292.143864,139.44066 291.247706,140.230812 290.351547,141.020963 C291.14761,145.347143 296.98711,147.790537 300.631782,145.322472 C299.337288,146.809748 298.042794,148.297025 296.7483,149.784301 C299.161706,150.764447 302.032818,150.536994 304.261422,149.189103 C303.04386,150.362876 301.826298,151.536649 300.608736,152.710422 C302.084323,155.745475 306.944803,156.296032 309.063145,153.668072 C308.913272,155.452628 307.257996,156.980925 305.46539,156.989836 C305.997768,158.506864 307.020505,159.847826 308.343308,160.763217 C309.892511,159.483411 311.920522,158.796424 313.929421,158.870927 C312.60805,160.134767 311.286681,161.398607 309.965311,162.662447 C311.463776,165.69923 315.645553,167.04976 318.639916,165.463963 C317.672307,166.468771 316.704697,167.473579 315.737087,168.478387 Z M256.08985,104.039446 C257.919072,106.093677 261.030034,108.26222 263.073311,106.420318 C270.317098,99.890435 277.560886,93.3605528 284.804674,86.8306706 C265.552683,62.4092816 244.805522,39.1643492 222.717698,17.2689813 C222.241215,16.79665 221.688545,16.2925816 221.017314,16.2981349 C220.390266,16.3033228 219.867111,16.753857 219.408245,17.1808115 C212.738481,23.3867275 206.522957,30.0797521 200.827678,37.1888107 C200.595184,37.4790187 200.352754,37.7977951 200.339628,38.1692704 C200.324805,38.5888102 200.604632,38.9546146 200.870198,39.279959 C218.810063,61.2578706 237.222268,82.8509985 256.08985,104.039446 Z M239.837476,89.1228513 C226.02977,72.9527392 212.222064,56.7826272 198.414358,40.6125156 C195.923643,40.5224707 194.196197,43.4320565 194.539601,45.8981488 C194.883006,48.3642407 196.598016,50.3871339 198.241344,52.2590846 C212.496592,68.4975145 226.751838,84.7359452 241.007084,100.974376 C242.760423,102.971639 246.460644,100.627201 246.276547,97.9770585 C246.092449,95.3269164 243.566713,93.4326055 241.047863,92.5810045 C238.529012,91.7294039 235.786471,91.5259297 233.411898,90.3301814 C235.284812,89.1094267 237.648581,88.6652879 239.837476,89.1228513 Z M279.444205,127.473115 C279.775661,126.996563 279.881341,126.370118 279.724539,125.811364 C278.466306,125.832277 277.320636,126.931305 277.248717,128.186394 C277.421291,128.488919 277.748306,128.697928 278.095584,128.727662 C278.524721,128.299798 278.953858,127.871934 279.382995,127.444069 L279.444205,127.473115 Z M349.881083,36.2066585 C351.267144,36.6280129 351.900266,34.5895818 352.14364,33.1654601 C352.436318,31.4528259 353.266396,29.7729308 354.683158,28.7613591 C356.09992,27.7497875 358.148468,27.5445665 359.584858,28.5282422 C359.660438,26.0117429 360.727896,23.5379638 362.508552,21.7527335 C354.524952,16.9511498 346.089219,12.8971127 337.348505,9.66134036 C335.121598,8.83694934 332.906322,10.7777471 331.3229,12.5431251 C331.038558,12.8601416 330.743168,13.1985537 330.660199,13.615704 C330.575799,14.0400481 330.725744,14.4720489 330.873439,14.8788251 C334.302724,24.3236814 337.732008,33.7685376 341.161293,43.2133943 C340.860426,43.3559137 341.316346,43.8305649 341.582611,43.6310256 C341.848877,43.4314866 341.821932,43.0347074 341.794697,42.7037338 C341.461359,38.6528304 345.981388,35.0211747 349.881083,36.2066585 Z M252.576961,246.483302 C250.930482,249.837142 252.439145,254.375311 255.768038,256.082296 C255.283615,253.858272 256.424653,251.380886 258.431551,250.299358 C256.217942,254.420949 257.380667,260.046566 261.047878,262.957941 C260.802627,258.795634 262.021789,254.561724 264.443913,251.164172 C262.109215,256.794169 262.685326,263.538605 265.94124,268.693116 C266.942964,265.945722 267.944688,263.198328 268.946412,260.450934 C267.228731,265.436271 268.823937,271.386787 272.806647,274.850578 C272.61274,270.836293 274.806086,266.796402 278.281867,264.765858 C274.311646,270.404249 275.604353,279.060414 281.049565,283.298788 C289.88241,290.173974 297.524426,298.56834 303.536917,308 C254.784721,262.619167 214.775634,208.814099 169.359033,160.109162 C165.393035,155.85601 161.255367,151.54552 155.989023,149.068432 C150.502892,146.487965 146.362441,141.786992 142.424437,137.184223 C126.361145,118.409329 110.896051,99.1248558 96.0603753,79.3697368 C88.7820276,69.6779215 81.6206023,59.8169071 76.1727637,48.9944317 C72.3123487,41.3254752 69.6022718,31.3218693 75.1464732,24.7609244 C81.2545225,17.5327282 92.7111224,19.5789372 101.796596,22.2631208 C106.155086,14.7404366 113.167188,6.04102221 121.550889,8.39102961 C125.075133,9.37889868 127.738687,12.1923236 130.191834,14.9035165 C154.319977,41.5696949 176.483725,70.0052437 196.445231,99.9050157 C183.819096,103.929682 168.921669,92.5917552 169.472727,79.3771568 C169.640614,75.3511524 166.738961,71.9250987 164.012747,68.9524454 C152.199253,56.0710557 140.385759,43.1896661 128.572265,30.3082768 C126.52031,28.0708323 123.577965,25.6217715 120.805505,26.8648201 C118.523568,27.8879386 117.924334,31.0403242 118.86607,33.3529981 C119.807806,35.6656721 121.826224,37.3355493 123.734123,38.9502168 C133.444973,47.1685707 142.206517,56.5028733 149.790004,66.7094188 C154.373626,72.8784735 159.332866,79.9078098 166.905334,81.2795433 C165.208043,85.4390585 168.469905,89.8354763 171.507271,93.1497192 C224.671514,151.160232 277.835757,209.170745 331,267.181258 C314.655308,258.375071 307.525099,236.449823 289.91272,230.560162 C290.212393,229.341683 290.512065,228.123204 290.811738,226.904725 C275.010275,209.775065 259.208811,192.645406 243.407348,175.515746 C246.77053,182.620561 241.526841,192.265585 233.724359,193.326234 C238.006599,192.388778 242.408276,191.446571 246.740549,192.117155 C251.072821,192.787741 255.384186,195.443606 256.710296,199.613277 C252.526427,199.761578 247.739352,201.569349 246.660806,205.605787 C245.582259,209.642226 251.816677,213.79465 254.044603,210.25786 C256.098612,206.997159 260.663557,205.591754 264.20168,207.130812 C267.739803,208.66987 269.814884,212.963639 268.818768,216.684517 C266.030124,215.803102 263.691459,213.604803 262.643341,210.879732 C257.563132,211.58946 255.72434,219.631513 259.993336,222.469667 C264.546397,220.637263 269.302729,219.308268 274.147348,218.51481 C275.80979,218.242533 277.933881,218.255753 278.677294,219.76427 C279.182277,220.788972 278.753115,222.014952 278.240846,223.036046 C276.03403,227.434837 272.262902,231.032196 267.759774,233.03416 C274.34486,235.027857 281.783105,234.004627 287.581925,230.30736 C288.8129,231.825287 287.368856,234.15066 285.598791,234.983288 C283.828727,235.815917 281.729136,235.924743 280.131937,237.052944 C277.049767,239.230073 277.491331,244.25709 280.027638,247.048783 C282.563945,249.840475 286.407088,250.969795 290.045911,251.977167 C291.618115,248.793408 293.564298,245.597625 296.624569,243.788566 C299.68484,241.979507 304.121316,242.052969 306.353783,244.816137 C308.586251,247.579306 306.73902,252.790146 303.183311,252.694979 C297.531204,252.543702 293.367815,260.016797 296.479988,264.727139 C294.205968,260.041435 290.594534,256.01114 286.181323,253.234017 C283.030949,251.251565 279.402703,249.826722 276.992556,246.993285 C274.58241,244.159848 274.118354,239.160351 277.262094,237.167444 C273.146906,240.343137 268.064729,235.056805 263.665679,232.285772 C258.344952,228.934159 250.818096,229.58442 246.153837,233.798658 C243.94374,237.407507 244.041316,242.293744 246.393736,245.811875 C247.38992,243.892562 248.386103,241.97325 249.382287,240.053937 C249.273879,243.161375 249.165472,246.268813 249.057063,249.376251 C250.230363,248.411934 251.403662,247.447618 252.576961,246.483302 Z M167.502358,68.0572283 C167.224986,68.4737706 166.947613,68.8903129 166.670241,69.3068553 C167.946904,69.6411102 169.223567,69.9753652 170.50023,70.3096202 C169.585915,70.2201399 169.156108,71.6352858 169.773773,72.3138907 C170.391438,72.9924959 171.470177,72.99681 172.349722,72.7320249 C172.075095,73.5563475 171.800469,74.3806697 171.525843,75.2049923 C172.599853,75.490089 173.673863,75.7751857 174.747873,76.0602827 C173.785869,78.5711984 172.823864,81.0821145 171.86186,83.5930306 C172.884327,83.159433 174.148928,83.366598 174.978789,84.1036406 C174.185296,84.2837838 173.34001,84.4930246 172.791342,85.0927126 C172.242674,85.6924006 172.207373,86.8178753 172.92569,87.199467 C173.98075,86.4966349 175.469001,86.5154481 176.505879,87.2447249 C175.586393,88.086379 174.48306,88.7270058 173.295413,89.1088109 C174.276177,90.5072224 176.182802,91.1834577 177.828064,90.7164364 C177.21541,91.4379443 176.602756,92.1594519 175.990102,92.8809598 C177.356894,93.7518378 179.166376,93.8851621 180.646537,93.2240504 C180.488515,94.1003715 180.330493,94.9766922 180.172471,95.853013 C184.241909,96.7049133 188.311348,97.5568133 192.380787,98.4087133 C173.680844,68.3196975 150.496722,41.2854704 126.978592,14.7748356 C124.878425,12.4074384 122.375657,9.85369473 119.207132,9.84620229 C117.740516,9.84273464 116.331989,10.4074695 115.030497,11.0820911 C109.846824,13.7690193 105.710173,18.4090169 103.639447,23.8592 C103.40494,24.4764239 103.15874,25.1511931 102.596845,25.4995601 C101.622608,26.1035713 100.397572,25.3943089 99.4260582,24.7859468 C95.5437109,22.3548083 90.8018203,21.322361 86.2574294,21.9187503 C81.7741068,22.5071257 77.301505,24.8911932 75.2870517,28.9308691 C73.0051348,33.506902 74.2918766,39.0284488 76.202291,43.7708957 C79.8890578,52.922992 85.6676076,61.0634731 91.4998754,69.0275214 C110.131845,94.4697541 129.867482,119.107203 150.633002,142.847761 C151.838833,144.226349 153.098386,145.640286 154.76137,146.411446 C156.424353,147.182606 158.612172,147.13862 159.877264,145.813966 C169.492548,135.745982 180.092942,126.615204 191.47866,118.593722 C187.272672,114.888103 183.295308,110.924143 179.576567,106.731742 C175.870433,102.553551 172.42509,98.1536637 168.952699,93.7801111 C157.243526,79.0321507 145.19843,64.5497452 132.829847,50.3478481 C129.489019,46.5118305 125.995207,42.5961619 121.406752,40.3904848 C120.362866,39.8886877 119.251395,39.4679366 118.390779,38.6937725 C117.050471,37.4881026 116.532564,35.6170621 116.338914,33.8268219 C116.080976,31.4422606 116.317464,28.9172693 117.563894,26.8665365 C118.810324,24.8158032 121.226251,23.3651694 123.597995,23.7544357 C127.151892,24.3377246 129.322979,28.5480494 132.904309,28.9292771 C132.201575,31.1762494 134.953681,33.6182785 137.108001,32.6593425 C136.146057,33.4303889 136.160123,35.0360044 136.973928,35.9614418 C137.787732,36.8868796 139.173558,37.1622777 140.374559,36.8799992 C139.381829,38.775796 141.771163,41.3277155 143.734087,40.4681303 C143.414215,41.0918246 143.094342,41.715519 142.774469,42.3392134 C143.891581,43.908899 146.005553,44.6983748 147.880992,44.2462757 C147.414297,44.9594157 146.947602,45.6725558 146.480907,46.3856958 C147.45501,47.9115653 149.665373,48.4922742 151.266214,47.6428961 C151.209376,48.6354918 150.569748,49.5734389 149.665279,49.9904961 C150.663351,51.0207928 152.082969,51.6319266 153.518921,51.6494566 C152.98385,53.659752 155.449451,55.7351749 157.345156,54.8701959 C156.508052,55.216972 156.293429,56.473065 156.897912,57.1469702 C157.502394,57.820875 158.669136,57.8143353 159.345472,57.2122428 C159.110431,58.0498619 158.87539,58.8874806 158.640349,59.7250993 C159.684493,60.3525561 160.828967,60.8133822 162.017109,61.0847632 C160.930189,61.6932567 161.847403,63.3346078 162.803141,64.1327727 C164.369547,65.4409246 165.935952,66.7490764 167.502358,68.0572283 Z M191.41841,168.621323 C191.530477,170.884951 190.122739,172.907486 189.420979,175.062985 C188.719219,177.218485 189.191935,180.234542 191.397581,180.775536 C192.02677,177.452931 193.428074,174.278368 195.460041,171.572294 C194.716423,174.818423 193.972805,178.064552 193.229187,181.31068 C192.926069,182.633885 193.52244,184.756323 194.74654,184.164368 C194.551196,182.163183 195.874218,180.11366 197.781015,179.463597 C195.456015,182.370714 195.757553,187.03022 198.437946,189.614815 C198.56766,186.309629 200.037638,183.076001 202.444413,180.80147 C200.885841,184.631598 200.19101,188.808859 200.425992,192.93603 C201.599051,190.813296 202.77211,188.690561 203.945169,186.567827 C204.284027,188.585105 203.312794,190.56934 203.029219,192.595092 C202.745643,194.620845 203.690625,197.218517 205.738084,197.317406 C206.038129,194.12831 207.556961,191.068437 209.917411,188.897645 C210.179382,191.187349 208.635567,193.233443 207.725326,195.351489 C206.815086,197.469536 206.931932,200.5839 209.115032,201.336067 C208.640341,199.120991 210.302153,196.682058 212.541042,196.307937 C209.400622,200.106077 210.945712,206.731796 215.443956,208.756334 C214.650304,206.03653 216.20856,202.841801 218.843309,201.786999 C217.864146,203.665289 216.867658,205.598819 216.636235,207.7034 C216.404813,209.80798 217.107469,212.153169 218.895003,213.293836 C218.415644,211.002528 219.905102,208.470228 222.143656,207.770641 C219.867963,210.562899 220.014633,215.026886 222.468728,217.664413 C223.300363,213.465258 224.981997,209.435546 227.382943,205.888448 C226.543888,209.50505 225.704833,213.121652 224.865779,216.738253 C224.425036,218.637998 224.858452,221.568559 226.788683,221.263996 C226.668842,218.494012 227.249512,214.82148 230.001526,214.439019 C228.110823,217.849586 228.104492,222.227356 229.985323,225.643353 C230.718282,223.262518 231.779173,220.982443 233.128828,218.887308 C234.347154,219.549543 233.573287,221.358656 232.997051,222.617958 C231.43087,226.040683 232.980608,230.556503 236.320686,232.302778 C236.482369,229.305364 238.023753,226.409603 240.422081,224.597585 C239.337571,227.334407 238.236219,230.157665 238.268603,233.100492 C238.300986,236.043318 239.744911,239.171016 242.464624,240.309618 C242.872258,237.739315 242.901138,235.08237 243.766251,232.627433 C245.415647,227.946925 250.289588,224.603009 255.25984,224.741904 C254.504031,221.950961 253.748222,219.160018 252.992412,216.369074 C252.66164,215.147647 251.877448,213.624269 250.635477,213.879217 C248.107108,214.398234 245.32344,213.366215 243.748084,211.325781 C242.172727,209.285348 241.882767,206.336339 243.030659,204.0293 C240.52771,203.915494 238.155095,202.284038 237.157344,199.990696 C236.307844,198.038109 235.679522,195.13507 233.552925,195.303192 C231.576324,195.459457 230.17049,193.079661 230.564957,191.140705 C230.959424,189.20175 232.512725,187.731372 234.046411,186.477397 C235.580097,185.223421 237.242387,183.964649 238.018753,182.144117 C238.326948,181.421417 238.446743,180.500127 237.917571,179.918701 C237.106565,179.02761 235.641848,179.65582 234.638855,180.324614 C232.268248,181.90533 229.897642,183.486046 227.527035,185.066762 C226.006173,186.08087 223.419059,186.79526 222.802012,185.077024 C222.379402,183.900215 223.473182,182.768521 224.454178,181.991016 C227.002015,179.971685 229.549852,177.952354 232.097689,175.933023 C231.377632,175.536187 230.595432,175.065509 230.357135,174.279901 C230.118838,173.494294 230.906144,172.462423 231.646079,172.821009 C234.405561,174.158303 238.142678,172.822307 239.423288,170.040706 C236.058364,166.06096 232.69344,162.081213 229.328516,158.101467 C226.810784,159.567049 227.150453,163.229612 227.720652,166.08194 C228.290852,168.934267 228.290744,172.71386 225.588379,173.803946 C224.628702,174.191063 223.549619,174.099917 222.522861,173.968836 C213.892361,172.867027 205.587788,169.328146 198.822132,163.869092 C196.960748,162.367184 195.111631,160.5416 194.725555,158.184254 C194.339478,155.826907 196.218023,153.035069 198.585097,153.390982 C201.131357,153.773839 201.935699,156.922753 203.090154,159.219487 C205.776274,164.563396 212.251229,166.585783 218.050925,168.085906 C219.746894,168.524578 222.367754,168.251864 222.210807,166.510663 C221.810445,162.068975 223.006248,157.500607 225.532259,153.821607 C215.820479,143.22407 205.678676,133.018925 195.140034,123.239566 C194.432234,122.582762 193.637294,121.890411 192.671853,121.843936 C191.739348,121.799046 190.90252,122.370331 190.149099,122.920452 C180.715727,129.808365 171.76195,137.350148 163.373668,145.473451 C162.5983,146.224325 161.79821,147.028066 161.496475,148.063324 C161.19474,149.098581 161.595929,150.421363 162.619011,150.768115 C163.021384,149.340668 163.423756,147.91322 163.826128,146.485772 C164.134248,147.290363 164.442368,148.094954 164.750488,148.899545 C164.903539,147.069676 166.045415,145.351991 167.675398,144.499707 C166.802047,146.439086 165.914553,148.434583 165.802135,150.5578 C165.689718,152.681017 166.52466,154.992121 168.379084,156.039316 C168.424683,152.713969 169.594698,149.413832 171.654876,146.799635 C172.100765,149.310334 170.75945,151.746645 170.153232,154.22367 C169.547015,156.700695 170.201784,160.023045 172.691903,160.595476 C172.872794,157.395455 174.087558,154.26166 176.11176,151.77308 C175.44456,155.75421 174.777359,159.73534 174.110159,163.71647 C175.274109,162.256363 176.438058,160.796256 177.602008,159.336148 C176.220946,161.793788 176.58541,165.109607 178.467491,167.210123 C178.781435,165.006946 180.174715,162.982812 182.122867,161.899652 C180.04278,165.399386 180.768644,170.310355 183.772696,173.061878 C184.276236,169.78126 185.525703,166.616844 187.400066,163.875153 C188.095578,166.051114 186.877386,168.310015 186.109062,170.461452 C185.340737,172.612889 185.311646,175.5641 187.359121,176.585091 C187.854022,173.600283 189.292427,170.778332 191.41841,168.621323 Z M275.301546,222.943332 C273.462988,222.613008 271.631941,223.422451 269.939571,224.211795 C267.756243,225.230129 265.572913,226.248463 263.389585,227.266797 C263.007261,227.445118 262.553482,227.845722 262.790678,228.194031 C262.869638,228.309976 263.006555,228.37013 263.137263,228.421512 C267.752118,230.23564 273.611957,227.596664 275.301546,222.943332 Z M239.871951,199.834878 C240.028199,200.607457 240.645615,201.229007 241.361209,201.562662 C243.390483,202.508836 245.734402,201.37297 247.678425,200.262784 C248.828152,199.606202 249.977879,198.949621 251.127606,198.293039 C249.080435,197.410884 246.885173,196.872055 244.66149,196.705924 C243.554141,196.623192 242.392213,196.643035 241.401834,197.144189 C240.411454,197.645344 239.652284,198.748728 239.87195,199.834878 Z M298.050287,252.586872 C301.220109,251.356399 304.645241,249.907938 306.253306,246.917336 C304.381105,245.693167 301.87889,246.872696 300.144945,248.285141 C298.646142,249.506042 297.296952,250.909638 296.13693,252.454779 C296.528434,253.025587 297.40426,252.837649 298.050287,252.586873 Z M164.34866,81.8407869 C163.838788,81.998236 163.390305,82.3457408 163.111151,82.799664 C163.511949,83.4624505 164.039754,84.0484596 164.657575,84.516624 C165.082058,84.0546339 165.530529,83.53768 165.559531,82.9115778 C165.588533,82.2854756 164.925921,81.6271607 164.366057,81.911323 L164.34866,81.8407869 Z M292.143587,229.628067 C291.788008,229.815882 291.934008,230.478103 292.335749,230.499674 C292.596402,230.342912 292.868402,230.101154 292.838109,229.798982 C292.807818,229.49681 292.257344,229.393196 292.234628,229.696029 L292.143587,229.628067 Z M369.569885,44.4158392 C368.220666,42.7797266 364.958422,44.7363276 365.776572,46.6909593 C366.399777,45.2109517 369.169865,45.8057511 369.126527,47.4102691 C367.715125,49.2583791 364.248053,47.5594008 364.31995,45.2378068 C364.391847,42.9162131 366.961659,41.2758125 369.285012,41.4524247 C366.810437,39.5897191 364.936155,36.9467833 364,34 C401.107977,70.9296681 436.796554,109.276503 470.961154,148.928138 C471.721274,149.810337 472.472896,151.200768 471.625444,152 C443.864287,120.1196 415.366521,88.8765707 386.16236,58.304036 C384.178823,56.2275598 380.77926,54.1017219 378.802175,56.1843034 C379.042462,57.1826905 379.28275,58.1810775 379.523038,59.1794646 C378.291736,59.4434275 377.617024,57.8637396 377.060937,56.7372869 C376.50485,55.6108346 374.484454,54.9151346 374.300442,56.157117 C374.047243,53.512989 377.408186,51.3070594 379.744809,52.5837477 C377.001151,49.2915338 374.046537,46.1740359 370.904955,43.2565643 C370.459931,43.6429894 370.014908,44.0294145 369.569885,44.4158392 Z M449,139.908346 C449.277158,139.391327 449.554316,138.874307 449.831474,138.357288 C450.453656,137.196649 451.434736,135.845791 452.821185,136.014327 C454.050183,136.163726 455.378545,136.751833 455.704913,137.860113 C456.031282,138.968393 454.547239,140.273992 453.568763,139.568753 C453.387976,140.48878 453.978634,141.489182 454.912154,141.844065 C455.845674,142.198948 457.024159,141.871095 457.592497,141.098398 C458.168411,140.315401 459.659459,140.849521 459.927543,141.763993 C460.195626,142.678465 459.67353,143.620409 459.119318,144.416744 C458.565105,145.21308 457.935126,146.052766 457.964511,147 C457.750499,146.980201 457.536486,146.960403 457.322474,146.940605 C455.697699,145.320136 454.140961,143.64107 452.656965,141.908483 C451.724066,140.81931 450.458085,139.580261 449,139.908346 Z M452.750786,137.858802 C452.427059,137.637057 452.102912,138.261047 452.39181,138.520855 C452.749719,138.626274 453.166225,138.537054 453.437924,138.296768 C453.242537,138.115482 453.047151,137.934197 452.851764,137.752911 L452.750786,137.858802 Z M457.775778,143.178794 L457.701428,143.191653 C458.057549,143.581937 456.914852,143.852088 456.897682,143.341197 C456.906836,142.958218 457.608725,142.828404 457.775778,143.178794 Z M428.081328,112.062209 C428.120993,111.791743 428.181917,111.507991 428.363782,111.309318 C428.569155,111.084968 428.887124,111.015647 429.185621,111.002837 C431.281583,110.912895 432.871174,112.976814 433.613595,115.005543 C434.356016,117.034273 434.675013,119.302894 436,120.984565 C433.766966,121.134196 431.488143,120.188157 429.97514,118.483382 C428.462137,116.778607 427.745828,114.349885 428.081328,112.062209 Z M431.728291,118.268783 C432.098231,118.605235 432.945173,118.619772 432.813105,118.12898 C432.574032,115.944222 431.479921,113.872383 429.831682,112.483272 C429.430626,114.574556 430.180076,116.860717 431.728291,118.268782 Z M436.930935,123.510707 C436.656096,124.003099 437.085224,124.577506 437.484739,124.979175 C438.794216,126.295706 440.103691,127.612237 441.413166,128.928769 C441.934948,128.019738 441.735685,126.844465 441.186964,125.950868 C440.638243,125.057271 439.792029,124.385049 438.963263,123.732089 C438.352901,123.251202 437.307092,122.836796 436.930935,123.510706 Z M290.861646,121.707559 C290.197567,122.504637 291.364325,123.482475 292.029162,124.278913 C293.293618,125.793656 292.353916,128.539866 290.431153,128.948981 C288.50839,129.358095 286.545542,127.229473 287.093232,125.329152 C288.262757,125.747748 289.288944,126.561387 289.967329,127.607956 C290.992999,127.279509 290.837751,125.709052 290.174443,124.85563 C289.511135,124.002209 288.517126,123.269632 288.434118,122.189178 C288.32003,120.704183 290.165863,119.706068 291.598239,120.078151 C293.030614,120.450234 294.064317,121.669134 295,122.822756 C293.547223,123.02255 292.021088,122.61129 290.861646,121.707559 Z M278.728128,111.945302 C279.912342,111.092193 281.55194,110.722267 282.941369,111.232808 C284.330798,111.74335 285.306198,113.244725 284.911704,114.597691 C284.753924,115.138815 284.407175,115.614231 284.022384,116.043036 C282.515307,117.7225 279.621503,118.776261 277.90189,117.2883 C276.296604,115.899265 276.996428,113.192821 278.728128,111.945302 Z M279.479896,113.975108 C278.332106,114.293549 278.866379,116.194128 280.054187,116.331007 C281.241995,116.467886 282.253414,115.490793 282.77239,114.476682 C282.889978,114.246909 282.995526,114.002841 282.99498,113.747841 C282.993434,113.024931 282.111269,112.533098 281.347123,112.611411 C280.582977,112.689723 279.935775,113.155814 279.334771,113.606503 L279.479896,113.975108 Z M313.364475,272.949682 C313.563134,271.959947 314.181964,270.69072 315,271.068106 C314.518383,274.727301 313.9488,278.371102 313.292124,281.993917 C312.716255,282.066719 312.205267,281.474633 312.06226,280.827346 C311.919253,280.180059 312.049882,279.499099 312.180502,278.84834 C312.57516,276.882121 312.969818,274.915902 313.364475,272.949682 Z M394.37687,74.0488548 C393.781029,74.6267812 392.830586,74.8673832 392,74.6505529 C392.480471,73.6763726 393.275404,72.8373544 394.256083,72.2693563 C394.601497,72.0692965 395.039073,71.9003772 395.403509,72.0690513 C395.725957,72.2182917 395.859731,72.5715673 395.963947,72.8910587 C396.293881,73.9025254 396.623816,74.9139918 396.953751,75.9254585 C397.20878,75.2929447 397.490261,74.6263924 398.069034,74.2156357 C398.647807,73.8048791 399.621094,73.7951451 400,74.3720061 C399.409621,75.3431941 398.749126,76.3755218 397.651161,76.8323856 C396.553196,77.2892491 394.935131,76.7825862 394.831949,75.6722678 C394.775727,75.0672851 395.012258,74.1995338 394.376871,74.0488541 Z M389.257241,67.6849254 C389.911057,67.300796 390.62647,66.9037942 391.365045,67.0208441 C392.609552,67.2180738 393.266494,68.8809397 392.897975,70.1621514 C392.529456,71.443363 391.459821,72.3504364 390.359329,73 C390.603247,71.7328268 389.743732,70.3434007 388.5542,70.0819699 C388.048441,69.9708162 387.869493,69.2315138 388.097914,68.7382638 C388.326335,68.2450135 388.805067,67.9505856 389.25724,67.6849251 Z M391.664043,69.4518636 L391.74716,69.458145 C391.591305,70.1160701 390.401832,69.6839051 390.656047,69.0617172 C391.004429,68.7036776 391.792644,68.9547806 391.664043,69.4518636 Z M446.000753,134.629308 C445.956823,133.00284 447.84476,132.170117 449.382936,132.029217 C450.183077,131.955922 451.082245,131.981842 451.658874,132.571024 C452.235502,133.160206 452.0656,134.469208 451.266404,134.553176 C450.682895,134.614484 450.239735,134.034618 449.710234,133.769065 C449.180733,133.503513 448.293663,134.051073 448.674148,134.521307 C449.568619,134.933748 450.164874,135.973528 450.095451,136.999847 C448.360577,137.010599 446.050115,136.456905 446.000754,134.629307 Z M407,81.834862 C404.979109,82.5302876 402.958218,83.2257128 400.937327,83.9211379 C400.80926,83.9652081 400.676196,84.0099393 400.54084,83.9980577 C399.764333,83.9298956 400.251211,82.7925289 400.506775,82.0791362 C400.787353,81.2959239 400.455869,80.4480688 400.208862,79.6543222 C399.961854,78.8605756 399.83364,77.9016604 400.409485,77.2882745 C400.985331,76.674889 402.394338,77.1146403 402.154368,77.910409 C401.746034,79.2644899 402.094087,80.8093435 403.047721,81.87562 C403.677685,81.4311114 404.340632,80.9730701 405.111444,80.8611039 C405.882256,80.7491377 406.786585,81.1088504 407,81.834862 Z M399.604453,216.075275 C398.582201,216.623257 397.559949,217.17124 396.537697,217.719222 C396.212004,217.893812 395.837525,218.074241 395.480326,217.968562 C395.157675,217.873105 394.943228,217.526067 395.013289,217.212759 C395.90823,216.128575 397.200591,215.344817 398.614472,215.028807 C399.275485,214.881066 400.306633,215.32389 399.912921,215.848218 C399.836794,215.949601 399.718748,216.014006 399.604453,216.075275 Z M386.86237,208.975142 C386.590392,209.021405 386.26362,209.021041 386.093571,208.814421 C385.84377,208.510894 386.142179,208.085397 386.426172,207.810258 C387.406275,206.860714 388.613559,205.832817 390,206.022909 C389.710827,207.48353 388.404294,208.712862 386.86237,208.975141 Z M354.934452,171.949888 C354.851861,172.117499 354.698624,172.223477 354.552,172.321967 C353.90125,172.759091 353.250501,173.196215 352.599751,173.633338 C352.128897,173.949622 351.433329,174.22416 351.109889,173.7274 C350.80412,173.257778 351.191793,172.616072 351.595786,172.251136 C352.147956,171.752346 352.774499,171.356988 353.441581,171.086411 C354.129441,170.807407 355.287827,171.232743 354.934452,171.949888 Z M283.350481,121.879801 C282.818721,121.550619 282.922466,120.442804 283.456811,120.119926 C283.991156,119.797048 284.676783,120.163286 285,120.775156 C284.732088,121.557208 284.020615,122.075221 283.329998,121.991059 L283.350481,121.879801 Z M182.768797,116.887781 C183.744863,116.113661 185.507369,115.488857 186,116.609006 C175.141249,124.720666 164.572732,133.190994 154.319392,142 C153.373931,140.768973 154.711336,139.140197 155.93933,138.166272 C164.882486,131.073442 173.825642,123.980611 182.768797,116.887781 Z M80.7727637,30.6686019 C82.7112782,29.9773658 85.2340606,29.4401423 86.5097789,31.0836343 C87.1260311,31.8775435 87.2230375,32.9542412 87.3110877,33.9634609 C88.0373722,42.28804 89.8189255,50.5159235 92.5972211,58.376818 C92.9793751,59.4580808 93.3165595,60.8404466 92.4846467,61.6145829 C91.3719186,62.6500312 89.6638931,61.4025949 88.7391717,60.1893735 C83.3087865,53.064783 79.9060057,44.3464282 79.0480236,35.359424 C78.8762704,33.5603799 79.1021872,31.2642965 80.7727637,30.6686019 Z M91.09395,60.6636013 C91.6900058,60.1371613 91.4316706,59.1575923 91.1373079,58.4109442 C88.1985601,50.9568496 86.4313071,43.0222381 85.9237345,35.0030483 C85.8748684,34.231006 85.8296989,33.4286915 85.4671431,32.7494541 C84.7055905,31.3227058 82.4937081,31.0354987 81.406975,32.2222509 C80.4296853,33.2894859 80.5082188,34.9475244 80.7107486,36.3942152 C81.9492679,45.2410825 85.5793508,53.7259308 91.09395,60.6636013 Z M260.463529,67.7797665 C262.212016,71.7552552 263.083086,77.1714957 259.650677,79.8112351 C256.318577,82.3738306 251.526482,80.3374751 248.038186,77.9948517 C235.655701,69.6791847 225.76707,58.1655903 216.464576,46.4695321 C213.666439,42.9514276 210.751866,38.3904671 212.558797,34.2673303 C214.066725,30.8264757 218.441382,29.4489194 222.103148,30.1984262 C225.764915,30.9479334 228.867344,33.3077825 231.807872,35.6282899 C243.183478,44.6053104 254.612492,54.4764156 260.463529,67.7797669 Z M253.96849,68.7290082 C254.754263,67.510653 253.946753,65.903395 253.04299,64.7709287 C251.175362,62.4306856 248.827638,60.4802711 246.190544,59.078137 C245.803353,58.8722686 245.377685,58.6724827 244.944876,58.7395308 C243.967871,58.8908817 243.695928,60.1597203 243.657373,61.1538043 C243.55127,63.8895474 243.692156,67.0861058 245.895925,68.6913187 C250.151758,71.791245 254.350869,74.9700441 258.490411,78.2255614 C259.811962,76.1764453 258.49803,72.9734473 256.125013,72.4593826 C256.795031,71.7636557 256.93496,70.6095309 256.450828,69.7720748 C255.966696,68.9346185 254.9006,68.4866501 253.96849,68.7290082 Z M237.825765,51.0632086 C239.714324,52.5313819 241.602882,53.9995551 243.491441,55.467728 C243.930438,55.8090056 244.533333,55.8120951 245.087921,55.8000468 C246.606855,55.7670483 248.12579,55.7340501 249.644724,55.7010516 C246.930907,52.6155806 244.076117,49.655701 241.092394,46.8338962 C240.854384,46.6088022 240.599885,46.3759358 240.28163,46.3020697 C239.731017,46.1742743 239.20345,46.5543227 238.764044,46.9118725 C236.81015,48.5017826 234.856255,50.091692 232.90236,51.6816014 C231.821504,52.5611082 230.673189,54.1696036 231.657191,55.1575771 C235.087612,58.601836 238.518033,62.046095 241.948453,65.490354 C243.045199,61.2222106 240.169298,56.9257744 236.842554,54.0576802 C236.265725,53.5603762 235.645742,53.0502447 235.378587,52.3346825 C235.111433,51.6191206 235.375724,50.6396688 236.106928,50.4328097 C236.717205,50.2601614 237.324081,50.6731976 237.825765,51.0632086 Z M229.39029,38.3819377 C227.700237,39.8350682 226.095616,41.388825 224.587612,43.0323785 C224.009243,43.6627353 223.480047,44.7623582 224.181408,45.2501402 C225.989547,43.3989203 227.797686,41.5477004 229.605826,39.6964805 C230.038737,39.2532549 230.493958,38.7665298 230.58384,38.1516431 C230.807526,36.6214053 228.595418,35.8133336 227.217962,36.4992999 C225.840506,37.1852661 225.013087,38.6221566 223.84729,39.6300082 C223.253628,40.143238 222.556069,40.5601428 222.11378,41.2099377 C221.67149,41.8597325 221.593318,42.8656931 222.209713,43.3510201 C223.811298,41.6185074 225.512584,39.9793554 227.302207,38.444516 C227.949192,37.8896401 229.234173,37.5410045 229.39029,38.3819377 Z M217.522772,34.8871618 C217.86175,35.6640917 218.200728,36.4410216 218.539706,37.2179515 C218.632291,37.4301535 218.749025,37.6650073 218.968855,37.7340429 C219.358696,37.8564692 219.654297,37.392074 219.837928,37.0249738 C220.627569,35.4463874 222.188868,34.2828347 223.919533,33.9831699 C224.03147,33.164879 223.036779,32.6967396 222.23964,32.5000222 C221.167326,32.2353999 220.027247,31.9724405 218.977762,32.3175262 C217.928277,32.6626119 217.07888,33.8697722 217.522771,34.887161 Z M228.00058,47.5969444 C227.630848,48.0107468 227.251489,48.4536645 227.134624,48.9975917 C227.017759,49.5415186 227.268895,50.2076584 227.803006,50.3517059 C230.226602,47.2039245 233.115891,44.4199447 236.346075,42.1200161 C236.046461,41.4748923 235.193803,41.2552208 234.513261,41.4502082 C233.832719,41.6451952 233.288052,42.1476441 232.776721,42.639873 C231.123663,44.231179 229.530114,45.8850954 228.000581,47.5969451 Z M230.609956,51.625294 C232.792504,49.7032656 234.975053,47.7812373 237.157602,45.8592089 C237.873473,45.2287878 238.627336,44.1307023 237.966995,43.44162 C234.35404,45.5128806 231.229323,48.4402797 228.918218,51.9189885 C229.286778,52.4590054 230.120062,52.0567113 230.609956,51.6252943 Z M225.610977,47.5649728 C228.08815,45.2043224 230.510421,42.7853205 232.875138,40.3106158 C233.221445,39.9482018 233.093565,39.2537671 232.641213,39.0403155 C230.16713,40.9468982 227.924914,43.1579267 225.980418,45.608464 C225.527734,46.1789565 225.099517,47.0472204 225.610976,47.5649728 Z M220.426738,40.7549241 C222.448329,38.8338124 224.46992,36.9127006 226.491511,34.9915888 C226.89278,34.6102638 227.013408,33.6414141 226.481883,33.7909016 C223.937238,34.9270098 221.743937,36.84587 220.271952,39.2238034 C219.950237,39.7435207 219.825151,40.6633763 220.426737,40.7549245 Z M253.078799,62.1842237 C254.925667,64.9654877 256.772536,67.7467517 258.619405,70.5280157 C258.841627,70.862668 259.401555,71.1773435 259.54393,70.8012076 C258.443295,67.8788795 256.918948,65.1185757 255.034151,62.6348541 C254.535091,61.977209 253.367616,61.4094511 253.078799,62.1842225 Z M244.09197,72.2968497 C245.055114,73.7335891 246.826837,74.3379262 248.471852,74.8507132 C248.747067,74.9365039 249.035779,75.0232326 249.318945,74.9697188 C249.592514,74.9180182 249.836945,74.7290088 249.957049,74.4762949 C248.811034,73.6487176 247.665019,72.8211407 246.519004,71.9935638 C246.090386,71.6840443 245.62724,71.3622095 245.099944,71.3460116 C244.572648,71.3298133 244.000457,71.7739787 244.091969,72.2968486 Z M217.208013,39.4556372 C217.365119,38.5689453 215.774456,38.4449248 215.460458,37.6015033 C216.165316,36.604468 215.831594,35.029107 214.78397,34.4080853 C213.97116,35.9661956 214.193689,38.0102337 215.322446,39.3542557 C215.83391,39.9632613 217.068922,40.2406523 217.208012,39.4556372 Z M242.055001,70.5791214 C242.713043,70.8397897 243.519999,70.6597292 244.006904,70.1435821 C243.411248,68.822288 241.467992,68.3749397 240.360809,69.3042294 C240.780559,69.8989089 241.35535,70.3817097 242.011789,70.6909836 L242.055001,70.5791214 Z M243.488871,58.0759693 C241.823525,58.080126 240.312739,56.5326404 240.346217,54.8569658 C241.742878,55.4857244 242.888815,56.6594985 243.488871,58.0759693 Z M230.590818,59.6736171 C231.338797,60.1408809 232.086775,60.6081447 232.834753,61.0754085 C233.638365,60.8531221 233.112609,59.6211451 232.474553,59.0815588 C232.109406,58.7727664 231.692408,58.4458122 231.216489,58.4772394 C230.740569,58.5086667 230.334953,59.1423829 230.673004,59.4809839 L230.590818,59.6736171 Z M250.565195,59.9231282 C251.019947,60.3301278 251.530969,60.7602866 252.139457,60.7698071 C252.747945,60.779328 253.359735,60.0917867 253.042875,59.5688954 C252.928414,59.3800071 252.727826,59.264047 252.533468,59.1606632 C252.072277,58.9153431 251.54966,58.6897531 251.043407,58.8163541 C250.537155,58.9429552 250.152002,59.5932445 250.464989,60.0132359 L250.565195,59.9231282 Z M235.079105,61.7703636 C234.669823,61.2474146 233.71061,61.3611653 233.433319,61.9655337 C234.09393,62.7779726 234.882402,63.4848884 235.760319,64.0518372 C236.061367,63.8090751 236.272865,63.4563286 236.345933,63.0751199 C235.91804,62.6442484 235.490146,62.2133772 235.062251,61.7825064 L235.079105,61.7703636 Z M252.799541,76.7662853 C252.305917,75.7103348 250.646026,75.4902641 249.897511,76.3815296 C250.565794,76.6144086 251.008907,77.2718654 251.657626,77.5552908 C252.306345,77.8387167 253.334669,77.2700573 252.991295,76.6478418 L252.799541,76.7662853 Z M224.056387,49.2365724 C223.572066,49.3796461 223.087745,49.5227198 222.603424,49.6657936 C222.39278,49.8653819 222.325308,50.2027609 222.442829,50.4688208 C223.283707,51.0703395 224.627973,50.7235367 225.077617,49.7890818 C224.749583,49.5828929 224.421549,49.3767044 224.093515,49.1705159 L224.056387,49.2365724 Z M220.823703,46.7900533 C221.24234,46.5861211 221.660977,46.3821889 222.079614,46.1782571 C221.3564,45.217655 219.658231,45.2968111 219.026341,46.3205778 C219.402427,46.8570958 220.180858,47.0605113 220.768794,46.7759067 L220.823703,46.7900533 Z M246.90101,57.5744659 C247.429252,58.6808216 249.036909,59.0739618 250.010705,58.3349176 C249.19443,57.6071294 248.054363,57.2621169 246.974619,57.4161233 L246.90101,57.5744659 Z M224.097619,52.5102632 C224.849837,53.1645076 226.10621,53.1143865 226.80461,52.4022723 C226.357838,51.4151918 224.696324,51.3809118 224.209728,52.3487349 L224.097619,52.5102632 Z M236.602359,64.7657254 C236.360186,65.3793049 236.962809,66.1462468 237.611891,66.0505283 C238.260973,65.9548097 238.619628,65.0461106 238.212719,64.5282493 C237.805811,64.0103883 236.844533,64.1521456 236.602359,64.7657254 Z M220.323046,43.7797258 C219.601663,42.942642 218.02355,43.1851467 217.583253,44.2007426 C218.420546,44.6440853 219.515756,44.5350773 220.25054,43.9352629 L220.323046,43.7797258 Z M230.108795,56.4313527 C229.891666,56.1383144 229.557183,55.9360535 229.198154,55.8806919 C228.57158,56.2594951 228.513734,57.371242 229.177619,57.6790151 C229.841505,57.9867883 230.626662,56.9130216 230.056104,56.4532273 L230.108795,56.4313527 Z M239.831139,66.6011089 C239.214417,66.5303762 238.42743,66.5744957 238.193289,67.1530357 C238.826042,67.8967706 240.131842,67.8940346 240.761514,67.1476552 C240.538177,66.8514292 240.197937,66.6470959 239.832846,66.5899392 L239.831139,66.6011089 Z M217.097627,42.1676187 C217.637282,42.4381048 218.30638,41.8903093 218.358149,41.2858127 C217.843425,41.0781496 217.270843,41.0180789 216.724629,41.1144355 C216.334895,41.4266083 216.583016,42.1969188 217.080611,42.2196058 L217.097627,42.1676187 Z M227.560607,54.9818652 C228.094122,54.616268 227.632764,53.5689052 227.005323,53.7212716 C226.569991,53.9330625 226.325269,54.4779252 226.454914,54.9467326 C226.758305,55.2078877 227.246082,55.2188761 227.560779,54.9716453 L227.560607,54.9818652 Z" transform="translate(-72 -3)"/>
</svg>
