<svg xmlns="http://www.w3.org/2000/svg" width="370" height="173" viewBox="0 0 370 173">
  <g fill="none" fill-rule="evenodd">
    <path fill="#000" fill-rule="nonzero" d="M283.128177,39.320468 C286.486486,44.1580033 288.39978,49.9864183 288.562231,55.874086 C288.686835,60.3900485 287.573633,65.309016 284.05955,68.1460183 C281.750591,70.0100963 280.628345,73.2316215 281.279052,76.1277348 C289.194524,78.4880055 296.359959,83.3031818 301.537648,89.7415235 C304.124961,92.9587903 306.27722,96.7395763 306.528474,100.861271 C306.960038,107.940852 301.87106,114.019164 297.095173,119.260866 C312.561443,134.389529 318.481916,156.570362 322.862991,177.76243 C323.255077,179.659025 323.603768,181.777533 322.568904,183.414287 C321.452529,185.179958 319.157228,185.712786 317.089596,186.005729 C310.037723,187.004842 302.886786,186.996078 295.764564,186.985409 C267.133417,186.94252 238.50227,186.899632 209.871124,186.856743 C208.983652,186.855414 207.98953,186.810429 207.380237,186.164845 C206.860014,185.613635 206.784665,184.789989 206.743454,184.033001 C205.913272,168.783629 207.728546,153.393635 212.083889,138.756503 C214.177338,131.720986 217.082526,124.530836 222.763255,119.885084 C218.539593,116.025428 214.0404,111.644837 213.422283,105.955259 C212.860674,100.785814 215.720579,95.8348098 219.182686,91.956543 C223.098057,87.5705288 227.920984,83.999137 233.257469,81.5341253 C232.573643,78.2258118 231.889817,74.9174985 231.20599,71.609185 C230.983653,70.5335308 230.547322,69.239664 229.464388,69.0590585 C227.385226,68.7123118 225.643646,66.8838253 225.397621,64.789358 C225.151596,62.6948905 226.422013,60.5122555 228.364173,59.6926833 C224.873017,56.2841168 223.361453,51.1664228 223.693033,46.2972973 C224.024614,41.4281715 226.043742,36.7948245 228.752407,32.7359595 C230.243816,30.5011208 232.031771,28.3432058 234.450139,27.1741253 C236.868507,26.0050445 240.042177,26.0593485 241.984441,27.9153925 C242.697049,25.1191915 243.741579,22.2159233 246.00942,20.4329748 C248.27726,18.6500263 252.09124,18.5840258 253.689092,20.9864025 C256.853628,14.0788038 262.21223,7.99392325 269.176095,4.961419 C276.139961,1.92891475 284.740996,2.3119925 290.857309,6.816777 C296.973621,11.3215613 299.869995,20.1270635 296.748886,27.054412 C294.195128,32.7225183 288.500333,36.1952225 283.128177,39.320468 Z M273.674945,142.261541 C271.455334,144.383779 269.067718,146.59699 266.060384,147.215433 C262.169826,148.015505 258.312743,145.958508 254.932024,143.872621 C244.830757,137.640188 235.305415,130.473837 226.516993,122.49469 C225.164054,121.266335 223.079162,122.722495 221.965913,124.171826 C214.167932,134.32396 212.050498,147.614336 210.435866,160.315687 C209.484514,167.799401 208.619342,175.369141 209.415052,182.871017 C209.469704,183.386275 209.555576,183.948085 209.939932,184.295367 C210.335609,184.652878 210.922362,184.671341 211.455511,184.670307 C238.451488,184.617928 265.447465,184.565549 292.443442,184.51317 C300.57092,184.4974 308.711748,184.481028 316.804402,183.728932 C318.521778,183.569327 319.816063,181.95271 320.174817,180.264837 C320.533571,178.576965 320.1649,176.828818 319.789187,175.144643 C315.583814,156.293615 309.982802,136.898376 296.987743,122.614583 C296.595595,122.183546 296.111699,121.722505 295.530986,121.769046 C295.089549,121.804425 294.732432,122.12784 294.412272,122.433954 C287.49983,129.04315 280.587388,135.652346 273.674945,142.261541 Z M268.0293,44.7769415 C267.400322,44.2329898 266.678902,43.678071 265.847638,43.6924643 C260.987633,43.776617 256.11589,43.148794 251.435835,41.8352115 C249.979599,45.8336123 247.770892,49.5562465 244.959869,52.7500395 C246.31674,52.594313 247.67361,52.4385865 249.030481,52.28286 C249.914283,52.1814268 250.930548,52.122608 251.563476,52.748044 C252.196403,53.37348 251.694043,54.826103 250.849004,54.5479478 C246.974578,53.2726298 242.849243,55.2130278 239.233733,57.1018385 C237.13349,58.1990458 235.033247,59.2962528 232.933003,60.39346 C234.082492,60.1435703 234.936581,61.9943065 234.000953,62.7076125 C232.347641,61.5683138 230.004901,60.8271435 228.419012,62.0586518 C227.315482,62.9155888 227.004956,64.6370748 227.73947,65.8258875 C228.473984,67.0147003 230.151933,67.5063933 231.411432,66.9018905 C231.998352,66.620195 232.518171,66.129798 233.167972,66.09093 C233.817773,66.0520618 234.466648,66.9243108 233.957928,67.3306553 C232.826739,68.234201 232.880867,69.9454035 233.087582,71.3787435 C234.271226,79.5860323 237.818262,88.3906508 245.391409,91.7601048 C247.890616,92.872055 250.639368,93.293591 253.364028,93.5334695 C256.689761,93.8262663 260.083789,93.8595808 263.318931,93.0345533 C271.826157,90.8650355 278.06239,82.6633385 279.151596,73.947657 C279.459998,71.4798738 279.449322,68.8466245 280.754945,66.7302985 C280.217018,66.3114763 280.18209,65.3935465 280.686634,64.9350188 C281.191178,64.476491 282.101089,64.5992393 282.466231,65.175089 C282.968143,65.9666343 284.285979,65.7585073 284.85639,65.014854 C285.4268,64.271201 285.457641,63.2585718 285.44479,62.321266 C285.4278,61.0820645 285.041057,59.4686928 283.805491,59.3804358 C282.331114,59.27512 281.566005,61.5748413 280.088768,61.5234828 C277.446137,55.1034948 273.27945,49.31737 268.0293,44.7769415 Z M249.260597,40.322877 C249.603706,39.187464 251.239317,39.3357803 252.374771,39.6770773 C263.948596,43.155973 277.045159,41.143653 287.04218,34.3503445 C289.944557,32.3780823 292.653945,29.948927 294.219866,26.807692 C297.268332,20.692475 295.045006,12.6322243 289.649902,8.44146575 C284.254798,4.250707 276.356744,3.92549975 270.300632,7.08551425 C266.814533,8.904523 263.950112,11.7015265 261.21021,14.5227265 C258.896047,16.9055548 256.551136,19.4734395 255.683641,22.6804918 C255.453967,23.5295758 255.20966,24.557141 254.377122,24.8398878 C252.34673,25.5294493 251.751752,20.975575 249.625676,21.2537733 C249.244472,21.303654 248.907184,21.5203808 248.598679,21.7498985 C245.595332,23.98429 244.119278,28.0887778 245.011297,31.7253918 C244.369996,32.1930203 243.433943,31.8917625 242.842703,31.3621983 C242.251463,30.832634 241.85642,30.1137338 241.273416,29.5751065 C239.993467,28.3925835 237.979045,28.2913975 236.36065,28.936741 C234.742256,29.5820845 233.454231,30.84932 232.330442,32.1812713 C227.135545,38.3384265 224.581932,47.14636 227.372386,54.7047783 C228.172335,56.8715768 230.199645,59.2158193 232.360051,58.401184 C240.354283,55.3867588 246.788208,48.5044675 249.260597,40.322877 Z M268.639262,143.246667 C280.057003,133.606854 290.659442,123.000737 300.296166,111.578781 C302.001807,109.557166 303.723808,107.420998 304.3846,104.859374 C305.429507,100.808683 303.604378,96.5578595 301.228085,93.1156655 C296.666042,86.5072868 289.86893,81.473299 282.219478,79.0377593 C281.537117,78.8204995 280.56421,78.7569845 280.331856,79.4346533 C279.136487,82.921004 277.112196,86.1197805 274.473568,88.6918938 C273.643249,89.501282 272.678493,90.4200203 272.743538,91.578027 C273.242612,100.463142 273.741685,109.348257 274.240759,118.233373 C274.542705,123.60898 274.823483,129.146805 273.057293,134.232661 C272.360557,136.238956 271.360294,138.123741 270.364092,139.999307 C269.789149,141.08176 269.214206,142.164214 268.639262,143.246667 Z M258.624364,143.490515 C256.691686,141.449819 254.759008,139.409124 252.82633,137.368428 C250.853435,135.285268 248.855757,133.168053 247.512671,130.632301 C245.125578,126.125459 245.043561,120.795917 245.016323,115.695457 C244.98312,109.478066 244.949918,103.260674 244.916715,97.0432828 C244.903242,94.5205018 242.744722,92.5841135 240.681848,91.1332563 C238.618974,89.682399 236.300015,88.136966 235.667682,85.6947605 C235.408871,84.695176 234.226694,84.1705725 233.20228,84.2961245 C232.177864,84.4216763 231.283819,85.0262143 230.439595,85.6201883 C224.901207,89.5168533 219.355125,94.0060963 216.76458,100.264714 C216.033588,102.030751 215.554888,103.94531 215.738159,105.847975 C216.113312,109.742696 219.101284,112.812545 221.975208,115.466257 C233.290518,125.914536 245.577009,135.309564 258.624364,143.490515 Z M247.608006,108.895829 C247.351176,112.227285 247.292336,115.574009 247.4319,118.912441 C247.587578,122.636336 248.023975,126.463248 249.807301,129.735599 C251.012528,131.947156 252.774332,133.795088 254.515227,135.614785 C257.027588,138.240869 259.539948,140.866953 262.05231,143.493038 C262.599536,144.065034 263.278062,144.685632 264.061256,144.57189 C264.641192,144.487666 265.079825,144.018292 265.450183,143.563924 C269.173497,138.996021 271.028443,133.134067 271.680753,127.276041 C272.333063,121.418015 271.862092,115.49966 271.390653,109.624294 C271.363129,109.281268 271.294709,108.876086 270.982921,108.730766 C270.685797,108.592283 270.346066,108.774577 270.065996,108.94496 C263.337287,113.038439 254.318759,113.018708 247.608006,108.895829 L247.608006,108.895829 Z M247.701599,94.6649144 C246.681101,95.5684806 246.539259,97.446084 246.64696,98.8052225 C246.78921,100.60034 246.973839,102.392096 247.20064,104.178492 C247.283255,104.829206 247.377451,105.497549 247.701599,106.067711 C248.14948,106.855512 248.972232,107.347529 249.784335,107.749109 C256.05431,110.849569 263.93014,110.4213 269.827312,106.659218 C270.175158,106.437311 270.52887,106.19146 270.728678,105.830356 C270.945121,105.43919 270.950278,104.969977 270.950018,104.522871 C270.947748,100.620499 270.945477,96.7181275 270.943206,92.815756 C270.942962,92.3952433 270.850409,92.039616 269.98406,92.5580328 C264.118794,96.0677642 250.01952,95.1094094 247.701599,94.6649144 Z M280.967934,43.4197175 C278.440997,44.1528395 275.91406,44.8859615 273.387123,45.6190835 C273.040005,45.7197903 272.674591,45.8315208 272.430114,46.0978355 C272.761932,46.8894295 273.666305,47.3167928 274.523963,47.3398915 C275.38162,47.36299 276.210585,47.0599415 277.014828,46.7609575 C279.191413,45.951794 281.393883,45.1342578 283.700932,44.871166 C284.088209,44.31027 283.615998,43.4850993 282.971859,43.2628083 C282.327721,43.040517 281.622355,43.229855 280.967934,43.4197175 Z M284.317613,48.1458848 C284.87174,48.1805455 285.281054,47.5061953 285.119113,46.9748678 C284.957172,46.4435405 284.398155,46.1124268 283.846403,46.050532 C283.294652,45.9886375 282.74391,46.1428925 282.211168,46.2993108 C279.998219,46.949054 277.804272,47.663572 275.633076,48.4416435 C275.382137,48.53157 275.076862,48.7168655 275.142008,48.9754588 C275.419177,49.8967673 276.574018,50.2814043 277.519572,50.1060285 C278.465127,49.930653 279.282519,49.36308 280.151101,48.9501245 C281.442374,48.3362053 282.890743,48.0566343 284.317612,48.1458848 L284.317613,48.1458848 Z M285.985989,49.9708028 C285.90216,49.60829 285.738916,49.2305205 285.411677,49.053717 C285.053091,48.859977 284.613336,48.9634138 284.221093,49.074049 C282.503971,49.5583763 280.801832,50.0958783 279.117935,50.6855263 C278.539645,50.8880253 277.873862,51.1996338 277.779241,51.8052668 C277.681897,52.4283308 278.31395,52.9696875 278.941665,53.0269708 C279.56938,53.0842543 280.172869,52.806462 280.74919,52.551077 C282.366256,51.8345068 284.285292,51.255951 285.846378,52.0875505 C286.098383,51.415964 286.147603,50.6696968 285.985989,49.9708028 Z M272.885883,44.476415 C275.691075,43.6919123 278.496267,42.9074098 281.301459,42.122907 C281.668338,42.0203053 282.09844,41.8525228 282.170127,41.478203 C281.766247,40.875111 280.980764,40.6242168 280.256146,40.6617973 C279.531529,40.6993778 278.844301,40.976996 278.165522,41.2335218 C275.581348,42.2101408 272.900171,42.9296313 270.174365,43.3779403 C270.051098,43.9562345 270.568656,44.5136185 271.142613,44.6546325 C271.71657,44.7956465 272.316692,44.6355955 272.885883,44.476415 Z M286.141266,53.263987 C285.987219,53.1362515 285.781771,53.0929213 285.584319,53.0606008 C283.332398,52.6919873 280.942031,53.2590753 279.095293,54.6000503 C279.172905,55.1683933 279.714782,55.5827805 280.27629,55.6987273 C280.837797,55.8146743 281.418142,55.6965818 281.97925,55.5787105 C282.929788,55.3790308 283.880327,55.1793515 284.830866,54.9796723 C285.274196,54.8865423 285.742662,54.7805135 286.068628,54.465792 C286.394593,54.1510708 286.490046,53.553194 286.141266,53.263987 Z M286.526621,55.941517 C284.964333,55.9289698 283.400254,56.179796 281.920152,56.6802408 C281.522623,56.814651 281.113871,56.9787295 280.841193,57.297827 C280.392738,57.8226238 280.485191,58.718034 281.031404,59.1400285 C281.786036,58.207291 282.692355,57.1947415 283.89095,57.1501505 C284.521342,57.1266983 285.149289,57.3855768 285.77197,57.2844785 C286.394652,57.18338 286.959404,56.4007008 286.526622,55.9415173 L286.526621,55.941517 Z"/>
    <path fill="#000" d="M261.331312 84.8265907C260.701888 84.7814105 260.008927 84.6219967 259.655187 84.099168 259.301447 83.576339 259.630577 82.6517805 260.258951 82.7097757 261.990587 82.8695957 263.76177 82.5797105 265.352241 81.8761695 265.982809 81.5972392 266.608392 81.2335172 266.988924 80.6583107 267.369455 80.0831042 267.434191 79.251507 266.978667 78.7337215 266.507518 78.1981775 266.100132 77.4776495 266.322336 76.799725 266.54454 76.1218002 267.704908 75.9005425 267.925769 76.5789062 268.3985 78.0308782 270.31151 78.7963945 271.654662 78.071072 272.119672 77.8199592 272.692376 78.404268 272.597598 78.9243762 272.50282 79.4444845 272.000118 79.7931285 271.498252 79.9586207 270.996385 80.1241132 270.455598 80.1676202 269.973164 80.383338 269.180252 80.737885 268.661769 81.4963485 268.075679 82.1375907 266.385885 83.9864005 263.82892 85.0058705 261.331312 84.8265907zM262.377458 71.717981C263.840075 72.5582485 264.349854 74.5788422 263.766931 76.1622752 263.184009 77.745708 261.722139 78.8843332 260.131798 79.4462315 258.541458 80.00813 256.821116 80.0667262 255.134708 80.0415615 254.362632 80.0300405 253.563874 79.9957857 252.870575 79.6556622 252.177276 79.3155387 251.615394 78.5871235 251.710485 77.8204635 252.675429 70.0407585 253.662006 62.172078 256.46119 54.850007 256.6726 54.2970042 256.941817 53.696437 257.4832 53.4573405 258.024583 53.218244 258.830572 53.682392 258.650161 54.24628 256.354818 61.4205377 254.910744 68.8670087 254.357922 76.3795197 254.309062 77.0434917 254.878609 77.6255972 255.514479 77.8218687 256.150348 78.0181402 256.834969 77.9209582 257.49303 77.822063 258.813541 77.6236117 260.237955 77.3730097 261.156176 76.403017 262.074396 75.4330242 262.017516 73.49566 260.758016 73.051872 260.20507 72.85704 260.228839 71.9598137 260.712983 71.6290827 261.197126 71.2983517 261.869076 71.425917 262.377458 71.7179807L262.377458 71.717981z"/>
    <path fill="#000" fill-rule="nonzero" d="M247.851947 60.7603762C248.817788 62.395693 248.506628 64.6776102 247.13825 65.9943225 246.563362 66.5475042 245.758785 66.9447075 244.978231 66.7804932 243.485473 66.4664435 243.099973 64.4910907 243.337165 62.9835027 243.48445 62.047358 243.76818 61.089671 244.421382 60.4033832 245.074583 59.7170955 246.177729 59.389087 247.001107 59.8575585 247.364608 60.0643777 247.639213 60.4001865 247.851946 60.7603762L247.851947 60.7603762zM246.826532 62.35568C246.881073 61.8061835 246.217039 61.3293005 245.714124 61.5567917 245.211209 61.784283 245.130435 62.5980762 245.578809 62.9200815 246.027184 63.2420865 246.771991 62.9051765 246.826532 62.35568zM268.811453 62.1798417C269.264177 63.2014257 269.298876 64.438203 268.750849 65.4119412 268.202822 66.3856797 267.025808 67.0143702 265.934591 66.7758912 264.861018 66.5412692 264.059575 65.511903 263.938861 64.419131 263.818148 63.326359 264.305977 62.2203175 265.082487 61.442385 265.584912 60.9390387 266.262599 60.5410642 266.970421 60.608383 267.81277 60.6884965 268.46849 61.4059382 268.811453 62.1798417zM266.490289 63.7709635C267.015748 63.7458382 267.460296 63.216738 267.394707 62.6945282 266.575273 62.4266475 265.598783 63.1406115 265.604997 64.0030795 265.864214 64.2170237 266.303508 64.1525615 266.490401 63.8731547L266.490289 63.7709635z"/>
    <path fill="#000" d="M265.589251 54.2166652C266.207079 53.96814 266.886924 53.9341865 267.552103 53.9033042 268.922678 53.8396725 270.293253 53.7760405 271.663829 53.7124087 271.957508 53.698774 272.271203 53.689969 272.522139 53.8432245 273.058836 54.1710045 272.937968 55.0553645 272.451619 55.45411 271.96527 55.8528552 271.290105 55.902235 270.662126 55.9341952 269.046662 56.0164132 267.431197 56.098631 265.815732 56.1808485 265.493618 56.1972422 265.140951 56.204652 264.885424 56.0077502 264.267629 55.531694 264.865746 54.5077 265.589251 54.2166652zM247.878163 70.3269172C246.861813 71.4959515 245.071865 71.5626457 243.547324 71.290397 242.869079 71.1692777 242.02681 70.756669 242.147965 70.0781085 242.227843 69.6307262 242.7286 69.3739145 243.18273 69.3638802 243.636861 69.353846 244.07545 69.5169982 244.525246 69.5804215 245.476305 69.7145247 246.482624 69.3717437 247.154313 68.684886 247.478673 68.3532017 248.110323 68.6098365 248.254242 69.050964 248.39816 69.4920915 248.182552 69.976799 247.878163 70.326917L247.878163 70.3269172zM265.120729 69.4702887C266.026162 69.222827 266.931594 68.9753655 267.837027 68.7279037 268.116134 68.6516215 268.421725 68.5768675 268.686566 68.6934285 269.117282 68.882993 269.197003 69.5098627 268.951324 69.9113785 268.705645 70.312894 268.248462 70.5294937 267.804078 70.6842902 267.072022 70.939295 266.302677 71.0868685 265.528262 71.120831 264.886898 71.1489587 264.018992 70.8428715 264.128164 70.2099322 264.202474 69.7791082 264.699196 69.5854967 265.120729 69.4702885L265.120729 69.4702887zM234.380815 36.850104C234.570818 36.431274 234.807419 35.974018 235.241975 35.8239155 235.676531 35.673813 236.264967 36.1256012 236.045941 36.5299965 233.961594 40.3783987 232.455398 44.5395885 231.593473 48.8308955 231.370492 49.9410617 231.047735 51.2432907 229.994062 51.6567192 229.595395 51.2857067 229.686399 50.6421957 229.814452 50.1127365 230.915244 45.5613287 232.4464 41.1142112 234.380815 36.850104zM237.540743 50.8326305C237.410171 50.9548 237.261982 51.0827632 237.083305 51.0886097 236.52713 51.1068082 236.639072 50.2131762 236.970617 49.7660357 238.191085 48.120049 239.613926 46.6244182 241.196855 45.3235917 241.690258 45.4430317 241.517043 46.1910415 241.224071 46.6058115 240.143951 48.134969 238.907681 49.5536562 237.540743 50.8326305zM264.162184 38.1511482C263.957431 38.151752 263.735572 38.1413077 263.577002 38.011707 263.407993 37.8735745 263.359933 37.6081635 263.469764 37.4194892 263.600526 37.194857 263.885122 37.1220838 264.140378 37.0735473 265.572079 36.801312 267.025678 36.6444388 268.482472 36.6049465 268.892273 36.7826903 268.440311 37.3786163 268.016555 37.5198595 266.776162 37.9332967 265.469595 38.1472932 264.162184 38.1511482zM281.081298 18.3087005C279.288013 18.4594322 277.587649 19.4785815 276.608768 20.989407 276.471217 21.201706 276.343761 21.434951 276.338775 21.6879032 276.330873 22.0887512 276.628269 22.42811 276.939764 22.6803347 278.629687 24.0487012 281.32321 23.9598335 282.919354 22.4830495 284.996308 20.5614102 284.819297 17.0645442 283.308827 14.6714482 282.824372 13.9039067 282.205573 13.1919645 281.398017 12.7781267 280.039126 12.081752 278.394252 12.336706 276.932318 12.7771477 272.772022 14.030534 269.047972 16.688242 266.509078 20.2158037 266.288452 20.5223432 265.743681 20.2880857 265.66033 19.9196622 265.576979 19.551239 265.785724 19.1848852 265.999667 18.8736402 267.703951 16.3942395 270.235253 14.6096247 272.834199 13.0951217 274.454246 12.1510595 276.160448 11.277211 278.012482 10.985684 279.864516 10.694157 281.903358 11.063627 283.270999 12.3466327 284.176564 13.1961567 284.717151 14.3666207 285.08207 15.5537372 285.710884 17.5993275 285.853662 19.9072502 284.873981 21.8097532 283.434699 24.604784 279.502163 25.7560512 276.783939 24.1781482 276.255798 23.8715677 275.766222 23.4692755 275.463882 22.9385225 274.808761 21.7884632 275.199288 20.2558942 276.092468 19.2793242 276.985649 18.3027545 278.274149 17.7875337 279.55415 17.4525192 279.917887 17.3573182 280.311127 17.2754777 280.662263 17.4099402 281.0134 17.5444027 281.270577 17.983683 281.081298 18.3087005z"/>
    <path fill="#F9CD68" d="M297.184865,122.832274 C310.039571,137.095066 315.605139,156.389207 319.789187,175.144643 C320.1649,176.828818 320.533571,178.576964 320.174817,180.264837 C319.816063,181.952709 318.521778,183.569327 316.804402,183.728932 C308.711748,184.481028 300.57092,184.4974 292.443442,184.513169 C266.391932,184.563716 240.340421,184.614262 214.288911,184.664809 C213.863473,184.646951 213.438056,184.574503 213.129121,184.295367 C212.744765,183.948085 212.658893,183.386274 212.604241,182.871017 C211.808531,175.36914 212.673704,167.799401 213.625055,160.315687 C215.239688,147.614335 217.357121,134.32396 225.155102,124.171825 C225.571803,123.629326 226.124638,123.08587 226.724266,122.682602 C235.455121,130.586382 244.910116,137.689152 254.932024,143.872621 C258.253354,145.921866 262.034459,147.943225 265.855381,147.254967 C266.976527,147.439035 268.111618,147.449447 269.249573,147.215432 C272.256907,146.59699 274.644523,144.383778 276.864135,142.261541 C283.637712,135.785119 290.411289,129.308696 297.184866,122.832273 Z"/>
    <path fill="#F9CD68" d="M283.507136 79.4750983C290.629567 82.0469337 296.923694 86.8805107 301.228085 93.1156655 303.604378 96.5578595 305.429507 100.808683 304.3846 104.859373 303.723808 107.420997 302.001807 109.557166 300.296166 111.578781 292.341149 121.007489 283.728062 129.880256 274.541514 138.112445 275.183886 136.850963 275.78249 135.568756 276.246482 134.232661 278.012672 129.146805 277.731894 123.608979 277.429948 118.233372 276.930875 109.348257 276.431801 100.463142 275.932727 91.578027 275.867682 90.4200202 276.832438 89.501282 277.662757 88.6918937 280.291178 86.12973 282.310007 82.9457418 283.507136 79.4750983zM235.004686 84.750167C235.323853 84.9853411 235.56643 85.3037019 235.667682 85.6947605 236.300015 88.136966 238.618974 89.682399 240.681848 91.1332562 242.744722 92.5841135 244.903242 94.5205017 244.916715 97.0432827 244.949918 103.260674 244.98312 109.478065 245.016323 115.695457 245.043561 120.795916 245.125578 126.125459 247.512671 130.632301 248.855757 133.168052 250.853435 135.285267 252.82633 137.368428 253.018079 137.570894 253.209829 137.77336 253.401578 137.975826 243.461992 131.168498 234.016038 123.639645 225.164397 115.466257 222.290473 112.812544 219.302501 109.742695 218.927348 105.847975 218.744077 103.945309 219.222777 102.030751 219.953769 100.264714 222.544314 94.0060962 228.090396 89.5168532 233.628784 85.6201882 234.069979 85.309775 234.524781 84.9964766 235.004686 84.750167z"/>
    <g transform="translate(46 17)">
      <path fill="#000" fill-rule="nonzero" d="M66.1632517,5.20112126 C69.7731532,6.80624818 73.2943892,8.73509838 76.1672354,11.4425379 C78.3874192,13.5348926 80.1717691,16.0474576 81.7322013,18.6665235 C90.9096638,34.0701905 92.3894051,52.8685885 91.1952623,70.7473718 C90.9863381,73.8753948 89.9492895,77.8290336 86.8277154,78.1942481 C78.8176041,79.1314063 70.8074931,80.0685646 62.7973821,81.0057229 C61.4356927,81.1650364 59.9846709,81.3621601 58.9488619,82.2580939 C56.9544481,83.983183 57.6523817,87.4228021 59.5590605,89.2439147 C61.465739,91.0650273 64.1362186,91.7810547 66.5916411,92.7479936 C80.339469,98.1618516 88.5588006,112.37749 92.9186041,126.464311 C96.8553864,139.184322 98.5232735,152.599419 97.8207739,165.893289 C97.7837822,166.593307 97.7072468,167.366274 97.192237,167.843247 C96.6522554,168.343349 95.82938,168.337143 95.0932278,168.30494 C64.7210056,166.976298 34.107384,172.16579 3.99221781,168.014322 C3.10417169,167.891902 1.9573039,167.442321 2.0808769,166.556656 C4.03608208,152.543792 6.27970131,138.416148 11.625573,125.311532 C16.9714445,112.206916 25.7464182,100.046653 38.1219624,93.1336222 C38.8667969,92.7175544 39.6557981,92.2913956 40.113828,91.5728263 C40.5307339,90.9187743 40.6134397,90.1132477 40.6675317,89.3400736 C40.8905785,86.1519275 40.8128197,82.9429104 40.4356175,79.769235 C28.3852668,80.6308258 16.2641523,80.5057235 4.23425599,79.3955993 C3.5700574,79.3343066 2.86531714,79.2542535 2.34285917,78.8406145 C1.71931768,78.3469458 1.5114196,77.5070608 1.35466346,76.7285467 C-3.2525928,53.8470594 4.09001804,28.9042601 20.3682091,12.1396603 C23.6751979,8.73385515 27.3668062,5.62182062 31.6417205,3.54861392 C42.342276,-1.64083827 55.295826,0.368968599 66.1632517,5.20112126 Z M20.6670094,40.3291403 C20.6701717,39.851989 20.6782947,39.3539808 20.9000152,38.931164 C21.2412813,38.2803769 21.9906851,37.9730227 22.6826259,37.7219238 C30.3301249,34.9467199 38.2354291,32.8787791 46.2640948,31.5532705 C48.1339792,31.2445586 50.0620825,30.9583433 51.6985955,30.0047048 C53.3351082,29.0510664 54.6297325,27.2422652 54.368695,25.369791 C54.221513,24.3140412 55.9709639,23.975451 56.701869,24.7530473 C57.4327742,25.5306437 57.4602721,26.7047982 57.6888319,27.7460391 C57.9173914,28.7872802 58.6593102,29.9437488 59.7230164,29.8415195 C63.6679848,29.462382 67.6129529,29.0832445 71.5579212,28.704107 C72.9102811,28.5741364 74.6764662,28.701214 75.0709664,29.9979844 C76.4004883,34.3682887 76.1978796,39.186343 74.5061129,43.4302432 C76.7652763,42.3308442 79.4269088,44.5794152 79.9701506,47.0274516 C80.6276697,49.9904596 79.1596071,53.2983142 76.5184755,54.8048042 C75.938943,55.135367 75.3014036,55.3940232 74.8313074,55.8668379 C74.3701812,56.330631 74.1163935,56.9543186 73.8546439,57.5530623 C71.1748883,63.6829187 66.4563797,68.9054717 60.6217832,72.1994946 C58.707778,73.2800796 56.3151272,74.9091203 56.9313953,77.0149602 C57.5301615,79.0609937 60.3350963,79.229065 62.4571984,78.9789119 C69.9680531,78.0935333 77.4789077,77.2081547 84.9897623,76.3227758 C86.0348728,76.1995785 87.170301,76.0330638 87.8944475,75.2713868 C88.5981905,74.5311704 88.7205284,73.4298041 88.7993205,72.4127128 C90.1949465,54.3972275 89.0878139,35.3505108 79.7990527,19.83748 C78.136578,17.0610042 76.2073219,14.406982 73.7661735,12.2786685 C71.1740943,10.0187662 68.0776202,8.41302842 64.9280807,7.02639836 C56.0252359,3.1067926 45.8007042,0.789448684 36.5832339,3.90252466 C32.1697961,5.39310367 28.2332214,8.0538006 24.7172174,11.1036718 C15.8132927,18.8271619 9.35245832,29.1953876 5.77001843,40.4096517 C2.18757829,51.6239159 1.42995793,63.6549116 2.97099545,75.3239092 C3.02674996,75.7460923 3.09329651,76.1877378 3.34770416,76.5296992 C3.76545556,77.091219 4.54408038,77.2131316 5.24122048,77.2866381 C15.8723828,78.4075909 26.594471,78.6694366 37.2678926,78.0687663 C29.8822054,75.5093648 24.187321,68.6287442 23.0665147,60.9105093 C22.9345711,60.0019031 21.6539514,59.9959794 20.7336113,59.9827289 C18.7674275,59.954422 16.9472163,58.7027888 15.9129936,57.0346119 C14.8787708,55.3664348 14.5526759,53.3388701 14.6388393,51.3793819 C14.7105783,49.747928 15.0950219,48.045608 16.1991574,46.8398475 C17.3032929,45.6340869 19.2781044,45.1197134 20.6291476,46.0420717 C20.6417682,44.1377613 20.6543888,42.2334508 20.6670094,40.3291403 Z M95.0793237,165.01834 C96.3453488,154.91913 94.9135362,144.656006 92.5472724,134.755601 C90.4283502,125.890069 87.5018943,117.083587 82.4425712,109.494232 C77.3832485,101.904878 69.9862998,95.5800567 61.1622238,93.2142457 C59.7122391,115.963989 58.6974622,138.741329 58.118632,161.529686 C58.0902044,162.648865 58.0700435,163.807972 58.509094,164.838303 C58.9481446,165.868634 59.9808854,166.736573 61.0966182,166.614719 C71.848915,165.440408 82.7121499,165.278775 93.494779,166.132666 C93.9607093,166.169564 94.5017537,166.179679 94.807895,165.827398 C94.9975491,165.609163 95.0433996,165.304921 95.0793252,165.018341 L95.0793237,165.01834 Z M61.0216079,68.9243457 C63.2851702,67.2899494 65.5023556,65.5591019 67.3555879,63.4729839 C69.5747409,60.9749623 71.2375797,57.9879207 72.190154,54.7884077 C72.4714164,53.8437023 73.2081334,52.6151783 74.0945944,53.0503386 C75.2008223,53.5933817 76.5994617,52.8988964 77.2372846,51.8464444 C77.8751073,50.7939925 77.9391577,49.5026085 77.9446241,48.2728237 C77.9517984,46.6588638 77.1137489,44.4280134 75.5612275,44.8828515 C74.938441,45.0653073 74.5413688,45.6575877 74.0174588,46.03981 C73.4935489,46.4220324 72.5659706,46.4703504 72.3593107,45.8566027 C72.8122365,43.0176326 73.2651624,40.1786625 73.7180885,37.3396924 C73.9456144,35.913544 74.1691467,34.4252114 73.7302939,33.0490599 C73.2914412,31.6729082 71.9702921,30.4607561 70.5355796,30.6543864 C67.6981683,31.037326 64.8607572,31.4202654 62.0233459,31.803205 C60.7430242,31.9759985 59.4077169,32.1440538 58.1849953,31.727763 C56.9622734,31.3114721 55.9010312,30.1184363 56.0920646,28.8439087 C55.5300342,28.7340512 55.2165334,29.4416542 54.9820481,29.9628393 C53.9872761,32.1738926 51.1925752,32.7869023 48.794723,33.1779105 C41.0274892,34.4444787 33.3572724,36.3025347 25.8728383,38.7305749 C24.9458545,39.0312997 23.9592112,39.3854404 23.3945174,40.1779692 C22.9476877,40.80508 22.8419728,41.604381 22.7495348,42.3681913 C22.4395349,44.9296994 22.129535,47.4912075 21.8195351,50.0527154 C20.5525133,50.3747756 20.1191397,47.9510907 18.8132645,47.8857731 C17.8613204,47.8381584 17.4230363,49.032538 17.2768526,49.9719987 C16.9830788,51.8599569 16.7155313,53.9100834 17.6427923,55.5818543 C18.5700531,57.2536253 21.2289369,58.0270766 22.400816,56.5158036 C22.9118883,55.8567172 23.8391924,56.8225737 24.0796729,57.6205228 C26.0161559,64.0460656 28.5578565,70.9713746 34.3587227,74.3684134 C38.5066168,76.7974569 43.7120694,76.9316018 48.3429862,75.6348778 C52.9739032,74.3381538 57.1253835,71.7375997 61.0216079,68.9243457 Z M21.1008742,113.188172 C11.2083414,129.032819 5.74089602,147.594881 5.46894146,166.258826 C15.1993394,166.62554 24.9297373,166.992255 34.6601352,167.35897 C36.0635134,167.41186 37.9929495,166.974612 37.9225776,165.575574 C37.0490517,148.20966 37.4034114,130.808232 37.7580002,113.424072 C37.8745885,107.708184 37.9911766,101.992296 38.1077648,96.2764074 C30.7653636,99.7305517 25.3923014,106.314689 21.1008742,113.188172 Z M58.8665202,98.1255134 C55.8619457,99.6862092 52.541608,100.819107 49.1557701,100.710682 C45.7699323,100.602256 42.3137823,99.0981885 40.4381299,96.2844552 C39.3496714,119.573756 39.3101916,142.911808 40.3198495,166.20464 C40.3366607,166.592477 40.3779062,167.030197 40.6819007,167.272594 C40.938509,167.477207 41.2987985,167.472217 41.6269878,167.457412 C45.5577428,167.280102 49.4884979,167.102792 53.419253,166.925482 C54.1104632,166.894302 54.8784139,166.829024 55.3451074,166.319499 C55.7744395,165.850763 55.8089863,165.154833 55.8208249,164.520042 C56.2339695,142.366493 57.2496997,120.224128 58.8665202,98.1255134 Z M54.4947628,79.363619 C53.8033317,78.7557073 53.1119004,78.1477954 52.4204693,77.5398838 C51.9890927,77.1606142 51.3137763,76.7791188 50.9036278,77.1811362 C50.5279134,77.5494023 50.8021482,78.17742 51.0904481,78.6171564 C51.5247561,79.2795949 51.9590639,79.9420332 52.3933717,80.6044717 C51.9089085,81.0067549 51.1426514,80.6643988 50.7675817,80.1590473 C50.392512,79.6536961 50.2215225,79.0137968 49.8106274,78.5369675 C49.3997325,78.0601384 48.5590568,77.8361591 48.1733851,78.3335077 C47.8742902,78.7323674 48.1987755,79.3048889 48.5902995,79.6140503 C48.9818234,79.9232119 49.4778531,80.176299 49.635133,80.6490358 C49.792413,81.1217723 49.182758,81.7383986 48.8397683,81.3763928 C48.3574669,80.8673518 47.8751658,80.3583111 47.3928644,79.8492701 C47.0193751,79.4550739 46.6276534,79.0484739 46.1191265,78.8564004 C45.6105999,78.6643265 44.9500574,78.756533 44.6530529,79.2108585 C45.6969526,80.3345513 46.7408522,81.4582441 47.7847519,82.5819368 C47.6950801,83.0946391 46.9045908,82.9254429 46.4954276,82.6024844 C45.3231924,81.6772225 44.3303906,80.5266319 43.5876987,79.2326218 C43.4173835,78.9358778 42.9064382,79.0705352 42.7738856,79.3858698 C42.6413331,79.7012041 42.7669665,80.0620872 42.9175199,80.3692769 C43.260256,81.0685955 43.7362798,81.7026355 44.3126116,82.2274689 C44.6301994,82.5166779 44.9964896,82.8008808 45.1103172,83.2145221 C45.224145,83.6281634 44.8860438,84.17461 44.4709978,84.0623405 C44.2181245,83.2199328 43.5796213,82.5010773 42.7716845,82.1491775 C42.7153418,86.2632117 42.6589994,90.3772459 42.602657,94.4912798 C42.595453,95.017309 42.5922478,95.5633622 42.8111343,96.0419968 C43.0449263,96.5532248 43.5045379,96.9244691 43.9783205,97.2284562 C46.8843828,99.0930373 50.6975305,99.0134582 53.9763185,97.9257282 C55.8424949,97.3066293 57.851752,96.0365645 57.9565534,94.0776812 C57.9926588,93.4028179 57.7879661,92.7413279 57.5994265,92.092197 C56.3820278,87.9007703 55.752891,83.5398055 55.7360724,79.1760588 C55.7328295,78.3346094 55.7303246,77.4230043 55.2207116,76.752433 C54.7110988,76.0818618 53.4782937,75.9388672 53.1103082,76.6960488 C54.1691087,77.038728 54.825495,78.3034544 54.4947628,79.363619 Z"/>
      <path fill="#000" d="M11.9979408 66.1329905C12.1553632 68.9867785 12.3127857 71.8405664 12.4702083 74.6943544 12.4969927 75.1799066 12.3389728 75.8581136 11.8536135 75.8122728 11.2004994 72.519853 10.9555908 69.1470797 11.1262355 65.7951494 11.1568092 65.1945987 11.3127939 64.4516888 11.8970095 64.3032902 11.9306534 64.9131903 11.964297 65.5230904 11.9979408 66.1329905zM80.00509 72.2319068C79.6198216 69.5512854 79.6575222 66.8106143 80.1163801 64.1415454 80.2075797 63.6110583 80.5206301 62.9355264 81.0489278 63.0451401 80.9676123 65.045825 80.8862969 67.0465099 80.8049814 69.0471949 80.7597783 70.1593701 80.6869844 71.350796 80.0050907 72.2319073L80.00509 72.2319068zM16.2956086 68.9844598C16.3792008 70.3212522 16.4627927 71.6580446 16.5463849 72.994837 16.6028633 73.8980297 16.6577397 74.8192403 16.429546 75.6950961 14.9872571 72.8677112 14.7921366 69.4343677 15.9048496 66.4625191 16.186639 67.2683656 16.2423441 68.132658 16.2956093 68.9844598L16.2956086 68.9844598zM8.05114668 62.7218159C8.35079195 62.877849 8.36519304 63.2924238 8.34274336 63.6288382 8.07277409 67.6743697 8.3919363 71.7585469 9.2871106 75.7134903 9.37291043 76.0925597 8.78819649 76.3241669 8.46892787 76.1014458 8.149659 75.878725 8.06329581 75.4522983 8.00536171 75.0680088 7.44703899 71.3645343 7.16246733 67.6200299 7.1547192 63.8749266 7.15349958 63.2854172 7.52722747 62.4489974 8.05114668 62.7218164L8.05114668 62.7218159zM70.6025892 69.6705939C70.6095463 71.4506392 70.6165035 73.2306844 70.6234607 75.0107299 70.6248115 75.3563119 70.4597431 75.8404361 70.1261816 75.7469889 69.9423083 75.6954767 69.8630067 75.4840067 69.8150209 75.2996165 69.1970827 72.9251311 69.3401489 70.3597028 70.2182936 68.068224 70.5805183 68.49761 70.6003963 69.1094294 70.6025902 69.6705937L70.6025892 69.6705939zM29.983492 34.2002117C29.1423366 33.6244018 29.0932172 32.4262592 29.1301729 31.4093348 29.1838092 29.9334071 29.2975726 28.3105817 30.3328525 27.254702 30.6343139 27.6426583 30.5988349 28.1850939 30.5488821 28.6734006 30.3604181 30.5156709 30.171955 32.3579414 29.983492 34.2002117zM32.8734312 28.5458584C32.7111784 29.8468713 32.5489258 31.1478842 32.3866732 32.4488971 32.2365177 32.5927529 32.0043091 32.6447658 31.8069056 32.5787609 31.1427799 30.7472859 31.4211122 28.6029075 32.5309417 27.000512 32.9688863 27.3402355 32.941917 27.9967099 32.8734319 28.5458584L32.8734312 28.5458584zM74.4400196 67.6420624C74.5137091 69.2976289 74.5474175 70.9549658 74.5411064 72.6121511 74.5389165 73.1871476 74.2336411 73.9927985 73.6891611 73.8039122 73.4803218 72.1664822 73.4314602 70.5087924 73.543493 68.8619531 73.5824963 68.2886219 73.8754703 67.5274746 74.4400196 67.6420624zM65.2641396 22.9748734C65.2943211 22.6982321 65.3368786 22.3960664 65.5421602 22.2076231 65.6994056 22.0632758 65.9397657 22.016276 66.1400123 22.0907198 66.4047953 23.539969 66.3506308 25.0463304 65.9824399 26.472935 65.0665303 25.6374467 65.1298654 24.2056125 65.2641396 22.9748734zM67.504604 25.7315352C67.0049214 24.6346094 67.1361807 23.2767198 67.8367721 22.2952265 68.614822 23.2977104 68.4603446 24.8957932 67.5046047 25.7315355L67.504604 25.7315352z"/>
      <path fill="#000" fill-rule="nonzero" d="M60.5004862 45.6580807C61.4958544 46.7093296 62.1583557 48.1347296 62.0549976 49.5770211 61.9516399 51.0193129 60.9757881 52.4266341 59.5777534 52.8091154 58.1797187 53.1915968 56.4930611 52.320159 56.2005014 50.9039391 55.8902469 49.4020631 55.775096 47.7364122 56.5847965 46.4329066 57.3944967 45.1294012 59.4449157 44.5432501 60.5004862 45.6580814L60.5004862 45.6580807zM59.3324254 47.3418556C59.2000096 46.9798726 58.6623781 46.930226 58.3502054 47.1572087 58.0380326 47.3841914 57.8981979 47.7731567 57.7752301 48.1384406 57.7154171 48.3161153 57.6548107 48.5032342 57.6885452 48.6876124 57.7851799 49.2157726 58.5997876 49.2931007 58.9834658 48.9165568 59.3671437 48.5400129 59.4276742 47.9538636 59.4658475 47.4183319L59.3324254 47.3418556zM35.1647385 45.550131C35.8747181 45.4888019 36.5632567 45.8443245 37.0977932 46.3144204 38.3875484 47.4486899 38.9602119 49.3794327 38.3622919 50.9874974 38.015932 51.9190089 37.2696017 52.7295044 36.3133725 53.0076264 35.3571436 53.2857485 34.2128302 52.9473142 33.6762561 52.1102825 33.3730757 51.6373345 33.2791869 51.0648529 33.1919026 50.5102811 33.0357371 49.5180653 32.8809041 48.4922482 33.1342306 47.5201845 33.3875574 46.5481205 34.1615556 45.6367877 35.1647378 45.550131L35.1647385 45.550131zM36.2089634 48.6854254C36.3669016 48.523052 36.5248398 48.3606789 36.682778 48.1983055 36.466399 47.6867061 35.793308 47.3805999 35.3083085 47.6531606 34.8233092 47.9257213 34.8109257 48.7828 35.3275367 48.989653 35.6218626 48.889398 35.9161884 48.7891421 36.2105145 48.6888858L36.2089634 48.6854254zM43.9562879 55.9171081C44.2576315 55.3258562 44.9424906 54.788111 45.5431322 55.0727017 46.1095068 55.3410562 46.1671091 56.1259768 46.0300852 56.736288 45.8930616 57.3465992 45.6475796 57.9969438 45.8931753 58.5723998 46.1387709 59.147856 47.1934881 59.2716905 47.2846865 58.6529137 47.3785564 58.0160081 48.4256194 57.832058 48.7320048 58.3986458 49.0031058 57.2913138 48.7466607 56.0673543 48.0536487 55.1609949 47.649687 54.6326713 47.1051439 54.2037983 46.8103345 53.6079713 46.5155252 53.0121446 46.6002408 52.1383759 47.2108668 51.8728288 47.9881085 51.534824 48.7227914 52.4035402 49.128301 53.1462873 49.4870897 53.8034584 49.8458785 54.4606293 50.2046669 55.1178004 50.5117957 55.6803489 50.8456329 56.2708637 51.4026459 56.5896513 51.9623024 56.9099513 52.6659114 56.9050516 53.2195915 57.2355237 54.1297167 57.7787456 54.3115271 59.1308789 53.7693488 60.0401301 53.2271704 60.9493811 52.1510165 61.4356356 51.0948571 61.5326319 50.0386977 61.6296282 48.983352 61.3941584 47.9494339 61.1582393 46.6866789 60.8701042 45.3444117 60.5340985 44.4656158 59.5848355 43.5721143 58.6196878 43.3594354 57.088163 43.9562877 55.9171081L43.9562879 55.9171081zM50.3907308 59.0948539C50.1037652 59.2747239 49.9826682 59.6770597 50.1228577 59.984842 50.609179 60.0837718 51.1196574 60.18187 51.5947189 60.038494 52.0697805 59.8951183 52.4847493 59.4230039 52.3822361 58.938613 52.2921627 58.5129981 51.8149111 58.2380816 51.3825683 58.2951086 50.9502255 58.352136 50.5875972 58.6821189 50.4033649 59.0763919L50.3907308 59.0948539z"/>
      <path fill="#000" d="M52.0950342 68.2181076C50.5873746 69.142647 49.0411176 70.0812401 47.3103999 70.4501685 45.5796822 70.8190969 43.5991442 70.515553 42.3761494 69.2395696 41.8295692 68.6693081 41.4578156 67.8115688 41.7798577 67.0909836 42.1018998 66.3703984 43.3410151 66.1921911 43.6407575 66.9222856 44.175901 68.2257545 45.8331587 68.7578997 47.2196402 68.4906653 48.6061217 68.2234309 49.7890563 67.3593491 50.9422073 66.5463491 51.6175988 66.0701811 52.7098175 65.6769085 53.1295527 66.3877429 53.5268142 67.0605184 52.7618791 67.8091795 52.0950344 68.2181076L52.0950342 68.2181076zM37.2784626 40.1291675C34.4691578 41.4328814 31.5616798 42.5260625 28.5886174 43.3964582 28.4141276 43.4475421 28.2329309 43.4983812 28.0529016 43.4727743 27.4839866 43.3918541 27.3020033 42.5772656 27.6143841 42.0961431 27.9267649 41.6150206 28.5112482 41.3998341 29.055255 41.2150963 31.9310094 40.2385277 34.8067631 39.2619591 37.682517 38.2853905 38.1422184 38.1292818 38.5417086 38.7704837 38.368366 39.2229482 38.1950234 39.6754126 37.7187548 39.9248412 37.2784626 40.1291678L37.2784626 40.1291675zM62.682333 40.3376543C60.4974541 40.8343085 58.3125752 41.3309624 56.1276963 41.8276165 55.6321185 41.9402683 55.1110457 42.0525343 54.6223292 41.9132179 54.1336125 41.7739013 53.7034132 41.2900214 53.8118087 40.7946969 53.9359826 40.2272724 54.6149662 40.0074911 55.1850765 39.8894166 57.8094173 39.3458947 60.4337579 38.8023727 63.0580985 38.2588509 63.4071828 38.1865526 63.7990903 38.1215804 64.0969095 38.3170837 64.5389201 38.60724 64.4767931 39.32289 64.1111564 39.7044128 63.7455197 40.0859356 63.1982511 40.2203782 62.6823332 40.3376536L62.682333 40.3376543zM21.4819764 52.6454112C22.6251784 52.7108102 23.7683805 52.7762093 24.9115824 52.8416083 24.6437617 51.6449984 24.962826 50.3317935 25.7501477 49.3902412 26.2171969 51.3996469 26.5181349 53.4474396 26.6489052 55.5060119 26.6687987 55.819171 26.6707134 56.1722858 26.4511332 56.3969908 26.2315527 56.6216961 25.7288009 56.5107323 25.7566154 56.1981741 25.8494026 55.1555202 24.7788236 54.348378 23.7457734 54.16416 22.7127231 53.9799421 21.6429786 54.1893598 20.604826 54.0363171 20.4135179 54.0081149 20.2120875 53.9614333 20.0763976 53.8239935 19.7960572 53.5400374 19.9726405 53.0188912 20.3144747 52.8125757 20.6563087 52.6062601 21.0830887 52.6225922 21.4819764 52.6454112zM72.4077197 50.6253922C71.9705505 50.4519786 71.5278366 50.9334278 71.4559771 51.3971927 71.3841179 51.8609576 71.5160863 52.3417659 71.4194101 52.8010224 71.3227338 53.2602792 70.8126546 53.69745 70.4089777 53.4564296 70.2451315 51.7148831 70.1941786 49.9627776 70.256543 48.214686 70.2804734 47.54391 70.4623879 46.700118 71.1223848 46.5692208 71.6291312 46.6811593 71.4046053 47.4297739 71.3710977 47.9463937 71.2949935 49.1197543 72.7740575 49.7023288 73.9491676 49.7955537 75.1242774 49.8887786 76.5848391 50.0417576 76.996431 51.1435711 75.4570222 51.3804213 73.8550795 51.1995226 72.4077197 50.6253922z"/>
      <path fill="#F9CD68" d="M94.6259626 165.981649C90.2430955 165.687483 85.8489494 165.560778 81.456354 165.601345 75.3454977 165.544905 69.2316251 165.812283 63.1492758 166.402967 62.5131631 166.094291 61.9866108 165.499762 61.7047462 164.838303 61.2656957 163.807972 61.2858566 162.648865 61.3142842 161.529686 61.8844237 139.083477 62.8775175 116.647958 64.2928593 94.2389703 71.737538 97.1249909 77.9937916 102.820737 82.4425712 109.494232 87.5018943 117.083587 90.4283502 125.890069 92.5472724 134.755601 94.9135362 144.656006 96.3453488 154.91913 95.0793237 165.01834 95.0433996 165.304921 94.9975491 165.609163 94.807895 165.827398 94.7539735 165.889446 94.6927647 165.940252 94.6259626 165.981649zM38.0711869 98.0696893C37.9667913 103.187817 37.8623958 108.305945 37.7580002 113.424072 37.4034114 130.808232 37.0490517 148.20966 37.9225776 165.575574 37.9738335 166.594573 36.9641829 167.103339 35.8696117 167.284116 26.8012723 166.942353 17.732933 166.600589 8.66459363 166.258826 8.93654819 147.594881 14.4039936 129.032819 24.2965264 113.188172 27.9319599 107.36538 32.343622 101.750234 38.0711869 98.0696893z"/>
    </g>
    <path fill="#D8D7D7" d="M247.608006,108.895829 C247.351176,112.227285 247.292336,115.574009 247.4319,118.912441 C247.587578,122.636336 248.023975,126.463248 249.807301,129.735599 C251.012528,131.947156 252.774332,133.795088 254.515227,135.614785 C257.027588,138.240869 259.539948,140.866953 262.05231,143.493038 C262.599536,144.065034 263.278062,144.685632 264.061256,144.57189 C264.641192,144.487666 265.079825,144.018292 265.450183,143.563924 C269.173497,138.996021 271.028443,133.134067 271.680753,127.276041 C272.333063,121.418015 271.862092,115.49966 271.390653,109.624294 C271.363129,109.281268 271.294709,108.876086 270.982921,108.730766 C270.685797,108.592283 270.346066,108.774577 270.065996,108.94496 C263.337287,113.038439 254.318759,113.018708 247.608006,108.895829 L247.608006,108.895829 Z"/>
  </g>
</svg>
