<svg xmlns="http://www.w3.org/2000/svg" width="370" height="173" viewBox="0 0 370 173">
  <g fill="none" fill-rule="evenodd">
    <path fill="#000" fill-rule="nonzero" d="M276.365478 36.6163765C273.963214 41.9456286 268.606246 45.2107255 263.552777 48.1491357 266.711864 52.6974704 268.511657 58.1774476 268.664472 63.7131352 268.781684 67.9591217 267.734519 72.5840205 264.428899 75.2514193 262.256912 77.0040579 261.20124 80.032992 261.813346 82.755968 269.259256 84.9751356 275.999622 89.5024481 280.87016 95.5558889 283.303989 98.5808191 285.328571 102.13558 285.564921 106.010869 285.970883 112.667214 281.183794 118.382149 276.691222 123.310488 291.240001 137.53472 296.80926 158.389525 300.93044 178.314676 301.299267 180.097887 301.627273 182.089746 300.653799 183.62865 299.60365 185.288765 297.444511 185.789739 295.499535 186.065169 288.865994 187.004553 282.139265 186.996312 275.439547 186.986281 248.506858 186.945957 221.574169 186.905632 194.641481 186.865307 193.806656 186.864057 192.871507 186.821762 192.298359 186.214773 191.808996 185.696516 191.738117 184.922109 191.699351 184.210376 190.918417 169.872651 192.626005 155.402711 196.72298 141.640625 198.692242 135.02571 201.425088 128.265405 206.768825 123.897388 202.795719 120.268473 198.563427 116.149765 197.981978 110.800325 197.453684 105.939922 200.143935 101.284903 203.400662 97.6384888 207.083765 93.5146819 211.620587 90.1567973 216.640501 87.8391504 215.997241 84.7286165 215.35398 81.6180828 214.71072 78.5075489 214.501572 77.4962001 214.091125 76.2796841 213.072433 76.1098757 211.116611 75.7838583 209.478345 74.0646835 209.246915 72.095429 209.015484 70.1261742 210.210537 68.0740228 212.037485 67.3034468 208.753431 64.0986532 207.331536 59.2869083 207.643447 54.7088719 207.955357 50.1308352 209.854707 45.7744817 212.402688 41.9582663 213.805624 39.857032 215.487513 37.8281228 217.762419 36.728933 220.037325 35.6297429 223.022726 35.6808005 224.849771 37.4258853 225.520105 34.7968485 226.502672 32.0671452 228.635979 30.390786 230.769287 28.7144269 234.357014 28.652372 235.860078 30.9111284 238.836888 24.416484 243.877606 18.6953735 250.428361 15.8441603 256.979115 12.992947 265.06992 13.3531234 270.823401 17.5886001 276.576881 21.8240766 279.301436 30.103163 276.365477 36.6163765L276.365478 36.6163765zM254.66033 144.936123C252.572391 146.931487 250.326413 149.012388 247.49748 149.593858 243.837718 150.3461 240.209445 148.412076 237.029277 146.450888 227.527237 140.591046 218.566958 133.853118 210.299884 126.350986 209.027203 125.196065 207.065991 126.565172 206.018783 127.927858 198.683394 137.473071 196.691571 149.968913 195.172721 161.910945 194.277806 168.947263 193.463957 176.064464 194.212464 183.117859 194.263874 183.602312 194.344652 184.130536 194.706208 184.457057 195.078412 184.793195 195.630358 184.810554 196.131879 184.809582 221.5264 184.760334 246.92092 184.711086 272.315441 184.661839 279.96078 184.647012 287.618678 184.631618 295.231259 183.924485 296.846757 183.774422 298.064263 182.25445 298.401735 180.667483 298.739207 179.080516 298.392406 177.436878 298.038981 175.853387 294.083079 158.129322 288.814331 139.893582 276.590165 126.463711 276.22128 126.058442 275.76609 125.624963 275.219826 125.668722 274.804576 125.701986 274.468644 126.006067 274.167476 126.29388 267.665094 132.507962 261.162712 138.722042 254.66033 144.936123zM249.349595 53.279407C248.75793 52.7679741 248.079306 52.2462298 247.297354 52.2597626 242.725655 52.3388845 238.142913 51.7485944 233.740489 50.5135412 232.37064 54.2729072 230.292958 57.7729926 227.64869 60.7758524 228.925069 60.6294356 230.201447 60.4830188 231.477825 60.3366021 232.309198 60.2412328 233.265176 60.1859303 233.860558 60.7739762 234.455939 61.362022 233.983379 62.7278034 233.18847 62.466277 229.543882 61.2672008 225.663271 63.0915967 222.262241 64.8674895 220.286588 65.8991028 218.310936 66.9307159 216.335283 67.9623292 217.416582 67.7273786 218.220004 69.467473 217.339879 70.1381357 215.784645 69.0669472 213.580882 68.370086 212.089071 69.5279715 211.051004 70.3336786 210.758899 71.9522496 211.44984 73.0699921 212.140781 74.1877345 213.719191 74.6500328 214.903974 74.0816688 215.456077 73.8168138 215.94506 73.355734 216.556313 73.3191896 217.167566 73.282645 217.777949 74.1027487 217.299407 74.4848009 216.235322 75.3343303 216.28624 76.9432326 216.480691 78.2908838 217.59412 86.0075195 220.930738 94.2857749 228.05463 97.4537941 230.405579 98.4992691 232.99127 98.8956046 235.554298 99.1211425 238.682741 99.3964351 241.875428 99.427758 244.918655 98.6520528 252.921216 96.6122345 258.787502 88.9008563 259.812095 80.706221 260.102201 78.3859683 260.092159 75.9101415 261.32033 73.920335 260.814314 73.526551 260.781458 72.6634975 261.256071 72.2323818 261.730685 71.801266 262.586618 71.916676 262.930098 72.4581 263.402236 73.2023246 264.641896 73.00664 265.178468 72.3074442 265.715041 71.6082488 265.744052 70.6561571 265.731964 69.774886 265.715981 68.6097672 265.35218 67.092847 264.189911 67.0098662 262.802997 66.9108465 262.083276 69.0730844 260.693672 69.0247963 258.207807 62.9886119 254.288296 57.5483968 249.349595 53.279407zM231.69429 49.091618C232.017046 48.024083 233.555628 48.1635325 234.623725 48.4844259 245.510967 51.7553442 257.830616 49.8633259 267.234593 43.4761391 269.964796 41.6217839 272.513457 39.3378498 273.986484 36.3844061 276.854109 30.6347727 274.762675 23.0563848 269.68762 19.1161607 264.612564 15.1759365 257.183039 14.870171 251.486188 17.8412716 248.206891 19.5515352 245.512393 22.1813265 242.935028 24.8338679 240.758146 27.0742444 238.55234 29.4886143 237.736306 32.5039406 237.520257 33.3022642 237.290443 34.2683989 236.507293 34.5342423 234.597348 35.18258 234.037665 30.9009482 232.037712 31.1625151 231.679122 31.2094138 231.361843 31.4131841 231.071639 31.6289807 228.246457 33.7297944 226.857965 37.5889052 227.697067 41.0081129 227.09381 41.4477853 226.213286 41.1645376 225.657119 40.6666321 225.100952 40.1687265 224.729344 39.492804 224.180925 38.9863773 222.976906 37.8745486 221.081983 37.7794118 219.559595 38.386175 218.037207 38.9929381 216.82559 40.184415 215.768466 41.4367387 210.881742 47.2258032 208.479614 55.5071754 211.104533 62.6137317 211.857027 64.6509934 213.764072 66.8550909 215.796319 66.0891567 223.316317 63.2549417 229.368568 56.7840917 231.69429 49.091618zM249.923374 145.862355C260.663791 136.798836 270.637272 126.82678 279.702326 116.087658 281.306784 114.1869 282.926633 112.178438 283.548225 109.769954 284.531147 105.961425 282.814287 101.964727 280.578962 98.7283159 276.287548 92.5150033 269.893655 87.7819605 262.697984 85.4920236 262.056101 85.2877522 261.140909 85.2280343 260.922339 85.8651903 259.797882 89.1431179 257.893675 92.1506632 255.411576 94.5690088 254.630514 95.3300097 253.722989 96.1938234 253.784176 97.2826015 254.253643 105.636541 254.723111 113.990481 255.192579 122.344421 255.476612 127.39866 255.740734 132.60542 254.079318 137.38723 253.423914 139.273583 252.482988 141.045692 251.545883 142.809131 251.005047 143.826872 250.464211 144.844614 249.923374 145.862355zM240.502579 146.091626C238.684552 144.172928 236.866524 142.25423 235.048497 140.335533 233.192638 138.376909 231.313467 136.386267 230.050055 134.002109 227.804569 129.764698 227.727417 124.753769 227.701795 119.958229 227.670562 114.112529 227.639329 108.26683 227.608096 102.42113 227.595423 100.049167 225.56495 98.2285415 223.624451 96.8644203 221.68395 95.5002991 219.502556 94.0472561 218.907735 91.751052 218.664277 90.8112253 217.55223 90.3179839 216.588585 90.4360301 215.62494 90.554076 214.783931 91.1224732 213.989788 91.6809379 208.779949 95.3446501 203.562872 99.5655144 201.126003 105.449975 200.438375 107.110434 199.988072 108.910536 200.160472 110.699455 200.513369 114.361339 203.324089 117.247664 206.027526 119.742731 216.671589 129.566385 228.229221 138.399753 240.502579 146.091626zM230.139735 113.5651C229.89814 116.697393 229.84279 119.844041 229.974075 122.982893 230.120518 126.484163 230.531027 130.082293 232.208563 133.159014 233.342294 135.238359 234.999583 136.975816 236.637205 138.686727 239.000527 141.155817 241.36385 143.624907 243.727173 146.093997 244.241936 146.631799 244.880211 147.215296 245.616944 147.108353 246.162477 147.029164 246.57509 146.587851 246.923477 146.160646 250.425917 141.865824 252.170823 136.354313 252.784437 130.846495 253.39805 125.338677 252.955018 119.774137 252.511547 114.250015 252.485655 113.927497 252.421294 113.546537 252.128002 113.409905 251.848504 113.2797 251.528927 113.451097 251.265471 113.611294 244.935922 117.460054 236.452392 117.441503 230.139735 113.5651L230.139735 113.5651zM239.616467 106.138384C238.993892 105.989898 238.721318 105.234923 238.756119 104.595833 238.79092 103.956742 239.02421 103.329511 238.966231 102.692105 238.908251 102.054699 238.378113 101.376473 237.750987 101.504385 237.047721 101.647826 236.893159 102.578529 236.94739 103.294223 237.00162 104.009917 237.018872 104.903476 236.385095 105.240354 234.940911 104.753715 236.859547 101.707781 235.414075 101.224978 234.819559 101.026404 234.225478 101.630948 234.107236 102.246496 233.988994 102.862045 234.163455 103.494213 234.153254 104.120933 234.143053 104.747652 233.840993 105.466459 233.226456 105.589853 232.818585 104.346979 232.824246 102.97223 233.242339 101.732758 233.467399 101.065551 232.303369 100.685367 231.819328 101.196759 231.335287 101.708151 231.39038 102.505932 231.429882 103.208966 231.469384 103.912 231.394455 104.745654 230.792706 105.111324 229.563627 104.021026 231.348964 101.532743 230.090959 100.475949 229.130999 101.325498 229.134388 102.799851 229.2357 104.077736 229.369511 105.765537 229.543187 107.450177 229.756534 109.129778 229.834248 109.74159 229.922856 110.369978 230.227775 110.906054 230.649087 111.646759 231.423032 112.109361 232.186959 112.486934 238.084987 115.402041 245.493607 114.999374 251.040946 111.4622 251.368157 111.253558 251.700886 111.022405 251.888841 110.682889 252.092444 110.315108 252.097296 109.873946 252.097051 109.453569 252.094915 105.784491 252.092779 102.115413 252.090643 98.4463358 252.090413 98.0509624 251.47508 97.9317478 251.188396 98.2040199 250.901711 98.4762921 250.869573 98.914605 250.85591 99.3097424 250.816589 100.446856 250.777268 101.58397 250.737947 102.721084 250.035011 102.976494 249.574334 101.918419 249.738175 101.188687 249.902016 100.458955 250.281243 99.6308506 249.838242 99.0282711 248.891281 99.2645558 248.663627 100.500135 248.719871 101.474507 248.776116 102.448879 248.843427 103.617499 248.053181 104.190279 247.328314 103.113632 247.336499 101.593258 248.072914 100.524478 247.340107 99.8126094 246.076103 100.649756 245.763251 101.622322 245.4504 102.594889 245.584965 103.702324 245.092412 104.597396 244.799873 104.769799 244.404737 104.524164 244.295798 104.202552 244.186858 103.88094 244.275619 103.529684 244.364765 103.202034 244.567919 102.455354 244.771073 101.708673 244.974228 100.961993 244.136064 100.449879 243.162276 101.532052 243.050174 102.507866 242.938072 103.48368 243.174865 104.57002 242.621697 105.381676 242.029199 105.053734 241.769009 104.309584 241.82004 103.634311 241.871071 102.959037 242.174368 102.332153 242.472374 101.724049 242.062232 101.066557 240.999347 101.126065 240.449168 101.671791 239.89899 102.217516 239.755767 103.049861 239.74329 103.824688 239.730814 104.599515 239.818512 105.390259 239.616467 106.138384zM261.520684 52.0033213C259.14365 52.6926154 256.766616 53.3819095 254.389582 54.0712035 254.063056 54.1658897 253.719319 54.2709407 253.489345 54.5213345 253.801479 55.2656049 254.652202 55.6674193 255.458982 55.6891371 256.265761 55.7108547 257.045551 55.4259233 257.802084 55.1448133 259.849549 54.3840237 261.921365 53.6153619 264.091555 53.3679985 264.455858 52.8406343 264.011659 52.0647944 263.405732 51.8557925 262.799805 51.6467904 262.136283 51.8248093 261.520684 52.0033213zM264.671653 56.446946C265.192908 56.4795346 265.577941 55.8454988 265.425607 55.3459354 265.273272 54.8463723 264.747417 54.5350534 264.228396 54.4768589 263.709376 54.4186646 263.191305 54.5636978 262.690166 54.710765 260.608494 55.3216649 258.544696 55.9934672 256.5023 56.7250235 256.266248 56.809574 255.979082 56.983792 256.040364 57.2269259 256.30109 58.0931562 257.387424 58.4547986 258.276886 58.2899072 259.166348 58.1250161 259.935251 57.5913741 260.752307 57.2031062 261.966979 56.6258886 263.329428 56.3630311 264.671652 56.446946L264.671653 56.446946zM266.241057 58.1627656C266.162201 57.8219248 266.008642 57.4667394 265.700815 57.3005057 265.363501 57.1183479 264.949833 57.215601 264.580859 57.3196222 262.965599 57.7749951 261.364435 58.2803638 259.780431 58.8347611 259.236446 59.0251542 258.610159 59.3181339 258.521151 59.8875606 258.429581 60.4733762 259.024139 60.9823692 259.614617 61.0362279 260.205095 61.0900869 260.772783 60.8289018 261.314916 60.5887844 262.836054 59.9150525 264.641249 59.3710844 266.109729 60.1529687 266.346784 59.5215314 266.393084 58.8198779 266.241057 58.1627656zM253.918077 52.9968467C256.556859 52.2592436 259.195641 51.5216407 261.834423 50.7840376 262.179538 50.6875696 262.584126 50.5298176 262.65156 50.1778756 262.271639 49.6108381 261.532753 49.3749429 260.851121 49.4102768 260.169489 49.4456106 259.523029 49.7066321 258.884517 49.9478221 256.453641 50.8660562 253.931517 51.5425337 251.367411 51.9640416 251.251456 52.507764 251.738312 53.0318261 252.278221 53.1644099 252.81813 53.2969937 253.382651 53.146511 253.918077 52.9968467zM266.387123 61.2590747C266.242215 61.1389756 266.048954 61.0982357 265.863215 61.0678474 263.744882 60.7212706 261.496317 61.2544566 259.759132 62.5152646 259.83214 63.0496306 260.341871 63.4392447 260.870069 63.5482599 261.398267 63.6572752 261.944185 63.5462426 262.472006 63.435418 263.366157 63.2476757 264.260308 63.0599337 265.154459 62.8721918 265.57149 62.7846294 266.012165 62.6849393 266.318794 62.3890327 266.625422 62.0931263 266.715213 61.5309922 266.387123 61.2590747zM266.749618 63.776535C265.280008 63.7647379 263.808713 64.0005691 262.416414 64.4710959 262.042468 64.5974708 261.657963 64.7517402 261.401461 65.0517613 260.97961 65.5451843 261.066578 66.3870646 261.580388 66.7838311 262.290254 65.9068551 263.142808 64.9548385 264.2703 64.9129132 264.863296 64.890863 265.453992 65.1342651 266.039735 65.0392108 266.625478 64.9441562 267.156728 64.2082676 266.749619 63.7765352L266.749618 63.776535zM131.11244 30.8951729C134.501327 32.4058806 137.806978 34.2212691 140.503935 36.7694474 142.588189 38.7387224 144.263293 41.1034895 145.728189 43.5684927 154.343766 58.0660617 155.732911 75.7586716 154.611879 92.5857617 154.415746 95.5297833 153.44219 99.2508551 150.511733 99.5945864 142.992037 100.476618 135.47234 101.358649 127.952644 102.24068 126.674324 102.390623 125.31214 102.576151 124.339748 103.419383 122.467441 105.042996 123.122644 108.280284 124.912587 109.994273 126.70253 111.708261 129.209511 112.382169 131.514602 113.292229 144.420726 118.387625 152.136833 131.767049 156.22971 145.025234 159.925465 156.997009 161.491236 169.622983 160.831747 182.13486 160.79702 182.793701 160.72517 183.521199 160.241692 183.970115 159.73477 184.440799 158.962275 184.434958 158.271193 184.404649 129.758495 183.154163 101.019177 188.03839 72.7477963 184.131126 71.9141204 184.015908 70.837469 183.592773 70.9534763 182.759206 72.788975 169.570627 74.8952298 156.274022 79.9138033 143.940266 84.9323765 131.606509 93.1701069 120.161555 104.787965 113.655174 105.487197 113.263581 106.227892 112.86249 106.657879 112.186189 107.04926 111.570611 107.126903 110.812468 107.177683 110.084775 107.387074 107.084167 107.314076 104.063916 106.959967 101.076927 95.6473933 101.887836 84.2683879 101.770093 72.9750158 100.72527 72.3514825 100.667583 71.6898896 100.592239 71.1994188 100.202931 70.6140533 99.7383019 70.4188837 98.9478219 70.2717249 98.2151027 65.9465455 76.6795853 72.8396088 53.2040095 88.1211759 37.4255626 91.225696 34.220099 94.6912874 31.2911253 98.7044723 29.3398719 108.749892 24.4556816 120.910367 26.3472646 131.11244 30.8951729zM88.4016823 63.9568379C88.404651 63.5077544 88.4122766 63.0390407 88.6204224 62.6410956 88.9407947 62.02859 89.6443166 61.7393154 90.2938937 61.5029871 97.4731784 58.8910305 104.894484 56.9447333 112.431599 55.6971957 114.187001 55.4066434 115.997057 55.1372643 117.533375 54.2397222 119.069693 53.3421801 120.285055 51.639779 120.039999 49.8774503 119.901829 48.8838034 121.54417 48.5651304 122.230326 49.2969857 122.916482 50.0288411 122.942296 51.1339277 123.156863 52.1139191 123.371429 53.0939108 124.067924 54.1823518 125.066505 54.086136 128.769945 53.7293007 132.473384 53.3724654 136.176824 53.0156301 137.446386 52.8933048 139.104438 53.0129073 139.474785 54.2333971 140.722907 58.3466247 140.532703 62.881264 138.944514 66.875523 141.065361 65.8407945 143.564037 67.9570967 144.074019 70.2611309 144.691282 73.0498444 143.313101 76.1631192 140.833671 77.5809922 140.28962 77.8921101 139.691114 78.1355512 139.249799 78.5805533 138.816905 79.0170645 138.578655 79.6040645 138.332931 80.1675881 135.817242 85.9368647 131.387622 90.8522086 125.910245 93.9524655 124.113424 94.9694866 121.867262 96.5027015 122.4458 98.4846685 123.007907 100.410347 125.641111 100.568532 127.633288 100.333094 134.684295 99.499796 141.735301 98.6664985 148.786307 97.8332008 149.767432 97.7172503 150.833344 97.5605307 151.513155 96.8436582 152.173812 96.1469839 152.288659 95.1104038 152.362627 94.1531415 153.672807 77.1973906 152.633458 59.271069 143.913396 44.6705694 142.352706 42.0574157 140.541567 39.5595124 138.249877 37.5563939 135.816497 35.429427 132.909603 33.9181444 129.952892 32.6130808 121.595119 28.9240401 111.996579 26.7430105 103.343444 29.6729644 99.2002168 31.0758623 95.5046568 33.5800476 92.2039183 36.4505146 83.8451319 43.7196818 77.7798588 53.4780119 74.416752 64.0326133 71.0536449 74.587215 70.3424095 85.910505 71.7890978 96.893091 71.8414387 97.2904398 71.903911 97.7061062 72.1427427 98.0279522 72.5349175 98.5564414 73.2658714 98.6711827 73.9203294 98.7403653 83.9006042 99.7953797 93.9662381 100.041823 103.986185 99.4764859 97.0526827 97.0676375 91.7064646 90.5917592 90.6542791 83.3275381 90.5304137 82.4723794 89.3281993 82.4668041 88.4642065 82.4543331 86.6184013 82.4276913 84.9096317 81.2496836 83.9387286 79.6796348 82.9678256 78.1095857 82.6616958 76.2012895 82.7425838 74.3570653 82.8099307 72.8215793 83.1708369 71.2193958 84.2073723 70.0845623 85.2439076 68.9497289 87.0978123 68.4656126 88.3661385 69.3337146 88.3779864 67.5414224 88.3898344 65.7491301 88.4016823 63.9568379zM158.258141 181.311379C159.446654 171.80624 158.102503 162.146829 155.881113 152.828801 153.891921 144.484771 151.144635 136.196317 146.395067 129.053395 141.645499 121.910473 134.701424 115.9577 126.417598 113.731055 125.056388 135.142578 124.10374 156.580074 123.560348 178.02794 123.533661 179.081284 123.514735 180.172209 123.926905 181.141932 124.339075 182.111656 125.308586 182.928539 126.356009 182.813853 136.450002 181.70862 146.648141 181.556494 156.770609 182.360156 157.208013 182.394884 157.715932 182.404404 158.00333 182.072846 158.181373 181.867447 158.224416 181.581102 158.258142 181.311379L158.258141 181.311379zM126.285591 90.8699724C128.410568 89.331717 130.492007 87.7026842 132.231776 85.739279 134.315063 83.3881998 135.876095 80.5768666 136.770349 77.5655602 137.034391 76.6764257 137.726003 75.5201678 138.558191 75.9297305 139.59669 76.4408298 140.909699 75.7871966 141.508471 74.7966536 142.107244 73.8061106 142.167373 72.5906904 142.172504 71.4332459 142.179239 69.9142248 141.392499 67.8146009 139.93503 68.2426837 139.350373 68.4144069 138.977611 68.9718472 138.485778 69.3315859 137.993944 69.6913246 137.123156 69.7368003 136.929149 69.1591555 137.354345 66.4871836 137.77954 63.8152118 138.204736 61.14324 138.418332 59.8009825 138.628179 58.400199 138.216194 57.1049976 137.80421 55.8097959 136.563948 54.6689469 135.217075 54.8511872 132.553382 55.2116009 129.88969 55.5720145 127.225998 55.9324282 126.024063 56.0950574 124.77051 56.2532271 123.622649 55.861424 122.474787 55.4696208 121.478519 54.3467636 121.657857 53.1472082 121.130236 53.0438129 120.835929 53.7097922 120.6158 54.2003193 119.681933 56.2813107 117.058336 56.858261 114.807291 57.2262687 107.515602 58.4183329 100.31499 60.1670914 93.288787 62.4523058 92.4185573 62.7353409 91.4923207 63.0686498 90.9622 63.8145593 90.5427272 64.4047812 90.4434847 65.1570644 90.3567061 65.8759448 90.0656858 68.2867759 89.7746655 70.6976071 89.4836452 73.108438 88.2941962 73.4115535 87.8873556 71.1304383 86.661432 71.0689629 85.7677702 71.0241491 85.3563198 72.1482711 85.2190861 73.0324694 84.9432985 74.8093712 84.6921314 76.738902 85.5626213 78.3123335 86.433111 79.885765 88.929206 80.6137191 90.0293375 79.1913446 90.5091196 78.571028 91.37965 79.4800694 91.6054072 80.2310802 93.42333 86.2786499 95.8094163 92.7965878 101.255127 95.9938008 105.149069 98.2799594 110.03582 98.4062134 114.383212 97.1857673 118.730603 95.9653212 122.627911 93.5177409 126.285591 90.8699724zM88.808984 132.530044C79.5221164 147.442654 74.3894126 164.91283 74.1341083 182.478895 83.2687676 182.824038 92.4034268 183.169182 101.538086 183.514325 102.855543 183.564104 104.666851 183.152576 104.600787 181.835835 103.780742 165.491445 104.113407 149.11363 104.446286 132.752068 104.555736 127.372408 104.665186 121.992749 104.774636 116.613089 97.8817699 119.864049 92.8376707 126.060884 88.808984 132.530044zM124.262448 118.353424C121.441827 119.822315 118.324775 120.888572 115.146233 120.786524 111.967692 120.684476 108.723143 119.268883 106.962326 116.620664 105.940508 138.540006 105.903445 160.505231 106.851287 182.427897 106.867069 182.792919 106.90579 183.204891 107.191172 183.43303 107.43207 183.625607 107.770301 183.62091 108.078397 183.606976 111.768493 183.440096 115.45859 183.273216 119.148686 183.106336 119.797578 183.07699 120.518511 183.015552 120.956631 182.535999 121.359678 182.094836 121.39211 181.439843 121.403223 180.842392 121.791073 159.991993 122.744616 139.15212 124.262448 118.353424zM120.158349 100.695171C119.50925 100.123019 118.860151 99.5508663 118.211053 98.9787142 117.806087 98.6217545 117.172117 98.2627001 116.787079 98.6410694 116.434368 98.9876728 116.691813 99.5787482 116.962461 99.9926178 117.370179 100.616089 117.777897 101.239561 118.185614 101.863032 117.730812 102.241652 117.011469 101.919434 116.659362 101.443809 116.307256 100.968185 116.146735 100.365926 115.760997 99.9171458 115.375259 99.4683655 114.586053 99.2575615 114.223994 99.7256544 113.943211 100.101052 114.24783 100.639895 114.615383 100.930871 114.982936 101.221846 115.448597 101.460046 115.596247 101.904975 115.743898 102.349903 115.171569 102.930257 114.849578 102.589546 114.396806 102.110449 113.944033 101.631352 113.49126 101.152254 113.140638 100.781246 112.772899 100.398564 112.295507 100.217789 111.818114 100.037013 111.198013 100.123796 110.919193 100.551396 111.89918 101.608989 112.879167 102.666583 113.859155 103.724176 113.774973 104.206719 113.032881 104.047476 112.648769 103.743515 111.548303 102.87268 110.616285 101.789771 109.919064 100.571879 109.759176 100.292591 109.279513 100.419327 109.155076 100.716113 109.030639 101.012898 109.148581 101.352553 109.289917 101.641672 109.611669 102.299855 110.058548 102.896598 110.599595 103.390559 110.897738 103.662756 111.241603 103.930241 111.348461 104.31955 111.45532 104.70886 111.137919 105.223162 110.748284 105.117497 110.510892 104.324643 109.911481 103.648073 109.15301 103.316873 109.100117 107.188905 109.047224 111.060937 108.994331 114.932969 108.987568 115.428056 108.984559 115.941988 109.190044 116.392468 109.409523 116.873623 109.840995 117.22303 110.28577 117.509135 113.01391 119.264035 116.5936 119.189137 119.671646 118.165391 121.423567 117.58271 123.309808 116.387355 123.408193 114.5437 123.442088 113.908534 123.249927 113.285956 123.072931 112.675009 121.930067 108.730137 121.339449 104.625699 121.32366 100.518644 121.320615 99.7266912 121.318264 98.8687099 120.839852 98.237584 120.36144 97.6064582 119.204112 97.471875 118.858657 98.1845165 119.852633 98.5070381 120.468832 99.6973689 120.158349 100.695171z"/>
    <path fill="#000" d="M243.048946 90.9347837C242.456861 90.8923044 241.805007 90.7424209 241.472252 90.2508482 241.139497 89.7592753 241.449102 88.8899893 242.040199 88.9445174 243.669112 89.094783 245.335224 88.8222278 246.831345 88.1607463 247.424507 87.8984913 248.012979 87.5565135 248.370937 87.0156943 248.728894 86.4748752 248.78979 85.692993 248.361288 85.2061621 247.918089 84.7026343 247.53487 84.0251813 247.743892 83.3877849 247.952914 82.7503883 249.044448 82.5423579 249.252207 83.1801673 249.696894 84.5453366 251.496421 85.2650883 252.759894 84.5831275 253.197319 84.3470269 253.736049 84.8964042 253.646893 85.385419 253.557737 85.8744338 253.084857 86.2022349 252.612762 86.3578336 252.140668 86.5134326 251.63196 86.5543386 251.178146 86.7571602 250.432271 87.0905114 249.944545 87.803632 249.393224 88.4065391 247.803672 90.1448222 245.398391 91.1033456 243.048946 90.9347837zM244.033033 78.6098408C245.408884 79.3998749 245.888422 81.2996723 245.34008 82.7884436 244.791737 84.2772146 243.416588 85.3477698 241.92059 85.8760764 240.424592 86.4043831 238.806304 86.4594763 237.219938 86.435816 236.493662 86.4249837 235.742288 86.3927768 235.090117 86.0729868 234.437946 85.7531968 233.909396 85.0683281 233.998846 84.347501 234.906548 77.0328871 235.834599 69.6346168 238.467729 62.7502783 238.666598 62.2303355 238.919845 61.6656717 239.429112 61.4408691 239.938379 61.2160664 240.696555 61.6524664 240.526846 62.1826437 238.367668 68.9280056 237.009259 75.9293071 236.489231 82.9927006 236.44327 83.6169787 236.979031 84.1642844 237.577179 84.3488222 238.175327 84.5333601 238.819335 84.4419879 239.438358 84.3490049 240.680534 84.1624176 242.020449 83.9267972 242.884199 83.0147932 243.747949 82.1027891 243.694443 80.2812455 242.509659 79.8639883 241.989515 79.6808039 242.011874 78.8372162 242.467297 78.5262572 242.92272 78.2152981 243.554808 78.3352372 244.033033 78.6098406L244.033033 78.6098408z"/>
    <path fill="#000" fill-rule="nonzero" d="M230.369204 68.3073103C231.27775 69.8448635 230.985048 71.9903618 229.697845 73.2283576 229.157061 73.7484687 228.400213 74.1219261 227.665963 73.967529 226.261759 73.6722539 225.899127 71.8149929 226.122248 70.3975325 226.260796 69.5173529 226.527695 68.6169189 227.142147 67.9716593 227.756599 67.3263996 228.794304 67.0180003 229.568838 67.4584653 229.910776 67.6529204 230.16909 67.9686536 230.369204 68.3073103L230.369204 68.3073103zM229.404619 69.8072426C229.455924 69.2905964 228.831283 68.8422228 228.358201 69.056114 227.88512 69.2700052 227.809138 70.0351478 228.230914 70.3379027 228.65269 70.6406574 229.353314 70.3238888 229.404619 69.8072426zM250.08535 69.6419164C250.511218 70.6024275 250.543858 71.765267 250.028341 72.6807926 249.512824 73.5963185 248.405633 74.1874242 247.379149 73.9632021 246.369262 73.7426064 245.615362 72.7747784 245.50181 71.7473351 245.388257 70.7198919 245.847148 69.6799724 246.577593 68.9485468 247.050213 68.4752919 247.687699 68.1011093 248.353531 68.1644036 249.145911 68.2397277 249.762732 68.9142789 250.08535 69.6419164zM247.901882 71.1379168C248.39617 71.1142936 248.814347 70.6168243 248.752648 70.1258336 247.981824 69.8739675 247.063262 70.5452489 247.069107 71.3561563 247.312947 71.5573104 247.726181 71.4967018 247.901987 71.2339988L247.901882 71.1379168z"/>
    <path fill="#000" d="M247.054295 62.1547994C247.635472 61.9211316 248.274988 61.889208 248.900707 61.8601719 250.189977 61.8003443 251.479247 61.7405163 252.768517 61.6806887 253.044774 61.667869 253.33986 61.6595904 253.57591 61.8036839 254.080769 62.1118684 253.967072 62.943359 253.509574 63.3182665 253.052076 63.6931737 252.416963 63.7396014 251.826237 63.769651 250.306605 63.8469538 248.786973 63.9242563 247.267342 64.0015586 246.964336 64.0169723 246.632589 64.0239391 246.392221 63.8388087 245.811075 63.3912123 246.37371 62.4284353 247.054295 62.1547994zM230.393865 77.3019385C229.437807 78.4010848 227.754042 78.4637919 226.319941 78.2078189 225.68193 78.0939405 224.889627 77.7059986 225.003594 77.0680042 225.078734 76.6473676 225.549784 76.4059087 225.976975 76.3964744 226.404166 76.38704 226.816737 76.5404386 227.23985 76.6000702 228.13449 76.7261564 229.081113 76.4038678 229.712956 75.7580722 230.018073 75.4462169 230.612253 75.6875093 230.747634 76.1022651 230.883015 76.5170208 230.680197 76.9727512 230.393865 77.3019383L230.393865 77.3019385zM246.613568 76.4965215C247.465288 76.2638536 248.317008 76.031186 249.168729 75.7985182 249.431279 75.7267963 249.718741 75.6565113 249.967872 75.766104 250.373036 75.9443358 250.448028 76.5337297 250.216923 76.9112417 249.985818 77.2887536 249.555756 77.4924044 249.137735 77.6379468 248.449105 77.8777067 247.7254 78.0164579 246.996925 78.04839 246.393608 78.0748362 245.577188 77.7870477 245.679883 77.1919472 245.749785 76.786879 246.217041 76.6048421 246.613567 76.4965213L246.613568 76.4965215zM217.697207 45.8264565C217.875939 45.4326652 218.098504 45.0027452 218.507281 44.8616162 218.916059 44.7204872 219.469588 45.1452664 219.263555 45.5254858 217.302855 49.1438206 215.88601 53.0562435 215.075216 57.091005 214.865463 58.1348026 214.561853 59.359181 213.570686 59.7478936 213.195669 59.3990612 213.281273 58.794021 213.40173 58.2962142 214.437221 54.0169015 215.877545 49.8356443 217.697207 45.8264565zM220.669682 58.9730711C220.546856 59.087937 220.407457 59.2082502 220.23938 59.2137472 219.716198 59.2308578 219.8215 58.3906494 220.133377 57.9702401 221.281444 56.4226548 222.619879 55.0164367 224.108906 53.793377 224.57304 53.9056766 224.4101 54.6089684 224.134507 54.9989423 223.118462 56.4366828 221.95553 57.7705572 220.669682 58.9730711zM245.711885 47.0497209C245.519278 47.0502886 245.310581 47.0404687 245.161418 46.9186158 245.002435 46.7887412 244.957225 46.5391972 245.06054 46.3618024 245.183546 46.1505992 245.451259 46.0821766 245.691372 46.0365417 247.038142 45.7805814 248.40551 45.6330864 249.775884 45.5959551 250.161375 45.7630729 249.736224 46.3233729 249.337607 46.4561722 248.170797 46.8448931 246.941737 47.0460964 245.711885 47.0497209zM261.627322 28.3935064C259.940419 28.5352271 258.340924 29.4934489 257.420112 30.9139533 257.290721 31.1135605 257.170826 31.3328615 257.166135 31.5706916 257.158703 31.9475759 257.438457 32.2666469 257.731473 32.503793 259.321146 33.790355 261.854884 33.7068 263.356341 32.318302 265.310086 30.5115433 265.143576 27.2237291 263.72271 24.9736986 263.266994 24.2520428 262.684903 23.5826623 261.925254 23.1935648 260.646974 22.5388212 259.099678 22.7785334 257.724468 23.1926444 253.81097 24.3710999 250.307838 26.8699232 247.919556 30.1865981 247.712018 30.4748119 247.199564 30.2545589 247.121158 29.9081607 247.042752 29.5617628 247.239113 29.2173106 247.440365 28.9246726 249.043547 26.5934969 251.424687 24.9155711 253.869458 23.491609 255.393401 22.6039853 256.998388 21.7823777 258.740555 21.508279 260.482723 21.2341802 262.400616 21.5815623 263.687126 22.7878667 264.538971 23.5866039 265.047489 24.6870945 265.390761 25.8032421 265.982273 27.7265416 266.11658 29.8964907 265.195016 31.6852571 263.841116 34.3131937 260.141865 35.3956351 257.584892 33.9120633 257.088081 33.623811 256.627547 33.2455688 256.343144 32.7465456 255.726885 31.6652399 256.094246 30.2242919 256.934441 29.3061038 257.774635 28.3879159 258.9867 27.9034964 260.190768 27.5885099 260.532928 27.4990003 260.902839 27.4220524 261.233146 27.5484764 261.563452 27.6749004 261.805373 28.0879193 261.627322 28.3935064zM80.263373 88.2428146C80.4111573 90.9287327 80.5589416 93.6146508 80.7067262 96.3005689 80.7318707 96.7575592 80.5835255 97.3958716 80.1278821 97.3527274 79.5147545 94.2539793 79.2848404 91.0796044 79.4450374 87.9248465 79.4737392 87.3596223 79.6201738 86.660413 80.1686212 86.5207437 80.2002052 87.0947673 80.231789 87.668791 80.263373 88.2428146zM144.106819 93.9829711C143.745139 91.4600333 143.780531 88.8805782 144.211296 86.3685133 144.296912 85.8692313 144.590796 85.2334366 145.086749 85.3366024 145.010412 87.2196 144.934075 89.1025976 144.857738 90.9855952 144.815302 92.0323483 144.746965 93.1536904 144.10682 93.9829715L144.106819 93.9829711zM84.2979182 90.9265504C84.3763926 92.184708 84.4548666 93.4428655 84.5333409 94.7010231 84.5863614 95.5510868 84.6378781 96.4181085 84.4236554 97.2424434 83.06967 94.5813752 82.8864956 91.3499931 83.9310833 88.5529592 84.1956202 89.3114029 84.2479149 90.1248546 84.297919 90.9265504L84.2979182 90.9265504zM76.5582193 85.0322973C76.839519 85.179152 76.8530384 85.5693401 76.8319632 85.8859653 76.5785226 89.6935244 76.8781443 93.5374559 77.718512 97.2597556 77.7990588 97.6165267 77.2501436 97.83451 76.9504221 97.6248902 76.6507003 97.4152706 76.5696246 97.0139278 76.5152375 96.6522435 75.9910978 93.1666205 75.7239489 89.6423811 75.7166752 86.117578 75.7155302 85.5627456 76.0663768 84.775527 76.5582193 85.0322978L76.5582193 85.0322973zM135.279982 91.5723237C135.286513 93.2476604 135.293044 94.9229971 135.299575 96.5983341 135.300843 96.9235877 135.145881 97.379234 134.832742 97.2912837 134.660126 97.2428016 134.58568 97.043771 134.540632 96.8702273 133.960527 94.6354175 134.094834 92.2208967 134.919214 90.0642108 135.259262 90.4683388 135.277923 91.0441688 135.279983 91.5723235L135.279982 91.5723237zM97.147768 58.1884345C96.3581119 57.6464958 96.3119999 56.5188322 96.3466929 55.5617268 96.3970453 54.1726184 96.5038437 52.6452534 97.4757391 51.6514842 97.7587436 52.0166195 97.7254369 52.5271472 97.6785424 52.98673 97.501617 54.7206314 97.3246925 56.4545331 97.147768 58.1884345zM99.8607721 52.8666903C99.7084531 54.091173 99.5561344 55.3156557 99.4038157 56.5401385 99.2628533 56.6755321 99.0448616 56.7244855 98.859544 56.6623632 98.2360791 54.938622 98.4973706 52.9203835 99.5392514 51.4122466 99.9503831 51.7319864 99.9250649 52.3498446 99.8607728 52.8666903L99.8607721 52.8666903zM138.882467 89.6631176C138.951645 91.2212978 138.98329 92.7811443 138.977365 94.3408481 138.975309 94.8820213 138.688724 95.640281 138.17758 95.4625056 137.981527 93.9213951 137.935656 92.3612164 138.04083 90.8112499 138.077445 90.2716441 138.352482 89.5552702 138.882467 89.6631176zM130.268376 47.6234103C130.29671 47.363042 130.336662 47.0786507 130.529375 46.9012923 130.676993 46.7654361 130.902637 46.721201 131.090624 46.7912657 131.339196 48.155265 131.288347 49.5730169 130.942699 50.9157035 130.082865 50.1293616 130.142323 48.781753 130.268376 47.6234103zM132.371669 50.2179155C131.902579 49.1855147 132.025802 47.907501 132.6835 46.9837426 133.413915 47.9272568 133.268895 49.4313348 132.37167 50.2179157L132.371669 50.2179155z"/>
    <path fill="#000" fill-rule="nonzero" d="M125.796375 68.9723112C126.730802 69.961722 127.352742 71.3032749 127.255712 72.6607258 127.158682 74.0181768 126.242577 75.3427144 124.930136 75.7026969 123.617695 76.0626793 122.034302 75.2425025 121.759654 73.9095897 121.468395 72.4960594 121.360294 70.9283879 122.120421 69.7015591 122.880548 68.4747306 124.805431 67.9230589 125.796375 68.9723119L125.796375 68.9723112zM124.699828 70.5570406C124.575519 70.2163507 124.070804 70.1696245 123.777744 70.3832553 123.484684 70.5968861 123.35341 70.962971 123.237971 71.3067676 123.18182 71.4739909 123.124924 71.6501028 123.156593 71.8236352 123.247312 72.3207272 124.012046 72.3935066 124.372233 72.0391123 124.732421 71.6847181 124.789245 71.1330481 124.825081 70.6290182L124.699828 70.5570406zM102.011795 68.8707116C102.678307 68.81299 103.32469 69.1475995 103.8265 69.5900428 105.03729 70.6575905 105.574893 72.4747602 105.01358 73.9882328 104.688426 74.8649496 103.987789 75.6277688 103.090105 75.8895308 102.192421 76.1512927 101.118167 75.8327663 100.614445 75.0449718 100.329826 74.5998442 100.241686 74.0610381 100.159745 73.5390881 100.013141 72.6052379 99.8677876 71.639763 100.105604 70.7248795 100.343421 69.8099958 101.070032 68.9522707 102.011795 68.8707116L102.011795 68.8707116zM102.992088 71.8215768C103.140357 71.6687548 103.288625 71.5159331 103.436894 71.3631111 103.233762 70.8816058 102.601881 70.5935057 102.146575 70.8500335 101.69127 71.1065612 101.679645 71.9132236 102.164626 72.1079087 102.440932 72.0135511 102.717238 71.9191925 102.993544 71.8248337L102.992088 71.8215768zM110.265087 78.6278664C110.547981 78.0713941 111.19091 77.5652809 111.754777 77.833131 112.286476 78.0857 112.340551 78.8244487 112.211917 79.3988593 112.083282 79.9732698 111.85283 80.5853589 112.083389 81.1269645 112.313948 81.6685704 113.304091 81.7851204 113.389706 81.2027423 113.477828 80.6033017 114.460786 80.4301722 114.748413 80.9634313 115.002916 79.9212365 114.762171 78.7692747 114.111589 77.9162305 113.732359 77.4189848 113.221155 77.0153396 112.944396 76.4545612 112.667636 75.8937831 112.747165 75.0714126 113.320406 74.8214859 114.050061 74.5033638 114.739763 75.320979 115.120446 76.0200351 115.457268 76.6385491 115.79409 77.2570629 116.130912 77.8755769 116.419237 78.4050342 116.732635 78.9608129 117.255545 79.2608483 117.780937 79.5623071 118.441468 79.5576956 118.961249 79.8687282 119.815652 80.3799959 119.986332 81.6525919 119.477348 82.5083578 118.968364 83.3641234 117.958097 83.8217747 116.966601 83.9130653 115.975104 84.004356 114.984371 83.7827373 114.013754 83.5606958 112.828311 83.2895099 111.568223 82.9732692 110.743231 82.0798452 109.904434 81.1714709 109.704776 79.7300358 110.265086 78.6278664L110.265087 78.6278664zM116.305584 81.618686C116.036188 81.7879754 115.922505 82.1666444 116.054111 82.4563219 116.510658 82.5494323 116.989882 82.64176 117.435859 82.5068179 117.881835 82.371876 118.271397 81.9275331 118.17516 81.4716357 118.090602 81.0710571 117.64257 80.8123121 117.236697 80.8659846 116.830824 80.9196574 116.490397 81.2302295 116.317445 81.6013101L116.305584 81.618686z"/>
    <path fill="#000" d="M117.905542 90.2052777C116.490188 91.0754325 115.0386 91.9588142 113.413845 92.3060409 111.789089 92.6532677 109.929809 92.3675793 108.781691 91.1666538 108.268575 90.629937 107.919582 89.822653 108.221907 89.1444551 108.524233 88.4662573 109.687484 88.2985328 109.968874 88.9856806 110.471254 90.2124748 112.027047 90.7133174 113.328642 90.4618026 114.630237 90.2102879 115.740747 89.3970344 116.823297 88.631858 117.457338 88.1836999 118.482686 87.8135609 118.876723 88.4825816 119.249662 89.115782 118.53156 89.8204042 117.905543 90.2052777L117.905542 90.2052777zM103.996108 63.7686282C101.358801 64.9956531 98.629332 66.0245294 95.8382939 66.8437253 95.6744871 66.8918043 95.5043841 66.9396529 95.335377 66.9155523 94.8012936 66.8393921 94.6304521 66.0727205 94.9237075 65.6198994 95.216963 65.1670782 95.7656616 64.9645497 96.2763619 64.7906789 98.9760497 63.8715555 101.675737 62.9524321 104.375424 62.0333087 104.806981 61.8863828 105.182012 62.489867 105.019282 62.9157159 104.856553 63.3415648 104.409443 63.5763211 103.996108 63.7686285L103.996108 63.7686282zM127.844639 63.9648511C125.793528 64.4322903 123.742418 64.8997293 121.691307 65.3671685 121.22607 65.4731937 120.7369 65.5788558 120.278105 65.4477345 119.81931 65.316613 119.415449 64.8611966 119.517208 64.3950088 119.63378 63.8609623 120.271193 63.6541093 120.806398 63.5429803 123.270065 63.0314304 125.733732 62.5198802 128.197399 62.0083302 128.52511 61.9402848 128.893024 61.8791345 129.172609 62.0631376 129.587558 62.3362259 129.529234 63.0097788 129.185984 63.3688591 128.842733 63.7279394 128.32897 63.8544736 127.844639 63.9648504L127.844639 63.9648511zM89.1667534 75.5486223C90.2399633 75.6101743 91.3131736 75.6717264 92.3863835 75.7332784 92.13496 74.6070573 92.4344897 73.3710997 93.173608 72.4849328 93.6120624 74.3761383 93.8945757 76.3034725 94.0173396 78.2409524 94.0360151 78.5356904 94.0378126 78.8680337 93.8316761 79.0795208 93.6255393 79.2910081 93.1535682 79.1865716 93.1796797 78.8923992 93.2667862 77.9110778 92.2617528 77.1514146 91.2919505 76.9780329 90.3221482 76.8046514 89.3178983 77.0017504 88.3433061 76.8577102 88.1637107 76.831167 87.9746127 76.7872313 87.8472304 76.6578762 87.5840537 76.3906234 87.7498258 75.9001329 88.0707314 75.7059536 88.3916368 75.5117742 88.7922874 75.5271456 89.1667534 75.5486223zM136.974594 73.647428C136.56419 73.4842152 136.148581 73.9373438 136.081121 74.3738284 136.013662 74.8103131 136.13755 75.2628385 136.046793 75.6950799 135.956036 76.1273216 135.477186 76.5387765 135.098224 76.3119338 134.944409 74.6728312 134.896576 73.0237907 134.955122 71.378528 134.977587 70.7472094 135.148364 69.9530522 135.767953 69.8298548 136.243674 69.9352088 136.032895 70.6397872 136.001439 71.1260176 135.929994 72.230357 137.318503 72.7786624 138.421668 72.8664035 139.524832 72.9541446 140.895971 73.0981248 141.282364 74.1351258 139.837205 74.3580436 138.33334 74.187786 136.974594 73.647428z"/>
    <path fill="#F9CD68" d="M157.832536 182.218023C153.718008 181.94116 149.592891 181.821909 145.46923 181.860089 139.732508 181.806969 133.992954 182.05862 128.282994 182.614557 127.685827 182.324039 127.191512 181.764482 126.926905 181.141932 126.514735 180.172209 126.533661 179.081284 126.560348 178.02794 127.095581 156.902096 128.027874 135.786313 129.356562 114.695501 136.345444 117.411756 142.218661 122.772459 146.395067 129.053395 151.144635 136.196317 153.891921 144.484771 155.881113 152.828801 158.102503 162.146829 159.446654 171.80624 158.258141 181.311379 158.224416 181.581102 158.181373 181.867447 158.00333 182.072846 157.95271 182.131244 157.895249 182.179061 157.832536 182.218023zM104.740298 118.300884C104.642294 123.117945 104.54429 127.935007 104.446286 132.752068 104.113407 149.11363 103.780742 165.491445 104.600787 181.835835 104.648905 182.794893 103.70107 183.273731 102.673513 183.443874 94.1603781 183.122214 85.6472432 182.800554 77.1341083 182.478895 77.3894126 164.91283 82.5221164 147.442654 91.808984 132.530044 95.2218399 127.049769 99.3634003 121.764926 104.740298 118.300884zM276.775594 126.668388C288.867732 140.078514 294.103139 158.2192 298.038981 175.853387 298.392406 177.436878 298.739207 179.080516 298.401735 180.667483 298.064263 182.25445 296.846757 183.774422 295.231259 183.924485 287.618678 184.631618 279.96078 184.647012 272.315441 184.661839 247.809359 184.709363 223.303278 184.756888 198.797196 184.804413 198.396996 184.787623 197.996815 184.719505 197.706208 184.457057 197.344652 184.130536 197.263874 183.602312 197.212464 183.117859 196.463957 176.064464 197.277806 168.947263 198.172721 161.910945 199.691571 149.968913 201.683394 137.473071 209.018783 127.927858 209.410764 127.41779 209.930804 126.906823 210.49486 126.527663 218.707783 133.958936 227.601889 140.637083 237.029277 146.450888 240.153579 148.377624 243.710381 150.278141 247.304638 149.631029 248.359275 149.804093 249.42703 149.813882 250.49748 149.593858 253.326413 149.012388 255.572391 146.931487 257.66033 144.936123 264.032085 138.846878 270.40384 132.757633 276.775594 126.668387z"/>
    <path fill="#F9CD68" d="M263.909255 85.9032174C270.609169 88.3213018 276.529915 92.8659149 280.578962 98.7283159 282.814287 101.964727 284.531147 105.961425 283.548225 109.769954 282.926633 112.178438 281.306784 114.1869 279.702326 116.087658 272.219217 124.952693 264.117075 133.295024 255.475492 141.035071 256.079757 139.849003 256.642851 138.64345 257.079318 137.38723 258.740734 132.60542 258.476612 127.39866 258.192579 122.344421 257.723111 113.990481 257.253643 105.636541 256.784176 97.2826015 256.722989 96.1938234 257.630514 95.3300097 258.411576 94.5690088 260.884074 92.1600179 262.783142 89.1663768 263.909255 85.9032174zM218.284069 90.8629288C218.584302 91.0840435 218.812489 91.3833719 218.907735 91.751052 219.502556 94.0472561 221.68395 95.5002991 223.624451 96.8644203 225.56495 98.2285415 227.595423 100.049167 227.608096 102.42113 227.639329 108.26683 227.670562 114.112529 227.701795 119.958229 227.727417 124.753769 227.804569 129.764698 230.050055 134.002109 231.313467 136.386267 233.192638 138.376909 235.048497 140.335533 235.228871 140.525895 235.409246 140.716257 235.58962 140.906619 226.239671 134.50625 217.35407 127.427492 209.027526 119.742731 206.324089 117.247664 203.513369 114.361339 203.160472 110.699455 202.988072 108.910536 203.438375 107.110434 204.126003 105.449975 206.562872 99.5655144 211.779949 95.3446501 216.989788 91.6809379 217.404811 91.389082 217.832633 91.0945134 218.284069 90.8629288z"/>
  </g>
</svg>
