<svg xmlns="http://www.w3.org/2000/svg" width="370" height="230" viewBox="0 0 370 230">
  <g fill="none" fill-rule="evenodd">
    <path fill="#FFF" d="M279.61941,275 C323.473396,278.022696 342.875533,245.187803 337.825819,176.495321 C330.251248,73.4565991 356.8023,46.0501921 274.40115,58.9708327 C192,71.8914734 194.428177,72.7767757 222.698941,160.379731 C233.225982,193 195.55728,219.913213 202.78125,237.626171 C210.149245,255.692273 235.761965,268.150216 279.61941,275 Z"/>
    <path fill="#000" fill-rule="nonzero" d="M283.128177,89.320468 C286.486486,94.1580033 288.39978,99.9864183 288.562231,105.874086 C288.686835,110.390049 287.573633,115.309016 284.05955,118.146018 C281.750591,120.010096 280.628345,123.231622 281.279052,126.127735 C289.194524,128.488006 296.359959,133.303182 301.537648,139.741524 C304.124961,142.95879 306.27722,146.739576 306.528474,150.861271 C306.960038,157.940852 301.87106,164.019164 297.095173,169.260866 C312.561443,184.389529 318.481916,206.570362 322.862991,227.76243 C323.255077,229.659025 323.603768,231.777533 322.568904,233.414287 C321.452529,235.179958 319.157228,235.712786 317.089596,236.005729 C310.037723,237.004842 302.886786,236.996078 295.764564,236.985409 C267.133417,236.94252 238.50227,236.899632 209.871124,236.856743 C208.983652,236.855414 207.98953,236.810429 207.380237,236.164845 C206.860014,235.613635 206.784665,234.789989 206.743454,234.033001 C205.913272,218.783629 207.728546,203.393635 212.083889,188.756503 C214.177338,181.720986 217.082526,174.530836 222.763255,169.885084 C218.539593,166.025428 214.0404,161.644837 213.422283,155.955259 C212.860674,150.785814 215.720579,145.83481 219.182686,141.956543 C223.098057,137.570529 227.920984,133.999137 233.257469,131.534125 C232.573643,128.225812 231.889817,124.917499 231.20599,121.609185 C230.983653,120.533531 230.547322,119.239664 229.464388,119.059059 C227.385226,118.712312 225.643646,116.883825 225.397621,114.789358 C225.151596,112.694891 226.422013,110.512256 228.364173,109.692683 C224.873017,106.284117 223.361453,101.166423 223.693033,96.2972973 C224.024614,91.4281715 226.043742,86.7948245 228.752407,82.7359595 C230.243816,80.5011208 232.031771,78.3432058 234.450139,77.1741253 C236.868507,76.0050445 240.042177,76.0593485 241.984441,77.9153925 C242.697049,75.1191915 243.741579,72.2159233 246.00942,70.4329748 C248.27726,68.6500263 252.09124,68.5840258 253.689092,70.9864025 C256.853628,64.0788038 262.21223,57.9939233 269.176095,54.961419 C276.139961,51.9289148 284.740996,52.3119925 290.857309,56.816777 C296.973621,61.3215613 299.869995,70.1270635 296.748886,77.054412 C294.195128,82.7225183 288.500333,86.1952225 283.128177,89.320468 Z M273.674945,192.261541 C271.455334,194.383779 269.067718,196.59699 266.060384,197.215433 C262.169826,198.015505 258.312743,195.958508 254.932024,193.872621 C244.830757,187.640188 235.305415,180.473837 226.516993,172.49469 C225.164054,171.266335 223.079162,172.722495 221.965913,174.171826 C214.167932,184.32396 212.050498,197.614336 210.435866,210.315687 C209.484514,217.799401 208.619342,225.369141 209.415052,232.871017 C209.469704,233.386275 209.555576,233.948085 209.939932,234.295367 C210.335609,234.652878 210.922362,234.671341 211.455511,234.670307 C238.451488,234.617928 265.447465,234.565549 292.443442,234.51317 C300.57092,234.4974 308.711748,234.481028 316.804402,233.728932 C318.521778,233.569327 319.816063,231.95271 320.174817,230.264837 C320.533571,228.576965 320.1649,226.828818 319.789187,225.144643 C315.583814,206.293615 309.982802,186.898376 296.987743,172.614583 C296.595595,172.183546 296.111699,171.722505 295.530986,171.769046 C295.089549,171.804425 294.732432,172.12784 294.412272,172.433954 C287.49983,179.04315 280.587388,185.652346 273.674945,192.261541 L273.674945,192.261541 Z M268.0293,94.7769415 C267.400322,94.2329898 266.678902,93.678071 265.847638,93.6924643 C260.987633,93.776617 256.11589,93.148794 251.435835,91.8352115 C249.979599,95.8336123 247.770892,99.5562465 244.959869,102.75004 C246.31674,102.594313 247.67361,102.438587 249.030481,102.28286 C249.914283,102.181427 250.930548,102.122608 251.563476,102.748044 C252.196403,103.37348 251.694043,104.826103 250.849004,104.547948 C246.974578,103.27263 242.849243,105.213028 239.233733,107.101839 C237.13349,108.199046 235.033247,109.296253 232.933003,110.39346 C234.082492,110.14357 234.936581,111.994307 234.000953,112.707613 C232.347641,111.568314 230.004901,110.827144 228.419012,112.058652 C227.315482,112.915589 227.004956,114.637075 227.73947,115.825888 C228.473984,117.0147 230.151933,117.506393 231.411432,116.901891 C231.998352,116.620195 232.518171,116.129798 233.167972,116.09093 C233.817773,116.052062 234.466648,116.924311 233.957928,117.330655 C232.826739,118.234201 232.880867,119.945404 233.087582,121.378744 C234.271226,129.586032 237.818262,138.390651 245.391409,141.760105 C247.890616,142.872055 250.639368,143.293591 253.364028,143.53347 C256.689761,143.826266 260.083789,143.859581 263.318931,143.034553 C271.826157,140.865036 278.06239,132.663339 279.151596,123.947657 C279.459998,121.479874 279.449322,118.846625 280.754945,116.730299 C280.217018,116.311476 280.18209,115.393547 280.686634,114.935019 C281.191178,114.476491 282.101089,114.599239 282.466231,115.175089 C282.968143,115.966634 284.285979,115.758507 284.85639,115.014854 C285.4268,114.271201 285.457641,113.258572 285.44479,112.321266 C285.4278,111.082065 285.041057,109.468693 283.805491,109.380436 C282.331114,109.27512 281.566005,111.574841 280.088768,111.523483 C277.446137,105.103495 273.27945,99.31737 268.0293,94.7769415 L268.0293,94.7769415 Z M249.260597,90.322877 C249.603706,89.187464 251.239317,89.3357803 252.374771,89.6770773 C263.948596,93.155973 277.045159,91.143653 287.04218,84.3503445 C289.944557,82.3780823 292.653945,79.948927 294.219866,76.807692 C297.268332,70.692475 295.045006,62.6322243 289.649902,58.4414658 C284.254798,54.250707 276.356744,53.9254998 270.300632,57.0855143 C266.814533,58.904523 263.950112,61.7015265 261.21021,64.5227265 C258.896047,66.9055548 256.551136,69.4734395 255.683641,72.6804918 C255.453967,73.5295758 255.20966,74.557141 254.377122,74.8398878 C252.34673,75.5294493 251.751752,70.975575 249.625676,71.2537733 C249.244472,71.303654 248.907184,71.5203808 248.598679,71.7498985 C245.595332,73.98429 244.119278,78.0887778 245.011297,81.7253918 C244.369996,82.1930203 243.433943,81.8917625 242.842703,81.3621983 C242.251463,80.832634 241.85642,80.1137338 241.273416,79.5751065 C239.993467,78.3925835 237.979045,78.2913975 236.36065,78.936741 C234.742256,79.5820845 233.454231,80.84932 232.330442,82.1812713 C227.135545,88.3384265 224.581932,97.14636 227.372386,104.704778 C228.172335,106.871577 230.199645,109.215819 232.360051,108.401184 C240.354283,105.386759 246.788208,98.5044675 249.260597,90.322877 L249.260597,90.322877 Z M268.639262,193.246667 C280.057003,183.606854 290.659442,173.000737 300.296166,161.578781 C302.001807,159.557166 303.723808,157.420998 304.3846,154.859374 C305.429507,150.808683 303.604378,146.55786 301.228085,143.115666 C296.666042,136.507287 289.86893,131.473299 282.219478,129.037759 C281.537117,128.8205 280.56421,128.756985 280.331856,129.434653 C279.136487,132.921004 277.112196,136.119781 274.473568,138.691894 C273.643249,139.501282 272.678493,140.42002 272.743538,141.578027 C273.242612,150.463142 273.741685,159.348257 274.240759,168.233373 C274.542705,173.60898 274.823483,179.146805 273.057293,184.232661 C272.360557,186.238956 271.360294,188.123741 270.364092,189.999307 C269.789149,191.08176 269.214206,192.164214 268.639262,193.246667 L268.639262,193.246667 Z M258.624364,193.490515 C256.691686,191.449819 254.759008,189.409124 252.82633,187.368428 C250.853435,185.285268 248.855757,183.168053 247.512671,180.632301 C245.125578,176.125459 245.043561,170.795917 245.016323,165.695457 C244.98312,159.478066 244.949918,153.260674 244.916715,147.043283 C244.903242,144.520502 242.744722,142.584114 240.681848,141.133256 C238.618974,139.682399 236.300015,138.136966 235.667682,135.694761 C235.408871,134.695176 234.226694,134.170573 233.20228,134.296125 C232.177864,134.421676 231.283819,135.026214 230.439595,135.620188 C224.901207,139.516853 219.355125,144.006096 216.76458,150.264714 C216.033588,152.030751 215.554888,153.94531 215.738159,155.847975 C216.113312,159.742696 219.101284,162.812545 221.975208,165.466257 C233.290518,175.914536 245.577009,185.309564 258.624364,193.490515 L258.624364,193.490515 Z M247.608006,158.895829 C247.351176,162.227285 247.292336,165.574009 247.4319,168.912441 C247.587578,172.636336 248.023975,176.463248 249.807301,179.735599 C251.012528,181.947156 252.774332,183.795088 254.515227,185.614785 C257.027588,188.240869 259.539948,190.866953 262.05231,193.493038 C262.599536,194.065034 263.278062,194.685632 264.061256,194.57189 C264.641192,194.487666 265.079825,194.018292 265.450183,193.563924 C269.173497,188.996021 271.028443,183.134067 271.680753,177.276041 C272.333063,171.418015 271.862092,165.49966 271.390653,159.624294 C271.363129,159.281268 271.294709,158.876086 270.982921,158.730766 C270.685797,158.592283 270.346066,158.774577 270.065996,158.94496 C263.337287,163.038439 254.318759,163.018708 247.608006,158.895829 L247.608006,158.895829 Z M247.701599,144.664914 C246.681101,145.568481 246.539259,147.446084 246.64696,148.805223 C246.78921,150.60034 246.973839,152.392096 247.20064,154.178492 C247.283255,154.829206 247.377451,155.497549 247.701599,156.067711 C248.14948,156.855512 248.972232,157.347529 249.784335,157.749109 C256.05431,160.849569 263.93014,160.4213 269.827312,156.659218 C270.175158,156.437311 270.52887,156.19146 270.728678,155.830356 C270.945121,155.43919 270.950278,154.969977 270.950018,154.522871 C270.947748,150.620499 270.945477,146.718128 270.943206,142.815756 C270.942962,142.395243 270.850409,142.039616 269.98406,142.558033 C264.118794,146.067764 250.01952,145.109409 247.701599,144.664914 Z M280.967934,93.4197175 C278.440997,94.1528395 275.91406,94.8859615 273.387123,95.6190835 C273.040005,95.7197903 272.674591,95.8315208 272.430114,96.0978355 C272.761932,96.8894295 273.666305,97.3167928 274.523963,97.3398915 C275.38162,97.36299 276.210585,97.0599415 277.014828,96.7609575 C279.191413,95.951794 281.393883,95.1342578 283.700932,94.871166 C284.088209,94.31027 283.615998,93.4850993 282.971859,93.2628083 C282.327721,93.040517 281.622355,93.229855 280.967934,93.4197175 L280.967934,93.4197175 Z M284.317613,98.1458848 C284.87174,98.1805455 285.281054,97.5061953 285.119113,96.9748678 C284.957172,96.4435405 284.398155,96.1124268 283.846403,96.050532 C283.294652,95.9886375 282.74391,96.1428925 282.211168,96.2993108 C279.998219,96.949054 277.804272,97.663572 275.633076,98.4416435 C275.382137,98.53157 275.076862,98.7168655 275.142008,98.9754588 C275.419177,99.8967673 276.574018,100.281404 277.519572,100.106029 C278.465127,99.930653 279.282519,99.36308 280.151101,98.9501245 C281.442374,98.3362053 282.890743,98.0566343 284.317612,98.1458848 L284.317613,98.1458848 Z M285.985989,99.9708028 C285.90216,99.60829 285.738916,99.2305205 285.411677,99.053717 C285.053091,98.859977 284.613336,98.9634138 284.221093,99.074049 C282.503971,99.5583763 280.801832,100.095878 279.117935,100.685526 C278.539645,100.888025 277.873862,101.199634 277.779241,101.805267 C277.681897,102.428331 278.31395,102.969688 278.941665,103.026971 C279.56938,103.084254 280.172869,102.806462 280.74919,102.551077 C282.366256,101.834507 284.285292,101.255951 285.846378,102.087551 C286.098383,101.415964 286.147603,100.669697 285.985989,99.9708028 L285.985989,99.9708028 Z M272.885883,94.476415 C275.691075,93.6919123 278.496267,92.9074098 281.301459,92.122907 C281.668338,92.0203053 282.09844,91.8525228 282.170127,91.478203 C281.766247,90.875111 280.980764,90.6242168 280.256146,90.6617973 C279.531529,90.6993778 278.844301,90.976996 278.165522,91.2335218 C275.581348,92.2101408 272.900171,92.9296313 270.174365,93.3779403 C270.051098,93.9562345 270.568656,94.5136185 271.142613,94.6546325 C271.71657,94.7956465 272.316692,94.6355955 272.885883,94.476415 L272.885883,94.476415 Z M286.141266,103.263987 C285.987219,103.136252 285.781771,103.092921 285.584319,103.060601 C283.332398,102.691987 280.942031,103.259075 279.095293,104.60005 C279.172905,105.168393 279.714782,105.582781 280.27629,105.698727 C280.837797,105.814674 281.418142,105.696582 281.97925,105.578711 C282.929788,105.379031 283.880327,105.179352 284.830866,104.979672 C285.274196,104.886542 285.742662,104.780514 286.068628,104.465792 C286.394593,104.151071 286.490046,103.553194 286.141266,103.263987 L286.141266,103.263987 Z M286.526621,105.941517 C284.964333,105.92897 283.400254,106.179796 281.920152,106.680241 C281.522623,106.814651 281.113871,106.97873 280.841193,107.297827 C280.392738,107.822624 280.485191,108.718034 281.031404,109.140029 C281.786036,108.207291 282.692355,107.194742 283.89095,107.150151 C284.521342,107.126698 285.149289,107.385577 285.77197,107.284479 C286.394652,107.18338 286.959404,106.400701 286.526622,105.941517 L286.526621,105.941517 Z"/>
    <path fill="#000" d="M261.331312 134.826591C260.701888 134.78141 260.008927 134.621997 259.655187 134.099168 259.301447 133.576339 259.630577 132.65178 260.258951 132.709776 261.990587 132.869596 263.76177 132.57971 265.352241 131.876169 265.982809 131.597239 266.608392 131.233517 266.988924 130.658311 267.369455 130.083104 267.434191 129.251507 266.978667 128.733721 266.507518 128.198177 266.100132 127.477649 266.322336 126.799725 266.54454 126.1218 267.704908 125.900542 267.925769 126.578906 268.3985 128.030878 270.31151 128.796394 271.654662 128.071072 272.119672 127.819959 272.692376 128.404268 272.597598 128.924376 272.50282 129.444484 272.000118 129.793128 271.498252 129.958621 270.996385 130.124113 270.455598 130.16762 269.973164 130.383338 269.180252 130.737885 268.661769 131.496348 268.075679 132.137591 266.385885 133.9864 263.82892 135.00587 261.331312 134.826591zM262.377458 121.717981C263.840075 122.558248 264.349854 124.578842 263.766931 126.162275 263.184009 127.745708 261.722139 128.884333 260.131798 129.446231 258.541458 130.00813 256.821116 130.066726 255.134708 130.041561 254.362632 130.03004 253.563874 129.995786 252.870575 129.655662 252.177276 129.315539 251.615394 128.587123 251.710485 127.820463 252.675429 120.040758 253.662006 112.172078 256.46119 104.850007 256.6726 104.297004 256.941817 103.696437 257.4832 103.45734 258.024583 103.218244 258.830572 103.682392 258.650161 104.24628 256.354818 111.420538 254.910744 118.867009 254.357922 126.37952 254.309062 127.043492 254.878609 127.625597 255.514479 127.821869 256.150348 128.01814 256.834969 127.920958 257.49303 127.822063 258.813541 127.623612 260.237955 127.37301 261.156176 126.403017 262.074396 125.433024 262.017516 123.49566 260.758016 123.051872 260.20507 122.85704 260.228839 121.959814 260.712983 121.629083 261.197126 121.298352 261.869076 121.425917 262.377458 121.717981L262.377458 121.717981z"/>
    <path fill="#000" fill-rule="nonzero" d="M247.851947 110.760376C248.817788 112.395693 248.506628 114.67761 247.13825 115.994322 246.563362 116.547504 245.758785 116.944707 244.978231 116.780493 243.485473 116.466443 243.099973 114.491091 243.337165 112.983503 243.48445 112.047358 243.76818 111.089671 244.421382 110.403383 245.074583 109.717095 246.177729 109.389087 247.001107 109.857558 247.364608 110.064378 247.639213 110.400186 247.851946 110.760376L247.851947 110.760376zM246.826532 112.35568C246.881073 111.806183 246.217039 111.3293 245.714124 111.556792 245.211209 111.784283 245.130435 112.598076 245.578809 112.920081 246.027184 113.242086 246.771991 112.905176 246.826532 112.35568zM268.811453 112.179842C269.264177 113.201426 269.298876 114.438203 268.750849 115.411941 268.202822 116.38568 267.025808 117.01437 265.934591 116.775891 264.861018 116.541269 264.059575 115.511903 263.938861 114.419131 263.818148 113.326359 264.305977 112.220317 265.082487 111.442385 265.584912 110.939039 266.262599 110.541064 266.970421 110.608383 267.81277 110.688496 268.46849 111.405938 268.811453 112.179842L268.811453 112.179842zM266.490289 113.770963C267.015748 113.745838 267.460296 113.216738 267.394707 112.694528 266.575273 112.426647 265.598783 113.140611 265.604997 114.003079 265.864214 114.217024 266.303508 114.152561 266.490401 113.873155L266.490289 113.770963z"/>
    <path fill="#000" d="M265.589251 104.216665C266.207079 103.96814 266.886924 103.934186 267.552103 103.903304 268.922678 103.839672 270.293253 103.77604 271.663829 103.712409 271.957508 103.698774 272.271203 103.689969 272.522139 103.843224 273.058836 104.171004 272.937968 105.055364 272.451619 105.45411 271.96527 105.852855 271.290105 105.902235 270.662126 105.934195 269.046662 106.016413 267.431197 106.098631 265.815732 106.180848 265.493618 106.197242 265.140951 106.204652 264.885424 106.00775 264.267629 105.531694 264.865746 104.5077 265.589251 104.216665zM247.878163 120.326917C246.861813 121.495951 245.071865 121.562646 243.547324 121.290397 242.869079 121.169278 242.02681 120.756669 242.147965 120.078108 242.227843 119.630726 242.7286 119.373914 243.18273 119.36388 243.636861 119.353846 244.07545 119.516998 244.525246 119.580421 245.476305 119.714525 246.482624 119.371744 247.154313 118.684886 247.478673 118.353202 248.110323 118.609836 248.254242 119.050964 248.39816 119.492091 248.182552 119.976799 247.878163 120.326917L247.878163 120.326917zM265.120729 119.470289C266.026162 119.222827 266.931594 118.975365 267.837027 118.727904 268.116134 118.651621 268.421725 118.576867 268.686566 118.693428 269.117282 118.882993 269.197003 119.509863 268.951324 119.911378 268.705645 120.312894 268.248462 120.529494 267.804078 120.68429 267.072022 120.939295 266.302677 121.086868 265.528262 121.120831 264.886898 121.148959 264.018992 120.842871 264.128164 120.209932 264.202474 119.779108 264.699196 119.585497 265.120729 119.470288L265.120729 119.470289z"/>
    <path fill="#FFF" d="M109.61941,271 C144.047074,264.80802 163.44921,231.973128 167.825819,172.495321 C174.390732,83.2786121 153.450038,78.9349149 104.425188,63.0675022 C55.4003388,47.2000895 58.8922272,126.52378 30.0584195,169.231821 C10.8358811,197.703847 37.3562114,231.626574 109.61941,271 Z"/>
    <path fill="#000" d="M234.380815 86.850104C234.570818 86.431274 234.807419 85.974018 235.241975 85.8239155 235.676531 85.673813 236.264967 86.1256012 236.045941 86.5299965 233.961594 90.3783987 232.455398 94.5395885 231.593473 98.8308955 231.370492 99.9410617 231.047735 101.243291 229.994062 101.656719 229.595395 101.285707 229.686399 100.642196 229.814452 100.112736 230.915244 95.5613287 232.4464 91.1142112 234.380815 86.850104zM237.540743 100.83263C237.410171 100.9548 237.261982 101.082763 237.083305 101.08861 236.52713 101.106808 236.639072 100.213176 236.970617 99.7660357 238.191085 98.120049 239.613926 96.6244182 241.196855 95.3235917 241.690258 95.4430317 241.517043 96.1910415 241.224071 96.6058115 240.143951 98.134969 238.907681 99.5536562 237.540743 100.83263zM264.162184 88.1511482C263.957431 88.151752 263.735572 88.1413077 263.577002 88.011707 263.407993 87.8735745 263.359933 87.6081635 263.469764 87.4194892 263.600526 87.194857 263.885122 87.1220838 264.140378 87.0735473 265.572079 86.801312 267.025678 86.6444388 268.482472 86.6049465 268.892273 86.7826903 268.440311 87.3786162 268.016555 87.5198595 266.776162 87.9332967 265.469595 88.1472932 264.162184 88.1511482zM281.081298 68.3087005C279.288013 68.4594322 277.587649 69.4785815 276.608768 70.989407 276.471217 71.201706 276.343761 71.434951 276.338775 71.6879032 276.330873 72.0887512 276.628269 72.42811 276.939764 72.6803347 278.629687 74.0487012 281.32321 73.9598335 282.919354 72.4830495 284.996308 70.5614102 284.819297 67.0645442 283.308827 64.6714482 282.824372 63.9039067 282.205573 63.1919645 281.398017 62.7781267 280.039126 62.081752 278.394252 62.336706 276.932318 62.7771477 272.772022 64.030534 269.047972 66.688242 266.509078 70.2158037 266.288452 70.5223432 265.743681 70.2880857 265.66033 69.9196622 265.576979 69.551239 265.785724 69.1848852 265.999667 68.8736402 267.703951 66.3942395 270.235253 64.6096247 272.834199 63.0951217 274.454246 62.1510595 276.160448 61.277211 278.012482 60.985684 279.864516 60.694157 281.903358 61.063627 283.270999 62.3466327 284.176564 63.1961567 284.717151 64.3666207 285.08207 65.5537372 285.710884 67.5993275 285.853662 69.9072502 284.873981 71.8097532 283.434699 74.604784 279.502163 75.7560512 276.783939 74.1781482 276.255798 73.8715677 275.766222 73.4692755 275.463882 72.9385225 274.808761 71.7884632 275.199288 70.2558942 276.092468 69.2793242 276.985649 68.3027545 278.274149 67.7875337 279.55415 67.4525192 279.917887 67.3573182 280.311127 67.2754777 280.662263 67.4099402 281.0134 67.5444027 281.270577 67.983683 281.081298 68.3087005z"/>
    <path fill="#000" fill-rule="nonzero" d="M112.163252,72.2011213 C115.773153,73.8062482 119.294389,75.7350984 122.167235,78.4425379 C124.387419,80.5348926 126.171769,83.0474576 127.732201,85.6665235 C136.909664,101.070191 138.389405,119.868589 137.195262,137.747372 C136.986338,140.875395 135.94929,144.829034 132.827715,145.194248 C124.817604,146.131406 116.807493,147.068565 108.797382,148.005723 C107.435693,148.165036 105.984671,148.36216 104.948862,149.258094 C102.954448,150.983183 103.652382,154.422802 105.55906,156.243915 C107.465739,158.065027 110.136219,158.781055 112.591641,159.747994 C126.339469,165.161852 134.558801,179.37749 138.918604,193.464311 C142.855386,206.184322 144.523273,219.599419 143.820774,232.893289 C143.783782,233.593307 143.707247,234.366274 143.192237,234.843247 C142.652255,235.343349 141.82938,235.337143 141.093228,235.30494 C110.721006,233.976298 80.107384,239.16579 49.9922178,235.014322 C49.1041717,234.891902 47.9573039,234.442321 48.0808769,233.556656 C50.0360821,219.543792 52.2797013,205.416148 57.625573,192.311532 C62.9714445,179.206916 71.7464182,167.046653 84.1219624,160.133622 C84.8667969,159.717554 85.6557981,159.291396 86.113828,158.572826 C86.5307339,157.918774 86.6134397,157.113248 86.6675317,156.340074 C86.8905785,153.151927 86.8128197,149.94291 86.4356175,146.769235 C74.3852668,147.630826 62.2641523,147.505723 50.234256,146.395599 C49.5700574,146.334307 48.8653171,146.254254 48.3428592,145.840614 C47.7193177,145.346946 47.5114196,144.507061 47.3546635,143.728547 C42.7474072,120.847059 50.090018,95.9042601 66.3682091,79.1396603 C69.6751979,75.7338552 73.3668062,72.6218206 77.6417205,70.5486139 C88.342276,65.3591617 101.295826,67.3689686 112.163252,72.2011213 L112.163252,72.2011213 Z M66.6670094,107.32914 C66.6701717,106.851989 66.6782947,106.353981 66.9000152,105.931164 C67.2412813,105.280377 67.9906851,104.973023 68.6826259,104.721924 C76.3301249,101.94672 84.2354291,99.8787791 92.2640948,98.5532705 C94.1339792,98.2445586 96.0620825,97.9583433 97.6985955,97.0047048 C99.3351082,96.0510664 100.629733,94.2422652 100.368695,92.369791 C100.221513,91.3140412 101.970964,90.975451 102.701869,91.7530473 C103.432774,92.5306437 103.460272,93.7047982 103.688832,94.7460391 C103.917391,95.7872802 104.65931,96.9437488 105.723016,96.8415195 C109.667985,96.462382 113.612953,96.0832445 117.557921,95.704107 C118.910281,95.5741364 120.676466,95.701214 121.070966,96.9979844 C122.400488,101.368289 122.19788,106.186343 120.506113,110.430243 C122.765276,109.330844 125.426909,111.579415 125.970151,114.027452 C126.62767,116.99046 125.159607,120.298314 122.518476,121.804804 C121.938943,122.135367 121.301404,122.394023 120.831307,122.866838 C120.370181,123.330631 120.116394,123.954319 119.854644,124.553062 C117.174888,130.682919 112.45638,135.905472 106.621783,139.199495 C104.707778,140.28008 102.315127,141.90912 102.931395,144.01496 C103.530162,146.060994 106.335096,146.229065 108.457198,145.978912 C115.968053,145.093533 123.478908,144.208155 130.989762,143.322776 C132.034873,143.199578 133.170301,143.033064 133.894448,142.271387 C134.598191,141.53117 134.720528,140.429804 134.79932,139.412713 C136.194946,121.397227 135.087814,102.350511 125.799053,86.83748 C124.136578,84.0610042 122.207322,81.406982 119.766173,79.2786685 C117.174094,77.0187662 114.07762,75.4130284 110.928081,74.0263984 C102.025236,70.1067926 91.8007042,67.7894487 82.5832339,70.9025247 C78.1697961,72.3931037 74.2332214,75.0538006 70.7172174,78.1036718 C61.8132927,85.8271619 55.3524583,96.1953876 51.7700184,107.409652 C48.1875783,118.623916 47.4299579,130.654912 48.9709955,142.323909 C49.02675,142.746092 49.0932965,143.187738 49.3477042,143.529699 C49.7654556,144.091219 50.5440804,144.213132 51.2412205,144.286638 C61.8723828,145.407591 72.594471,145.669437 83.2678926,145.068766 C75.8822054,142.509365 70.187321,135.628744 69.0665147,127.910509 C68.9345711,127.001903 67.6539514,126.995979 66.7336113,126.982729 C64.7674275,126.954422 62.9472163,125.702789 61.9129936,124.034612 C60.8787708,122.366435 60.5526759,120.33887 60.6388393,118.379382 C60.7105783,116.747928 61.0950219,115.045608 62.1991574,113.839847 C63.3032929,112.634087 65.2781044,112.119713 66.6291476,113.042072 C66.6417682,111.137761 66.6543888,109.233451 66.6670094,107.32914 L66.6670094,107.32914 Z M141.079324,232.01834 C142.345349,221.91913 140.913536,211.656006 138.547272,201.755601 C136.42835,192.890069 133.501894,184.083587 128.442571,176.494232 C123.383248,168.904878 115.9863,162.580057 107.162224,160.214246 C105.712239,182.963989 104.697462,205.741329 104.118632,228.529686 C104.090204,229.648865 104.070043,230.807972 104.509094,231.838303 C104.948145,232.868634 105.980885,233.736573 107.096618,233.614719 C117.848915,232.440408 128.71215,232.278775 139.494779,233.132666 C139.960709,233.169564 140.501754,233.179679 140.807895,232.827398 C140.997549,232.609163 141.0434,232.304921 141.079325,232.018341 L141.079324,232.01834 Z M107.021608,135.924346 C109.28517,134.289949 111.502356,132.559102 113.355588,130.472984 C115.574741,127.974962 117.23758,124.987921 118.190154,121.788408 C118.471416,120.843702 119.208133,119.615178 120.094594,120.050339 C121.200822,120.593382 122.599462,119.898896 123.237285,118.846444 C123.875107,117.793992 123.939158,116.502609 123.944624,115.272824 C123.951798,113.658864 123.113749,111.428013 121.561228,111.882851 C120.938441,112.065307 120.541369,112.657588 120.017459,113.03981 C119.493549,113.422032 118.565971,113.47035 118.359311,112.856603 C118.812237,110.017633 119.265162,107.178663 119.718088,104.339692 C119.945614,102.913544 120.169147,101.425211 119.730294,100.04906 C119.291441,98.6729082 117.970292,97.4607561 116.53558,97.6543864 C113.698168,98.037326 110.860757,98.4202654 108.023346,98.803205 C106.743024,98.9759985 105.407717,99.1440538 104.184995,98.727763 C102.962273,98.3114721 101.901031,97.1184363 102.092065,95.8439087 C101.530034,95.7340512 101.216533,96.4416542 100.982048,96.9628393 C99.9872761,99.1738926 97.1925752,99.7869023 94.794723,100.17791 C87.0274892,101.444479 79.3572724,103.302535 71.8728383,105.730575 C70.9458545,106.0313 69.9592112,106.38544 69.3945174,107.177969 C68.9476877,107.80508 68.8419728,108.604381 68.7495348,109.368191 C68.4395349,111.929699 68.129535,114.491208 67.8195351,117.052715 C66.5525133,117.374776 66.1191397,114.951091 64.8132645,114.885773 C63.8613204,114.838158 63.4230363,116.032538 63.2768526,116.971999 C62.9830788,118.859957 62.7155313,120.910083 63.6427923,122.581854 C64.5700531,124.253625 67.2289369,125.027077 68.400816,123.515804 C68.9118883,122.856717 69.8391924,123.822574 70.0796729,124.620523 C72.0161559,131.046066 74.5578565,137.971375 80.3587227,141.368413 C84.5066168,143.797457 89.7120694,143.931602 94.3429862,142.634878 C98.9739032,141.338154 103.125384,138.7376 107.021608,135.924346 L107.021608,135.924346 Z M67.1008742,180.188172 C57.2083414,196.032819 51.740896,214.594881 51.4689415,233.258826 C61.1993394,233.62554 70.9297373,233.992255 80.6601352,234.35897 C82.0635134,234.41186 83.9929495,233.974612 83.9225776,232.575574 C83.0490517,215.20966 83.4034114,197.808232 83.7580002,180.424072 C83.8745885,174.708184 83.9911766,168.992296 84.1077648,163.276407 C76.7653636,166.730552 71.3923014,173.314689 67.1008742,180.188172 L67.1008742,180.188172 Z M104.86652,165.125513 C101.861946,166.686209 98.541608,167.819107 95.1557701,167.710682 C91.7699323,167.602256 88.3137823,166.098189 86.4381299,163.284455 C85.3496714,186.573756 85.3101916,209.911808 86.3198495,233.20464 C86.3366607,233.592477 86.3779062,234.030197 86.6819007,234.272594 C86.938509,234.477207 87.2987985,234.472217 87.6269878,234.457412 C91.5577428,234.280102 95.4884979,234.102792 99.419253,233.925482 C100.110463,233.894302 100.878414,233.829024 101.345107,233.319499 C101.77444,232.850763 101.808986,232.154833 101.820825,231.520042 C102.233969,209.366493 103.2497,187.224128 104.86652,165.125513 L104.86652,165.125513 Z M100.494763,146.363619 C99.8033317,145.755707 99.1119004,145.147795 98.4204693,144.539884 C97.9890927,144.160614 97.3137763,143.779119 96.9036278,144.181136 C96.5279134,144.549402 96.8021482,145.17742 97.0904481,145.617156 C97.5247561,146.279595 97.9590639,146.942033 98.3933717,147.604472 C97.9089085,148.006755 97.1426514,147.664399 96.7675817,147.159047 C96.392512,146.653696 96.2215225,146.013797 95.8106274,145.536967 C95.3997325,145.060138 94.5590568,144.836159 94.1733851,145.333508 C93.8742902,145.732367 94.1987755,146.304889 94.5902995,146.61405 C94.9818234,146.923212 95.4778531,147.176299 95.635133,147.649036 C95.792413,148.121772 95.182758,148.738399 94.8397683,148.376393 C94.3574669,147.867352 93.8751658,147.358311 93.3928644,146.84927 C93.0193751,146.455074 92.6276534,146.048474 92.1191265,145.8564 C91.6105999,145.664327 90.9500574,145.756533 90.6530529,146.210859 C91.6969526,147.334551 92.7408522,148.458244 93.7847519,149.581937 C93.6950801,150.094639 92.9045908,149.925443 92.4954276,149.602484 C91.3231924,148.677222 90.3303906,147.526632 89.5876987,146.232622 C89.4173835,145.935878 88.9064382,146.070535 88.7738856,146.38587 C88.6413331,146.701204 88.7669665,147.062087 88.9175199,147.369277 C89.260256,148.068596 89.7362798,148.702636 90.3126116,149.227469 C90.6301994,149.516678 90.9964896,149.800881 91.1103172,150.214522 C91.224145,150.628163 90.8860438,151.17461 90.4709978,151.06234 C90.2181245,150.219933 89.5796213,149.501077 88.7716845,149.149178 C88.7153418,153.263212 88.6589994,157.377246 88.602657,161.49128 C88.595453,162.017309 88.5922478,162.563362 88.8111343,163.041997 C89.0449263,163.553225 89.5045379,163.924469 89.9783205,164.228456 C92.8843828,166.093037 96.6975305,166.013458 99.9763185,164.925728 C101.842495,164.306629 103.851752,163.036565 103.956553,161.077681 C103.992659,160.402818 103.787966,159.741328 103.599427,159.092197 C102.382028,154.90077 101.752891,150.539806 101.736072,146.176059 C101.732829,145.334609 101.730325,144.423004 101.220712,143.752433 C100.711099,143.081862 99.4782937,142.938867 99.1103082,143.696049 C100.169109,144.038728 100.825495,145.303454 100.494763,146.363619 Z"/>
    <path fill="#000" d="M57.9979408 133.132991C58.1553632 135.986778 58.3127857 138.840566 58.4702083 141.694354 58.4969927 142.179907 58.3389728 142.858114 57.8536135 142.812273 57.2004994 139.519853 56.9555908 136.14708 57.1262355 132.795149 57.1568092 132.194599 57.3127939 131.451689 57.8970095 131.30329 57.9306534 131.91319 57.964297 132.52309 57.9979408 133.132991zM126.00509 139.231907C125.619822 136.551285 125.657522 133.810614 126.11638 131.141545 126.20758 130.611058 126.52063 129.935526 127.048928 130.04514 126.967612 132.045825 126.886297 134.04651 126.804981 136.047195 126.759778 137.15937 126.686984 138.350796 126.005091 139.231907L126.00509 139.231907zM62.2956086 135.98446C62.3792008 137.321252 62.4627927 138.658045 62.5463849 139.994837 62.6028633 140.89803 62.6577397 141.81924 62.429546 142.695096 60.9872571 139.867711 60.7921366 136.434368 61.9048496 133.462519 62.186639 134.268366 62.2423441 135.132658 62.2956093 135.98446L62.2956086 135.98446zM54.0511467 129.721816C54.350792 129.877849 54.365193 130.292424 54.3427434 130.628838 54.0727741 134.67437 54.3919363 138.758547 55.2871106 142.71349 55.3729104 143.09256 54.7881965 143.324167 54.4689279 143.101446 54.149659 142.878725 54.0632958 142.452298 54.0053617 142.068009 53.447039 138.364534 53.1624673 134.62003 53.1547192 130.874927 53.1534996 130.285417 53.5272275 129.448997 54.0511467 129.721816L54.0511467 129.721816zM116.602589 136.670594C116.609546 138.450639 116.616503 140.230684 116.623461 142.01073 116.624811 142.356312 116.459743 142.840436 116.126182 142.746989 115.942308 142.695477 115.863007 142.484007 115.815021 142.299617 115.197083 139.925131 115.340149 137.359703 116.218294 135.068224 116.580518 135.49761 116.600396 136.109429 116.60259 136.670594L116.602589 136.670594zM75.983492 101.200212C75.1423366 100.624402 75.0932172 99.4262592 75.1301729 98.4093348 75.1838092 96.9334071 75.2975726 95.3105817 76.3328525 94.254702 76.6343139 94.6426583 76.5988349 95.1850939 76.5488821 95.6734006 76.3604181 97.5156709 76.171955 99.3579414 75.983492 101.200212zM78.8734312 95.5458584C78.7111784 96.8468713 78.5489258 98.1478842 78.3866732 99.4488971 78.2365177 99.5927529 78.0043091 99.6447658 77.8069056 99.5787609 77.1427799 97.7472859 77.4211122 95.6029075 78.5309417 94.000512 78.9688863 94.3402355 78.941917 94.9967099 78.8734319 95.5458584L78.8734312 95.5458584zM120.44002 134.642062C120.513709 136.297629 120.547418 137.954966 120.541106 139.612151 120.538917 140.187148 120.233641 140.992799 119.689161 140.803912 119.480322 139.166482 119.43146 137.508792 119.543493 135.861953 119.582496 135.288622 119.87547 134.527475 120.44002 134.642062zM111.26414 89.9748734C111.294321 89.6982321 111.336879 89.3960664 111.54216 89.2076231 111.699406 89.0632758 111.939766 89.016276 112.140012 89.0907198 112.404795 90.539969 112.350631 92.0463304 111.98244 93.472935 111.06653 92.6374467 111.129865 91.2056125 111.26414 89.9748734zM113.504604 92.7315352C113.004921 91.6346094 113.136181 90.2767198 113.836772 89.2952265 114.614822 90.2977104 114.460345 91.8957932 113.504605 92.7315355L113.504604 92.7315352z"/>
    <path fill="#000" fill-rule="nonzero" d="M106.500486 112.658081C107.495854 113.70933 108.158356 115.13473 108.054998 116.577021 107.95164 118.019313 106.975788 119.426634 105.577753 119.809115 104.179719 120.191597 102.493061 119.320159 102.200501 117.903939 101.890247 116.402063 101.775096 114.736412 102.584797 113.432907 103.394497 112.129401 105.444916 111.54325 106.500486 112.658081L106.500486 112.658081zM105.332425 114.341856C105.20001 113.979873 104.662378 113.930226 104.350205 114.157209 104.038033 114.384191 103.898198 114.773157 103.77523 115.138441 103.715417 115.316115 103.654811 115.503234 103.688545 115.687612 103.78518 116.215773 104.599788 116.293101 104.983466 115.916557 105.367144 115.540013 105.427674 114.953864 105.465848 114.418332L105.332425 114.341856zM81.1647385 112.550131C81.8747181 112.488802 82.5632567 112.844324 83.0977932 113.31442 84.3875484 114.44869 84.9602119 116.379433 84.3622919 117.987497 84.015932 118.919009 83.2696017 119.729504 82.3133725 120.007626 81.3571436 120.285748 80.2128302 119.947314 79.6762561 119.110283 79.3730757 118.637334 79.2791869 118.064853 79.1919026 117.510281 79.0357371 116.518065 78.8809041 115.492248 79.1342306 114.520184 79.3875574 113.548121 80.1615556 112.636788 81.1647378 112.550131L81.1647385 112.550131zM82.2089634 115.685425C82.3669016 115.523052 82.5248398 115.360679 82.682778 115.198305 82.466399 114.686706 81.793308 114.3806 81.3083085 114.653161 80.8233092 114.925721 80.8109257 115.7828 81.3275367 115.989653 81.6218626 115.889398 81.9161884 115.789142 82.2105145 115.688886L82.2089634 115.685425zM89.9562879 122.917108C90.2576315 122.325856 90.9424906 121.788111 91.5431322 122.072702 92.1095068 122.341056 92.1671091 123.125977 92.0300852 123.736288 91.8930616 124.346599 91.6475796 124.996944 91.8931753 125.5724 92.1387709 126.147856 93.1934881 126.27169 93.2846865 125.652914 93.3785564 125.016008 94.4256194 124.832058 94.7320048 125.398646 95.0031058 124.291314 94.7466607 123.067354 94.0536487 122.160995 93.649687 121.632671 93.1051439 121.203798 92.8103345 120.607971 92.5155252 120.012145 92.6002408 119.138376 93.2108668 118.872829 93.9881085 118.534824 94.7227914 119.40354 95.128301 120.146287 95.4870897 120.803458 95.8458785 121.460629 96.2046669 122.1178 96.5117957 122.680349 96.8456329 123.270864 97.4026459 123.589651 97.9623024 123.909951 98.6659114 123.905052 99.2195915 124.235524 100.129717 124.778746 100.311527 126.130879 99.7693488 127.04013 99.2271704 127.949381 98.1510165 128.435636 97.0948571 128.532632 96.0386977 128.629628 94.983352 128.394158 93.9494339 128.158239 92.6866789 127.870104 91.3444117 127.534098 90.4656158 126.584836 89.5721143 125.619688 89.3594354 124.088163 89.9562877 122.917108L89.9562879 122.917108zM96.3907308 126.094854C96.1037652 126.274724 95.9826682 126.67706 96.1228577 126.984842 96.609179 127.083772 97.1196574 127.18187 97.5947189 127.038494 98.0697805 126.895118 98.4847493 126.423004 98.3822361 125.938613 98.2921627 125.512998 97.8149111 125.238082 97.3825683 125.295109 96.9502255 125.352136 96.5875972 125.682119 96.4033649 126.076392L96.3907308 126.094854z"/>
    <path fill="#000" d="M98.0950342 135.218108C96.5873746 136.142647 95.0411176 137.08124 93.3103999 137.450168 91.5796822 137.819097 89.5991442 137.515553 88.3761494 136.23957 87.8295692 135.669308 87.4578156 134.811569 87.7798577 134.090984 88.1018998 133.370398 89.3410151 133.192191 89.6407575 133.922286 90.175901 135.225755 91.8331587 135.7579 93.2196402 135.490665 94.6061217 135.223431 95.7890563 134.359349 96.9422073 133.546349 97.6175988 133.070181 98.7098175 132.676909 99.1295527 133.387743 99.5268142 134.060518 98.7618791 134.809179 98.0950344 135.218108L98.0950342 135.218108zM83.2784626 107.129168C80.4691578 108.432881 77.5616798 109.526063 74.5886174 110.396458 74.4141276 110.447542 74.2329309 110.498381 74.0529016 110.472774 73.4839866 110.391854 73.3020033 109.577266 73.6143841 109.096143 73.9267649 108.615021 74.5112482 108.399834 75.055255 108.215096 77.9310094 107.238528 80.8067631 106.261959 83.682517 105.285391 84.1422184 105.129282 84.5417086 105.770484 84.368366 106.222948 84.1950234 106.675413 83.7187548 106.924841 83.2784626 107.129168L83.2784626 107.129168zM108.682333 107.337654C106.497454 107.834308 104.312575 108.330962 102.127696 108.827616 101.632119 108.940268 101.111046 109.052534 100.622329 108.913218 100.133612 108.773901 99.7034132 108.290021 99.8118087 107.794697 99.9359826 107.227272 100.614966 107.007491 101.185076 106.889417 103.809417 106.345895 106.433758 105.802373 109.058098 105.258851 109.407183 105.186553 109.79909 105.12158 110.09691 105.317084 110.53892 105.60724 110.476793 106.32289 110.111156 106.704413 109.74552 107.085936 109.198251 107.220378 108.682333 107.337654L108.682333 107.337654zM67.4819764 119.645411C68.6251784 119.71081 69.7683805 119.776209 70.9115824 119.841608 70.6437617 118.644998 70.962826 117.331793 71.7501477 116.390241 72.2171969 118.399647 72.5181349 120.44744 72.6489052 122.506012 72.6687987 122.819171 72.6707134 123.172286 72.4511332 123.396991 72.2315527 123.621696 71.7288009 123.510732 71.7566154 123.198174 71.8494026 122.15552 70.7788236 121.348378 69.7457734 121.16416 68.7127231 120.979942 67.6429786 121.18936 66.604826 121.036317 66.4135179 121.008115 66.2120875 120.961433 66.0763976 120.823993 65.7960572 120.540037 65.9726405 120.018891 66.3144747 119.812576 66.6563087 119.60626 67.0830887 119.622592 67.4819764 119.645411zM118.40772 117.625392C117.970551 117.451979 117.527837 117.933428 117.455977 118.397193 117.384118 118.860958 117.516086 119.341766 117.41941 119.801022 117.322734 120.260279 116.812655 120.69745 116.408978 120.45643 116.245131 118.714883 116.194179 116.962778 116.256543 115.214686 116.280473 114.54391 116.462388 113.700118 117.122385 113.569221 117.629131 113.681159 117.404605 114.429774 117.371098 114.946394 117.294994 116.119754 118.774057 116.702329 119.949168 116.795554 121.124277 116.888779 122.584839 117.041758 122.996431 118.143571 121.457022 118.380421 119.85508 118.199523 118.40772 117.625392z"/>
  </g>
</svg>
