<svg xmlns="http://www.w3.org/2000/svg" width="432" height="59" viewBox="0 0 432 59">
  <path d="M899.990447,615.033183 C903.538629,613.849374 907.612054,613.409416 910.890893,615.207996 C913.609535,616.699283 915.40545,619.610536 915.867823,622.673278 C916.330195,625.736021 915.547017,628.909383 914.026022,631.608796 C912.582113,634.1714 910.435769,636.513074 910.140534,639.438627 C909.97976,641.03178 910.399141,642.641924 910.231207,644.23434 C910.063273,645.826756 908.974379,647.550905 907.370843,647.555656 C906.842336,647.557221 906.717391,648.318486 906.894915,648.815568 C907.072439,649.312649 907.368099,649.882365 907.078536,650.32385 C906.856197,650.662843 906.396527,650.732326 905.992469,650.769977 C903.005146,651.048342 899.861409,651.302733 897.124602,650.075003 C894.387795,648.847273 892.318933,645.585987 893.479749,642.823349 C894.435623,640.548453 893.602947,637.920639 892.432225,635.748178 C891.261504,633.575718 889.73496,631.529827 889.201756,629.120943 C888.500759,625.954015 889.687583,622.561128 891.814715,620.110043 C893.941848,617.658959 896.909789,616.061008 899.990447,615.033183 Z M914.110618,626.350414 C914.509651,622.940537 913.464182,619.124388 910.6138,617.204787 C907.863053,615.352286 904.18696,615.685435 901.003162,616.617765 C898.384992,617.384459 895.819129,618.540537 893.851502,620.42798 C891.883874,622.315422 890.579678,625.019516 890.838528,627.731707 C891.022335,629.657614 891.952181,631.425113 892.919857,633.101156 C893.852444,634.716424 895.050392,636.453648 896.888247,636.782825 C896.482292,634.184447 896.342413,631.544696 896.471495,628.918049 C896.534756,627.630787 896.863947,626.076741 898.089254,625.671772 C898.593834,625.505007 899.142708,625.585168 899.667849,625.667016 C901.413066,625.939025 903.158283,626.211033 904.903499,626.483042 C905.456589,626.569246 906.071203,626.692192 906.39146,627.150652 C906.642452,627.509957 906.641766,627.981452 906.628717,628.419339 C906.535221,631.55685 906.296536,634.690043 905.913681,637.805575 C910.338133,635.69155 913.54134,631.215092 914.110618,626.350414 Z M902.534151,627.813246 C902.063588,627.433319 901.429845,628.103046 901.329061,628.698869 C901.228276,629.294691 901.222371,630.040303 900.680382,630.309062 C900.202742,630.545912 899.593897,630.172372 899.421989,629.668277 C899.25008,629.164183 899.406348,628.605928 899.640377,628.127422 C899.911962,627.572127 898.945828,627.098219 898.466912,627.489627 C897.987996,627.881036 897.962832,628.591374 897.986769,629.208889 C898.082712,631.683897 898.327249,634.153153 898.718631,636.598987 C898.77173,636.930814 898.833886,637.277235 899.039906,637.542939 C899.402477,638.010545 900.072318,638.076021 900.663941,638.102988 C901.719959,638.151123 902.775976,638.199258 903.831993,638.247394 C904.168966,638.262754 904.640937,638.142602 904.595168,637.80888 C904.265807,635.407377 904.366508,632.947699 904.891081,630.581055 C905.069343,629.77681 905.155061,628.681637 904.386426,628.382628 C904.353761,628.927772 904.304273,629.516047 903.945992,629.928663 C903.587711,630.341279 902.80252,630.405326 902.557949,629.916855 C902.227344,629.256553 903.109039,628.277403 902.534151,627.813246 Z M908.71811,645.024101 C908.923607,644.535625 908.570548,643.772881 908.069406,643.946947 C904.04907,645.343366 899.729059,645.872507 895.489922,645.487758 C895.097211,645.452115 894.957167,646.080957 895.238357,646.357013 C895.519547,646.633069 895.962353,646.63441 896.356342,646.61806 C899.571262,646.484653 902.786182,646.351245 906.001102,646.217838 C907.048085,646.174392 908.312267,645.988807 908.71811,645.024101 Z M898.507277,644.687095 C900.112655,644.569595 901.718034,644.452095 903.323412,644.334596 C903.715417,644.305905 904.233385,644.139386 904.195963,643.748681 C901.149369,643.319634 898.102775,642.890589 895.056182,642.461543 C894.755998,643.228021 895.324602,644.112813 896.073419,644.456663 C896.822236,644.800514 897.685283,644.747258 898.507277,644.687095 Z M904.083693,640.555177 C901.43314,640.472426 898.782586,640.389674 896.132033,640.306922 C895.737096,640.294592 895.185492,640.445611 895.248507,640.835118 C895.286374,641.069178 895.544212,641.190396 895.770385,641.262558 C898.158224,642.024415 900.740729,641.685909 903.223439,641.339952 C903.673935,641.277177 904.27439,640.967537 904.083694,640.555177 Z M902.399442,642.617011 C904.282985,642.99779 906.243681,642.993789 908.12565,642.605326 C908.360894,642.556769 908.615499,642.489279 908.757125,642.295533 C908.99484,641.970334 908.745845,641.475586 908.37618,641.314831 C908.006515,641.154075 907.58195,641.225801 907.185715,641.30031 C905.682043,641.583065 904.17837,641.865819 902.674697,642.148574 C902.418871,642.19668 902.142814,642.573366 902.399442,642.617011 Z M907.873845,639.926036 C908.459832,639.720113 909.098926,639.094497 908.748852,638.582057 C907.263794,638.642957 905.798404,639.12564 904.568527,639.959009 C905.63402,640.30971 906.815581,640.297923 907.873845,639.926036 Z M897.24926,639.10657 C896.848768,638.558481 896.019229,638.379833 895.428104,638.714368 C895.731336,639.313888 896.613754,639.520935 897.152644,639.119007 L897.24926,639.10657 Z M893.470434,624.225604 C893.175895,623.625084 893.66546,622.948535 894.138447,622.475187 C895.101763,621.511137 896.137223,620.618984 897.233342,619.808624 C897.609698,619.530384 898.24043,619.309585 898.45922,619.72301 C897.705972,620.912889 896.952724,622.102767 896.199476,623.292644 C895.883858,623.791214 895.544177,624.312368 895.019284,624.582892 C894.494391,624.853415 893.730244,624.755314 893.470434,624.225604 Z M895.375109,623.112162 C895.276619,622.870457 894.82407,622.970595 894.837054,623.23122 C894.814131,623.569419 895.514656,623.41618 895.352237,623.118524 L895.375109,623.112162 Z M894.071507,629.192515 C893.93725,629.371843 893.782158,629.552761 893.569147,629.622684 C893.062325,629.789052 892.604009,629.256724 892.404379,628.762692 C892.175617,628.196565 892.060908,627.553818 892.258963,626.976264 C892.457018,626.398711 893.035131,625.924779 893.642198,625.996999 C894.291805,626.074279 894.749068,626.74711 894.767701,627.400097 C894.786333,628.053085 894.463217,628.669307 894.071507,629.192515 Z M893.905361,627.932881 C894.208047,627.62736 893.626486,627.085568 893.280117,627.340662 C892.933748,627.595756 893.067197,628.202862 893.441704,628.414635 C893.601423,628.255768 893.761142,628.0969 893.92086,627.938033 L893.905361,627.932881 Z M925.526149,645.574153 C920.690187,657.72963 905.820198,664.747848 893.304714,660.980863 C880.789231,657.213878 872.274826,643.378711 874.297164,630.452077 C876.319503,617.525443 888.437799,607.02215 901.500362,606.617277 C914.562923,606.212404 927.201538,615.757261 930.648575,628.378167 C970.473493,627.00605 1010.29841,625.633932 1050.12333,624.261815 C1053.37776,624.149688 1057.37873,623.518202 1058.44248,620.436865 C1062.04047,610.014694 1072.90252,602.584902 1083.90816,603.017994 C1094.9138,603.451086 1105.15986,611.711521 1107.92968,622.384276 C1108.45003,624.389291 1111.07393,624.793864 1113.14308,624.795937 C1157.01433,624.839813 1200.88559,624.883695 1244.75684,624.927577 C1247.57921,624.9304 1251.05654,624.515086 1252.09566,621.887867 C1257.03441,609.401178 1271.88254,601.780639 1284.89175,605.055863 C1297.90095,608.331087 1307.38252,622.076921 1305.83432,635.417221 C1304.28613,648.757522 1291.90915,659.960597 1278.49644,660.162215 C1265.08373,660.363834 1252.37639,649.537824 1250.42887,636.250071 C1207.08313,636.289856 1163.73739,636.329641 1120.39165,636.369426 C1113.82417,636.375454 1105.76698,637.320342 1103.26141,643.398248 C1098.80523,654.207863 1086.19202,660.953683 1074.74017,658.652041 C1063.28831,656.350399 1054.25276,645.253523 1054.30879,633.559545 C1013.98902,635.296794 973.710742,637.999047 933.519948,641.663218 C930.401742,641.947503 926.684779,642.661869 925.526147,645.57415 Z M880.958087,623.177947 C879.584705,625.798838 878.616198,628.62777 878.087428,631.535303 C877.681049,633.769851 877.533623,636.056084 877.732191,638.318208 C878.522225,647.318455 885.300347,655.505406 894.039092,658.014491 C902.777837,660.523576 912.908993,657.191648 918.412769,649.998493 C921.094011,646.49425 922.686838,642.2815 923.778925,638.016014 C924.865808,633.770855 925.489522,629.304501 924.59871,625.014529 C922.679394,615.771473 913.374815,608.918481 903.872687,608.828156 C894.37056,608.737831 885.34497,614.806252 880.958088,623.177948 Z M1256.3322,623.964364 C1255.06144,626.549653 1254.42273,629.420546 1254.2774,632.297739 C1253.82995,641.156209 1258.42931,650.206507 1266.09191,654.670502 C1273.75451,659.134496 1284.17993,658.549628 1291.01917,652.903959 C1293.64636,650.735267 1295.70667,647.946699 1297.38909,644.984124 C1300.73481,639.092681 1302.6766,632.17328 1301.54642,625.49266 C1299.75363,614.895228 1289.05009,606.302279 1278.40665,607.778897 C1272.93389,608.538159 1268.03527,611.59261 1263.80274,615.144985 C1260.83003,617.639986 1258.04437,620.481042 1256.3322,623.964364 Z M1060.0608,642.01541 C1061.10831,645.184683 1062.73094,648.215631 1065.11676,650.566301 C1069.77909,655.159946 1077.03726,656.631269 1083.42763,655.108462 C1089.81799,653.585655 1095.33621,649.368468 1099.30198,644.171179 C1103.24856,638.999053 1105.84342,632.544003 1105.21278,626.088238 C1104.3442,617.196606 1096.97618,609.466614 1088.1669,607.599332 C1079.35762,605.732049 1069.72339,609.545952 1064.19464,616.598826 C1058.6659,623.6517 1057.25504,633.526514 1060.0608,642.01541 Z M1109.21842,633.136851 C1109.67929,633.347269 1110.20647,633.350447 1110.71475,633.349741 C1155.95872,633.286834 1201.20269,633.22393 1246.44665,633.161025 C1247.97032,633.158907 1249.89881,632.87082 1250.29296,631.426054 C1250.8449,629.402917 1247.86737,628.413925 1245.73375,628.411335 C1201.73553,628.357918 1157.73731,628.304501 1113.7391,628.251084 C1112.16366,628.249171 1110.45282,628.291454 1109.22348,629.258627 C1107.99415,630.2258 1107.78992,632.484656 1109.21842,633.13685 Z M1049.43828,631.075527 C1050.85497,631.189629 1052.3696,631.314668 1053.61195,630.620519 C1054.85429,629.926371 1055.53098,628.049623 1054.52798,627.037037 C1014.99714,628.289241 975.466306,629.541446 935.935471,630.793652 C933.225021,630.879511 930.203122,631.102023 928.371989,633.113492 C926.540855,635.124963 927.584434,639.391687 930.287133,639.16853 C959.314356,636.771798 988.341579,634.375066 1017.3688,631.978335 C1028.03937,631.097283 1038.76598,630.215957 1049.43828,631.075527 Z M1079.67241,623.425558 C1082.31304,620.223541 1085.31368,616.805084 1089.42763,616.100943 C1091.09701,615.815214 1093.00851,616.104102 1094.1083,617.380067 C1095.1226,618.556841 1095.19909,620.31179 1094.7007,621.778057 C1094.20231,623.244323 1093.21625,624.490422 1092.24798,625.704621 C1088.1688,630.8199 1084.08962,635.93518 1080.01044,641.05046 C1079.42082,641.789836 1078.53534,642.225625 1077.6799,642.637998 C1074.90335,643.976449 1072.12681,645.3149 1069.35027,646.653352 C1068.57345,647.027819 1067.38541,647.263782 1067.06304,646.470072 C1066.92867,646.139216 1067.03495,645.765747 1067.14203,645.425265 C1068.03288,642.5926 1068.92372,639.759935 1069.81457,636.927271 C1070.59056,634.459826 1072.27805,632.391943 1073.92882,630.390217 C1075.84335,628.068665 1077.75788,625.747111 1079.67241,623.425558 Z M1078.83257,638.344349 C1078.50898,638.76085 1078.24638,639.481582 1078.72743,639.703513 C1082.87971,635.356559 1086.74759,630.743299 1090.29879,625.902244 C1090.46453,625.676311 1090.63792,625.419624 1090.60165,625.1427 C1090.56758,624.882619 1090.35802,624.683992 1090.15822,624.51183 C1088.52477,623.104357 1086.68782,621.928798 1084.72091,621.032213 C1084.51677,620.939162 1084.28587,620.847592 1084.07383,620.921292 C1083.92058,620.974558 1083.80965,621.104325 1083.7065,621.228555 C1080.0678,625.611041 1076.4291,629.993526 1072.7904,634.376011 C1072.45479,634.78023 1072.12689,635.411301 1072.51646,635.764899 C1072.93334,636.143286 1073.56991,635.681216 1073.92966,635.249153 C1077.43776,631.035871 1080.94586,626.82259 1084.45395,622.609308 C1084.89026,623.161911 1084.4282,623.947865 1083.97744,624.488977 C1081.29475,627.709426 1078.61206,630.929874 1075.92937,634.150323 C1075.24736,634.969049 1074.55913,635.797166 1074.08372,636.748359 C1075.25195,637.351128 1076.42018,637.953896 1077.58841,638.556665 C1080.33053,635.032057 1083.07265,631.50745 1085.81476,627.982842 C1085.97815,627.772831 1086.15753,627.551414 1086.41292,627.471856 C1086.66831,627.392298 1087.00989,627.538174 1087.02241,627.802983 C1084.29247,631.316772 1081.56252,634.830561 1078.83257,638.344349 Z M1072.68542,637.669807 C1072.22589,637.396526 1071.45562,637.22797 1071.30501,637.737363 C1071.0824,638.490289 1070.85978,639.243215 1070.63717,639.996141 C1070.57403,640.209676 1070.51086,640.43875 1070.57915,640.650724 C1070.65351,640.881531 1070.86545,641.037417 1071.06519,641.177329 C1071.63223,641.57452 1072.19928,641.971711 1072.76632,642.368902 C1073.0135,642.542043 1073.27659,642.721156 1073.57831,642.746215 C1073.86641,642.770143 1074.14446,642.649624 1074.40793,642.531768 C1075.63556,641.982634 1076.86318,641.4335 1078.09081,640.884366 C1076.28901,639.812846 1074.48722,638.741327 1072.68542,637.669807 Z M1090.54903,622.371771 C1090.43751,621.285749 1090.32599,620.199728 1090.21447,619.113707 C1090.59986,618.940431 1090.98525,618.767156 1091.37065,618.593881 C1091.37579,619.940527 1091.76215,621.28376 1092.47434,622.431009 C1092.9281,621.748494 1093.39069,621.04567 1093.56571,620.247132 C1093.74073,619.448594 1093.56659,618.521022 1092.92443,618.007813 C1092.42021,617.60485 1091.72942,617.524097 1091.08155,617.534666 C1089.70836,617.557068 1088.34225,617.92305 1087.14498,618.589277 C1086.60836,619.420214 1086.80099,620.635043 1087.56896,621.263165 C1087.63749,620.406093 1087.70602,619.54902 1087.77455,618.691947 C1087.98711,619.515483 1088.19968,620.339018 1088.41224,621.162553 C1088.47467,621.404411 1088.54502,621.660003 1088.72856,621.83114 C1088.9121,622.002278 1089.24829,622.03715 1089.39693,621.835522 C1089.52443,622.410711 1090.09111,622.858846 1090.68583,622.854794 C1090.90752,623.130089 1091.12922,623.405383 1091.35091,623.680677 C1092.20319,622.829855 1091.59343,621.404054 1090.95105,620.388432 C1090.94132,621.066475 1090.80429,621.742522 1090.54903,622.371771 Z M1086.22808,620.188384 L1086.26123,620.262274 C1085.71778,620.404749 1085.35058,619.456879 1085.85084,619.20293 C1086.28445,619.253053 1086.51918,619.866265 1086.22808,620.188384 Z M1077.5579,636.351145 C1077.08896,636.16386 1077.31957,635.465528 1077.62166,635.064988 C1080.4005,631.380615 1083.27615,627.767397 1086.24475,624.230194 C1086.57841,623.832625 1086.96156,623.408298 1087.4794,623.335878 C1087.71744,623.602068 1087.49261,624.011438 1087.26881,624.28941 C1084.03184,628.309988 1080.79487,632.330567 1077.5579,636.351145 Z M1092.82501,619.771999 C1092.81854,620.013393 1092.81206,620.254788 1092.80559,620.496183 C1092.0708,620.338529 1091.87364,619.215214 1092.51485,618.839695 C1092.80136,619.049406 1092.92143,619.442122 1092.79773,619.764965 L1092.82501,619.771999 Z M1089.35731,619.375608 C1089.57908,620.129783 1089.53311,620.951255 1089.22839,621.679389 C1088.99842,620.777248 1088.76844,619.875106 1088.53846,618.972964 C1088.71301,618.631957 1089.25005,619.010851 1089.35731,619.375607 Z M1265,637.369718 C1265.06476,636.860571 1265.65744,636.58557 1266.13309,636.699042 C1266.60874,636.812514 1266.98187,637.189548 1267.32474,637.554866 C1268.95838,639.295472 1270.50358,641.128158 1271.95152,643.042465 C1272.68698,644.0148 1274.10172,644.146776 1275.19765,643.685266 C1276.29359,643.223756 1277.14553,642.300853 1277.96235,641.403457 C1282.46359,636.45816 1286.96483,631.512864 1291.46607,626.567568 C1292.58337,627.190925 1291.87456,628.984063 1291.04626,629.990247 C1286.19855,635.879033 1280.95257,641.403996 1275.36123,646.509406 C1274.63601,647.171598 1273.50403,647.111435 1272.65582,646.638359 C1271.80761,646.165283 1271.17805,645.360667 1270.57199,644.576766 C1268.71466,642.174416 1266.85733,639.772067 1265,637.369718 Z M1285.99442,621.325411 C1287.6055,619.783605 1289.90619,618.251085 1291.7856,619.402079 C1293.43736,620.413654 1293.39476,623.431633 1291.71519,624.390373 C1289.81133,625.477138 1288.2969,627.17893 1286.81807,628.85121 C1283.35745,632.764546 1279.89683,636.677881 1276.4362,640.591216 C1275.98402,641.102551 1275.46704,641.648162 1274.80758,641.698855 C1274.09767,641.753425 1273.48251,641.217725 1272.95209,640.714608 C1270.86469,638.734646 1268.77729,636.754685 1266.68988,634.774724 C1266.20046,634.310488 1265.66828,633.739615 1265.72166,633.04574 C1265.76884,632.432427 1266.25923,631.978011 1266.7127,631.593822 C1268.2347,630.30435 1270.40407,628.982808 1271.96171,630.223529 C1272.74677,630.848852 1273.05108,631.935234 1273.65614,632.755089 C1274.26121,633.574944 1275.59125,634.038715 1276.15119,633.183598 C1278.98964,628.848883 1282.29958,624.861377 1285.99442,621.325411 Z" transform="translate(-874 -603)"/>
</svg>
