<svg xmlns="http://www.w3.org/2000/svg" width="370" height="173" viewBox="0 0 370 173">
  <g fill="none" fill-rule="evenodd">
    <ellipse cx="185" cy="86" fill="#F9CD68" rx="99" ry="68" transform="rotate(26 185 86)"/>
    <ellipse cx="88.5" cy="87" fill="#FFF" stroke="#000" stroke-width="3" rx="42.5" ry="42"/>
    <path fill="#000" fill-rule="nonzero" d="M85.1140956,63.7109106 C89.9013247,62.1324988 95.3972153,61.5458885 99.8210464,63.9439942 C103.489055,65.9323777 105.912116,69.8140478 106.535951,73.8977043 C107.159787,77.9813609 106.103118,82.2125112 104.050982,85.8117286 C102.102851,89.2285328 99.2069893,92.3507649 98.8086568,96.2515025 C98.5917394,98.3757061 99.1575709,100.522565 98.9309936,102.645786 C98.7044163,104.769008 97.2352731,107.067873 95.0717722,107.074208 C94.3587071,107.076294 94.1901302,108.091315 94.4296468,108.75409 C94.6691631,109.416865 95.0680702,110.176486 94.6773896,110.765133 C94.3774086,111.217124 93.7572191,111.309768 93.2120617,111.359969 C89.1815466,111.731123 84.9399965,112.070311 81.247479,110.433338 C77.5549615,108.796364 74.76364,104.447982 76.3298197,100.764466 C77.6194916,97.7312702 76.4960402,94.2275181 74.9164947,91.3309046 C73.3369492,88.4342911 71.2773272,85.7064367 70.5579249,82.4945911 C69.612135,78.2720197 71.2134057,73.7481705 74.0833462,70.4800576 C76.9532866,67.2119451 80.957652,65.0813441 85.1140953,63.7109106 Z M104.165119,78.800552 C104.703497,74.2540496 103.292944,69.1658503 99.4471911,66.6063832 C95.7358654,64.1363809 90.7760567,64.5805802 86.4804561,65.8236868 C82.9480052,66.8459451 79.4861261,68.3873824 76.8313911,70.9039728 C74.1766558,73.4205629 72.4170256,77.0260211 72.7662674,80.6422766 C73.0142617,83.2101522 74.2688161,85.5668176 75.5744099,87.8015408 C76.8326621,89.955232 78.448942,92.27153 80.9285877,92.7104328 C80.3808701,89.2459293 80.1921439,85.7262615 80.3663034,82.2240651 C80.4516546,80.5077158 80.8958012,78.4356552 82.548994,77.8956958 C83.2297765,77.6733429 83.9703205,77.7802238 84.6788434,77.8893546 C87.0335012,78.2520327 89.388159,78.6147108 91.7428164,78.9773889 C92.489048,79.0923276 93.3182894,79.2562556 93.7503832,79.8675356 C94.0890232,80.346609 94.088097,80.9752688 94.0704916,81.5591183 C93.9443452,85.7424666 93.6223109,89.9200575 93.1057599,94.0740997 C99.0752594,91.2554005 103.397046,85.2867887 104.165119,78.800552 Z M88.5460764,80.7509942 C87.9111904,80.2444259 87.0561405,81.1373951 86.9201613,81.9318248 C86.7841821,82.7262545 86.7762142,83.7204045 86.0449603,84.0787494 C85.4005245,84.3945497 84.5790677,83.896496 84.3471277,83.22437 C84.1151877,82.5522436 84.3260255,81.8079036 84.6417783,81.1698961 C85.0082022,80.4295031 83.7046882,79.7976256 83.0585317,80.3195033 C82.4123753,80.841381 82.3784238,81.7884982 82.4107204,82.6118526 C82.5401674,85.9118632 82.8700985,89.2042042 83.3981534,92.4653164 C83.4697947,92.9077517 83.5536551,93.3696471 83.831619,93.7239188 C84.3208017,94.3473932 85.2245566,94.4346942 86.0227782,94.470651 C87.4475631,94.534831 88.8723479,94.5990113 90.2971328,94.6631919 C90.7517802,94.6836716 91.3885654,94.5234695 91.3268137,94.0785072 C90.8824384,90.8765028 91.0183051,87.5969313 91.7260613,84.4414065 C91.9665746,83.3690795 92.0822248,81.9088499 91.0451784,81.5101708 C91.0011064,82.23703 90.9343371,83.0213961 90.4509414,83.5715507 C89.9675461,84.1217052 88.908162,84.207101 88.5781849,83.5558061 C88.1321313,82.6754037 89.3217193,81.3698701 88.5460764,80.7509942 Z M96.8895141,103.698801 C97.1667719,103.0475 96.6904226,102.030508 96.0142785,102.262596 C90.5900154,104.124488 84.7614293,104.83001 79.0419586,104.31701 C78.5121105,104.269486 78.3231619,105.107943 78.7025453,105.476018 C79.0819287,105.844092 79.6793647,105.845879 80.2109381,105.82408 C84.5485283,105.646204 88.8861185,105.468327 93.2237088,105.290451 C94.6363055,105.232523 96.3419481,104.985076 96.8895138,103.698801 Z M83.1129926,103.24946 C85.2789793,103.092794 87.444966,102.936127 89.6109527,102.779461 C90.1398488,102.741206 90.8386939,102.519181 90.7882045,101.998241 C86.6777202,101.426179 82.5672367,100.854119 78.4567534,100.282058 C78.0517432,101.304028 78.8189078,102.48375 79.8292163,102.942218 C80.8395251,103.400685 82.0039537,103.329677 83.1129926,103.24946 Z M90.6367291,97.7402362 C87.0605855,97.6299008 83.4844419,97.5195653 79.9082981,97.4092298 C79.3754475,97.3927894 78.6312194,97.5941476 78.7162402,98.1134905 C78.76733,98.4255704 79.1152067,98.5871941 79.4203609,98.6834106 C82.6420476,99.6992206 86.1263802,99.2478789 89.4760684,98.7866033 C90.0838809,98.702903 90.8940187,98.2900496 90.63673,97.7402366 Z M88.3643264,100.489349 C90.9056146,100.997054 93.5509981,100.991719 96.0901621,100.473769 C96.4075554,100.409026 96.7510703,100.319039 96.9421528,100.06071 C97.2628799,99.6271119 96.9269341,98.9674483 96.4281799,98.7531075 C95.9294253,98.5387664 95.3565988,98.6344011 94.8219966,98.7337462 C92.793232,99.1107527 90.7644674,99.487759 88.7357028,99.8647652 C88.3905399,99.9289072 88.0180828,100.431154 88.3643264,100.489349 Z M95.7504253,96.9013819 C96.5410436,96.6268172 97.4033135,95.7926629 96.930991,95.1094094 C94.9273404,95.190609 92.9502273,95.8341862 91.2908701,96.9453448 C92.7284393,97.4129467 94.3226093,97.3972311 95.7504253,96.9013813 Z M81.4156688,95.8087602 C80.8753212,95.077975 79.7561029,94.8397771 78.9585525,95.2858237 C79.3676749,96.0851842 80.5582394,96.3612471 81.2853139,95.8253425 L81.4156688,95.8087602 Z M76.3172528,75.9674722 C75.9198577,75.1667783 76.5803823,74.264713 77.2185399,73.6335829 C78.5182514,72.3481831 79.9153006,71.1586455 81.3941911,70.0781654 C81.9019729,69.7071791 82.7529607,69.4127796 83.0481543,69.9640132 C82.031867,71.5505183 81.0155801,73.1370221 79.9992931,74.7235256 C79.5734592,75.3882854 79.1151597,76.0831579 78.4069707,76.4438557 C77.6987814,76.8045532 76.6677891,76.6737525 76.3172528,75.9674722 Z M78.8870525,74.482883 C78.754169,74.1606099 78.1435859,74.2941263 78.1611048,74.6416263 C78.1301763,75.0925587 79.0753295,74.8882405 78.8561928,74.4913654 L78.8870525,74.482883 Z M77.1282242,82.5900198 C76.9470834,82.8291233 76.7378316,83.0703484 76.4504367,83.1635783 C75.7666286,83.3854024 75.1482658,82.6756322 74.878924,82.0169232 C74.5702775,81.2620871 74.4155113,80.4050902 74.6827283,79.6350191 C74.9499453,78.8649479 75.7299385,78.2330392 76.5489979,78.329332 C77.4254506,78.4323724 78.0423931,79.3294795 78.0675327,80.2001293 C78.0926722,81.0707795 77.6567218,81.8924098 77.1282242,82.5900198 Z M76.904058,80.9105082 C77.3124447,80.503146 76.5277991,79.7807575 76.0604756,80.1208829 C75.5931518,80.4610086 75.7732023,81.2704825 76.2784901,81.552846 C76.4939836,81.3410236 76.7094767,81.1292002 76.9249698,80.9173768 L76.904058,80.9105082 Z"/>
    <ellipse cx="282.5" cy="87" fill="#FFF" stroke="#000" stroke-width="3" rx="42.5" ry="42"/>
    <path fill="#000" d="M264.285714,93.4929573 C264.373089,92.8140941 265.172739,92.4474269 265.814488,92.598723 C266.456236,92.7500192 266.959665,93.2527306 267.422264,93.7398211 C269.626379,96.0606289 271.711175,98.5042107 273.664754,101.05662 C274.657037,102.353067 276.565809,102.529035 278.044451,101.913688 C279.523094,101.298342 280.672542,100.067804 281.774596,98.871276 C287.847698,92.2775463 293.9208,85.6838182 299.993903,79.0900901 C301.501373,79.921233 300.545042,82.3120846 299.427493,83.6536633 C292.886934,91.5053779 285.809022,98.8719948 278.265149,105.679208 C277.286678,106.562131 275.759409,106.481913 274.615,105.851146 C273.470592,105.220377 272.621179,104.147556 271.803482,103.102354 C269.297559,99.8992217 266.791637,96.6960892 264.285714,93.4929573 Z M292.611521,72.1005486 C294.785202,70.0448062 297.889298,68.0014461 300.425012,69.5361049 C302.653577,70.8848719 302.596101,74.9088439 300.330012,76.1871635 C297.76132,77.6361836 295.718034,79.90524 293.722794,82.1349468 C289.053701,87.3527282 284.384606,92.570508 279.715511,97.7882878 C279.105425,98.4700676 278.407909,99.1975499 277.51817,99.2651401 C276.560354,99.3379002 275.730373,98.6236336 275.014728,97.9528109 C272.198391,95.3128618 269.382053,92.6729133 266.565716,90.0329647 C265.905378,89.4139845 265.187362,88.65282 265.259383,87.7276536 C265.323042,86.9099025 265.984681,86.3040143 266.596505,85.7917621 C268.649998,84.0724665 271.576915,82.3104103 273.678503,83.964705 C274.737702,84.7984691 275.14828,86.2469782 275.964638,87.3401186 C276.780995,88.433259 278.57549,89.0516195 279.330973,87.9114634 C283.160621,82.1318444 287.62642,76.8151691 292.611521,72.1005486 Z"/>
    <ellipse cx="185.5" cy="87" fill="#FFF" stroke="#000" stroke-width="3" rx="42.5" ry="42"/>
    <path fill="#000" fill-rule="nonzero" d="M184.383415,76.2340773 C187.946166,71.9647208 191.994641,67.4067788 197.545217,66.4679243 C199.797557,66.0869519 202.376563,66.4721362 203.860409,68.1734229 C205.228905,69.7424553 205.33211,72.0823866 204.659675,74.0374087 C203.98724,75.9924308 202.65684,77.6538966 201.350454,79.2728276 C195.846795,86.0932006 190.343136,92.9135734 184.839478,99.7339462 C184.043965,100.719781 182.849273,101.300833 181.695102,101.850664 C177.948971,103.635265 174.20284,105.419867 170.456708,107.204469 C169.408627,107.703759 167.805714,108.018376 167.370773,106.960096 C167.189469,106.518955 167.332866,106.020996 167.477337,105.567019 C168.679276,101.790133 169.881214,98.0132472 171.083153,94.2363609 C172.130123,90.9464346 174.406893,88.1892567 176.634129,85.5202898 C179.217225,82.4248861 181.80032,79.3294818 184.383415,76.2340775 Z M183.250298,96.1257991 C182.813709,96.6811332 182.459405,97.64211 183.108438,97.9380177 C188.710717,92.1420788 193.92929,85.9910659 198.720595,79.5363258 C198.944207,79.2350814 199.178149,78.8928324 199.129208,78.5236004 C199.083242,78.1768249 198.800507,77.911989 198.530931,77.6824394 C196.327073,75.8058093 193.848647,74.2383967 191.194876,73.0429512 C190.919457,72.9188833 190.607921,72.7967898 190.321832,72.8950558 C190.115063,72.9660772 189.965401,73.1390994 189.826235,73.30474 C184.916878,79.148054 180.007521,84.9913675 175.098164,90.8346813 C174.645349,91.3736403 174.202953,92.2150679 174.728563,92.6865324 C175.29102,93.1910485 176.149884,92.5749551 176.635259,91.99887 C181.368406,86.3811616 186.101553,80.7634529 190.834699,75.1457445 C191.423367,75.8825478 190.799946,76.9304861 190.191783,77.6519694 C186.57228,81.945901 182.952778,86.2398326 179.333275,90.5337641 C178.413099,91.6253985 177.484537,92.7295544 176.843119,93.997812 C178.419302,94.8015036 179.995484,95.605195 181.571666,96.4088864 C185.271348,91.7094096 188.971031,87.0099328 192.670713,82.3104558 C192.891156,82.0304412 193.133177,81.7352192 193.477751,81.6291419 C193.822325,81.5230646 194.28318,81.7175652 194.300083,82.0706442 C190.616821,86.7556962 186.93356,91.4407477 183.250298,96.1257991 Z M174.956519,95.2264096 C174.336517,94.8620348 173.297267,94.637293 173.094062,95.3164844 C172.79371,96.3203858 172.493358,97.3242867 172.193006,98.3281879 C172.107823,98.6129012 172.022595,98.918333 172.114731,99.2009657 C172.215052,99.5087077 172.501003,99.7165555 172.770497,99.9031051 C173.535554,100.432693 174.30061,100.962282 175.065666,101.49187 C175.399163,101.722724 175.754127,101.961542 176.161206,101.994954 C176.549913,102.026857 176.925063,101.866165 177.280544,101.709024 C178.936863,100.976845 180.593182,100.244667 182.249501,99.5124881 C179.818507,98.0837952 177.387513,96.6551023 174.956519,95.2264096 Z M199.05822,74.8290278 C198.907755,73.3809993 198.75729,71.9329708 198.606825,70.4849421 C199.126798,70.2539083 199.646771,70.0228746 200.166745,69.7918408 C200.173681,71.5873689 200.694964,73.3783461 201.655861,74.9080117 C202.268073,73.9979914 202.892205,73.0608927 203.128341,71.9961756 C203.364478,70.9314582 203.129528,69.6946966 202.263114,69.0104174 C201.582822,68.4731335 200.650807,68.3654621 199.776693,68.3795543 C197.923976,68.4094235 196.080812,68.8973996 194.465449,69.785702 C193.741439,70.8936192 194.001334,72.5133904 195.037488,73.3508871 C195.129949,72.2081237 195.22241,71.0653603 195.314871,69.9225966 C195.601662,71.0206434 195.888454,72.1186902 196.175245,73.216737 C196.259471,73.5392143 196.354395,73.8800039 196.602028,74.1081873 C196.849661,74.336371 197.303244,74.3828671 197.503792,74.1140293 C197.675824,74.8809477 198.44039,75.4784613 199.242781,75.4730592 C199.541894,75.840118 199.841007,76.2071772 200.14012,76.5742363 C201.290016,75.4398065 200.467326,73.538738 199.600625,72.184576 C199.587498,73.0886333 199.402613,73.9900292 199.05822,74.8290278 Z M193.228359,71.917845 L193.273089,72.0163656 C192.539862,72.2063325 192.044431,70.9425051 192.719391,70.6039061 C193.30441,70.6707373 193.621122,71.4883538 193.228359,71.917845 Z M181.530505,93.4681934 C180.897802,93.2184805 181.20894,92.287371 181.616529,91.7533177 C185.365749,86.8408201 189.245596,82.0231962 193.250855,77.3069247 C193.701031,76.7768332 194.217982,76.2110646 194.916652,76.1145038 C195.237817,76.4694244 194.93447,77.0152513 194.632525,77.3858803 C190.265184,82.7466512 185.897845,88.1074223 181.530505,93.4681934 Z M202.128978,71.362665 C202.120247,71.6845246 202.111516,72.0063844 202.102784,72.3282443 C201.111397,72.1180383 200.845386,70.6202852 201.710514,70.1195929 C202.097075,70.3992085 202.259066,70.9228297 202.09218,71.3532864 L202.128978,71.362665 Z M197.450342,70.8341438 C197.749553,71.8397102 197.687531,72.935007 197.276405,73.9058524 C196.966117,72.7029968 196.65583,71.5001413 196.345543,70.2972854 C196.581049,69.8426095 197.305628,70.3478014 197.450343,70.834143 Z"/>
  </g>
</svg>
