<svg xmlns="http://www.w3.org/2000/svg" width="370" height="230" viewBox="0 0 370 230">
  <g fill="none" fill-rule="evenodd">
    <path fill="#FFF" d="M206.33076,198.57244 C99.6684708,195.317748 127.96188,17.2857416 233.53757,42.4326005 C339.113259,67.5794594 268.903951,116.914843 256.996955,141.346033 C245.089959,165.777223 312.993049,201.827132 206.33076,198.57244 Z"/>
    <path fill="#000" fill-rule="nonzero" d="M174.775897,45.1606558 C189.231451,40.3934254 205.826885,38.6217039 219.185121,45.8646312 C230.261067,51.8700867 237.577761,63.5937795 239.4615,75.9275259 C241.345239,88.2612724 238.154512,101.04049 231.957866,111.911099 C226.075277,122.230771 217.330909,131.660756 216.128101,143.442038 C215.473096,149.857707 217.181685,156.341801 216.49751,162.754503 C215.813335,169.167206 211.377099,176.110401 204.844175,176.129532 C202.690998,176.135835 202.181962,179.201472 202.905208,181.203232 C203.628453,183.204992 204.832996,185.499253 203.653294,187.277126 C202.747469,188.642258 200.87474,188.922071 199.228578,189.073691 C187.058004,190.194675 174.250186,191.219116 163.100231,186.275013 C151.950276,181.330911 143.52158,168.197622 148.250828,157.072406 C152.145131,147.911336 148.752749,137.329058 143.983141,128.580502 C139.213533,119.831947 132.994282,111.593089 130.821969,101.892448 C127.966055,89.1391406 132.801264,75.4758932 141.467359,65.6053092 C150.133454,55.7347262 162.225067,49.2997352 174.775896,45.1606558 Z M232.302517,90.7354509 C233.928207,77.0037851 229.668888,61.6360478 218.056224,53.9057656 C206.849476,46.4456911 191.872799,47.7872928 178.901769,51.5418108 C168.235153,54.6293071 157.781636,59.2848645 149.765377,66.8856476 C141.749118,74.4864298 136.435724,85.375888 137.490298,96.2979569 C138.239143,104.053635 142.027406,111.171402 145.969787,117.92087 C149.769215,124.425599 154.649747,131.421445 162.137304,132.74705 C160.483412,122.283314 159.913533,111.652965 160.439426,101.075386 C160.697153,95.891547 162.038302,89.6333639 167.030296,88.0025406 C169.085992,87.3309747 171.322144,87.6537839 173.461606,87.9833886 C180.571749,89.0787744 187.681892,90.1741603 194.792034,91.2695461 C197.045361,91.6166921 199.549344,92.111799 200.854098,93.9580297 C201.876658,95.4049609 201.873861,97.3036834 201.8207,99.0670667 C201.439787,111.701909 200.46737,124.319363 198.907589,136.865693 C216.933136,128.35246 229.983238,110.325639 232.302517,90.7354509 Z M185.139133,96.6263135 C183.222026,95.0963405 180.640111,97.7933488 180.229507,100.192741 C179.818903,102.592133 179.794843,105.594735 177.586743,106.677034 C175.640799,107.630836 173.160322,106.126579 172.459954,104.096577 C171.759586,102.066574 172.396234,99.8184657 173.349683,97.8915105 C174.45614,95.6553236 170.520039,93.7468828 168.5689,95.3230944 C166.617761,96.899306 166.51524,99.759856 166.612764,102.246609 C167.003643,112.213533 167.999905,122.157292 169.594424,132.006733 C169.810753,133.343007 170.063978,134.738056 170.90332,135.808052 C172.38046,137.691113 175.109445,137.954786 177.519762,138.063385 C181.822053,138.257226 186.124345,138.451068 190.426636,138.644911 C191.799493,138.706765 193.722335,138.222911 193.535869,136.879005 C192.19403,127.208086 192.604294,117.302894 194.74144,107.772356 C195.467696,104.533639 195.816914,100.123351 192.685441,98.9192322 C192.552361,101.114543 192.350743,103.483541 190.891078,105.145156 C189.431414,106.806772 186.232489,107.06469 185.236088,105.097604 C183.889181,102.43855 187.48127,98.4954861 185.139133,96.6263135 Z M210.333043,165.934892 C211.170253,163.967787 209.731864,160.896197 207.690174,161.597165 C191.311027,167.220583 173.710983,169.351449 156.440424,167.802052 C154.84049,167.658516 154.26994,170.190882 155.415529,171.302567 C156.561118,172.414251 158.36514,172.419649 159.970284,172.35381 C173.068105,171.816576 186.165927,171.27934 199.263748,170.742105 C203.529236,170.567147 208.679608,169.81979 210.333042,165.934892 Z M168.73335,164.57776 C175.273781,164.104586 181.814211,163.631411 188.354642,163.158237 C189.9517,163.042697 192.061938,162.372121 191.90948,160.798742 C179.49743,159.07096 167.085381,157.343183 154.673334,155.615404 C153.450362,158.702029 155.766898,162.265111 158.817633,163.649807 C161.86837,165.034502 165.384488,164.820037 168.73335,164.57776 Z M191.452084,147.938416 C180.653533,147.605173 169.854982,147.27193 159.056429,146.938687 C157.44743,146.889033 155.200153,147.497189 155.456882,149.065745 C155.611153,150.008311 156.661604,150.496458 157.583051,150.787058 C167.311281,153.855078 177.832599,152.491904 187.947344,151.098728 C189.782699,150.84593 192.228998,149.599001 191.452087,147.938417 Z M184.590319,156.241479 C192.264013,157.774886 200.252034,157.758773 207.919313,156.194422 C208.877716,155.998881 209.914996,155.727097 210.491991,154.946876 C211.460461,153.637291 210.446036,151.644928 208.939994,150.997561 C207.433951,150.350193 205.704239,150.639036 204.08995,150.939085 C197.963877,152.077746 191.837803,153.216407 185.71173,154.355068 C184.669474,154.548794 183.544799,156.065717 184.590319,156.241479 Z M206.893441,145.404849 C209.280798,144.57559 211.884515,142.056218 210.458286,139.992608 C204.408048,140.237853 198.437941,142.18163 193.427333,145.537629 C197.768229,146.949913 202.581997,146.902448 206.893441,145.404847 Z M163.608098,142.104837 C161.97646,139.897668 158.59686,139.178246 156.18857,140.525427 C157.42396,142.939712 161.018997,143.773496 163.214477,142.15492 L163.608098,142.104837 Z M148.369043,81.9811603 C147.150983,79.5719229 149.175564,76.8576654 151.131587,74.9586345 C155.115347,71.0909476 159.397457,67.5117041 163.93042,64.2606076 C165.486827,63.1443333 168.095199,62.2585037 169,63.917131 C165.884967,68.6908247 162.769935,73.4645145 159.654903,78.2382034 C158.349675,80.2384239 156.944937,82.3292513 154.774259,83.4145683 C152.603581,84.4998843 149.443475,84.1063131 148.369043,81.9811603 Z M156.245763,77.5141252 C155.83846,76.5444257 153.966956,76.9461681 154.020653,77.9917735 C153.925854,79.3486006 156.822853,78.7338202 156.151174,77.5396479 L156.245763,77.5141252 Z M151.06383,102.111699 C150.498229,102.845832 149.844852,103.586479 148.947478,103.872728 C146.812327,104.553807 144.881525,102.374559 144.040521,100.352088 C143.07679,98.0344718 142.593542,95.4031856 143.427912,93.0387924 C144.262281,90.6743993 146.697765,88.7342141 149.25523,89.0298674 C151.991903,89.3462382 153.91827,92.1006769 153.996766,94.7738826 C154.075263,97.4470892 152.714033,99.9697874 151.06383,102.111699 Z M150.363885,96.9549991 C151.639048,95.7042519 149.189038,93.4862615 147.729848,94.5305678 C146.270656,95.5748751 146.832853,98.0602488 148.410585,98.9272054 C149.083451,98.276835 149.756316,97.6264616 150.42918,96.9760883 L150.363885,96.9549991 Z"/>
  </g>
</svg>
