<svg xmlns="http://www.w3.org/2000/svg">
  <symbol id="icon-twitter" viewBox="0 0 16 16" width="16" height="16">
    <path d="M14.115 3.213a3.501 3.501 0 0 0 1.443-1.954 6.293 6.293 0 0 1-2.085.857C12.876 1.43 12.022 1 11.077 1 9.265 1 7.796 2.582 7.796 4.534c0 .277.027.547.083.805-2.727-.148-5.145-1.553-6.765-3.693A3.735 3.735 0 0 0 .67 3.424c0 1.225.579 2.307 1.46 2.942a3.118 3.118 0 0 1-1.488-.442v.044c0 1.712 1.131 3.141 2.635 3.465a2.998 2.998 0 0 1-.866.124c-.212 0-.418-.021-.617-.063.417 1.404 1.63 2.427 3.066 2.454-1.124.949-2.54 1.513-4.077 1.513-.265 0-.527-.015-.783-.048A8.823 8.823 0 0 0 5.032 15c6.038 0 9.339-5.385 9.339-10.056 0-.153-.002-.306-.009-.457A6.954 6.954 0 0 0 16 2.657a6.194 6.194 0 0 1-1.885.556z" fill="#00" fill-rule="evenodd"/>
  </symbol>
  <symbol id="icon-github" viewBox="0 0 16 16" width="16" height="16">
    <path d="M0 8.203c0 3.624 2.292 6.698 5.471 7.783.4.075.546-.178.546-.395 0-.195-.007-.71-.01-1.395-2.226.495-2.695-1.1-2.695-1.1-.364-.948-.889-1.2-.889-1.2-.726-.509.055-.498.055-.498.803.057 1.225.845 1.225.845.715 1.253 1.873.891 2.329.681.073-.53.28-.891.508-1.096-1.777-.207-3.644-.91-3.644-4.054 0-.896.311-1.628.823-2.202-.082-.207-.356-1.041.079-2.17 0 0 .672-.221 2.2.84A7.487 7.487 0 0 1 8 3.967a7.5 7.5 0 0 1 2.003.275c1.527-1.061 2.198-.84 2.198-.84.436 1.129.162 1.963.08 2.17.513.574.822 1.306.822 2.202 0 3.15-1.87 3.844-3.652 4.048.287.253.542.753.542 1.518 0 1.097-.01 1.982-.01 2.25 0 .22.145.475.55.395C13.71 14.898 16 11.826 16 8.203 16 3.673 12.418 0 8 0S0 3.672 0 8.203z" fill="#000" fill-rule="evenodd"/>
  </symbol>
  <symbol id="icon-medium" viewBox="0 0 16 16" width="16" height="16">
    <path d="M1.897 4.652a.642.642 0 0 0-.201-.535L.202 2.275V2H4.84l3.586 8.048L11.578 2H16v.275L14.723 3.53a.387.387 0 0 0-.142.366v9.21c-.023.14.032.28.142.366l1.247 1.254V15H9.696v-.275l1.292-1.284c.127-.13.127-.168.127-.367V5.63l-3.593 9.34h-.486L2.853 5.63v6.26a.876.876 0 0 0 .232.718l1.68 2.086v.275H0v-.275l1.68-2.086c.18-.19.26-.457.217-.719V4.652z" fill="#000" fill-rule="nonzero"/>
  </symbol>
  <symbol id="icon-linkedin" viewBox="0 0 16 16" width="16" height="16">
    <path d="M.404 5.13h3.118V16H.404V5.13zm1.48-1.359H1.86C.73 3.771 0 2.941 0 1.888 0 .814.754 0 1.905 0c1.15 0 1.858.812 1.88 1.885 0 1.052-.73 1.886-1.902 1.886zM16 16h-3.536v-5.625c0-1.472-.553-2.476-1.77-2.476-.93 0-1.448.677-1.688 1.331-.09.234-.077.56-.077.889V16H5.426s.045-9.964 0-10.87H8.93v1.706c.207-.746 1.327-1.81 3.113-1.81C14.26 5.026 16 6.59 16 9.956V16z" fill="#000" fill-rule="evenodd"/>
  </symbol>
  <symbol id="icon-blip" viewBox="0 0 16 16" width="16" height="16">
    <path d="M9.333 11.92l5.253-5.253-5.253-5.253-5.252 5.253 5.252 5.252zM2.667 6.666L9.333 0 16 6.667l-6.667 6.666-6.666-6.666zm-1.253 6l1.92 1.919 1.918-1.92-1.919-1.918-1.919 1.919zm-1.414 0l3.333-3.334 3.334 3.334L3.333 16 0 12.667z" fill="#000" fill-rule="nonzero"/>
  </symbol>
  <symbol id="icon-next" viewBox="0 0 10 14" width="10" height="14">
    <path d="M0 4.005L3.337 1 10 7l-6.663 6L0 9.995 3.326 7z" stroke="#000" fill="none" fill-rule="evenodd"/>
  </symbol>
  <symbol id="icon-prev" viewBox="0 0 10 14" width="10" height="14">
    <path d="M10 9.995L6.663 13 0 7l6.663-6L10 4.005 6.674 7z" stroke="#000" fill="none" fill-rule="evenodd"/>
  </symbol>
</svg>
