<?xml version="1.0" encoding="UTF-8"?>
<svg width="400px" height="400px" viewBox="0 0 400 400" version="1.1" xmlns="http://www.w3.org/2000/svg" xmlns:xlink="http://www.w3.org/1999/xlink">
    <!-- Generator: Sketch 52.6 (67491) - http://www.bohemiancoding.com/sketch -->
    <title>roo-med white</title>
    <desc>Created with Sketch.</desc>
    <g id="roo-med-white" stroke="none" stroke-width="1" fill="none" fill-rule="evenodd" stroke-opacity="0.1">
        <path d="M352.651753,279.333656 L338.858859,293.126549 L352.651753,306.919443 L366.444646,293.126549 L352.651753,279.333656 Z" id="Rectangle" stroke="#FFFFFF" transform="translate(352.651753, 293.126549) rotate(-19.000000) translate(-352.651753, -293.126549) "></path>
        <path d="M304.005755,275.103321 L292.212862,286.896214 L304.005755,298.689107 L315.798648,286.896214 L304.005755,275.103321 Z" id="Rectangle" stroke="#FFFFFF" transform="translate(304.005755, 286.896214) rotate(-232.000000) translate(-304.005755, -286.896214) "></path>
        <path d="M317.983674,246.48803 L305.190781,259.280923 L317.983674,272.073816 L330.776567,259.280923 L317.983674,246.48803 Z" id="Rectangle" stroke="#FFFFFF" transform="translate(317.983674, 259.280923) rotate(-316.000000) translate(-317.983674, -259.280923) "></path>
        <path d="M295.087508,103.725747 L284.294615,114.51864 L295.087508,125.311534 L305.880401,114.51864 L295.087508,103.725747 Z" id="Rectangle" stroke="#FFFFFF" transform="translate(295.087508, 114.518640) rotate(-38.000000) translate(-295.087508, -114.518640) "></path>
        <path d="M218.513468,146.980268 L203.720575,161.773161 L218.513468,176.566055 L233.306361,161.773161 L218.513468,146.980268 Z" id="Rectangle" stroke="#FFFFFF" transform="translate(218.513468, 161.773161) rotate(-113.000000) translate(-218.513468, -161.773161) "></path>
        <path d="M247.636095,78.0418468 L234.343201,91.33474 L247.636095,104.627633 L260.928988,91.33474 L247.636095,78.0418468 Z" id="Rectangle" stroke="#FFFFFF" transform="translate(247.636095, 91.334740) rotate(-233.000000) translate(-247.636095, -91.334740) "></path>
        <path d="M168.136344,376.403642 L157.34345,387.196535 L168.136344,397.989428 L178.929237,387.196535 L168.136344,376.403642 Z" id="Rectangle" stroke="#FFFFFF" transform="translate(168.136344, 387.196535) rotate(-21.000000) translate(-168.136344, -387.196535) "></path>
        <path d="M165.18435,293.889872 L149.891457,309.182766 L165.18435,324.475659 L180.477243,309.182766 L165.18435,293.889872 Z" id="Rectangle" stroke="#FFFFFF" transform="translate(165.184350, 309.182766) rotate(-341.000000) translate(-165.184350, -309.182766) "></path>
        <path d="M166.532761,221.22594 L156.739868,231.018834 L166.532761,240.811727 L176.325654,231.018834 L166.532761,221.22594 Z" id="Rectangle" stroke="#FFFFFF" transform="translate(166.532761, 231.018834) rotate(-278.000000) translate(-166.532761, -231.018834) "></path>
        <path d="M166.190978,177.385396 L155.398085,188.178289 L166.190978,198.971182 L176.983871,188.178289 L166.190978,177.385396 Z" id="Rectangle" stroke="#FFFFFF" transform="translate(166.190978, 188.178289) rotate(-321.000000) translate(-166.190978, -188.178289) "></path>
        <path d="M189.556837,18.9643904 L174.263944,34.2572836 L189.556837,49.5501768 L204.849731,34.2572836 L189.556837,18.9643904 Z" id="Rectangle" stroke="#FFFFFF" transform="translate(189.556837, 34.257284) rotate(-241.000000) translate(-189.556837, -34.257284) "></path>
        <path d="M122.656298,276.140819 L108.863404,289.933713 L122.656298,303.726606 L136.449191,289.933713 L122.656298,276.140819 Z" id="Rectangle" stroke="#FFFFFF" transform="translate(122.656298, 289.933713) rotate(-50.000000) translate(-122.656298, -289.933713) "></path>
        <path d="M104.036075,90.2895354 L93.243182,101.082429 L104.036075,111.875322 L114.828968,101.082429 L104.036075,90.2895354 Z" id="Rectangle" stroke="#FFFFFF" transform="translate(104.036075, 101.082429) rotate(-152.000000) translate(-104.036075, -101.082429) "></path>
        <path d="M92.7911345,20.3057542 L77.9982413,35.0986474 L92.7911345,49.8915406 L107.584028,35.0986474 L92.7911345,20.3057542 Z" id="Rectangle" stroke="#FFFFFF" transform="translate(92.791135, 35.098647) rotate(-247.000000) translate(-92.791135, -35.098647) "></path>
        <path d="M33.2365757,281.317044 L20.4436825,294.109938 L33.2365757,306.902831 L46.029469,294.109938 L33.2365757,281.317044 Z" id="Rectangle" stroke="#FFFFFF" transform="translate(33.236576, 294.109938) rotate(-88.000000) translate(-33.236576, -294.109938) "></path>
        <path d="M58.7112591,243.966258 L42.9183658,259.759151 L58.7112591,275.552044 L74.5041523,259.759151 L58.7112591,243.966258 Z" id="Rectangle" stroke="#FFFFFF" transform="translate(58.711259, 259.759151) rotate(-246.000000) translate(-58.711259, -259.759151) "></path>
        <path d="M52.820627,168.974618 L43.5277338,178.267512 L52.820627,187.560405 L62.1135202,178.267512 L52.820627,168.974618 Z" id="Rectangle" stroke="#FFFFFF" transform="translate(52.820627, 178.267512) rotate(-325.000000) translate(-52.820627, -178.267512) "></path>
        <polygon id="Combined-Shape" stroke="#FFFFFF" transform="translate(382.306818, 376.662886) rotate(-108.000000) translate(-382.306818, -376.662886) " points="388.545977 367.162886 394.806818 373.503539 382.306818 386.162886 369.806818 373.503539 376.067659 367.162886 382.306818 373.48158"></polygon>
        <polygon id="Combined-Shape" stroke="#FFFFFF" transform="translate(371.471133, 249.063717) rotate(-238.000000) translate(-371.471133, -249.063717) " points="376.712027 241.563717 381.971133 246.569496 371.471133 256.563717 360.971133 246.569496 366.23024 241.563717 371.471133 246.55216"></polygon>
        <polygon id="Combined-Shape" stroke="#FFFFFF" transform="translate(358.543079, 147.831255) rotate(-202.000000) translate(-358.543079, -147.831255) " points="366.279636 136.331255 374.043079 144.006782 358.543079 159.331255 343.043079 144.006782 350.806522 136.331255 358.543079 143.9802"></polygon>
        <polygon id="Combined-Shape" stroke="#FFFFFF" transform="translate(385.050177, 110.444829) rotate(-83.000000) translate(-385.050177, -110.444829) " points="391.538902 100.444829 398.050177 107.119201 385.050177 120.444829 372.050177 107.119201 378.561452 100.444829 385.050177 107.096086"></polygon>
        <polygon id="Combined-Shape" stroke="#FFFFFF" transform="translate(353.504829, 19.198450) rotate(-258.000000) translate(-353.504829, -19.198450) " points="358.995289 11.1984501 364.504829 16.5379473 353.504829 27.1984501 342.504829 16.5379473 348.014369 11.1984501 353.504829 16.5194555"></polygon>
        <polygon id="Combined-Shape" stroke="#FFFFFF" transform="translate(323.649349, 364.390255) rotate(-52.000000) translate(-323.649349, -364.390255) " points="331.635472 352.390255 339.649349 360.399501 323.649349 376.390255 307.649349 360.399501 315.663225 352.390255 323.649349 360.371764"></polygon>
        <polygon id="Combined-Shape" stroke="#FFFFFF" transform="translate(308.625811, 144.929193) rotate(-223.000000) translate(-308.625811, -144.929193) " points="315.613669 134.429193 322.625811 141.437283 308.625811 155.429193 294.625811 141.437283 301.637953 134.429193 308.625811 141.413013"></polygon>
        <polygon id="Combined-Shape" stroke="#FFFFFF" transform="translate(307.072280, 46.989496) rotate(-322.000000) translate(-307.072280, -46.989496) " points="312.313173 38.9894959 317.57228 44.3289932 307.07228 54.9894959 296.57228 44.3289932 301.831387 38.9894959 307.07228 44.3105014"></polygon>
        <polygon id="Combined-Shape" stroke="#FFFFFF" transform="translate(248.657203, 341.580332) rotate(-52.000000) translate(-248.657203, -341.580332) " points="253.898097 334.080332 259.157203 339.08611 248.657203 349.080332 238.157203 339.08611 243.41631 334.080332 248.657203 339.068774"></polygon>
        <polygon id="Combined-Shape" stroke="#FFFFFF" transform="translate(245.814585, 290.800225) rotate(-248.000000) translate(-245.814585, -290.800225) " points="250.805912 283.300225 255.814585 288.306004 245.814585 298.300225 235.814585 288.306004 240.823258 283.300225 245.814585 288.288668"></polygon>
        <polygon id="Combined-Shape" stroke="#FFFFFF" transform="translate(256.017400, 253.743359) rotate(-257.000000) translate(-256.017400, -253.743359) " points="262.256558 244.743359 268.5174 250.750294 256.0174 262.743359 243.5174 250.750294 249.778241 244.743359 256.0174 250.72949"></polygon>
        <polygon id="Combined-Shape" stroke="#FFFFFF" transform="translate(235.952967, 53.908729) rotate(-72.000000) translate(-235.952967, -53.908729) " points="242.940824 43.4087295 249.952967 50.4168196 235.952967 64.4087295 221.952967 50.4168196 228.965109 43.4087295 235.952967 50.3925492"></polygon>
        <polygon id="Combined-Shape" stroke="#FFFFFF" transform="translate(156.281333, 86.020030) rotate(-269.000000) translate(-156.281333, -86.020030) " points="163.768324 75.0200297 171.281333 82.3618385 156.281333 97.0200297 141.281333 82.3618385 148.794343 75.0200297 156.281333 82.3364123"></polygon>
        <polygon id="Combined-Shape" stroke="#FFFFFF" transform="translate(118.445982, 346.493700) rotate(-143.000000) translate(-118.445982, -346.493700) " points="124.685141 337.4937 130.945982 343.500635 118.445982 355.4937 105.945982 343.500635 112.206823 337.4937 118.445982 343.479831"></polygon>
        <polygon id="Combined-Shape" stroke="#FFFFFF" transform="translate(114.263688, 222.773023) rotate(-337.000000) translate(-114.263688, -222.773023) " points="122.000245 211.273023 129.763688 218.94855 114.263688 234.273023 98.7636882 218.94855 106.527131 211.273023 114.263688 218.921968"></polygon>
        <polygon id="Combined-Shape" stroke="#FFFFFF" transform="translate(103.672066, 147.257405) rotate(-192.000000) translate(-103.672066, -147.257405) " points="110.659924 136.757405 117.672066 143.765495 103.672066 157.757405 89.6720662 143.765495 96.6842084 136.757405 103.672066 143.741224"></polygon>
        <polygon id="Combined-Shape" stroke="#FFFFFF" transform="translate(41.271751, 362.609638) rotate(-17.000000) translate(-41.271751, -362.609638) " points="47.5109097 353.109638 53.771751 359.450291 41.271751 372.109638 28.771751 359.450291 35.0325923 353.109638 41.271751 359.428332"></polygon>
        <polygon id="Combined-Shape" stroke="#FFFFFF" transform="translate(19.551401, 111.589968) rotate(-91.000000) translate(-19.551401, -111.589968) " points="27.2879581 100.089968 35.0514013 107.765495 19.5514013 123.089968 4.05140126 107.765495 11.8148445 100.089968 19.5514013 107.738913"></polygon>
        <polygon id="Combined-Shape" stroke="#FFFFFF" transform="translate(26.707249, 52.258678) rotate(-200.000000) translate(-26.707249, -52.258678) " points="34.4438054 40.7586785 42.2072486 48.4342058 26.7072486 63.7586785 11.2072486 48.4342058 18.9706918 40.7586785 26.7072486 48.4076239"></polygon>
    </g>
</svg>